<svg width="20" height="21" viewBox="0 0 20 21" fill="none" xmlns="http://www.w3.org/2000/svg">
<path d="M4.72683 5.32478L3.11279 3.49003L4.26567 1.19657L6.80202 1.42592L8.18548 3.03133L8.41605 6.01282L6.34086 6.01282L4.72683 5.32478Z" stroke="#FB5555" stroke-width="1.3"/>
<path d="M14.802 5.55415L16.416 3.7194L15.2631 1.42594L12.7268 1.65529L11.3433 3.2607L11.1128 6.24219L13.1879 6.24219L14.802 5.55415Z" stroke="#FB5555" stroke-width="1.3"/>
<path d="M7.72433 8.76488L7.72433 19.7734L12.3359 19.7734L12.3359 8.76488M7.72433 8.76488V6.47144L12.3359 6.47144V8.76488M7.72433 8.76488L2.19049 8.76488V17.6495L4.28573 19.7734H17.8697V8.76488L12.3359 8.76488M7.72433 8.76488H1.26819V6.47144H18.792V8.76488H12.3359" stroke="#FB5555" stroke-width="1.3"/>
<path d="M9.60016 6.70172L8.38304 6.00088L8.33199 4.51691L9.52142 3.83387L10.981 4.05502L11.4422 4.84949L11.0202 6.41595L9.60016 6.70172Z" stroke="#FB5555" stroke-width="1.3"/>
</svg>
