<svg width="589" height="308" viewBox="0 0 589 308" fill="none" xmlns="http://www.w3.org/2000/svg">
<g opacity="0.2">
<path d="M60.0055 74.9727C60.813 76.372 62.6299 76.8591 64.0287 76.0512C65.4274 75.2433 65.9142 73.4256 65.1067 72.0263C64.2991 70.627 62.4822 70.1399 61.0835 70.9478C59.7022 71.6908 59.2153 73.5085 60.0055 74.9727Z" fill="white"/>
<path d="M82.8841 78.8796C83.3709 77.0619 82.2784 75.1687 80.4615 74.6817L78.7094 74.212L81.5891 72.5487L78.1689 66.6223L69.8242 71.5519L68.0191 68.424L76.5759 63.4817L73.1557 57.5552L69.8646 59.4561L70.4384 57.3139C70.9253 55.4962 69.8327 53.603 68.0158 53.1159C66.1989 52.6289 64.3065 53.7219 63.8197 55.5396L63.3502 57.2924L61.7351 54.4938L55.8112 57.9154L60.4792 66.1941L57.2704 68.0475L52.3301 59.4871L46.4061 62.9087L48.2587 66.1189L46.312 65.597C44.4951 65.11 42.6027 66.203 42.1159 68.0207C41.6291 69.8384 42.7216 71.7316 44.5385 72.2186L46.2906 72.6883L43.4109 74.3516L46.8311 80.278L55.2708 75.513L57.1535 78.8704L48.679 83.7653L52.0992 89.6917L55.1435 87.9334L54.674 89.6861C54.1872 91.5038 55.2797 93.397 57.0966 93.8841C58.9135 94.3711 60.8059 93.2781 61.2928 91.4604L61.7622 89.7076L63.5198 92.7532L69.4438 89.3315L64.5684 80.7885L67.7946 78.8702L72.6873 87.3483L78.6113 83.9267L76.7587 80.7165L78.7054 81.2383C80.5049 81.7903 82.3973 80.6973 82.8841 78.8796ZM75.8036 83.2436L73.4176 84.6218L68.4773 76.0613L61.7781 80.0405L66.6234 88.4363L64.2373 89.8145L61.0547 84.2996L59.3333 90.7264C59.1421 91.4405 58.3842 91.9331 57.6055 91.7244C56.8268 91.5157 56.3993 90.7748 56.608 89.9958L58.3293 83.569L52.8167 86.753L51.4392 84.366L59.9137 79.4711L56.1181 72.6091L47.6784 77.3741L46.3008 74.9871L51.6488 71.8981L45.2247 70.1761C44.5109 69.9847 44.0185 69.2265 44.2272 68.4475C44.4358 67.6685 45.1763 67.2408 45.955 67.4495L52.5737 69.2238L49.296 63.5442L51.6821 62.1661L56.6224 70.7265L63.2868 66.8772L58.6188 58.5985L61.0048 57.2203L64.045 62.4883L65.7664 56.0614C65.9576 55.3474 66.7155 54.8547 67.4942 55.0635C68.2728 55.2722 68.7004 56.013 68.4917 56.792L66.6487 63.6733L72.4081 60.3467L73.7856 62.7337L65.2937 67.6935L68.7614 73.7022L69.7348 73.9632L77.5511 69.4485L78.9287 71.8355L73.5807 74.9245L80.0047 76.6466C80.7185 76.8379 81.211 77.5961 81.0023 78.3751C80.7937 79.1542 80.0532 79.5818 79.2745 79.3731L72.6557 77.5989L75.8036 83.2436Z" fill="white"/>
</g>
<g opacity="0.05">
<path d="M528.475 220.61C529.792 221.564 531.662 221.265 532.616 219.948C533.569 218.63 533.269 216.76 531.952 215.806C530.635 214.852 528.765 215.151 527.812 216.468C526.848 217.719 527.148 219.589 528.475 220.61Z" fill="white"/>
<path d="M551.105 214.798C550.805 212.928 549.023 211.637 547.153 211.936L545.35 212.225L547.313 209.513L541.735 205.472L536.092 213.431L533.148 211.299L538.98 203.241L533.402 199.2L531.159 202.3L530.806 200.095C530.506 198.225 528.724 196.934 526.855 197.233C524.985 197.532 523.695 199.314 523.995 201.185L524.284 202.988L521.649 201.08L517.612 206.659L525.303 212.348L523.116 215.37L515.059 209.534L511.021 215.112L514.043 217.301L512.039 217.621C510.169 217.92 508.88 219.702 509.179 221.573C509.479 223.443 511.261 224.734 513.131 224.435L514.934 224.146L512.971 226.858L518.549 230.899L524.347 223.052L527.456 225.363L521.68 233.344L527.259 237.384L529.333 234.518L529.622 236.321C529.922 238.192 531.704 239.482 533.574 239.183C535.443 238.884 536.733 237.102 536.434 235.232L536.145 233.428L539.011 235.505L543.049 229.926L535.058 224.079L537.235 220.99L545.215 226.771L549.252 221.192L546.231 219.003L548.234 218.683C550.114 218.451 551.404 216.669 551.105 214.798ZM546.392 221.718L544.765 223.965L536.708 218.129L532.187 224.538L540.089 230.262L538.463 232.509L533.272 228.749L534.331 235.362C534.449 236.097 533.955 236.861 533.154 236.99C532.352 237.118 531.655 236.613 531.527 235.811L530.468 229.198L526.71 234.389L524.464 232.762L530.24 224.781L523.932 220.035L518.134 227.882L515.888 226.255L519.533 221.218L512.922 222.276C512.187 222.393 511.423 221.899 511.295 221.097C511.166 220.296 511.671 219.598 512.472 219.47L519.284 218.381L513.938 214.509L515.564 212.262L523.622 218.098L528.164 211.822L520.472 206.133L522.099 203.886L527.057 207.477L525.998 200.864C525.88 200.129 526.374 199.365 527.176 199.237C527.977 199.109 528.674 199.614 528.803 200.416L529.937 207.496L533.862 202.073L536.109 203.7L530.344 211.748L535.999 215.844L537.001 215.684L542.328 208.323L544.575 209.951L540.93 214.987L547.541 213.93C548.276 213.812 549.04 214.306 549.168 215.108C549.297 215.91 548.792 216.607 547.991 216.735L541.179 217.825L546.392 221.718Z" fill="white"/>
</g>
<g opacity="0.2">
<path d="M520.54 101.762C520.818 102.717 521.833 103.273 522.787 102.994C523.742 102.715 524.298 101.699 524.019 100.745C523.74 99.7907 522.725 99.2345 521.771 99.5134C520.837 99.756 520.281 100.772 520.54 101.762Z" fill="white"/>
<path d="M533.647 107.435C534.203 106.42 533.826 105.129 532.811 104.573L531.832 104.036L533.796 103.462L532.616 99.4201L526.909 101.15L526.286 99.0165L532.122 97.3102L530.942 93.2684L528.697 93.9246L529.353 92.7277C529.909 91.712 529.532 90.4209 528.517 89.8647C527.502 89.3085 526.211 89.6858 525.655 90.7014L525.119 91.6807L524.561 89.7721L520.521 90.9533L522.104 96.5834L519.915 97.2233L518.21 91.3851L514.17 92.5663L514.809 94.7556L513.721 94.1597C512.706 93.6035 511.416 93.9808 510.859 94.9964C510.303 96.012 510.68 97.3032 511.695 97.8594L512.674 98.3958L510.71 98.97L511.89 103.012L517.631 101.395L518.266 103.676L512.486 105.366L513.666 109.408L515.742 108.801L515.206 109.78C514.65 110.796 515.027 112.087 516.042 112.643C517.057 113.199 518.348 112.822 518.904 111.807L519.44 110.827L520.047 112.904L524.087 111.723L522.419 105.905L524.628 105.228L526.316 111.011L530.356 109.829L529.717 107.64L530.805 108.236C531.8 108.828 533.091 108.451 533.647 107.435ZM528.777 109.011L527.15 109.487L525.445 103.649L520.86 105.05L522.532 110.776L520.904 111.252L519.806 107.491L517.84 111.082C517.621 111.481 517.096 111.665 516.661 111.426C516.226 111.188 516.079 110.683 516.317 110.248L518.284 106.657L514.524 107.756L514.048 106.128L519.829 104.438L518.561 99.7822L512.82 101.399L512.345 99.7715L515.993 98.7051L512.403 96.7384C512.005 96.5199 511.821 95.9948 512.059 95.5596C512.298 95.1243 512.803 94.9766 513.238 95.215L516.936 97.2413L515.805 93.3678L517.432 92.8921L519.137 98.7303L523.682 97.4014L522.1 91.7713L523.727 91.2955L524.776 94.8883L526.743 91.2974C526.961 90.8984 527.486 90.7144 527.921 90.9528C528.356 91.1912 528.504 91.6964 528.265 92.1317L526.16 95.9765L530.088 94.828L530.563 96.456L524.763 98.1821L525.959 102.28L526.503 102.578L531.835 101.019L532.31 102.647L528.662 103.714L532.251 105.681C532.65 105.899 532.834 106.424 532.595 106.859C532.357 107.295 531.852 107.442 531.417 107.204L527.719 105.178L528.777 109.011Z" fill="white"/>
</g>
<g opacity="0.2">
<path d="M285.54 281.762C285.818 282.717 286.833 283.273 287.787 282.994C288.741 282.715 289.298 281.699 289.019 280.745C288.74 279.791 287.725 279.234 286.771 279.513C285.837 279.756 285.281 280.772 285.54 281.762Z" fill="white"/>
<path d="M298.647 287.435C299.203 286.42 298.826 285.129 297.811 284.573L296.832 284.036L298.796 283.462L297.616 279.42L291.908 281.15L291.286 279.016L297.122 277.31L295.942 273.268L293.697 273.925L294.353 272.728C294.909 271.712 294.532 270.421 293.517 269.865C292.502 269.308 291.211 269.686 290.655 270.701L290.118 271.681L289.561 269.772L285.521 270.953L287.103 276.583L284.915 277.223L283.21 271.385L279.17 272.566L279.809 274.756L278.721 274.16C277.706 273.603 276.415 273.981 275.859 274.996C275.303 276.012 275.68 277.303 276.695 277.859L277.674 278.396L275.71 278.97L276.89 283.012L282.63 281.395L283.266 283.676L277.486 285.366L278.666 289.408L280.742 288.801L280.206 289.78C279.65 290.796 280.027 292.087 281.042 292.643C282.057 293.199 283.348 292.822 283.904 291.807L284.44 290.827L285.047 292.904L289.087 291.723L287.419 285.905L289.627 285.228L291.316 291.011L295.356 289.829L294.717 287.64L295.805 288.236C296.8 288.828 298.09 288.451 298.647 287.435ZM293.777 289.011L292.15 289.487L290.445 283.649L285.86 285.05L287.532 290.776L285.904 291.252L284.806 287.491L282.84 291.082C282.621 291.481 282.096 291.665 281.661 291.426C281.226 291.188 281.078 290.683 281.317 290.248L283.283 286.657L279.524 287.756L279.048 286.128L284.828 284.438L283.561 279.782L277.82 281.399L277.345 279.772L280.992 278.705L277.403 276.738C277.005 276.52 276.821 275.995 277.059 275.56C277.298 275.124 277.803 274.977 278.238 275.215L281.936 277.241L280.805 273.368L282.432 272.892L284.137 278.73L288.682 277.401L287.099 271.771L288.727 271.295L289.776 274.888L291.742 271.297C291.961 270.898 292.486 270.714 292.921 270.953C293.356 271.191 293.503 271.696 293.265 272.132L291.159 275.976L295.088 274.828L295.563 276.456L289.763 278.182L290.959 282.28L291.503 282.578L296.834 281.019L297.31 282.647L293.662 283.714L297.251 285.681C297.65 285.899 297.834 286.424 297.595 286.859C297.357 287.295 296.852 287.442 296.417 287.204L292.719 285.178L293.777 289.011Z" fill="white"/>
</g>
<g opacity="0.2">
<path d="M383.477 32.4234C384.315 32.7539 385.277 32.3363 385.607 31.4987C385.937 30.6611 385.519 29.6991 384.681 29.3686C383.843 29.0381 382.882 29.4558 382.552 30.2934C382.207 31.0966 382.625 32.0586 383.477 32.4234Z" fill="white"/>
<path d="M394.815 26.1933C394.397 25.2314 393.263 24.7842 392.302 25.2019L391.374 25.6046L392.054 23.8801L388.506 22.4805L386.575 27.5255L384.703 26.7868L386.722 21.6626L383.174 20.263L382.398 22.2338L381.905 21.1001C381.487 20.1381 380.354 19.691 379.392 20.1086C378.43 20.5263 377.984 21.6595 378.402 22.6214L378.805 23.549L377.129 22.8881L375.731 26.4356L380.639 28.4288L379.882 30.3504L374.757 28.3286L373.359 31.8761L375.281 32.6343L374.251 33.0817C373.289 33.4994 372.842 34.6326 373.26 35.5945C373.678 36.5565 374.812 37.0036 375.773 36.586L376.701 36.1832L376.021 37.9077L379.569 39.3074L381.599 34.3012L383.585 35.1132L381.585 40.1881L385.132 41.5877L385.851 39.7647L386.254 40.6923C386.672 41.6543 387.805 42.1014 388.767 41.6838C389.728 41.2661 390.175 40.1329 389.757 39.1709L389.354 38.2434L391.177 38.9626L392.575 35.4151L387.485 33.3785L388.227 31.4226L393.303 33.4249L394.701 29.8774L392.779 29.1192L393.809 28.6718C394.786 28.2885 395.233 27.1553 394.815 26.1933ZM393.239 30.5531L392.676 31.9819L387.551 29.9602L386.008 34.0198L391.034 36.0027L390.471 37.4316L387.17 36.1291L388.648 39.5303C388.812 39.9082 388.652 40.386 388.24 40.5649C387.828 40.7439 387.384 40.569 387.205 40.1567L385.727 36.7555L384.426 40.0567L382.997 39.4929L384.997 34.418L380.961 32.7403L378.931 37.7465L377.502 37.1827L378.765 33.9801L375.364 35.4568C374.987 35.6208 374.509 35.4608 374.33 35.0485C374.15 34.6363 374.325 34.1928 374.737 34.0138L378.241 32.4925L374.841 31.1511L375.404 29.7223L380.528 31.744L382.101 27.7531L377.193 25.7598L377.756 24.331L380.91 25.5751L379.432 22.174C379.268 21.7961 379.428 21.3183 379.84 21.1393C380.252 20.9603 380.695 21.1353 380.875 21.5475L382.457 25.1892L383.816 21.7402L385.245 22.304L383.26 27.4132L386.857 28.8323L387.372 28.6086L389.217 23.9279L390.646 24.4917L389.384 27.6942L392.784 26.2176C393.162 26.0536 393.64 26.2136 393.819 26.6259C393.998 27.0381 393.823 27.4816 393.411 27.6605L389.908 29.1819L393.239 30.5531Z" fill="white"/>
</g>
<g opacity="0.2">
<path d="M333.251 54.1774C333.938 54.4485 334.726 54.106 334.997 53.4189C335.268 52.7319 334.925 51.9429 334.238 51.6719C333.551 51.4008 332.762 51.7433 332.491 52.4304C332.208 53.0892 332.551 53.8782 333.251 54.1774Z" fill="white"/>
<path d="M342.55 49.0674C342.207 48.2784 341.277 47.9117 340.489 48.2542L339.728 48.5846L340.285 47.1701L337.375 46.0221L335.791 50.1601L334.256 49.5542L335.912 45.3513L333.002 44.2033L332.365 45.8198L331.961 44.8899C331.618 44.1009 330.689 43.7341 329.9 44.0767C329.111 44.4192 328.745 45.3487 329.088 46.1377L329.418 46.8985L328.044 46.3564L326.897 49.2661L330.923 50.901L330.302 52.4771L326.099 50.8188L324.952 53.7285L326.528 54.3504L325.683 54.7174C324.894 55.0599 324.528 55.9894 324.871 56.7784C325.213 57.5674 326.143 57.9342 326.932 57.5916L327.692 57.2613L327.135 58.6757L330.045 59.8238L331.71 55.7176L333.339 56.3836L331.698 60.5461L334.608 61.6941L335.197 60.1989L335.528 60.9597C335.871 61.7487 336.8 62.1154 337.589 61.7729C338.378 61.4303 338.744 60.5009 338.401 59.7119L338.071 58.951L339.566 59.541L340.713 56.6313L336.538 54.9608L337.147 53.3565L341.31 54.9988L342.456 52.0891L340.88 51.4673L341.725 51.1003C342.526 50.7859 342.893 49.8564 342.55 49.0674ZM341.257 52.6434L340.795 53.8153L336.592 52.1571L335.327 55.4868L339.449 57.1132L338.987 58.2852L336.279 57.2169L337.491 60.0066C337.626 60.3165 337.495 60.7084 337.157 60.8552C336.819 61.002 336.455 60.8585 336.308 60.5204L335.096 57.7307L334.029 60.4383L332.857 59.9759L334.497 55.8134L331.187 54.4374L329.522 58.5435L328.35 58.0811L329.385 55.4543L326.596 56.6654C326.286 56.8 325.895 56.6687 325.748 56.3306C325.601 55.9924 325.744 55.6287 326.082 55.4819L328.956 54.2341L326.167 53.1339L326.629 51.9619L330.832 53.6202L332.122 50.3468L328.096 48.7119L328.558 47.5399L331.145 48.5604L329.933 45.7707C329.798 45.4607 329.929 45.0689 330.267 44.922C330.605 44.7752 330.969 44.9187 331.116 45.2569L332.414 48.2438L333.529 45.415L334.701 45.8774L333.072 50.068L336.023 51.232L336.445 51.0485L337.958 47.2093L339.13 47.6717L338.095 50.2985L340.884 49.0874C341.194 48.9528 341.586 49.0841 341.733 49.4222C341.88 49.7604 341.736 50.1241 341.398 50.2709L338.525 51.5187L341.257 52.6434Z" fill="white"/>
</g>
<g opacity="0.2">
<path d="M72.5989 181.233C73.5917 181.714 74.8053 181.293 75.2863 180.301C75.7672 179.308 75.3457 178.094 74.353 177.612C73.3602 177.131 72.1466 177.552 71.6656 178.545C71.1696 179.494 71.5911 180.708 72.5989 181.233Z" fill="white"/>
<path d="M87.0281 174.672C86.6066 173.458 85.2634 172.807 84.0498 173.228L82.8795 173.634L83.8697 171.59L79.665 169.551L76.8377 175.536L74.6185 174.46L77.5608 168.387L73.3561 166.348L72.2245 168.684L71.7277 167.253C71.3062 166.039 69.9631 165.388 68.7494 165.809C67.5358 166.23 66.8851 167.573 67.3066 168.787L67.713 169.958L65.7275 168.995L63.6905 173.199L69.502 176.089L68.3987 178.367L62.3252 175.422L60.2883 179.626L62.5658 180.731L61.2655 181.182C60.0518 181.603 59.4011 182.946 59.8226 184.16C60.2441 185.374 61.5873 186.025 62.8009 185.604L63.9712 185.198L62.981 187.242L67.1857 189.281L70.1298 183.353L72.4808 184.529L69.5668 190.544L73.7715 192.583L74.8183 190.422L75.2247 191.593C75.6462 192.807 76.9894 193.458 78.203 193.037C79.4167 192.616 80.0674 191.273 79.6459 190.059L79.2394 188.888L81.4002 189.936L83.4371 185.732L77.4071 182.771L78.4954 180.451L84.5104 183.367L86.5474 179.163L84.2698 178.058L85.5702 177.607C86.7989 177.23 87.4496 175.886 87.0281 174.672ZM84.6986 179.853L83.8781 181.546L77.8047 178.601L75.5432 183.418L81.4999 186.307L80.6794 188L76.7667 186.103L78.257 190.395C78.4226 190.872 78.183 191.441 77.6629 191.621C77.1428 191.802 76.6172 191.547 76.4365 191.027L74.9462 186.734L73.0507 190.647L71.3572 189.826L74.2712 183.811L69.4958 181.387L66.5516 187.315L64.8581 186.494L66.697 182.698L62.4059 184.187C61.9291 184.352 61.3602 184.112 61.1795 183.592C60.9989 183.072 61.2535 182.546 61.7736 182.366L66.1948 180.832L62.1653 178.878L62.9858 177.184L69.0592 180.13L71.3508 175.399L65.5393 172.509L66.3597 170.816L70.0972 172.628L68.6069 168.336C68.4413 167.859 68.6809 167.29 69.201 167.109C69.7212 166.929 70.2467 167.184 70.4274 167.704L72.0231 172.3L74.0034 168.212L75.697 169.033L72.798 175.092L77.0611 177.159L77.7113 176.933L80.399 171.386L82.0925 172.207L80.2536 176.003L84.5447 174.514C85.0215 174.348 85.5905 174.588 85.7711 175.109C85.9517 175.629 85.6971 176.154 85.177 176.335L80.7558 177.869L84.6986 179.853Z" fill="white"/>
</g>
<g opacity="0.5">
<path d="M567.345 138.934C568.019 139.26 568.843 138.975 569.169 138.301C569.495 137.627 569.209 136.804 568.536 136.477C567.862 136.15 567.038 136.436 566.712 137.11C566.375 137.754 566.661 138.578 567.345 138.934Z" fill="white"/>
<path d="M577.137 134.482C576.851 133.658 575.939 133.216 575.116 133.502L574.321 133.777L574.993 132.391L572.14 131.007L570.222 135.068L568.716 134.338L570.712 130.217L567.859 128.833L567.091 130.418L566.754 129.447C566.468 128.623 565.557 128.181 564.733 128.467C563.91 128.753 563.468 129.664 563.754 130.488L564.03 131.283L562.683 130.629L561.3 133.482L565.244 135.444L564.495 136.989L560.374 134.99L558.992 137.844L560.537 138.593L559.655 138.899C558.831 139.185 558.39 140.096 558.676 140.92C558.962 141.744 559.873 142.186 560.697 141.9L561.491 141.625L560.819 143.011L563.672 144.395L565.67 140.372L567.265 141.17L565.288 145.252L568.141 146.636L568.851 145.169L569.127 145.964C569.413 146.788 570.325 147.23 571.148 146.944C571.972 146.658 572.413 145.747 572.127 144.923L571.851 144.128L573.318 144.839L574.7 141.986L570.608 139.978L571.346 138.403L575.428 140.382L576.81 137.529L575.265 136.78L576.147 136.473C576.981 136.217 577.423 135.306 577.137 134.482ZM575.556 137.997L574.999 139.146L570.878 137.148L569.343 140.416L573.385 142.377L572.829 143.526L570.173 142.238L571.185 145.151C571.297 145.475 571.135 145.861 570.782 145.983C570.429 146.106 570.072 145.933 569.949 145.58L568.938 142.667L567.652 145.322L566.503 144.765L568.48 140.683L565.24 139.038L563.242 143.061L562.093 142.504L563.34 139.928L560.429 140.938C560.105 141.05 559.719 140.888 559.596 140.535C559.474 140.182 559.647 139.825 560 139.702L563 138.662L560.265 137.336L560.822 136.187L564.943 138.185L566.498 134.975L562.555 133.014L563.112 131.865L565.648 133.095L564.636 130.182C564.524 129.858 564.687 129.472 565.04 129.35C565.393 129.227 565.749 129.4 565.872 129.753L566.955 132.872L568.298 130.098L569.448 130.656L567.48 134.766L570.373 136.169L570.814 136.016L572.638 132.252L573.787 132.809L572.54 135.385L575.451 134.374C575.775 134.262 576.161 134.425 576.284 134.778C576.406 135.131 576.233 135.488 575.88 135.61L572.88 136.651L575.556 137.997Z" fill="white"/>
</g>
<g opacity="0.2">
<path d="M9.95267 39.7044C10.2302 40.3997 11.0312 40.7436 11.7263 40.4659C12.4214 40.1881 12.7653 39.3868 12.4877 38.6914C12.2102 37.9961 11.4092 37.6522 10.7141 37.9299C10.0313 38.179 9.6874 38.9804 9.95267 39.7044Z" fill="white"/>
<path d="M20.1866 43.0139C20.5305 42.2125 20.155 41.2717 19.354 40.9278L18.5816 40.5962L20.0127 40.0244L18.8371 37.0793L14.6829 38.7868L14.0625 37.2325L18.3148 35.5333L17.1393 32.5883L15.5038 33.2418L15.909 32.2973C16.2529 31.4959 15.8774 30.5552 15.0764 30.2113C14.2754 29.8674 13.3349 30.2431 12.9911 31.0445L12.6595 31.8173L12.1044 30.4266L9.16044 31.6029L10.7522 35.7096L9.15759 36.3468L7.45961 32.0929L4.51566 33.2692L5.1524 34.8644L4.29418 34.496C3.49317 34.1521 2.55274 34.5278 2.20888 35.3292C1.86502 36.1306 2.24053 37.0714 3.04154 37.4153L3.81395 37.7469L2.38286 38.3187L3.55838 41.2637L7.74531 39.6381L8.3861 41.3029L4.17461 42.9857L5.35014 45.9307L6.863 45.3262L6.53142 46.099C6.18756 46.9003 6.56307 47.8411 7.36408 48.185C8.16509 48.5289 9.10552 48.1531 9.44938 47.3517L9.78096 46.579L10.3851 48.0924L13.329 46.916L11.6596 42.6744L13.2665 42.0086L14.9482 46.2216L17.8922 45.0452L17.2554 43.45L18.1136 43.8185C18.9024 44.191 19.8428 43.8152 20.1866 43.0139ZM16.6497 44.5457L15.464 45.0195L13.766 40.7656L10.4295 42.1463L12.0948 46.3184L10.9091 46.7922L9.81518 44.0517L8.59939 46.8851C8.4643 47.2 8.08403 47.3756 7.74075 47.2282C7.39746 47.0808 7.25051 46.7127 7.39788 46.3693L8.61367 43.5358L5.87416 44.6305L5.40069 43.4443L9.61217 41.7615L8.32655 38.3625L4.13962 39.9881L3.66615 38.8019L6.32388 37.7399L3.49174 36.524C3.17706 36.3889 3.00151 36.0085 3.14888 35.665C3.29625 35.3216 3.66424 35.1745 4.00753 35.3219L6.92549 36.5747L5.79895 33.7524L6.9847 33.2786L8.68269 37.5325L11.9946 36.2091L10.4028 32.1025L11.5886 31.6286L12.6335 34.2464L13.8493 31.413C13.9844 31.0982 14.3647 30.9225 14.708 31.0699C15.0512 31.2173 15.1982 31.5854 15.0508 31.9288L13.7491 34.9626L16.6112 33.8189L17.0847 35.0051L12.8609 36.7166L14.0528 39.7025L14.4819 39.8867L18.3663 38.3346L18.8398 39.5208L16.182 40.5828L19.0142 41.7987C19.3288 41.9338 19.5044 42.3142 19.357 42.6577C19.2097 43.0011 18.8417 43.1482 18.4984 43.0008L15.5804 41.748L16.6497 44.5457Z" fill="white"/>
</g>
<g opacity="0.1">
<path d="M31.475 69.8071C31.8443 70.1807 32.456 70.1841 32.8294 69.8147C33.2028 69.4453 33.2061 68.8334 32.8367 68.4598C32.4673 68.0862 31.8557 68.0828 31.4823 68.4522C31.109 68.7998 31.1057 69.4117 31.475 69.8071Z" fill="white"/>
<path d="M38.9936 69.1501C38.9969 68.5382 38.4972 68.0328 37.8855 68.0293L37.2957 68.026L38.0644 67.2655L36.5001 65.6832L34.2815 67.9217L33.4559 67.0866L35.7401 64.8266L34.1757 63.2443L33.2972 64.1136L33.3011 63.3924C33.3044 62.7805 32.8047 62.275 32.193 62.2716C31.5813 62.2682 31.0762 62.768 31.0729 63.3799L31.0697 63.9699L30.3309 63.2227L28.7496 64.7874L30.9003 67.0067L30.0438 67.8542L27.7841 65.5687L26.2028 67.1333L27.0501 67.9904L26.3948 67.9867C25.7831 67.9832 25.2779 68.4831 25.2746 69.0949C25.2713 69.7068 25.771 70.2123 26.3827 70.2157L26.9725 70.219L26.2038 70.9796L27.7682 72.5619L30.0302 70.3673L30.8992 71.2682L28.6369 73.5065L30.2013 75.0888L31.0139 74.2847L31.0108 74.8748C31.0074 75.4867 31.5072 75.9921 32.1188 75.9956C32.7305 75.999 33.2357 75.4992 33.239 74.8873L33.2422 74.2973L34.0461 75.1104L35.6274 73.5458L33.3897 71.2604L34.2463 70.391L36.4843 72.6545L38.0656 71.0899L37.2183 70.2329L37.8736 70.2365C38.4852 70.2618 38.9903 69.762 38.9936 69.1501ZM37.1261 71.1065L36.4892 71.7367L34.2296 69.4512L32.4503 71.2551L34.6665 73.4966L34.0295 74.1268L32.5738 72.6544L32.5621 74.8179C32.5608 75.0583 32.363 75.2757 32.1009 75.2743C31.8388 75.2728 31.6432 75.075 31.6446 74.8128L31.6563 72.6493L30.1848 74.1053L29.5547 73.4679L31.8169 71.2297L30.0573 69.3841L27.7953 71.5786L27.1653 70.9413L28.5929 69.5288L26.4302 69.5167C26.1899 69.5153 25.9725 69.3174 25.9739 69.0552C25.9753 68.7929 26.173 68.5973 26.4351 68.5988L28.6634 68.6113L27.1642 67.095L27.8011 66.4648L30.0608 68.7503L31.8398 66.9901L29.689 64.7708L30.326 64.1406L31.7165 65.5471L31.7282 63.3836C31.7295 63.1432 31.9273 62.9257 32.1894 62.9272C32.4516 62.9287 32.6471 63.1265 32.6457 63.3887L32.6332 65.7052L34.1706 64.184L34.8007 64.8213L32.5384 67.0815L34.1245 68.6857L34.4522 68.6875L36.5387 66.6231L37.1688 67.2604L35.7412 68.6729L37.9038 68.6851C38.1441 68.6864 38.3615 68.8843 38.3601 69.1466C38.3587 69.4088 38.161 69.6044 37.8989 69.6029L35.6707 69.5904L37.1261 71.1065Z" fill="white"/>
</g>
<g opacity="0.1">
<path d="M556.713 251.568C556.95 251.807 557.342 251.809 557.582 251.572C557.821 251.335 557.824 250.943 557.587 250.703C557.349 250.463 556.957 250.461 556.717 250.698C556.478 250.921 556.476 251.314 556.713 251.568Z" fill="white"/>
<path d="M561.537 251.146C561.54 250.753 561.219 250.429 560.826 250.427L560.448 250.425L560.941 249.937L559.937 248.921L558.514 250.358L557.984 249.822L559.45 248.372L558.446 247.356L557.882 247.914L557.885 247.451C557.887 247.059 557.566 246.734 557.173 246.732C556.781 246.73 556.457 247.051 556.455 247.443L556.453 247.822L555.979 247.342L554.964 248.346L556.344 249.77L555.794 250.314L554.344 248.848L553.33 249.852L553.873 250.402L553.453 250.399C553.06 250.397 552.736 250.718 552.734 251.111C552.732 251.503 553.052 251.828 553.445 251.83L553.823 251.832L553.33 252.32L554.334 253.335L555.786 251.927L556.343 252.505L554.892 253.941L555.895 254.957L556.417 254.441L556.415 254.819C556.413 255.212 556.733 255.536 557.126 255.539C557.518 255.541 557.843 255.22 557.845 254.827L557.847 254.449L558.363 254.971L559.377 253.967L557.941 252.5L558.491 251.942L559.927 253.395L560.942 252.391L560.398 251.841L560.819 251.843C561.211 251.859 561.535 251.539 561.537 251.146ZM560.339 252.401L559.93 252.806L558.48 251.339L557.339 252.497L558.761 253.935L558.352 254.339L557.418 253.395L557.41 254.783C557.409 254.937 557.283 255.077 557.114 255.076C556.946 255.075 556.821 254.948 556.822 254.78L556.829 253.391L555.885 254.326L555.48 253.917L556.932 252.48L555.803 251.296L554.351 252.704L553.947 252.295L554.863 251.389L553.475 251.381C553.321 251.38 553.182 251.253 553.183 251.085C553.184 250.917 553.31 250.791 553.479 250.792L554.908 250.8L553.946 249.827L554.355 249.423L555.805 250.889L556.947 249.76L555.567 248.336L555.975 247.931L556.868 248.834L556.875 247.446C556.876 247.291 557.003 247.152 557.171 247.153C557.339 247.154 557.465 247.281 557.464 247.449L557.456 248.935L558.442 247.959L558.847 248.368L557.395 249.818L558.413 250.848L558.623 250.849L559.962 249.524L560.366 249.933L559.45 250.84L560.838 250.848C560.992 250.848 561.132 250.975 561.131 251.144C561.13 251.312 561.003 251.437 560.835 251.436L559.405 251.428L560.339 252.401Z" fill="white"/>
</g>
<g opacity="0.2">
<path d="M511.292 279.617C511.507 280.138 512.113 280.39 512.634 280.175C513.154 279.959 513.406 279.353 513.191 278.832C512.976 278.312 512.37 278.06 511.85 278.275C511.338 278.468 511.086 279.074 511.292 279.617Z" fill="white"/>
<path d="M519.023 282.018C519.275 281.412 518.984 280.708 518.378 280.456L517.794 280.213L518.866 279.77L517.956 277.564L514.844 278.885L514.364 277.721L517.549 276.405L516.639 274.199L515.414 274.705L515.71 273.99C515.962 273.384 515.671 272.68 515.065 272.428C514.46 272.176 513.755 272.467 513.503 273.073L513.261 273.657L512.831 272.616L510.625 273.527L511.859 276.603L510.664 277.097L509.35 273.91L507.144 274.821L507.637 276.016L506.988 275.746C506.382 275.495 505.678 275.786 505.426 276.392C505.174 276.998 505.465 277.702 506.071 277.954L506.655 278.197L505.583 278.64L506.493 280.846L509.63 279.586L510.127 280.834L506.972 282.137L507.883 284.343L509.016 283.875L508.773 284.459C508.521 285.065 508.812 285.77 509.418 286.022C510.024 286.274 510.728 285.983 510.98 285.377L511.223 284.792L511.691 285.926L513.896 285.015L512.603 281.837L513.806 281.322L515.109 284.478L517.314 283.567L516.821 282.372L517.47 282.642C518.067 282.916 518.771 282.625 519.023 282.018ZM516.374 283.202L515.486 283.569L514.171 280.382L511.672 281.45L512.962 284.576L512.074 284.943L511.227 282.89L510.336 285.033C510.237 285.271 509.953 285.407 509.693 285.299C509.433 285.191 509.32 284.915 509.427 284.655L510.318 282.512L508.266 283.36L507.899 282.471L511.054 281.168L510.057 278.621L506.92 279.881L506.553 278.992L508.544 278.17L506.402 277.28C506.164 277.181 506.028 276.896 506.136 276.636C506.244 276.376 506.52 276.263 506.78 276.37L508.987 277.288L508.114 275.174L509.002 274.807L510.317 277.993L512.798 276.969L511.565 273.892L512.453 273.525L513.262 275.486L514.152 273.343C514.251 273.105 514.536 272.969 514.796 273.077C515.055 273.185 515.169 273.461 515.061 273.721L514.108 276.015L516.252 275.13L516.619 276.018L513.455 277.343L514.378 279.58L514.702 279.715L517.612 278.513L517.979 279.401L515.988 280.224L518.13 281.114C518.368 281.213 518.503 281.498 518.396 281.758C518.288 282.017 518.012 282.131 517.752 282.023L515.545 281.106L516.374 283.202Z" fill="white"/>
</g>
<g opacity="0.1">
<path d="M576.105 198.497C576.608 199.005 577.44 199.01 577.948 198.507C578.456 198.005 578.46 197.172 577.958 196.664C577.455 196.156 576.623 196.151 576.115 196.654C575.607 197.127 575.603 197.959 576.105 198.497Z" fill="white"/>
<path d="M586.334 197.603C586.339 196.771 585.659 196.083 584.827 196.078L584.024 196.074L585.07 195.039L582.942 192.886L579.923 195.932L578.8 194.796L581.908 191.721L579.78 189.568L578.584 190.751L578.59 189.77C578.594 188.937 577.914 188.249 577.082 188.245C576.25 188.24 575.562 188.92 575.558 189.753L575.554 190.555L574.549 189.539L572.397 191.668L575.323 194.687L574.158 195.84L571.084 192.731L568.932 194.859L570.085 196.025L569.193 196.02C568.361 196.016 567.674 196.696 567.669 197.528C567.665 198.361 568.345 199.048 569.177 199.053L569.979 199.058L568.933 200.092L571.062 202.245L574.139 199.259L575.322 200.485L572.244 203.53L574.372 205.683L575.478 204.589L575.473 205.392C575.469 206.224 576.149 206.912 576.981 206.917C577.813 206.921 578.501 206.241 578.505 205.409L578.509 204.606L579.603 205.712L581.755 203.584L578.71 200.474L579.876 199.291L582.92 202.371L585.072 200.242L583.919 199.076L584.811 199.081C585.643 199.116 586.33 198.436 586.334 197.603ZM583.794 200.265L582.927 201.122L579.853 198.013L577.432 200.467L580.447 203.517L579.581 204.374L577.6 202.371L577.584 205.314C577.582 205.642 577.313 205.937 576.957 205.935C576.6 205.933 576.334 205.664 576.336 205.307L576.352 202.364L574.35 204.345L573.492 203.478L576.57 200.433L574.176 197.921L571.099 200.907L570.242 200.04L572.184 198.118L569.241 198.102C568.914 198.1 568.619 197.831 568.621 197.474C568.623 197.117 568.892 196.851 569.248 196.853L572.28 196.87L570.24 194.807L571.107 193.95L574.181 197.059L576.601 194.664L573.675 191.645L574.542 190.788L576.434 192.701L576.45 189.758C576.451 189.431 576.72 189.135 577.077 189.137C577.434 189.139 577.7 189.408 577.698 189.765L577.681 192.916L579.773 190.847L580.63 191.714L577.552 194.789L579.71 196.971L580.156 196.974L582.994 194.165L583.852 195.032L581.909 196.954L584.852 196.97C585.179 196.972 585.474 197.242 585.473 197.598C585.471 197.955 585.202 198.221 584.845 198.219L581.813 198.202L583.794 200.265Z" fill="white"/>
</g>
<g opacity="0.1">
<path d="M69.475 156.807C69.8443 157.181 70.456 157.184 70.8294 156.815C71.2028 156.445 71.2061 155.833 70.8367 155.46C70.4673 155.086 69.8557 155.083 69.4823 155.452C69.109 155.8 69.1057 156.412 69.475 156.807Z" fill="white"/>
<path d="M76.9936 156.15C76.9969 155.538 76.4972 155.033 75.8855 155.029L75.2957 155.026L76.0644 154.265L74.5001 152.683L72.2815 154.922L71.4559 154.087L73.7401 151.827L72.1757 150.244L71.2972 151.114L71.3011 150.392C71.3044 149.78 70.8047 149.275 70.193 149.272C69.5813 149.268 69.0762 149.768 69.0729 150.38L69.0697 150.97L68.3309 150.223L66.7496 151.787L68.9003 154.007L68.0438 154.854L65.7841 152.569L64.2028 154.133L65.0501 154.99L64.3948 154.987C63.7831 154.983 63.2779 155.483 63.2746 156.095C63.2713 156.707 63.771 157.212 64.3827 157.216L64.9725 157.219L64.2038 157.98L65.7682 159.562L68.0302 157.367L68.8992 158.268L66.6369 160.506L68.2013 162.089L69.0139 161.285L69.0108 161.875C69.0074 162.487 69.5072 162.992 70.1188 162.996C70.7305 162.999 71.2357 162.499 71.239 161.887L71.2422 161.297L72.0461 162.11L73.6274 160.546L71.3897 158.26L72.2463 157.391L74.4843 159.655L76.0656 158.09L75.2183 157.233L75.8736 157.237C76.4852 157.262 76.9903 156.762 76.9936 156.15ZM75.1261 158.107L74.4892 158.737L72.2296 156.451L70.4503 158.255L72.6665 160.497L72.0295 161.127L70.5738 159.654L70.5621 161.818C70.5608 162.058 70.363 162.276 70.1009 162.274C69.8388 162.273 69.6432 162.075 69.6446 161.813L69.6563 159.649L68.1848 161.105L67.5547 160.468L69.8169 158.23L68.0573 156.384L65.7953 158.579L65.1653 157.941L66.5929 156.529L64.4302 156.517C64.1899 156.515 63.9725 156.317 63.9739 156.055C63.9753 155.793 64.173 155.597 64.4351 155.599L66.6634 155.611L65.1642 154.095L65.8011 153.465L68.0608 155.75L69.8398 153.99L67.689 151.771L68.326 151.141L69.7165 152.547L69.7282 150.384C69.7295 150.143 69.9273 149.926 70.1894 149.927C70.4516 149.929 70.6471 150.126 70.6457 150.389L70.6332 152.705L72.1706 151.184L72.8007 151.821L70.5384 154.081L72.1245 155.686L72.4522 155.688L74.5387 153.623L75.1688 154.26L73.7412 155.673L75.9038 155.685C76.1441 155.686 76.3615 155.884 76.3601 156.147C76.3587 156.409 76.161 156.604 75.8989 156.603L73.6707 156.59L75.1261 158.107Z" fill="white"/>
</g>
<g opacity="0.1">
<path d="M190.303 275.473C190.837 276.014 191.722 276.019 192.262 275.484C192.802 274.95 192.807 274.065 192.272 273.525C191.738 272.984 190.854 272.979 190.313 273.514C189.774 274.016 189.769 274.901 190.303 275.473Z" fill="white"/>
<path d="M201.177 274.523C201.182 273.638 200.459 272.907 199.575 272.902L198.722 272.897L199.833 271.797L197.571 269.509L194.362 272.746L193.168 271.539L196.472 268.27L194.209 265.982L192.938 267.239L192.944 266.196C192.949 265.311 192.226 264.58 191.341 264.575C190.457 264.57 189.726 265.293 189.721 266.178L189.717 267.031L188.648 265.95L186.361 268.213L189.472 271.423L188.233 272.649L184.965 269.343L182.678 271.606L183.903 272.846L182.955 272.84C182.071 272.836 181.34 273.558 181.335 274.443C181.33 275.328 182.053 276.059 182.938 276.064L183.791 276.069L182.679 277.169L184.942 279.458L188.213 276.284L189.47 277.587L186.198 280.824L188.461 283.112L189.636 281.949L189.631 282.803C189.627 283.688 190.349 284.419 191.234 284.424C192.119 284.429 192.849 283.706 192.854 282.821L192.859 281.968L194.022 283.144L196.309 280.881L193.072 277.575L194.311 276.318L197.548 279.592L199.835 277.329L198.61 276.089L199.557 276.094C200.442 276.131 201.173 275.408 201.177 274.523ZM198.476 277.353L197.555 278.264L194.287 274.959L191.714 277.568L194.919 280.81L193.998 281.721L191.892 279.592L191.875 282.721C191.873 283.068 191.587 283.383 191.208 283.381C190.829 283.379 190.546 283.092 190.548 282.713L190.565 279.584L188.437 281.69L187.526 280.768L190.797 277.531L188.253 274.862L184.981 278.036L184.07 277.114L186.134 275.071L183.007 275.053C182.659 275.051 182.345 274.765 182.347 274.386C182.349 274.007 182.635 273.724 183.014 273.726L186.236 273.744L184.068 271.551L184.989 270.639L188.258 273.945L190.831 271.399L187.72 268.189L188.641 267.278L190.652 269.312L190.669 266.183C190.671 265.835 190.957 265.521 191.336 265.523C191.715 265.525 191.998 265.811 191.996 266.19L191.978 269.541L194.202 267.341L195.113 268.262L191.841 271.531L194.135 273.851L194.609 273.854L197.627 270.868L198.538 271.79L196.473 273.833L199.601 273.851C199.949 273.853 200.263 274.139 200.261 274.518C200.259 274.897 199.973 275.18 199.594 275.178L196.371 275.16L198.476 277.353Z" fill="white"/>
</g>
<g opacity="0.1">
<path d="M190.303 275.473C190.837 276.014 191.722 276.019 192.262 275.484C192.802 274.95 192.807 274.065 192.272 273.525C191.738 272.984 190.854 272.979 190.313 273.514C189.774 274.016 189.769 274.901 190.303 275.473Z" fill="white"/>
<path d="M201.177 274.523C201.182 273.638 200.459 272.907 199.575 272.902L198.722 272.897L199.833 271.797L197.571 269.509L194.362 272.746L193.168 271.539L196.472 268.27L194.209 265.982L192.938 267.239L192.944 266.196C192.949 265.311 192.226 264.58 191.341 264.575C190.457 264.57 189.726 265.293 189.721 266.178L189.717 267.031L188.648 265.95L186.361 268.213L189.472 271.423L188.233 272.649L184.965 269.343L182.678 271.606L183.903 272.846L182.955 272.84C182.071 272.836 181.34 273.558 181.335 274.443C181.33 275.328 182.053 276.059 182.938 276.064L183.791 276.069L182.679 277.169L184.942 279.458L188.213 276.284L189.47 277.587L186.198 280.824L188.461 283.112L189.636 281.949L189.631 282.803C189.627 283.688 190.349 284.419 191.234 284.424C192.119 284.429 192.849 283.706 192.854 282.821L192.859 281.968L194.022 283.144L196.309 280.881L193.072 277.575L194.311 276.318L197.548 279.592L199.835 277.329L198.61 276.089L199.557 276.094C200.442 276.131 201.173 275.408 201.177 274.523ZM198.476 277.353L197.555 278.264L194.287 274.959L191.714 277.568L194.919 280.81L193.998 281.721L191.892 279.592L191.875 282.721C191.873 283.068 191.587 283.383 191.208 283.381C190.829 283.379 190.546 283.092 190.548 282.713L190.565 279.584L188.437 281.69L187.526 280.768L190.797 277.531L188.253 274.862L184.981 278.036L184.07 277.114L186.134 275.071L183.007 275.053C182.659 275.051 182.345 274.765 182.347 274.386C182.349 274.007 182.635 273.724 183.014 273.726L186.236 273.744L184.068 271.551L184.989 270.639L188.258 273.945L190.831 271.399L187.72 268.189L188.641 267.278L190.652 269.312L190.669 266.183C190.671 265.835 190.957 265.521 191.336 265.523C191.715 265.525 191.998 265.811 191.996 266.19L191.978 269.541L194.202 267.341L195.113 268.262L191.841 271.531L194.135 273.851L194.609 273.854L197.627 270.868L198.538 271.79L196.473 273.833L199.601 273.851C199.949 273.853 200.263 274.139 200.261 274.518C200.259 274.897 199.973 275.18 199.594 275.178L196.371 275.16L198.476 277.353Z" fill="white"/>
</g>
<g opacity="0.2">
<path d="M226.337 202.03C227.638 203.347 229.793 203.359 231.109 202.057C232.424 200.756 232.436 198.6 231.135 197.283C229.833 195.967 227.678 195.955 226.363 197.257C225.047 198.481 225.036 200.637 226.337 202.03Z" fill="white"/>
<path d="M252.827 199.716C252.839 197.56 251.078 195.779 248.923 195.767L246.845 195.755L249.554 193.075L244.042 187.501L236.225 195.388L233.316 192.445L241.364 184.483L235.852 178.908L232.757 181.97L232.771 179.429C232.782 177.273 231.022 175.493 228.867 175.48C226.711 175.468 224.932 177.229 224.92 179.385L224.909 181.464L222.306 178.832L216.734 184.344L224.312 192.164L221.294 195.15L213.333 187.097L207.761 192.61L210.747 195.629L208.438 195.616C206.282 195.604 204.503 197.365 204.491 199.521C204.479 201.677 206.24 203.458 208.395 203.47L210.473 203.482L207.765 206.162L213.277 211.736L221.246 204.004L224.308 207.178L216.337 215.065L221.849 220.64L224.712 217.807L224.701 219.886C224.69 222.041 226.45 223.822 228.605 223.834C230.76 223.847 232.54 222.086 232.552 219.93L232.563 217.851L235.396 220.716L240.967 215.203L233.083 207.151L236.101 204.088L243.986 212.063L249.558 206.55L246.572 203.531L248.881 203.544C251.036 203.633 252.816 201.872 252.827 199.716ZM246.248 206.609L244.004 208.829L236.042 200.776L229.773 207.132L237.582 215.03L235.337 217.25L230.208 212.063L230.167 219.685C230.163 220.532 229.466 221.298 228.542 221.293C227.618 221.288 226.93 220.591 226.934 219.667L226.976 212.044L221.791 217.174L219.571 214.929L227.541 207.043L221.342 200.54L213.372 208.272L211.152 206.027L216.182 201.05L208.562 201.007C207.716 201.002 206.95 200.305 206.955 199.381C206.96 198.457 207.656 197.768 208.58 197.773L216.431 197.817L211.148 192.475L213.393 190.254L221.354 198.307L227.622 192.105L220.044 184.286L222.288 182.065L227.188 187.021L227.229 179.398C227.234 178.551 227.93 177.785 228.854 177.79C229.778 177.796 230.467 178.492 230.462 179.416L230.418 187.578L235.835 182.218L238.055 184.464L230.084 192.427L235.672 198.079L236.826 198.086L244.178 190.812L246.398 193.058L241.368 198.034L248.988 198.077C249.834 198.082 250.6 198.779 250.595 199.703C250.59 200.627 249.894 201.316 248.97 201.311L241.12 201.267L246.248 206.609Z" fill="white"/>
</g>
<g opacity="0.2">
<path d="M357.126 194.094C357.352 194.959 358.25 195.486 359.116 195.26C359.981 195.034 360.507 194.135 360.281 193.269C360.055 192.404 359.157 191.877 358.292 192.103C357.445 192.297 356.919 193.196 357.126 194.094Z" fill="white"/>
<path d="M368.767 199.535C369.294 198.636 368.988 197.465 368.089 196.938L367.223 196.431L369.004 195.965L368.047 192.3L362.869 193.708L362.364 191.773L367.657 190.389L366.701 186.724L364.665 187.256L365.285 186.196C365.812 185.297 365.506 184.127 364.607 183.6C363.709 183.074 362.538 183.38 362.012 184.279L361.504 185.146L361.052 183.415L357.388 184.373L358.666 189.477L356.681 189.996L355.299 184.701L351.635 185.659L352.153 187.645L351.19 187.081C350.292 186.554 349.121 186.86 348.595 187.759C348.068 188.658 348.374 189.829 349.272 190.356L350.139 190.863L348.358 191.329L349.314 194.994L354.519 193.688L355.032 195.757L349.79 197.127L350.747 200.793L352.63 200.3L352.122 201.167C351.596 202.066 351.901 203.237 352.8 203.764C353.698 204.29 354.869 203.984 355.395 203.085L355.903 202.218L356.395 204.102L360.059 203.144L358.709 197.868L360.713 197.317L362.082 202.561L365.746 201.603L365.228 199.617L366.19 200.181C367.07 200.74 368.241 200.434 368.767 199.535ZM364.347 200.826L362.871 201.212L361.489 195.918L357.329 197.06L358.685 202.252L357.209 202.638L356.318 199.227L354.457 202.406C354.25 202.759 353.773 202.911 353.388 202.685C353.003 202.46 352.883 202.001 353.109 201.616L354.97 198.438L351.561 199.329L351.175 197.853L356.417 196.482L355.397 192.262L350.193 193.568L349.807 192.092L353.115 191.227L349.938 189.366C349.585 189.159 349.434 188.682 349.659 188.297C349.885 187.911 350.343 187.792 350.728 188.017L354.001 189.935L353.084 186.422L354.56 186.036L355.942 191.331L360.065 190.253L358.787 185.149L360.263 184.763L361.113 188.021L362.975 184.843C363.181 184.49 363.658 184.338 364.043 184.563C364.428 184.789 364.548 185.247 364.322 185.632L362.329 189.036L365.892 188.104L366.277 189.581L361.017 190.983L361.987 194.7L362.468 194.982L367.303 193.718L367.688 195.194L364.38 196.059L367.557 197.92C367.91 198.127 368.062 198.604 367.836 198.99C367.611 199.375 367.153 199.495 366.768 199.269L363.494 197.351L364.347 200.826Z" fill="white"/>
</g>
<g opacity="0.2">
<path d="M457.403 144.371C457.629 145.236 458.527 145.763 459.392 145.537C460.258 145.31 460.784 144.411 460.558 143.546C460.332 142.68 459.434 142.154 458.568 142.38C457.722 142.574 457.196 143.473 457.403 144.371Z" fill="white"/>
<path d="M469.044 149.812C469.57 148.913 469.265 147.742 468.366 147.215L467.5 146.708L469.281 146.242L468.324 142.576L463.146 143.984L462.641 142.05L467.934 140.666L466.977 137.001L464.942 137.533L465.562 136.473C466.089 135.574 465.783 134.403 464.884 133.877C463.986 133.35 462.815 133.656 462.289 134.556L461.781 135.422L461.329 133.691L457.665 134.649L458.943 139.754L456.958 140.273L455.576 134.978L451.912 135.936L452.43 137.922L451.467 137.357C450.569 136.831 449.398 137.137 448.872 138.036C448.345 138.935 448.651 140.106 449.549 140.632L450.416 141.14L448.634 141.606L449.591 145.271L454.796 143.965L455.309 146.034L450.067 147.404L451.023 151.069L452.906 150.577L452.399 151.444C451.872 152.343 452.178 153.514 453.077 154.04C453.975 154.567 455.146 154.261 455.672 153.362L456.18 152.495L456.672 154.379L460.336 153.421L458.986 148.145L460.99 147.594L462.358 152.838L466.023 151.88L465.504 149.894L466.467 150.458C467.347 151.017 468.518 150.711 469.044 149.812ZM464.624 151.103L463.148 151.489L461.766 146.194L457.606 147.336L458.961 152.529L457.486 152.915L456.595 149.504L454.734 152.683C454.527 153.036 454.05 153.188 453.665 152.962C453.28 152.737 453.16 152.278 453.386 151.893L455.247 148.714L451.837 149.606L451.452 148.129L456.694 146.759L455.674 142.539L450.47 143.845L450.084 142.369L453.392 141.504L450.215 139.643C449.862 139.436 449.71 138.959 449.936 138.574C450.162 138.188 450.62 138.068 451.005 138.294L454.278 140.212L453.361 136.699L454.837 136.313L456.219 141.608L460.342 140.53L459.064 135.426L460.54 135.04L461.39 138.298L463.251 135.12C463.458 134.766 463.935 134.615 464.32 134.84C464.705 135.066 464.825 135.524 464.599 135.909L462.606 139.313L466.169 138.381L466.554 139.858L461.293 141.26L462.264 144.977L462.745 145.259L467.58 143.995L467.965 145.471L464.657 146.336L467.834 148.197C468.187 148.404 468.339 148.881 468.113 149.266C467.888 149.652 467.43 149.771 467.045 149.546L463.771 147.628L464.624 151.103Z" fill="white"/>
</g>
<g opacity="0.3">
<path d="M138.599 268.233C139.592 268.714 140.805 268.293 141.286 267.301C141.767 266.308 141.346 265.094 140.353 264.612C139.36 264.131 138.147 264.552 137.666 265.545C137.17 266.494 137.591 267.708 138.599 268.233Z" fill="white"/>
<path d="M153.028 261.672C152.607 260.458 151.263 259.807 150.05 260.228L148.879 260.634L149.87 258.59L145.665 256.551L142.838 262.536L140.619 261.46L143.561 255.387L139.356 253.348L138.224 255.684L137.728 254.253C137.306 253.039 135.963 252.388 134.749 252.809C133.536 253.23 132.885 254.573 133.307 255.787L133.713 256.958L131.727 255.995L129.69 260.199L135.502 263.089L134.399 265.367L128.325 262.422L126.288 266.626L128.566 267.731L127.265 268.182C126.052 268.603 125.401 269.946 125.823 271.16C126.244 272.374 127.587 273.025 128.801 272.604L129.971 272.198L128.981 274.242L133.186 276.281L136.13 270.353L138.481 271.529L135.567 277.544L139.771 279.583L140.818 277.422L141.225 278.593C141.646 279.807 142.989 280.458 144.203 280.037C145.417 279.616 146.067 278.273 145.646 277.059L145.239 275.888L147.4 276.936L149.437 272.732L143.407 269.771L144.495 267.451L150.51 270.367L152.547 266.163L150.27 265.058L151.57 264.607C152.799 264.23 153.45 262.886 153.028 261.672ZM150.699 266.853L149.878 268.546L143.805 265.601L141.543 270.418L147.5 273.307L146.679 275L142.767 273.103L144.257 277.395C144.423 277.872 144.183 278.441 143.663 278.621C143.143 278.802 142.617 278.547 142.437 278.027L140.946 273.734L139.051 277.647L137.357 276.826L140.271 270.811L135.496 268.387L132.552 274.315L130.858 273.494L132.697 269.698L128.406 271.187C127.929 271.352 127.36 271.112 127.18 270.592C126.999 270.072 127.254 269.546 127.774 269.366L132.195 267.832L128.165 265.878L128.986 264.184L135.059 267.13L137.351 262.399L131.539 259.509L132.36 257.816L136.097 259.628L134.607 255.336C134.441 254.859 134.681 254.29 135.201 254.109C135.721 253.929 136.247 254.184 136.427 254.704L138.023 259.3L140.003 255.212L141.697 256.033L138.798 262.092L143.061 264.159L143.711 263.933L146.399 258.386L148.093 259.207L146.254 263.003L150.545 261.514C151.022 261.348 151.59 261.588 151.771 262.109C151.952 262.629 151.697 263.154 151.177 263.335L146.756 264.869L150.699 266.853Z" fill="white"/>
</g>
<g opacity="0.07">
<path d="M29.0055 242.973C29.813 244.372 31.6299 244.859 33.0287 244.051C34.4274 243.243 34.9142 241.426 34.1067 240.026C33.2991 238.627 31.4822 238.14 30.0835 238.948C28.7022 239.691 28.2153 241.508 29.0055 242.973Z" fill="white"/>
<path d="M51.8841 246.88C52.3709 245.062 51.2784 243.169 49.4615 242.682L47.7094 242.212L50.5891 240.549L47.1689 234.622L38.8242 239.552L37.0191 236.424L45.5759 231.482L42.1557 225.555L38.8646 227.456L39.4384 225.314C39.9253 223.496 38.8327 221.603 37.0158 221.116C35.1989 220.629 33.3065 221.722 32.8197 223.54L32.3502 225.292L30.7351 222.494L24.8112 225.915L29.4792 234.194L26.2704 236.048L21.3301 227.487L15.4061 230.909L17.2587 234.119L15.312 233.597C13.4951 233.11 11.6027 234.203 11.1159 236.021C10.6291 237.838 11.7216 239.732 13.5385 240.219L15.2906 240.688L12.4109 242.352L15.8311 248.278L24.2708 243.513L26.1535 246.87L17.679 251.765L21.0992 257.692L24.1435 255.933L23.674 257.686C23.1872 259.504 24.2797 261.397 26.0966 261.884C27.9135 262.371 29.8059 261.278 30.2928 259.46L30.7622 257.708L32.5198 260.753L38.4438 257.332L33.5684 248.788L36.7946 246.87L41.6873 255.348L47.6113 251.927L45.7587 248.716L47.7054 249.238C49.5049 249.79 51.3973 248.697 51.8841 246.88ZM44.8036 251.244L42.4176 252.622L37.4773 244.061L30.7781 248.041L35.6234 256.436L33.2373 257.814L30.0547 252.3L28.3333 258.726C28.1421 259.44 27.3842 259.933 26.6055 259.724C25.8268 259.516 25.3993 258.775 25.608 257.996L27.3293 251.569L21.8167 254.753L20.4392 252.366L28.9137 247.471L25.1181 240.609L16.6784 245.374L15.3008 242.987L20.6488 239.898L14.2247 238.176C13.5109 237.985 13.0185 237.227 13.2272 236.448C13.4358 235.668 14.1763 235.241 14.955 235.45L21.5737 237.224L18.296 231.544L20.6821 230.166L25.6224 238.727L32.2868 234.877L27.6188 226.598L30.0048 225.22L33.045 230.488L34.7664 224.061C34.9576 223.347 35.7155 222.855 36.4942 223.063C37.2728 223.272 37.7004 224.013 37.4917 224.792L35.6487 231.673L41.4081 228.347L42.7856 230.734L34.2937 235.693L37.7614 241.702L38.7348 241.963L46.5511 237.448L47.9287 239.836L42.5807 242.925L49.0047 244.647C49.7185 244.838 50.211 245.596 50.0023 246.375C49.7937 247.154 49.0532 247.582 48.2745 247.373L41.6557 245.599L44.8036 251.244Z" fill="white"/>
</g>
<g opacity="0.4">
<path d="M369.653 274.173C369.785 274.649 370.285 274.933 370.761 274.801C371.237 274.669 371.521 274.169 371.389 273.692C371.257 273.216 370.757 272.933 370.281 273.064C369.815 273.178 369.531 273.679 369.653 274.173Z" fill="white"/>
<path d="M376.125 277.085C376.409 276.584 376.231 275.94 375.73 275.657L375.248 275.383L376.228 275.112L375.67 273.095L372.822 273.914L372.527 272.85L375.439 272.043L374.882 270.027L373.762 270.337L374.096 269.747C374.38 269.246 374.202 268.602 373.701 268.318C373.201 268.035 372.557 268.213 372.273 268.714L372 269.196L371.736 268.244L369.72 268.802L370.467 271.611L369.375 271.913L368.569 269L366.553 269.559L366.855 270.651L366.319 270.347C365.819 270.064 365.175 270.242 364.891 270.743C364.608 271.243 364.786 271.887 365.286 272.171L365.769 272.444L364.789 272.716L365.346 274.733L368.21 273.97L368.51 275.108L365.626 275.907L366.183 277.923L367.219 277.636L366.946 278.119C366.662 278.62 366.84 279.264 367.341 279.548C367.841 279.831 368.485 279.653 368.769 279.152L369.042 278.669L369.329 279.706L371.345 279.147L370.557 276.245L371.659 275.924L372.457 278.809L374.473 278.251L374.171 277.159L374.707 277.463C375.197 277.764 375.841 277.586 376.125 277.085ZM373.694 277.834L372.882 278.058L372.077 275.145L369.789 275.809L370.579 278.666L369.767 278.891L369.248 277.014L368.245 278.785C368.134 278.981 367.872 279.069 367.657 278.947C367.443 278.826 367.373 278.574 367.494 278.359L368.497 276.589L366.621 277.108L366.396 276.296L369.281 275.498L368.684 273.175L365.82 273.938L365.595 273.126L367.415 272.622L365.646 271.619C365.449 271.508 365.362 271.245 365.483 271.031C365.605 270.816 365.857 270.747 366.071 270.868L367.894 271.901L367.36 269.969L368.172 269.744L368.977 272.657L371.245 272.029L370.499 269.22L371.311 268.995L371.807 270.788L372.809 269.017C372.921 268.821 373.183 268.733 373.397 268.855C373.612 268.976 373.681 269.228 373.56 269.443L372.486 271.338L374.446 270.796L374.671 271.608L371.777 272.424L372.342 274.469L372.61 274.621L375.27 273.884L375.495 274.697L373.675 275.201L375.444 276.203C375.641 276.315 375.728 276.577 375.607 276.791C375.485 277.006 375.233 277.076 375.019 276.954L373.196 275.921L373.694 277.834Z" fill="white"/>
</g>
<g opacity="0.5">
<path d="M276.039 39.2903C276.397 39.6299 276.972 39.614 277.312 39.2551C277.651 38.8962 277.635 38.321 277.276 37.9815C276.917 37.6419 276.342 37.6578 276.003 38.0167C275.663 38.355 275.679 38.9302 276.039 39.2903Z" fill="white"/>
<path d="M283.084 38.4376C283.068 37.8624 282.583 37.403 282.008 37.4189L281.453 37.4343L282.152 36.6954L280.632 35.2573L278.617 37.4305L277.815 36.6715L279.891 34.476L278.372 33.0379L277.573 33.8823L277.554 33.2044C277.538 32.6293 277.053 32.1699 276.478 32.1858C275.903 32.2017 275.444 32.6872 275.46 33.2624L275.475 33.817L274.757 33.1379L273.32 34.6579L275.411 36.6764L274.632 37.4997L272.437 35.4224L271 36.9424L271.823 37.7214L271.207 37.7384C270.632 37.7543 270.173 38.2399 270.189 38.815C270.205 39.3902 270.691 39.8496 271.266 39.8337L271.82 39.8184L271.121 40.5572L272.641 41.9953L274.698 39.862L275.543 40.6815L273.487 42.8559L275.007 44.294L275.745 43.513L275.761 44.0676C275.777 44.6428 276.262 45.1022 276.837 45.0863C277.412 45.0704 277.872 44.5848 277.856 44.0096L277.84 43.455L278.621 44.194L280.058 42.6741L277.884 40.5962L278.662 39.7524L280.836 41.8097L282.273 40.2897L281.45 39.5107L282.066 39.4937C282.641 39.4983 283.1 39.0128 283.084 38.4376ZM281.39 40.3347L280.812 40.9469L278.616 38.8696L277.001 40.6207L279.154 42.658L278.575 43.2702L277.16 41.9319L277.217 43.9656C277.224 44.1916 277.044 44.4021 276.798 44.4089C276.552 44.4158 276.362 44.236 276.355 43.9895L276.298 41.9558L274.961 43.3702L274.348 42.791L276.405 40.6166L274.693 38.9371L272.636 41.0704L272.024 40.4911L273.321 39.119L271.288 39.1752C271.062 39.1815 270.852 39.0023 270.845 38.7558C270.838 38.5093 271.018 38.3193 271.264 38.3124L273.359 38.2545L271.902 36.8763L272.481 36.2641L274.676 38.3414L276.293 36.6314L274.203 34.6129L274.781 34.0007L276.132 35.279L276.076 33.2454C276.069 33.0194 276.248 32.8089 276.495 32.802C276.741 32.7952 276.931 32.975 276.938 33.2215L276.999 35.399L278.396 33.9212L279.008 34.5005L276.953 36.6954L278.494 38.1535L278.802 38.145L280.698 36.1395L281.31 36.7187L280.013 38.0909L282.046 38.0346C282.271 38.0284 282.482 38.2076 282.489 38.4541C282.496 38.7006 282.316 38.8906 282.07 38.8974L279.975 38.9554L281.39 40.3347Z" fill="white"/>
</g>
<path d="M176.192 88.0351C176.852 88.6597 177.91 88.6304 178.534 87.9703C179.158 87.3101 179.129 86.2521 178.469 85.6275C177.809 85.0029 176.751 85.0322 176.127 85.6923C175.501 86.3147 175.531 87.3727 176.192 88.0351Z" fill="white"/>
<path d="M189.152 86.4666C189.123 85.4085 188.23 84.5635 187.172 84.5928L186.152 84.621L187.437 83.2619L184.642 80.6165L180.935 84.6141L179.46 83.218L183.279 79.1794L180.483 76.5341L179.014 78.0874L178.98 76.8404C178.95 75.7824 178.057 74.9373 177 74.9666C175.942 74.9959 175.097 75.889 175.127 76.947L175.155 77.9673L173.835 76.7181L171.191 79.514L175.037 83.2269L173.605 84.7413L169.567 80.9203L166.924 83.7162L168.438 85.1491L167.305 85.1804C166.247 85.2097 165.402 86.1028 165.432 87.1609C165.461 88.2189 166.355 89.0639 167.412 89.0347L168.432 89.0064L167.147 90.3655L169.942 93.0109L173.727 89.0868L175.281 90.5942L171.499 94.5939L174.294 97.2393L175.653 95.8025L175.681 96.8227C175.711 97.8807 176.604 98.7258 177.661 98.6965C178.719 98.6672 179.564 97.7741 179.534 96.7161L179.506 95.6958L180.942 97.0553L183.586 94.2594L179.586 90.4373L181.017 88.885L185.016 92.6694L187.66 89.8735L186.145 88.4406L187.279 88.4092C188.337 88.4177 189.182 87.5246 189.152 86.4666ZM186.036 89.9562L184.972 91.0823L180.934 87.2613L177.961 90.4822L181.922 94.2298L180.857 95.3559L178.256 92.8943L178.36 96.6351C178.371 97.0508 178.042 97.4381 177.589 97.4506C177.136 97.4631 176.786 97.1325 176.773 96.679L176.669 92.9382L174.209 95.5399L173.083 94.4744L176.865 90.4747L173.717 87.3854L169.933 91.3095L168.807 90.244L171.193 87.7199L167.454 87.8234C167.038 87.8349 166.651 87.5053 166.639 87.0518C166.626 86.5984 166.956 86.2489 167.41 86.2364L171.263 86.1297L168.584 83.5946L169.648 82.4685L173.686 86.2895L176.661 83.1442L172.815 79.4312L173.879 78.3051L176.364 80.6565L176.26 76.9157C176.248 76.5 176.578 76.1127 177.031 76.1002C177.484 76.0877 177.834 76.4183 177.847 76.8718L177.958 80.8771L180.529 78.1589L181.655 79.2244L177.874 83.2619L180.708 85.944L181.274 85.9283L184.763 82.2392L185.889 83.3047L183.502 85.8288L187.241 85.7253C187.657 85.7138 188.044 86.0434 188.057 86.4969C188.07 86.9503 187.739 87.2998 187.286 87.3123L183.433 87.419L186.036 89.9562Z" fill="white"/>
<path opacity="0.1" d="M91.164 108.148L82.0631 108.005L74.7063 112.174L70.2938 117.843L69.6923 124.4L74.9246 132.342L79.4314 134.588L87.8126 136.495L92.0507 135.154L95.7587 132.269L99.4964 129.68L102.012 122.367L100.484 116.121L96.8549 110.529L91.164 108.148Z" fill="white"/>
<path opacity="0.2" d="M400.056 52.7061L371.137 52.2522L347.76 65.499L333.739 83.5132L331.828 104.347L348.454 129.585L362.774 136.722L389.406 142.782L402.873 138.52L414.656 129.351L426.533 121.125L434.527 97.8892L429.671 78.0401L418.139 60.2705L400.056 52.7061Z" fill="white"/>
<path opacity="0.2" d="M207.715 153.763L188.94 153.468L173.762 162.069L164.659 173.764L163.419 187.29L174.213 203.676L183.51 208.31L200.801 212.244L209.544 209.477L217.194 203.524L224.905 198.183L230.095 183.098L226.942 170.211L219.455 158.674L207.715 153.763Z" fill="white"/>
<path opacity="0.2" d="M226.1 126.869L211.213 126.635L199.179 133.454L191.961 142.728L190.977 153.453L199.536 166.446L206.908 170.12L220.618 173.239L227.55 171.045L233.616 166.325L239.73 162.09L243.845 150.129L241.346 139.911L235.409 130.763L226.1 126.869Z" fill="white"/>
<path opacity="0.1" d="M117.179 43.8628L106.201 43.6905L97.3263 48.7194L92.0035 55.5581L91.2779 63.4672L97.5896 73.0485L103.026 75.7579L113.137 78.0584L118.249 76.4406L122.722 72.9595L127.231 69.8368L130.266 61.0157L128.422 53.4804L124.044 46.7345L117.179 43.8628Z" fill="white"/>
<path opacity="0.1" d="M117.179 43.8628L106.201 43.6905L97.3263 48.7194L92.0035 55.5581L91.2779 63.4672L97.5896 73.0485L103.026 75.7579L113.137 78.0584L118.249 76.4406L122.722 72.9595L127.231 69.8368L130.266 61.0157L128.422 53.4804L124.044 46.7345L117.179 43.8628Z" fill="white"/>
<g opacity="0.7">
<path opacity="0.1" d="M327.289 74.21L275.81 73.4021L234.196 96.9831L209.237 129.051L205.835 166.137L235.431 211.065L260.924 223.769L308.332 234.557L332.305 226.97L353.279 210.647L374.421 196.005L388.652 154.642L380.009 119.308L359.48 87.6756L327.289 74.21Z" fill="white"/>
<path opacity="0.1" d="M252.759 43.123L324.564 42L382.608 74.7769L417.422 119.35L422.168 170.899L380.886 233.347L345.328 251.006L279.201 266L245.764 255.455L216.508 232.767L187.018 212.414L167.168 154.921L179.224 105.808L207.859 61.8397L252.759 43.123Z" fill="white"/>
<path opacity="0.1" d="M220.183 47.1733L296.619 26.6794L367.429 45.9888L416.573 84.1047L435.451 137.732L408.06 215.337L374.79 243.701L308.137 277.443L269.579 275.199L232.236 258.896L195.269 245.146L158.657 189.247L158.387 133.699L177.212 79.1748L220.183 47.1733Z" fill="white"/>
<path opacity="0.05" d="M233.301 18.9531L323.153 11.786L398.482 48.0421L445.657 100.889L455.726 164.858L409.013 246.129L365.887 271.028L284.257 295.055L241.529 284.577L203.068 258.603L164.5 235.564L135.036 165.386L146.207 103.109L178.557 45.923L233.301 18.9531Z" fill="white"/>
</g>
<path opacity="0.1" d="M370.285 260.305L381.263 260.478L390.138 255.449L395.461 248.61L396.186 240.701L389.874 231.12L384.438 228.41L374.327 226.11L369.215 227.728L364.742 231.209L360.233 234.331L357.198 243.152L359.042 250.688L363.42 257.434L370.285 260.305Z" fill="white"/>
<path opacity="0.2" d="M116.833 46.7338L115.444 46.712L114.322 47.3479L113.649 48.2127L113.557 49.2128L114.355 50.4244L115.043 50.767L116.321 51.0579L116.968 50.8533L117.533 50.4131L118.104 50.0183L118.487 48.9028L118.254 47.9499L117.701 47.0969L116.833 46.7338Z" fill="white"/>
<path opacity="0.2" d="M301.833 25.7338L300.444 25.712L299.322 26.3479L298.649 27.2127L298.557 28.2128L299.355 29.4244L300.043 29.767L301.321 30.0579L301.968 29.8533L302.533 29.4131L303.104 29.0183L303.487 27.9028L303.254 26.9499L302.701 26.0969L301.833 25.7338Z" fill="white"/>
<path opacity="0.2" d="M301.833 25.7338L300.444 25.712L299.322 26.3479L298.649 27.2127L298.557 28.2128L299.355 29.4244L300.043 29.767L301.321 30.0579L301.968 29.8533L302.533 29.4131L303.104 29.0183L303.487 27.9028L303.254 26.9499L302.701 26.0969L301.833 25.7338Z" fill="white"/>
<path opacity="0.2" d="M14.8326 201.734L13.4443 201.712L12.3221 202.348L11.649 203.213L11.5572 204.213L12.3554 205.424L13.0429 205.767L14.3214 206.058L14.9678 205.853L15.5335 205.413L16.1036 205.018L16.4874 203.903L16.2543 202.95L15.7007 202.097L14.8326 201.734Z" fill="white"/>
<path opacity="0.2" d="M216.392 42.1424L219.342 42.0962L221.726 43.4474L223.156 45.285L223.351 47.4102L221.655 49.9848L220.195 50.7128L217.478 51.3309L216.104 50.8962L214.902 49.9608L213.691 49.1218L212.875 46.7515L213.371 44.7267L214.547 42.9141L216.392 42.1424Z" fill="white"/>
<path opacity="0.2" d="M216.392 42.1424L219.342 42.0962L221.726 43.4474L223.156 45.285L223.351 47.4102L221.655 49.9848L220.195 50.7128L217.478 51.3309L216.104 50.8962L214.902 49.9608L213.691 49.1218L212.875 46.7515L213.371 44.7267L214.547 42.9141L216.392 42.1424Z" fill="white"/>
<path opacity="0.2" d="M24.5698 111.485L29.2719 111.411L33.0728 113.565L35.3526 116.494L35.6634 119.882L32.9601 123.985L30.6316 125.146L26.3013 126.131L24.1117 125.438L22.1959 123.947L20.2648 122.61L18.9649 118.832L19.7544 115.604L21.6295 112.715L24.5698 111.485Z" fill="white"/>
<path opacity="0.1" d="M38.8264 143.332L41.0077 143.297L42.7709 144.297L43.8285 145.655L43.9727 147.227L42.7186 149.13L41.6384 149.669L39.6296 150.126L38.6139 149.804L37.7251 149.113L36.8293 148.492L36.2263 146.74L36.5925 145.243L37.4624 143.902L38.8264 143.332Z" fill="white"/>
<path opacity="0.2" d="M283.073 264.026L280.123 264.072L277.738 262.721L276.308 260.883L276.113 258.758L277.809 256.183L279.27 255.455L281.986 254.837L283.36 255.272L284.562 256.207L285.773 257.046L286.589 259.417L286.094 261.441L284.917 263.254L283.073 264.026Z" fill="white"/>
<path opacity="0.2" d="M550.157 63.1594L552.35 63.125L554.124 64.1298L555.187 65.4963L555.332 67.0767L554.071 68.9912L552.985 69.5326L550.964 69.9923L549.943 69.669L549.049 68.9734L548.148 68.3494L547.542 66.5868L547.91 65.0811L548.785 63.7332L550.157 63.1594Z" fill="white"/>
<path opacity="0.3" d="M562.982 196.61L564.225 196.591L565.229 197.16L565.832 197.934L565.914 198.83L565.2 199.914L564.584 200.221L563.44 200.481L562.861 200.298L562.355 199.904L561.844 199.551L561.501 198.552L561.709 197.699L562.205 196.935L562.982 196.61Z" fill="white"/>
<path opacity="0.2" d="M520.574 182.962L520.58 182.243L520.922 181.67L521.378 181.332L521.897 181.296L522.514 181.724L522.683 182.084L522.818 182.749L522.705 183.081L522.47 183.369L522.259 183.659L521.677 183.844L521.187 183.712L520.752 183.415L520.574 182.962Z" fill="white"/>
<path opacity="0.2" d="M481.389 36.9742L481.395 36.2555L481.737 35.6823L482.193 35.3444L482.712 35.309L483.329 35.7367L483.498 36.0966L483.633 36.7618L483.52 37.0939L483.285 37.3813L483.074 37.6717L482.492 37.8568L482.002 37.7247L481.567 37.4279L481.389 36.9742Z" fill="white"/>
<path opacity="0.2" d="M517.408 133.159L519.602 133.125L521.375 134.13L522.438 135.496L522.583 137.077L521.322 138.991L520.236 139.533L518.216 139.992L517.194 139.669L516.3 138.973L515.399 138.349L514.793 136.587L515.161 135.081L516.036 133.733L517.408 133.159Z" fill="white"/>
<path opacity="0.05" d="M537.408 163.159L539.602 163.125L541.375 164.13L542.438 165.496L542.583 167.077L541.322 168.991L540.236 169.533L538.216 169.992L537.194 169.669L536.3 168.973L535.399 168.349L534.793 166.587L535.161 165.081L536.036 163.733L537.408 163.159Z" fill="white"/>
<path opacity="0.1" d="M47.4079 179.159L49.6016 179.125L51.3749 180.13L52.4385 181.496L52.5835 183.077L51.3223 184.991L50.2359 185.533L48.2157 185.992L47.1942 185.669L46.3004 184.973L45.3994 184.349L44.793 182.587L45.1613 181.081L46.0362 179.733L47.4079 179.159Z" fill="white"/>
<path opacity="0.05" d="M537.408 83.1594L539.602 83.125L541.375 84.1298L542.438 85.4963L542.583 87.0767L541.322 88.9912L540.236 89.5326L538.216 89.9923L537.194 89.669L536.3 88.9734L535.399 88.3494L534.793 86.5868L535.161 85.0811L536.036 83.7332L537.408 83.1594Z" fill="white"/>
<path opacity="0.05" d="M335.408 31.1594L337.602 31.125L339.375 32.1298L340.438 33.4963L340.583 35.0767L339.322 36.9912L338.236 37.5326L336.216 37.9923L335.194 37.669L334.3 36.9734L333.399 36.3494L332.793 34.5868L333.161 33.0811L334.036 31.7332L335.408 31.1594Z" fill="white"/>
<path opacity="0.05" d="M335.408 31.1594L337.602 31.125L339.375 32.1298L340.438 33.4963L340.583 35.0767L339.322 36.9912L338.236 37.5326L336.216 37.9923L335.194 37.669L334.3 36.9734L333.399 36.3494L332.793 34.5868L333.161 33.0811L334.036 31.7332L335.408 31.1594Z" fill="white"/>
<path opacity="0.05" d="M164.056 275.009L161.863 275.043L160.089 274.038L159.026 272.672L158.881 271.092L160.142 269.177L161.228 268.636L163.248 268.176L164.27 268.499L165.164 269.195L166.065 269.819L166.671 271.581L166.303 273.087L165.428 274.435L164.056 275.009Z" fill="white"/>
</svg>
