<?xml version="1.0" encoding="utf-8"?>
<svg viewBox="0 0 44 44" width="44" height="44" xmlns="http://www.w3.org/2000/svg">
  <path d="M 22 10.966 C 22 9.984 21.194 9.178 20.213 9.178 L 19.268 9.178 L 20.494 7.952 L 17.971 5.43 L 14.433 9.038 L 13.102 7.708 L 16.745 4.064 L 14.223 1.542 L 12.822 2.944 L 12.822 1.786 C 12.822 0.806 12.016 0 11.035 0 C 10.054 0 9.248 0.806 9.248 1.786 L 9.248 2.732 L 8.058 1.542 L 5.535 4.064 L 9.003 7.602 L 7.636 8.968 L 3.994 5.324 L 1.471 7.848 L 2.837 9.214 L 1.786 9.214 C 0.805 9.214 0 10.02 0 11 C 0 11.982 0.805 12.788 1.786 12.788 L 2.732 12.788 L 1.506 14.014 L 4.029 16.536 L 7.636 12.998 L 9.038 14.434 L 5.43 18.042 L 7.952 20.564 L 9.248 19.268 L 9.248 20.214 C 9.248 21.194 10.054 22 11.035 22 C 12.016 22 12.822 21.194 12.822 20.214 L 12.822 19.268 L 14.117 20.564 L 16.64 18.042 L 13.032 14.398 L 14.398 12.998 L 18.006 16.604 L 20.529 14.082 L 19.162 12.716 L 20.213 12.716 C 21.194 12.752 22 11.946 22 10.966 Z M 19.022 14.118 L 18.006 15.134 L 14.364 11.49 L 11.526 14.398 L 15.099 17.972 L 14.083 18.988 L 11.736 16.64 L 11.736 20.108 C 11.736 20.494 11.42 20.844 11 20.844 C 10.58 20.844 10.264 20.528 10.264 20.108 L 10.264 16.64 L 7.917 18.988 L 6.901 17.972 L 10.51 14.362 L 7.672 11.42 L 4.063 14.958 L 3.047 13.942 L 5.324 11.666 L 1.856 11.666 C 1.471 11.666 1.121 11.35 1.121 10.93 C 1.121 10.51 1.436 10.194 1.856 10.194 L 5.43 10.194 L 3.013 7.776 L 4.029 6.76 L 7.672 10.404 L 10.51 7.566 L 7.042 4.028 L 8.058 3.012 L 10.3 5.254 L 10.3 1.786 C 10.3 1.402 10.614 1.052 11.035 1.052 C 11.455 1.052 11.771 1.366 11.771 1.786 L 11.771 5.5 L 14.223 3.048 L 15.239 4.064 L 11.63 7.708 L 14.188 10.264 L 14.713 10.264 L 18.042 6.936 L 19.058 7.952 L 16.78 10.23 L 20.248 10.23 C 20.634 10.23 20.984 10.544 20.984 10.966 C 20.984 11.386 20.668 11.7 20.248 11.7 L 16.675 11.7 L 19.022 14.118 Z" style="fill: rgb(255, 255, 255); fill-opacity: 0.3;"/>
  <path d="M 44 32.966 C 44 31.984 43.194 31.178 42.213 31.178 L 41.268 31.178 L 42.494 29.952 L 39.971 27.43 L 36.433 31.038 L 35.102 29.708 L 38.745 26.064 L 36.223 23.542 L 34.822 24.944 L 34.822 23.786 C 34.822 22.806 34.016 22 33.035 22 C 32.054 22 31.248 22.806 31.248 23.786 L 31.248 24.732 L 30.058 23.542 L 27.535 26.064 L 31.003 29.602 L 29.636 30.968 L 25.994 27.324 L 23.471 29.848 L 24.837 31.214 L 23.786 31.214 C 22.805 31.214 22 32.02 22 33 C 22 33.982 22.805 34.788 23.786 34.788 L 24.732 34.788 L 23.506 36.014 L 26.029 38.536 L 29.636 34.998 L 31.038 36.434 L 27.43 40.042 L 29.952 42.564 L 31.248 41.268 L 31.248 42.214 C 31.248 43.194 32.054 44 33.035 44 C 34.016 44 34.822 43.194 34.822 42.214 L 34.822 41.268 L 36.117 42.564 L 38.64 40.042 L 35.032 36.398 L 36.398 34.998 L 40.006 38.604 L 42.529 36.082 L 41.162 34.716 L 42.213 34.716 C 43.194 34.752 44 33.946 44 32.966 Z M 41.022 36.118 L 40.006 37.134 L 36.364 33.49 L 33.526 36.398 L 37.099 39.972 L 36.083 40.988 L 33.736 38.64 L 33.736 42.108 C 33.736 42.494 33.42 42.844 33 42.844 C 32.58 42.844 32.264 42.528 32.264 42.108 L 32.264 38.64 L 29.917 40.988 L 28.901 39.972 L 32.51 36.362 L 29.672 33.42 L 26.063 36.958 L 25.047 35.942 L 27.324 33.666 L 23.856 33.666 C 23.471 33.666 23.121 33.35 23.121 32.93 C 23.121 32.51 23.436 32.194 23.856 32.194 L 27.43 32.194 L 25.013 29.776 L 26.029 28.76 L 29.672 32.404 L 32.51 29.566 L 29.042 26.028 L 30.058 25.012 L 32.3 27.254 L 32.3 23.786 C 32.3 23.402 32.614 23.052 33.035 23.052 C 33.455 23.052 33.771 23.366 33.771 23.786 L 33.771 27.5 L 36.223 25.048 L 37.239 26.064 L 33.63 29.708 L 36.188 32.264 L 36.713 32.264 L 40.042 28.936 L 41.058 29.952 L 38.78 32.23 L 42.248 32.23 C 42.634 32.23 42.984 32.544 42.984 32.966 C 42.984 33.386 42.668 33.7 42.248 33.7 L 38.675 33.7 L 41.022 36.118 Z" fill="white" style="fill-opacity: 0.3;"/>
</svg>