<svg width="34" height="32" viewBox="0 0 34 32" fill="none" xmlns="http://www.w3.org/2000/svg">
<g opacity="0.3">
<path d="M33.7847 12.167L22.1731 10.501L16.9731 0L11.7731 10.501L0.161377 12.167L8.54197 20.3457L6.57308 31.9069L16.9731 26.4544L27.3731 31.9069L25.4042 20.3457L33.7847 12.167ZM16.9731 24.7379L8.5925 29.1302L10.208 19.7903L3.44294 13.1767L12.7828 11.8136L16.9731 3.33205L21.1634 11.8136L30.5032 13.1767L23.7382 19.7903L25.3537 29.1302L16.9731 24.7379Z" fill="white"/>
<path d="M26.8683 14.237L20.0527 13.2273L16.9731 7.01758L13.8935 13.2273L7.07794 14.237L12.0255 19.0836L10.8644 25.8992L16.9731 22.6681L23.0818 25.8992L21.9206 19.0836L26.8683 14.237ZM16.9731 20.9011L12.8838 23.072L13.6915 18.4778L10.3595 15.2467L14.9537 14.5904L17.0236 10.4506L19.0935 14.5904L23.6876 15.2467L20.3556 18.4778L21.1634 23.072L16.9731 20.9011Z" fill="white"/>
</g>
</svg>
