<svg width="25" height="22" viewBox="0 0 25 22" fill="none" xmlns="http://www.w3.org/2000/svg">
<path d="M13.4789 15.9913C14.0246 16.804 15.1432 17.0239 15.9559 16.4782C16.7686 15.9325 16.9885 14.8139 16.4428 14.0012C15.8971 13.1885 14.7785 12.9686 13.9658 13.5143C13.161 14.02 12.9411 15.1387 13.4789 15.9913Z" fill="white"/>
<path d="M27.4738 17.4141C27.6936 16.2955 26.9554 15.196 25.8367 14.9761L24.758 14.7641L26.4312 13.6406L24.12 10.1986L19.276 13.5206L18.0563 11.704L23.028 8.36565L20.7168 4.92369L18.8046 6.20766L19.0638 4.88924C19.2837 3.77058 18.5454 2.67107 17.4267 2.45119C16.308 2.23131 15.2085 2.96959 14.9887 4.08825L14.7766 5.16696L13.6853 3.54159L10.2433 5.85273L13.4054 10.6653L11.541 11.9172L8.20271 6.94548L4.76075 9.25663L6.01262 11.121L4.81406 10.8854C3.6954 10.6656 2.59588 11.4038 2.376 12.5225C2.15612 13.6412 2.8944 14.7407 4.01306 14.9605L5.09177 15.1726L3.4186 16.296L5.72974 19.738L10.638 16.5117L11.9141 18.4638L6.99015 21.7701L9.3013 25.212L11.0701 24.0243L10.8581 25.1031C10.6382 26.2217 11.3765 27.3212 12.4951 27.5411C13.6138 27.761 14.7133 27.0227 14.9332 25.904L15.1452 24.8253L16.3329 26.5941L19.7748 24.283L16.4765 19.3191L18.3487 18.0273L21.6549 22.9512L25.0969 20.6401L23.845 18.7757L25.0436 19.0112C26.1544 19.2711 27.2539 18.5328 27.4738 17.4141ZM23.3711 20.3423L21.9847 21.2732L18.6464 16.3015L14.7585 18.9814L18.0326 23.8575L16.6463 24.7884L14.4956 21.5855L13.7182 25.5407C13.6318 25.9802 13.1937 26.3091 12.7143 26.2148C12.2349 26.1206 11.946 25.6904 12.0402 25.2109L12.8177 21.2557L9.61472 23.4063L8.68385 22.02L13.6078 18.7138L11.0313 14.7217L6.12307 17.948L5.1922 16.5617L8.29952 14.4752L4.34426 13.6978C3.90479 13.6114 3.57594 13.1733 3.67018 12.6939C3.76441 12.2145 4.19466 11.9256 4.67408 12.0198L8.74919 12.8208L6.53435 9.52225L7.92069 8.59137L11.259 13.5631L15.1312 10.963L11.9691 6.15045L13.3554 5.21958L15.4098 8.27909L16.1872 4.32384C16.2736 3.88436 16.7117 3.55552 17.1911 3.64975C17.6705 3.74399 17.9594 4.17423 17.8652 4.65366L17.0328 8.88858L20.3792 6.64163L21.31 8.02797L16.3783 11.3741L18.7215 14.8639L19.3208 14.9817L23.8623 11.9323L24.7931 13.3186L21.6858 15.4051L25.6411 16.1825C26.0805 16.2689 26.4094 16.707 26.3152 17.1864C26.2209 17.6658 25.7907 17.9547 25.3112 17.8605L21.2361 17.0595L23.3711 20.3423Z" fill="white"/>
</svg>
