<svg width="17" height="17" viewBox="0 0 17 17" fill="none" xmlns="http://www.w3.org/2000/svg">
<path d="M6.46991 4.0729C6.29345 4.12608 6.18557 4.32701 6.23875 4.50348C6.29193 4.67994 6.49287 4.78782 6.66933 4.73464C6.8458 4.68146 6.95367 4.48052 6.90049 4.30406C6.84067 4.10554 6.64638 4.01972 6.46991 4.0729Z" fill="#2F3029"/>
<path d="M8.4397 7.0164L7.77795 7.21582L7.97737 7.87756L8.63912 7.67814L8.4397 7.0164Z" fill="#2F3029"/>
<path d="M8.86511 8.42802L8.20337 8.62744L8.40279 9.28919L9.06453 9.08977L8.86511 8.42802Z" fill="#2F3029"/>
<path d="M7.28394 5.65638L7.96775 5.45031C8.32068 5.34396 8.54308 4.96414 8.43007 4.58915L6.44484 5.18741C6.53579 5.56904 6.93101 5.76274 7.28394 5.65638Z" fill="#2F3029"/>
<path d="M8.11371 3.93852L7.45197 4.13794L7.56497 4.51293L8.22672 4.31351L8.11371 3.93852Z" fill="#2F3029"/>
<path d="M12.198 3.83854L9.59518 4.62293L8.60473 1.33626L4.41368 2.59926L5.40413 5.88592L3.11009 6.57724C2.31599 6.81655 1.86908 7.64901 2.10838 8.4431C2.34769 9.2372 3.18015 9.68411 3.97424 9.44481L5.71683 8.91967L6.06914 10.0887L6.02436 14.8905C6.02043 15.2766 6.16214 15.667 6.43831 15.9447C6.71449 16.2224 7.07436 16.3786 7.48924 16.398C7.8754 16.4019 8.26581 16.2602 8.5435 15.984C8.82119 15.7078 8.97741 15.348 8.99676 14.9331L9.03216 11.4576L9.76008 11.2382L11.7099 14.1155C11.9266 14.4352 12.2623 14.6709 12.6684 14.741C12.9001 14.7914 13.1561 14.7624 13.3766 14.696C13.509 14.6561 13.6568 14.5875 13.7758 14.5035C14.0955 14.2868 14.3312 13.9511 14.4013 13.545C14.4781 13.161 14.4025 12.7506 14.1638 12.4376L11.1727 8.0214L10.96 7.31554L13.0335 6.69069C13.8276 6.45138 14.2745 5.61892 14.0352 4.82483C13.7959 4.03074 12.9921 3.59923 12.198 3.83854ZM12.8561 6.02229L10.1209 6.84656L10.5597 8.3024L13.5994 12.8002C13.7254 12.9788 13.7631 13.1839 13.7281 13.387C13.693 13.59 13.5785 13.7689 13.3999 13.8949C13.2213 14.0209 13.0162 14.0587 12.8131 14.0236C12.6101 13.9886 12.4312 13.8741 12.3052 13.6955L10.0834 10.3949L8.38493 10.9067L8.35677 14.8853C8.35042 15.1038 8.26461 15.2981 8.11473 15.4395C7.96486 15.5809 7.75092 15.6695 7.55452 15.6565C7.33605 15.6501 7.14176 15.5643 7.00035 15.4144C6.85894 15.2645 6.7704 15.0506 6.7834 14.8542L6.81701 9.93556L6.23204 7.99444L3.8277 8.719C3.4086 8.8453 2.95596 8.62078 2.82301 8.17962C2.69006 7.73846 2.92123 7.30788 3.36239 7.17493L6.31818 6.28419L5.32773 2.99752L8.19529 2.13337L9.18574 5.42003L12.4503 4.43622C12.8695 4.30993 13.3221 4.53444 13.455 4.9756C13.588 5.41677 13.2752 5.896 12.8561 6.02229Z" fill="#2F3029"/>
</svg>
