<svg width="88" height="88" viewBox="0 0 88 88" fill="none" xmlns="http://www.w3.org/2000/svg">
<g clip-path="url(#clip0_2_101)">
<path fill-rule="evenodd" clip-rule="evenodd" d="M87.5047 7.65213L86.9434 9.7472L88.0626 10.0471L88.7624 7.43545L89.6234 7.66615L88.6929 11.1388L83.1826 9.66231L80.0143 21.4865L69.5103 18.672L72.6786 6.84777L67.1683 5.37129L68.0988 1.89865L68.9598 2.12935L68.26 4.74101L69.3793 5.04092L69.9407 2.94585L70.859 3.19193L70.2976 5.28699L72.9093 5.98679L73.5671 3.5319L71.5712 2.99711L72.3899 -0.0583067L73.2232 0.164974L72.6352 2.35941L73.7978 2.67091L74.1551 1.33747L75.0161 1.56817L74.1317 4.86861L82.9138 7.22175L83.7981 3.92131L84.6591 4.15201L84.3018 5.48546L85.4644 5.79696L86.0524 3.60253L86.8857 3.82581L86.067 6.88123L84.0711 6.34644L83.4133 8.80133L86.025 9.50112L86.5864 7.40606L87.5047 7.65213ZM70.602 18.0417L79.3841 20.3948L82.6831 8.08273L73.901 5.7296L70.602 18.0417Z" fill="#DF817E"/>
<path d="M80.1039 10.5909L74.9954 9.22211L75.5722 7.06965L74.1372 6.68515L73.4528 9.2394L74.6295 9.55469L73.2607 14.6632L75.6427 15.3015L75.2198 16.8799L72.4359 16.134L72.2052 16.995L78.6052 18.7099L78.8359 17.8489L76.0808 17.1106L76.5037 15.5322L78.771 16.1397L80.1398 11.0312L81.4313 11.3772L82.1157 8.82297L80.6807 8.43847L80.1039 10.5909Z" fill="#DF817E"/>
<path d="M11.9192 66.1597L16.009 65.5928L8.43687 56.5576L11.5372 56.1279L1.23772 43.9075L-5.34965 58.4685L-2.24932 58.0388L-7.07852 68.7929L-2.98872 68.226L-9.0536 81.7062L1.96242 80.1793L2.81272 86.314L11.3221 85.1345L10.4718 78.9998L21.4878 77.4729L11.9192 66.1597ZM8.21858 77.2952L9.06889 83.4299L4.51736 84.0608L3.66705 77.9261L-5.69986 79.2244L0.365016 65.7442L-3.72477 66.3111L1.10442 55.557L-1.99591 55.9867L1.74974 47.6015L7.63488 54.6519L4.53455 55.0816L12.1066 64.1168L8.01687 64.6836L17.5195 76.006L8.21858 77.2952Z" fill="#DF817E"/>
<path d="M9.15377 74.3415C9.94535 74.2318 10.4476 73.4898 10.347 72.7642C10.2373 71.9726 9.49537 71.4704 8.76977 71.571C7.97819 71.6807 7.47596 72.4226 7.57654 73.1482C7.68625 73.9398 8.3622 74.4512 9.15377 74.3415Z" fill="#DF817E"/>
<path d="M3.77537 69.9774C4.56694 69.8677 5.06918 69.1257 4.9686 68.4001C4.85889 67.6086 4.11697 67.1063 3.39136 67.2069C2.59979 67.3166 2.09754 68.0585 2.19812 68.7841C2.29869 69.5097 2.9838 70.0871 3.77537 69.9774Z" fill="#DF817E"/>
<path d="M0.583757 76.5381C1.37533 76.4284 1.87758 75.6865 1.77701 74.9608C1.66729 74.1693 0.925355 73.667 0.199748 73.7676C-0.591823 73.8773 -1.09407 74.6192 -0.993501 75.3449C-0.949749 76.1456 -0.207814 76.6478 0.583757 76.5381Z" fill="#DF817E"/>
<path d="M4.40956 62.4268C5.20113 62.3171 5.70336 61.5752 5.60279 60.8496C5.49307 60.058 4.75116 59.5558 4.02555 59.6563C3.23398 59.7661 2.73173 60.508 2.8323 61.2336C2.86691 61.9683 3.61799 62.5366 4.40956 62.4268Z" fill="#DF817E"/>
<path d="M29.7834 11.2404C30.1894 11.6464 30.8582 11.6464 31.2643 11.2404C31.6703 10.8343 31.6703 10.1655 31.2643 9.75948C30.8582 9.35343 30.1894 9.35343 29.7834 9.75948C29.3773 10.1416 29.3773 10.8104 29.7834 11.2404Z" fill="#DF817E"/>
<path d="M38 10.4761C38 9.80733 37.4506 9.25796 36.7818 9.25796H36.1369L36.9729 8.42197L35.2532 6.70223L32.8408 9.16242L31.9331 8.25478L34.4172 5.7707L32.6975 4.05095L31.742 5.00637V4.21815C31.742 3.54936 31.1927 3 30.5239 3C29.8551 3 29.3057 3.54936 29.3057 4.21815V4.86306L28.4936 4.05095L26.7739 5.7707L29.1385 8.18312L28.207 9.11465L25.7229 6.63057L24.0032 8.35032L24.9347 9.28185H24.2182C23.5494 9.28185 23 9.83121 23 10.5C23 11.1688 23.5494 11.7182 24.2182 11.7182H24.8631L24.0271 12.5541L25.7468 14.2739L28.207 11.8615L29.1624 12.8408L26.7022 15.301L28.422 17.0207L29.3057 16.1369V16.7818C29.3057 17.4506 29.8551 18 30.5239 18C31.1927 18 31.742 17.4506 31.742 16.7818V16.1369L32.6258 17.0207L34.3455 15.301L31.8854 12.8169L32.8169 11.8615L35.2771 14.3217L36.9968 12.6019L36.0653 11.6704H36.7818C37.4506 11.6943 38 11.1449 38 10.4761ZM35.9697 12.6258L35.2771 13.3185L32.793 10.8344L30.8583 12.8169L33.2946 15.2532L32.6019 15.9459L31.0016 14.3455V16.7102C31.0016 16.9729 30.7866 17.2118 30.5 17.2118C30.2134 17.2118 29.9984 16.9968 29.9984 16.7102V14.3455L28.3981 15.9459L27.7054 15.2532L30.1656 12.793L28.2309 10.7866L25.7707 13.199L25.078 12.5064L26.6306 10.9538H24.2659C24.0032 10.9538 23.7643 10.7389 23.7643 10.4522C23.7643 10.1656 23.9793 9.95063 24.2659 9.95063H26.7022L25.0541 8.30255L25.7468 7.60987L28.2309 10.0939L30.1656 8.15923L27.801 5.74682L28.4936 5.05414L30.0223 6.5828V4.21815C30.0223 3.95541 30.2373 3.71656 30.5239 3.71656C30.8105 3.71656 31.0255 3.93153 31.0255 4.21815V6.75L32.6975 5.07802L33.3901 5.7707L30.9299 8.25478L32.6736 9.99841H33.0318L35.301 7.7293L35.9936 8.42197L34.4411 9.97452H36.8057C37.0685 9.97452 37.3073 10.1895 37.3073 10.4761C37.3073 10.7627 37.0924 10.9777 36.8057 10.9777H34.3694L35.9697 12.6258Z" fill="#DF817E"/>
<g opacity="0.5">
<path d="M50.9489 26.0857C51.5445 26.6813 52.5254 26.6813 53.1209 26.0857C53.7164 25.4902 53.7164 24.5093 53.1209 23.9137C52.5254 23.3182 51.5445 23.3182 50.9489 23.9137C50.3534 24.4743 50.3534 25.4551 50.9489 26.0857Z" fill="#DF817E"/>
<path d="M63 24.965C63 23.9841 62.1943 23.1783 61.2134 23.1783H60.2675L61.4936 21.9522L58.9713 19.4299L55.4331 23.0382L54.1019 21.707L57.7452 18.0637L55.2229 15.5414L53.8217 16.9427V15.7866C53.8217 14.8057 53.0159 14 52.035 14C51.0541 14 50.2484 14.8057 50.2484 15.7866V16.7325L49.0573 15.5414L46.535 18.0637L50.0032 21.6019L48.6369 22.9682L44.9936 19.3248L42.4713 21.8471L43.8376 23.2134H42.7866C41.8057 23.2134 41 24.0191 41 25C41 25.9809 41.8057 26.7866 42.7866 26.7866H43.7325L42.5064 28.0127L45.0287 30.535L48.6369 26.9968L50.0382 28.4331L46.4299 32.0414L48.9522 34.5637L50.2484 33.2675V34.2134C50.2484 35.1943 51.0541 36 52.035 36C53.0159 36 53.8217 35.1943 53.8217 34.2134V33.2675L55.1178 34.5637L57.6401 32.0414L54.0319 28.3981L55.3981 26.9968L59.0064 30.6051L61.5287 28.0828L60.1624 26.7166H61.2134C62.1943 26.7516 63 25.9459 63 24.965ZM60.0223 28.1178L59.0064 29.1338L55.3631 25.4904L52.5255 28.3981L56.0987 31.9713L55.0828 32.9873L52.7357 30.6401V34.1083C52.7357 34.4936 52.4204 34.8439 52 34.8439C51.5796 34.8439 51.2643 34.5287 51.2643 34.1083V30.6401L48.9172 32.9873L47.9013 31.9713L51.5096 28.3631L48.672 25.4204L45.0637 28.9586L44.0478 27.9427L46.3248 25.6656H42.8567C42.4713 25.6656 42.121 25.3503 42.121 24.9299C42.121 24.5096 42.4363 24.1943 42.8567 24.1943H46.4299L44.0127 21.7771L45.0287 20.7611L48.672 24.4045L51.5096 21.5669L48.0414 18.0287L49.0573 17.0127L51.2994 19.2548V15.7866C51.2994 15.4013 51.6147 15.051 52.035 15.051C52.4554 15.051 52.7707 15.3662 52.7707 15.7866V19.5L55.2229 17.0478L56.2389 18.0637L52.6306 21.707L55.1879 24.2643H55.7134L59.0414 20.9363L60.0573 21.9522L57.7803 24.2293H61.2484C61.6338 24.2293 61.9841 24.5446 61.9841 24.965C61.9841 25.3854 61.6688 25.7006 61.2484 25.7006H57.6752L60.0223 28.1178Z" fill="#DF817E"/>
</g>
<g opacity="0.5">
<path d="M29.9745 30.0428C30.2722 30.3406 30.7627 30.3406 31.0604 30.0428C31.3582 29.7451 31.3582 29.2546 31.0604 28.9568C30.7627 28.6591 30.2722 28.6591 29.9745 28.9568C29.6767 29.2371 29.6767 29.7275 29.9745 30.0428Z" fill="#DF817E"/>
<path d="M36 29.4825C36 28.992 35.5971 28.5892 35.1067 28.5892H34.6338L35.2468 27.9761L33.9857 26.715L32.2166 28.5191L31.551 27.8535L33.3726 26.0318L32.1115 24.7707L31.4108 25.4713V24.8933C31.4108 24.4029 31.008 24 30.5175 24C30.0271 24 29.6242 24.4029 29.6242 24.8933V25.3662L29.0287 24.7707L27.7675 26.0318L29.5016 27.801L28.8185 28.4841L26.9968 26.6624L25.7357 27.9236L26.4188 28.6067H25.8933C25.4029 28.6067 25 29.0096 25 29.5C25 29.9904 25.4029 30.3933 25.8933 30.3933H26.3662L25.7532 31.0064L27.0143 32.2675L28.8185 30.4984L29.5191 31.2166L27.715 33.0207L28.9761 34.2818L29.6242 33.6338V34.1067C29.6242 34.5971 30.0271 35 30.5175 35C31.008 35 31.4108 34.5971 31.4108 34.1067V33.6338L32.0589 34.2818L33.3201 33.0207L31.5159 31.199L32.199 30.4984L34.0032 32.3025L35.2643 31.0414L34.5812 30.3583H35.1067C35.5971 30.3758 36 29.9729 36 29.4825ZM34.5111 31.0589L34.0032 31.5669L32.1815 29.7452L30.7627 31.199L32.5494 32.9857L32.0414 33.4936L30.8678 32.3201V34.0541C30.8678 34.2468 30.7102 34.422 30.5 34.422C30.2898 34.422 30.1322 34.2643 30.1322 34.0541V32.3201L28.9586 33.4936L28.4506 32.9857L30.2548 31.1815L28.836 29.7102L27.0318 31.4793L26.5239 30.9713L27.6624 29.8328H25.9283C25.7357 29.8328 25.5605 29.6752 25.5605 29.465C25.5605 29.2548 25.7182 29.0971 25.9283 29.0971H27.715L26.5064 27.8885L27.0143 27.3806L28.836 29.2022L30.2548 27.7834L28.5207 26.0143L29.0287 25.5064L30.1497 26.6274V24.8933C30.1497 24.7006 30.3073 24.5255 30.5175 24.5255C30.7277 24.5255 30.8854 24.6831 30.8854 24.8933V26.75L32.1115 25.5239L32.6194 26.0318L30.8153 27.8535L32.0939 29.1322H32.3567L34.0207 27.4682L34.5287 27.9761L33.3901 29.1146H35.1242C35.3169 29.1146 35.492 29.2723 35.492 29.4825C35.492 29.6927 35.3344 29.8503 35.1242 29.8503H33.3376L34.5111 31.0589Z" fill="#DF817E"/>
<path d="M44.9745 0.0428365C45.2722 0.340607 45.7627 0.340607 46.0604 0.0428365C46.3582 -0.254934 46.3582 -0.745381 46.0604 -1.04315C45.7627 -1.34092 45.2722 -1.34092 44.9745 -1.04315C44.6767 -0.762897 44.6767 -0.27245 44.9745 0.0428365Z" fill="#DF817E"/>
<path d="M51 -0.517516C51 -1.00796 50.5971 -1.41083 50.1067 -1.41083H49.6338L50.2468 -2.02389L48.9857 -3.28503L47.2166 -1.48089L46.551 -2.1465L48.3726 -3.96815L47.1115 -5.2293L46.4108 -4.52866V-5.10669C46.4108 -5.59713 46.008 -6 45.5175 -6C45.0271 -6 44.6242 -5.59713 44.6242 -5.10669V-4.63376L44.0287 -5.2293L42.7675 -3.96815L44.5016 -2.19905L43.8185 -1.51592L41.9968 -3.33758L40.7357 -2.07643L41.4188 -1.39331H40.8933C40.4029 -1.39331 40 -0.990447 40 -0.500001C40 -0.00955538 40.4029 0.393312 40.8933 0.393312H41.3662L40.7532 1.00637L42.0143 2.26752L43.8185 0.498406L44.5191 1.21656L42.715 3.0207L43.9761 4.28185L44.6242 3.63376V4.10669C44.6242 4.59713 45.0271 5 45.5175 5C46.008 5 46.4108 4.59713 46.4108 4.10669V3.63376L47.0589 4.28185L48.3201 3.0207L46.5159 1.19904L47.199 0.498406L49.0032 2.30255L50.2643 1.0414L49.5812 0.358281H50.1067C50.5971 0.375797 51 -0.0270697 51 -0.517516ZM49.5111 1.05892L49.0032 1.56688L47.1815 -0.254777L45.7627 1.19904L47.5494 2.98567L47.0414 3.49363L45.8678 2.32006V4.05414C45.8678 4.24681 45.7102 4.42197 45.5 4.42197C45.2898 4.42197 45.1322 4.26433 45.1322 4.05414V2.32006L43.9586 3.49363L43.4506 2.98567L45.2548 1.18153L43.836 -0.289811L42.0318 1.4793L41.5239 0.971338L42.6624 -0.167197H40.9283C40.7357 -0.167197 40.5605 -0.324841 40.5605 -0.535033C40.5605 -0.745224 40.7182 -0.902868 40.9283 -0.902868H42.715L41.5064 -2.11147L42.0143 -2.61943L43.836 -0.797771L45.2548 -2.21656L43.5207 -3.98567L44.0287 -4.49363L45.1497 -3.37261V-5.10669C45.1497 -5.29936 45.3073 -5.47452 45.5175 -5.47452C45.7277 -5.47452 45.8854 -5.31688 45.8854 -5.10669V-3.25L47.1115 -4.47612L47.6194 -3.96815L45.8153 -2.1465L47.0939 -0.867834H47.3567L49.0207 -2.53185L49.5287 -2.02389L48.3901 -0.885351H50.1242C50.3169 -0.885351 50.492 -0.727707 50.492 -0.517516C50.492 -0.307324 50.3344 -0.149683 50.1242 -0.149683H48.3376L49.5111 1.05892Z" fill="#DF817E"/>
<g opacity="0.3">
<path d="M43.1655 42.8454C43.355 43.0349 43.6671 43.0349 43.8566 42.8454C44.0461 42.6559 44.0461 42.3438 43.8566 42.1543C43.6671 41.9648 43.355 41.9648 43.1655 42.1543C42.9761 42.3326 42.9761 42.6447 43.1655 42.8454Z" fill="#DF817E"/>
<path d="M47 42.4889C47 42.1768 46.7436 41.9204 46.4315 41.9204H46.1306L46.5207 41.5303L45.7182 40.7277L44.5924 41.8758L44.1688 41.4522L45.328 40.293L44.5255 39.4904L44.0796 39.9363V39.5685C44.0796 39.2564 43.8232 39 43.5111 39C43.199 39 42.9427 39.2564 42.9427 39.5685V39.8694L42.5637 39.4904L41.7611 40.293L42.8647 41.4188L42.4299 41.8535L41.2707 40.6943L40.4682 41.4968L40.9029 41.9315H40.5685C40.2564 41.9315 40 42.1879 40 42.5C40 42.8121 40.2564 43.0685 40.5685 43.0685H40.8694L40.4793 43.4586L41.2818 44.2611L42.4299 43.1353L42.8758 43.5924L41.7277 44.7404L42.5303 45.543L42.9427 45.1306V45.4315C42.9427 45.7436 43.199 46 43.5111 46C43.8232 46 44.0796 45.7436 44.0796 45.4315V45.1306L44.492 45.543L45.2946 44.7404L44.1465 43.5812L44.5812 43.1353L45.7293 44.2834L46.5319 43.4809L46.0971 43.0462H46.4315C46.7436 43.0573 47 42.801 47 42.4889ZM46.0525 43.492L45.7293 43.8153L44.5701 42.6561L43.6672 43.5812L44.8041 44.7182L44.4809 45.0414L43.7341 44.2946V45.3981C43.7341 45.5207 43.6338 45.6322 43.5 45.6322C43.3662 45.6322 43.2659 45.5318 43.2659 45.3981V44.2946L42.5191 45.0414L42.1959 44.7182L43.3439 43.5701L42.4411 42.6338L41.293 43.7596L40.9697 43.4363L41.6943 42.7118H40.5908C40.4682 42.7118 40.3567 42.6115 40.3567 42.4777C40.3567 42.3439 40.457 42.2436 40.5908 42.2436H41.7277L40.9586 41.4745L41.2818 41.1513L42.4411 42.3105L43.3439 41.4076L42.2404 40.2818L42.5637 39.9586L43.2771 40.672V39.5685C43.2771 39.4459 43.3774 39.3344 43.5111 39.3344C43.6449 39.3344 43.7452 39.4347 43.7452 39.5685V40.75L44.5255 39.9697L44.8487 40.293L43.7006 41.4522L44.5143 42.2659H44.6815L45.7404 41.207L46.0637 41.5303L45.3392 42.2548H46.4427C46.5653 42.2548 46.6768 42.3551 46.6768 42.4889C46.6768 42.6226 46.5764 42.7229 46.4427 42.7229H45.3057L46.0525 43.492Z" fill="#DF817E"/>
</g>
</g>
<path d="M53.9745 69.0428C54.2722 69.3406 54.7627 69.3406 55.0604 69.0428C55.3582 68.7451 55.3582 68.2546 55.0604 67.9568C54.7627 67.6591 54.2722 67.6591 53.9745 67.9568C53.6767 68.2371 53.6767 68.7275 53.9745 69.0428Z" fill="#DF817E"/>
<path d="M60 68.4825C60 67.992 59.5971 67.5892 59.1067 67.5892H58.6338L59.2468 66.9761L57.9857 65.715L56.2166 67.5191L55.551 66.8535L57.3726 65.0318L56.1115 63.7707L55.4108 64.4713V63.8933C55.4108 63.4029 55.008 63 54.5175 63C54.0271 63 53.6242 63.4029 53.6242 63.8933V64.3662L53.0287 63.7707L51.7675 65.0318L53.5016 66.801L52.8185 67.4841L50.9968 65.6624L49.7357 66.9236L50.4188 67.6067H49.8933C49.4029 67.6067 49 68.0096 49 68.5C49 68.9904 49.4029 69.3933 49.8933 69.3933H50.3662L49.7532 70.0064L51.0143 71.2675L52.8185 69.4984L53.5191 70.2166L51.715 72.0207L52.9761 73.2818L53.6242 72.6338V73.1067C53.6242 73.5971 54.0271 74 54.5175 74C55.008 74 55.4108 73.5971 55.4108 73.1067V72.6338L56.0589 73.2818L57.3201 72.0207L55.5159 70.199L56.199 69.4984L58.0032 71.3025L59.2643 70.0414L58.5812 69.3583H59.1067C59.5971 69.3758 60 68.9729 60 68.4825ZM58.5111 70.0589L58.0032 70.5669L56.1815 68.7452L54.7627 70.199L56.5494 71.9857L56.0414 72.4936L54.8678 71.3201V73.0541C54.8678 73.2468 54.7102 73.422 54.5 73.422C54.2898 73.422 54.1322 73.2643 54.1322 73.0541V71.3201L52.9586 72.4936L52.4506 71.9857L54.2548 70.1815L52.836 68.7102L51.0318 70.4793L50.5239 69.9713L51.6624 68.8328H49.9283C49.7357 68.8328 49.5605 68.6752 49.5605 68.465C49.5605 68.2548 49.7182 68.0971 49.9283 68.0971H51.715L50.5064 66.8885L51.0143 66.3806L52.836 68.2022L54.2548 66.7834L52.5207 65.0143L53.0287 64.5064L54.1497 65.6274V63.8933C54.1497 63.7006 54.3073 63.5255 54.5175 63.5255C54.7277 63.5255 54.8854 63.6831 54.8854 63.8933V65.75L56.1115 64.5239L56.6194 65.0318L54.8153 66.8535L56.0939 68.1322H56.3567L58.0207 66.4682L58.5287 66.9761L57.3901 68.1146H59.1242C59.3169 68.1146 59.492 68.2723 59.492 68.4825C59.492 68.6927 59.3344 68.8503 59.1242 68.8503H57.3376L58.5111 70.0589Z" fill="#DF817E"/>
<g opacity="0.5">
<path d="M36.6178 61.3947C36.8343 61.6113 37.191 61.6113 37.4076 61.3947C37.6241 61.1781 37.6241 60.8215 37.4076 60.6049C37.191 60.3883 36.8343 60.3883 36.6178 60.6049C36.4012 60.8087 36.4012 61.1654 36.6178 61.3947Z" fill="#DF817E"/>
<path d="M41 60.9873C41 60.6306 40.707 60.3376 40.3503 60.3376H40.0064L40.4522 59.8917L39.535 58.9745L38.2484 60.2866L37.7643 59.8025L39.0892 58.4777L38.172 57.5605L37.6624 58.0701V57.6497C37.6624 57.293 37.3694 57 37.0127 57C36.6561 57 36.3631 57.293 36.3631 57.6497V57.9936L35.9299 57.5605L35.0127 58.4777L36.2739 59.7643L35.7771 60.2611L34.4522 58.9363L33.535 59.8535L34.0318 60.3503H33.6497C33.293 60.3503 33 60.6433 33 61C33 61.3567 33.293 61.6497 33.6497 61.6497H33.9936L33.5478 62.0955L34.465 63.0127L35.7771 61.7261L36.2866 62.2484L34.9745 63.5605L35.8917 64.4777L36.3631 64.0064V64.3503C36.3631 64.707 36.6561 65 37.0127 65C37.3694 65 37.6624 64.707 37.6624 64.3503V64.0064L38.1338 64.4777L39.051 63.5605L37.7389 62.2357L38.2357 61.7261L39.5478 63.0382L40.465 62.121L39.9682 61.6242H40.3503C40.707 61.6369 41 61.3439 41 60.9873ZM39.9172 62.1338L39.5478 62.5032L38.2229 61.1783L37.1911 62.2357L38.4904 63.535L38.121 63.9045L37.2675 63.051V64.3121C37.2675 64.4522 37.1529 64.5796 37 64.5796C36.8471 64.5796 36.7325 64.465 36.7325 64.3121V63.051L35.879 63.9045L35.5096 63.535L36.8217 62.2229L35.7898 61.1529L34.4777 62.4395L34.1083 62.0701L34.9363 61.242H33.6752C33.535 61.242 33.4076 61.1274 33.4076 60.9745C33.4076 60.8217 33.5223 60.707 33.6752 60.707H34.9745L34.0955 59.828L34.465 59.4586L35.7898 60.7834L36.8217 59.7516L35.5605 58.465L35.9299 58.0955L36.7452 58.9108V57.6497C36.7452 57.5096 36.8599 57.3822 37.0127 57.3822C37.1656 57.3822 37.2803 57.4968 37.2803 57.6497V59L38.172 58.1083L38.5414 58.4777L37.2293 59.8025L38.1592 60.7325H38.3503L39.5605 59.5223L39.9299 59.8917L39.1019 60.7197H40.3631C40.5032 60.7197 40.6306 60.8344 40.6306 60.9873C40.6306 61.1401 40.5159 61.2548 40.3631 61.2548H39.0637L39.9172 62.1338Z" fill="#DF817E"/>
</g>
<path d="M38.6878 84.3389C39.1479 84.7991 39.9059 84.7991 40.3661 84.3389C40.8263 83.8787 40.8263 83.1208 40.3661 82.6606C39.9059 82.2004 39.1479 82.2004 38.6878 82.6606C38.2276 83.0937 38.2276 83.8517 38.6878 84.3389Z" fill="#DF817E"/>
<path d="M48 83.4729C48 82.715 47.3774 82.0924 46.6194 82.0924H45.8885L46.836 81.1449L44.8869 79.1959L42.1529 81.9841L41.1242 80.9554L43.9395 78.1401L41.9904 76.1911L40.9076 77.2739V76.3806C40.9076 75.6226 40.285 75 39.5271 75C38.7691 75 38.1465 75.6226 38.1465 76.3806V77.1115L37.2261 76.1911L35.2771 78.1401L37.957 80.8742L36.9013 81.9299L34.086 79.1146L32.1369 81.0637L33.1927 82.1194H32.3806C31.6226 82.1194 31 82.742 31 83.5C31 84.258 31.6226 84.8806 32.3806 84.8806H33.1115L32.164 85.828L34.1131 87.7771L36.9013 85.043L37.9841 86.1529L35.1959 88.9411L37.1449 90.8901L38.1465 89.8885V90.6194C38.1465 91.3774 38.7691 92 39.5271 92C40.285 92 40.9076 91.3774 40.9076 90.6194V89.8885L41.9092 90.8901L43.8583 88.9411L41.0701 86.1258L42.1258 85.043L44.914 87.8312L46.8631 85.8822L45.8073 84.8264H46.6194C47.3774 84.8535 48 84.2309 48 83.4729ZM45.699 85.9092L44.914 86.6943L42.0987 83.879L39.9061 86.1258L42.6672 88.8869L41.8822 89.672L40.0685 87.8583V90.5382C40.0685 90.836 39.8248 91.1067 39.5 91.1067C39.1752 91.1067 38.9315 90.8631 38.9315 90.5382V87.8583L37.1178 89.672L36.3328 88.8869L39.121 86.0987L36.9284 83.8248L34.1401 86.5589L33.3551 85.7739L35.1147 84.0143H32.4347C32.1369 84.0143 31.8662 83.7707 31.8662 83.4459C31.8662 83.121 32.1099 82.8774 32.4347 82.8774H35.1959L33.328 81.0096L34.1131 80.2245L36.9284 83.0398L39.121 80.8471L36.4411 78.1131L37.2261 77.328L38.9586 79.0605V76.3806C38.9586 76.0828 39.2022 75.8121 39.5271 75.8121C39.8519 75.8121 40.0955 76.0557 40.0955 76.3806V79.25L41.9904 77.3551L42.7755 78.1401L39.9873 80.9554L41.9634 82.9315H42.3694L44.9411 80.3599L45.7261 81.1449L43.9666 82.9045H46.6465C46.9443 82.9045 47.215 83.1481 47.215 83.4729C47.215 83.7978 46.9713 84.0414 46.6465 84.0414H43.8854L45.699 85.9092Z" fill="#DF817E"/>
<g opacity="0.5">
<path d="M67 92.4729C67 91.715 66.3774 91.0924 65.6194 91.0924H64.8885L65.836 90.1449L63.8869 88.1959L61.1529 90.9841L60.1242 89.9554L62.9395 87.1401L60.9904 85.1911L59.9076 86.2739V85.3806C59.9076 84.6226 59.285 84 58.5271 84C57.7691 84 57.1465 84.6226 57.1465 85.3806V86.1115L56.2261 85.1911L54.2771 87.1401L56.957 89.8742L55.9013 90.9299L53.086 88.1146L51.1369 90.0637L52.1927 91.1194H51.3806C50.6226 91.1194 50 91.742 50 92.5C50 93.258 50.6226 93.8806 51.3806 93.8806H52.1115L51.164 94.828L53.1131 96.7771L55.9013 94.043L56.9841 95.1529L54.1959 97.9411L56.1449 99.8901L57.1465 98.8885V99.6194C57.1465 100.377 57.7691 101 58.5271 101C59.285 101 59.9076 100.377 59.9076 99.6194V98.8885L60.9092 99.8901L62.8583 97.9411L60.0701 95.1258L61.1258 94.043L63.914 96.8312L65.8631 94.8822L64.8073 93.8264H65.6194C66.3774 93.8535 67 93.2309 67 92.4729ZM64.699 94.9092L63.914 95.6943L61.0987 92.879L58.9061 95.1258L61.6672 97.8869L60.8822 98.672L59.0685 96.8583V99.5382C59.0685 99.836 58.8248 100.107 58.5 100.107C58.1752 100.107 57.9315 99.8631 57.9315 99.5382V96.8583L56.1178 98.672L55.3328 97.8869L58.121 95.0987L55.9284 92.8248L53.1401 95.5589L52.3551 94.7739L54.1147 93.0143H51.4347C51.1369 93.0143 50.8662 92.7707 50.8662 92.4459C50.8662 92.121 51.1099 91.8774 51.4347 91.8774H54.1959L52.328 90.0096L53.1131 89.2245L55.9284 92.0398L58.121 89.8471L55.4411 87.1131L56.2261 86.328L57.9586 88.0605V85.3806C57.9586 85.0828 58.2022 84.8121 58.5271 84.8121C58.8519 84.8121 59.0955 85.0557 59.0955 85.3806V88.25L60.9904 86.3551L61.7755 87.1401L58.9873 89.9554L60.9634 91.9315H61.3694L63.9411 89.3599L64.7261 90.1449L62.9666 91.9045H65.6465C65.9443 91.9045 66.215 92.1481 66.215 92.4729C66.215 92.7978 65.9713 93.0414 65.6465 93.0414H62.8854L64.699 94.9092Z" fill="#DF817E"/>
</g>
<path d="M9.07102 4.50269C8.68049 4.50269 8.3876 4.82814 8.3876 5.18613C8.3876 5.57666 8.71303 5.86957 9.07102 5.86957C9.46156 5.86957 9.75447 5.54412 9.75447 5.18613C9.75447 4.82814 9.42901 4.50269 9.07102 4.50269Z" fill="#DF817E"/>
<path d="M10.4379 8.21297C10.0474 8.21297 9.75447 8.53842 9.75447 8.89641C9.75447 9.28694 10.0799 9.57984 10.4379 9.57984C10.8284 9.57984 11.1213 9.2544 11.1213 8.89641C11.1539 8.53842 10.8284 8.21297 10.4379 8.21297Z" fill="#DF817E"/>
<path d="M7.28106 8.79868C7.6716 8.79868 7.96451 8.47323 7.96451 8.11524C7.96451 7.72471 7.63905 7.43181 7.28106 7.43181C6.89053 7.43181 6.59763 7.75725 6.59763 8.11524C6.56509 8.47323 6.89053 8.79868 7.28106 8.79868Z" fill="#DF817E"/>
<path d="M11.6746 12.997C12.0651 12.997 12.358 12.6715 12.358 12.3135C12.358 11.923 12.0326 11.6301 11.6746 11.6301C11.284 11.6301 10.9911 11.9556 10.9911 12.3135C10.9586 12.6715 11.284 12.997 11.6746 12.997Z" fill="#DF817E"/>
<path d="M15.1895 14.6569C15.58 14.6569 15.8729 14.3315 15.8729 13.9735C15.8729 13.5829 15.5475 13.29 15.1895 13.29C14.7989 13.29 14.5061 13.6155 14.5061 13.9735C14.4735 14.3315 14.7989 14.6569 15.1895 14.6569Z" fill="#DF817E"/>
<path d="M14.1806 10.1984C13.79 10.1984 13.4972 10.5238 13.4972 10.8818C13.4972 11.2723 13.8226 11.5652 14.1806 11.5652C14.5711 11.5652 14.864 11.2398 14.864 10.8818C14.864 10.5238 14.5386 10.1984 14.1806 10.1984Z" fill="#DF817E"/>
<path d="M8.87578 -3.56812L1 -0.346209L2.49704 3.33132L10.3728 0.109415L8.87578 -3.56812ZM2.30178 0.174506L8.35506 -2.29888L9.13613 -0.411297L3.08286 2.06209L2.30178 0.174506Z" fill="#DF817E"/>
<path d="M17.077 9.1567L13.0415 6.58569L10.6332 0.695126L2.75745 3.91704L6.17463 12.281L12.4557 16.3165C13.1717 16.7721 13.9528 16.9999 14.7338 16.9999C16.1333 16.9999 17.5001 16.3165 18.3137 15.0473C19.6155 13.062 19.0297 10.4259 17.077 9.1567ZM17.5327 14.5266C16.5563 16.0561 14.5386 16.4792 13.009 15.5029L6.98824 11.6301L4.05924 4.43775L10.1125 1.96436L12.2604 7.23658L16.5563 10.0029C18.0534 10.9792 18.509 12.997 17.5327 14.5266Z" fill="#DF817E"/>
<path d="M83.8323 53.924C84.0221 53.924 84.1645 54.0822 84.1645 54.2562C84.1645 54.4461 84.0063 54.5885 83.8323 54.5885C83.6424 54.5885 83.5 54.4303 83.5 54.2562C83.5 54.0822 83.6582 53.924 83.8323 53.924Z" fill="#DF817E"/>
<path d="M83.1677 55.7278C83.3576 55.7278 83.5 55.8861 83.5 56.0601C83.5 56.25 83.3417 56.3924 83.1677 56.3924C82.9778 56.3924 82.8354 56.2342 82.8354 56.0601C82.8196 55.8861 82.9778 55.7278 83.1677 55.7278Z" fill="#DF817E"/>
<path d="M84.7025 56.0126C84.5126 56.0126 84.3702 55.8544 84.3702 55.6803C84.3702 55.4905 84.5285 55.3481 84.7025 55.3481C84.8924 55.3481 85.0348 55.5063 85.0348 55.6803C85.0506 55.8544 84.8924 56.0126 84.7025 56.0126Z" fill="#DF817E"/>
<path d="M82.5664 58.0538C82.3766 58.0538 82.2342 57.8956 82.2342 57.7215C82.2342 57.5316 82.3924 57.3892 82.5664 57.3892C82.7563 57.3892 82.8987 57.5475 82.8987 57.7215C82.9145 57.8956 82.7563 58.0538 82.5664 58.0538Z" fill="#DF817E"/>
<path d="M80.8575 58.8608C80.6677 58.8608 80.5252 58.7026 80.5252 58.5285C80.5252 58.3387 80.6835 58.1963 80.8575 58.1963C81.0474 58.1963 81.1898 58.3545 81.1898 58.5285C81.2056 58.7026 81.0474 58.8608 80.8575 58.8608Z" fill="#DF817E"/>
<path d="M81.348 56.6931C81.5379 56.6931 81.6803 56.8513 81.6803 57.0254C81.6803 57.2153 81.5221 57.3577 81.348 57.3577C81.1582 57.3577 81.0158 57.1994 81.0158 57.0254C81.0158 56.8513 81.174 56.6931 81.348 56.6931Z" fill="#DF817E"/>
<path d="M83.9272 50L87.7563 51.5665L87.0284 53.3544L83.1993 51.788L83.9272 50ZM87.1234 51.8196L84.1803 50.6171L83.8006 51.5348L86.7436 52.7373L87.1234 51.8196Z" fill="#DF817E"/>
<path d="M79.9398 56.1867L81.9018 54.9367L83.0727 52.0728L86.9018 53.6392L85.2404 57.7057L82.1867 59.6677C81.8386 59.8892 81.4588 60 81.0791 60C80.3987 60 79.7341 59.6677 79.3386 59.0506C78.7056 58.0854 78.9904 56.8038 79.9398 56.1867ZM79.7183 58.7974C80.193 59.5411 81.174 59.7468 81.9177 59.2721L84.8449 57.3892L86.2689 53.8924L83.3259 52.6898L82.2816 55.2531L80.193 56.5981C79.4651 57.0728 79.2436 58.0538 79.7183 58.7974Z" fill="#DF817E"/>
<path d="M20.8323 87.924C21.0221 87.924 21.1645 88.0822 21.1645 88.2562C21.1645 88.4461 21.0063 88.5885 20.8323 88.5885C20.6424 88.5885 20.5 88.4303 20.5 88.2562C20.5 88.0822 20.6582 87.924 20.8323 87.924Z" fill="#DF817E"/>
<path d="M20.9272 84L24.7563 85.5665L24.0284 87.3544L20.1993 85.788L20.9272 84ZM24.1234 85.8196L21.1803 84.6171L20.8006 85.5348L23.7436 86.7373L24.1234 85.8196Z" fill="#DF817E"/>
<path d="M16.9398 90.1867L18.9018 88.9367L20.0727 86.0728L23.9018 87.6392L22.2404 91.7057L19.1867 93.6677C18.8386 93.8892 18.4588 94 18.0791 94C17.3987 94 16.7341 93.6677 16.3386 93.0506C15.7056 92.0854 15.9904 90.8038 16.9398 90.1867ZM16.7183 92.7974C17.193 93.5411 18.174 93.7468 18.9177 93.2721L21.8449 91.3892L23.2689 87.8924L20.3259 86.6898L19.2816 89.2531L17.193 90.5981C16.4651 91.0728 16.2436 92.0538 16.7183 92.7974Z" fill="#DF817E"/>
<path d="M59.8704 0.337646C60.0161 0.215941 60.2268 0.246114 60.3384 0.379708C60.4601 0.525446 60.4299 0.736168 60.2964 0.847731C60.1506 0.969436 59.9399 0.939265 59.8283 0.805671C59.7046 0.68222 59.7246 0.459351 59.8704 0.337646Z" fill="#DF817E"/>
<path d="M60.8998 2.50833C60.754 2.63003 60.5433 2.59987 60.4317 2.46627C60.31 2.32053 60.3402 2.1098 60.4738 1.99824C60.6195 1.87654 60.8303 1.90671 60.9418 2.0403C61.0655 2.16375 61.0455 2.38662 60.8998 2.50833Z" fill="#DF817E"/>
<path d="M60.1054 4.22315C59.9596 4.34486 59.7489 4.31469 59.6373 4.1811C59.5156 4.03536 59.5458 3.82463 59.6794 3.71307C59.8251 3.59136 60.0359 3.62153 60.1474 3.75513C60.2711 3.87858 60.2511 4.10145 60.1054 4.22315Z" fill="#DF817E"/>
<path d="M59.0924 2.24491C59.2382 2.1232 59.4489 2.15337 59.5604 2.28696C59.6822 2.4327 59.652 2.64343 59.5184 2.75499C59.3727 2.8767 59.1619 2.84652 59.0504 2.71293C58.9388 2.57933 58.9588 2.35647 59.0924 2.24491Z" fill="#DF817E"/>
<path d="M57.6869 2.75883L58.3917 0.541765L57.4547 -2.40698L61.3978 -3.65902L62.7291 0.527137L61.6427 3.99053C61.5175 4.38368 61.2971 4.71211 61.0056 4.95552C60.4834 5.39163 59.7603 5.56256 59.0611 5.34246C57.9567 5.0073 57.3538 3.84101 57.6869 2.75883ZM59.1903 4.90473C60.0314 5.17127 60.9162 4.70035 61.1827 3.85932L62.2226 0.537792L61.0743 -3.05902L58.0445 -2.0956L58.886 0.54125L58.1449 2.91232C57.8905 3.74321 58.3493 4.63818 59.1903 4.90473Z" fill="#DF817E"/>
<path d="M80.8064 76.5679L79.7237 77.0547L80.2105 78.1375L81.2933 77.6507L80.8064 76.5679Z" fill="#DF817E"/>
<path d="M86.5646 78.7673L85.4818 79.2541L85.9686 80.3369L87.0515 79.8501L86.5646 78.7673Z" fill="#DF817E"/>
<path d="M82.0299 82.1333L80.9471 82.6202L81.434 83.703L82.5168 83.2162L82.0299 82.1333Z" fill="#DF817E"/>
<path d="M76.4112 80.0062L75.3283 80.4931L75.8152 81.5759L76.898 81.089L76.4112 80.0062Z" fill="#DF817E"/>
<path d="M87.6491 84.2496L86.5663 84.7365L87.0532 85.8193L88.136 85.3324L87.6491 84.2496Z" fill="#DF817E"/>
<path d="M89.1226 74.324L90.0049 72.0001L88.6522 71.4865C89.1262 70.2378 88.4891 68.8848 87.2404 68.4107C85.9917 67.9366 84.6039 68.5606 84.143 69.7746L82.7903 69.261L81.908 71.585C78.2248 71.774 74.8066 74.0877 73.4107 77.7643C71.5276 82.7244 74.0236 88.2755 78.9836 90.1586C83.9437 92.0417 89.4948 89.5458 91.3779 84.5857C92.7391 80.8958 91.7175 76.8967 89.1226 74.324ZM86.8453 69.4513C87.5043 69.7015 87.8618 70.4324 87.6116 71.0915L85.1836 70.1697C85.4206 69.5453 86.1516 69.1879 86.8453 69.4513ZM83.4226 70.7313L88.5561 72.6803L88.2137 73.5821C87.5081 73.0365 86.6937 72.5685 85.7918 72.2261C84.89 71.8837 83.9702 71.6932 83.0802 71.6332L83.4226 70.7313ZM85.4099 73.232C89.6763 74.8517 91.8675 79.5331 90.4475 83.7959L89.0489 80.6854L85.1727 82.4283L83.4298 78.5521L79.5536 80.295L77.8107 76.4187L74.6045 77.8604C76.3498 73.6814 81.1089 71.5991 85.4099 73.232ZM79.3787 89.118C75.3898 87.6036 73.1925 83.3565 74.1339 79.3088L77.2445 77.9102L78.9874 81.7864L82.8636 80.0436L84.6064 83.9198L88.4826 82.1769L89.8597 85.2396C87.843 88.879 83.3675 90.6324 79.3787 89.118Z" fill="#DF817E"/>
<path d="M68.0768 64.5733L67.5784 65.197L68.2021 65.6954L68.7006 65.0717L68.0768 64.5733Z" fill="#DF817E"/>
<path d="M72.1974 64.1216L71.699 64.7453L72.3227 65.2437L72.8212 64.62L72.1974 64.1216Z" fill="#DF817E"/>
<path d="M70.5175 67.5277L70.019 68.1514L70.6428 68.6499L71.1412 68.0261L70.5175 67.5277Z" fill="#DF817E"/>
<path d="M66.5025 67.9799L66.004 68.6036L66.6278 69.102L67.1262 68.4783L66.5025 67.9799Z" fill="#DF817E"/>
<path d="M74.5294 67.0689L74.031 67.6926L74.6547 68.1911L75.1531 67.5673L74.5294 67.0689Z" fill="#DF817E"/>
<path d="M72.364 60.6776L72.1784 59.0162L71.2114 59.1242C71.1117 58.2315 70.3151 57.6175 69.4224 57.7172C68.5297 57.8169 67.8909 58.6163 67.9878 59.4842L67.0207 59.5922L67.2062 61.2535C65.0605 62.4974 63.7254 64.9311 64.0189 67.5596C64.4149 71.1055 67.6125 73.6607 71.1584 73.2648C74.7044 72.8689 77.2596 69.6712 76.8637 66.1253C76.5454 63.4996 74.7064 61.4203 72.364 60.6776ZM69.5054 58.4611C69.9766 58.4085 70.4149 58.7361 70.4675 59.2073L68.7317 59.4011C68.6819 58.9548 69.0095 58.5165 69.5054 58.4611ZM67.8504 60.2778L71.5204 59.868L71.5924 60.5127C71.0027 60.4028 70.3717 60.3729 69.7269 60.4448C69.0822 60.5168 68.4734 60.6852 67.9224 60.9225L67.8504 60.2778ZM69.8072 61.164C72.8573 60.8234 75.6055 62.9518 76.0645 65.9384L74.2728 64.5065L72.4885 66.7394L70.2557 64.9551L68.4714 67.1879L66.2386 65.4036L64.7627 67.2505C64.5241 64.2143 66.7324 61.5073 69.8072 61.164ZM71.0754 72.5209C68.2237 72.8393 65.6051 70.9726 64.9258 68.2617L66.3576 66.4699L68.5905 68.2542L70.3747 66.0214L72.6075 67.8056L74.3918 65.5728L76.156 66.9826C76.0666 69.7793 73.927 72.2025 71.0754 72.5209Z" fill="#DF817E"/>
<path d="M4.24657 38.0534L1.29151 38.115L-0.456285 35.7094L-1.31355 38.5567L-4.12382 39.4724L-1.68371 41.1676L-1.68611 44.1335L0.665919 42.3289L3.48132 43.2575L2.50148 40.458L4.24657 38.0534ZM0.539218 41.5815L-1.03471 42.7929L-1.02249 40.7919L-2.66347 39.6642L-0.767406 39.0572L-0.188776 37.1578L0.983535 38.7603L2.97372 38.7085L1.7961 40.314L2.46717 42.1992L0.539218 41.5815Z" fill="#DF817E"/>
<path d="M89.6428 35.8552C88.4246 32.0653 84.0932 30.847 81.1492 32.9789C80.8785 33.1819 80.6078 33.4188 80.3709 33.6557L78.6113 32.3698L78.0021 29.5273C77.9006 29.0536 77.3592 28.8505 76.987 29.1213L75.938 29.8657C75.7011 30.0349 75.6673 30.3395 75.8364 30.5763C76.0056 30.8132 76.3102 30.847 76.5471 30.6779L77.1562 30.2379L77.6976 32.7082L73.1293 35.9906L72.9263 35.1446C72.7909 34.637 72.1818 34.4002 71.7419 34.7047L70.7944 35.3815C70.5575 35.5507 70.5237 35.8552 70.6929 36.0921C70.8621 36.329 71.1666 36.3628 71.4035 36.1936L72.0465 35.7537L72.351 36.9719L72.8924 39.273C72.3172 39.4422 71.8096 39.7129 71.302 40.0513C69.8469 41.1003 68.9671 42.7584 69.0009 44.6196C69.0009 45.3302 69.1701 46.0408 69.4409 46.6838C70.3883 48.8156 72.4187 50 74.4829 50C75.5996 50 76.7163 49.6616 77.6638 48.9848C80.0325 47.2929 80.6416 44.0105 79.1188 41.5741L80.134 40.8634C80.98 41.9124 82.1644 42.6231 83.5179 42.8261C83.8225 42.8599 84.127 42.8938 84.4316 42.8938C85.5821 42.8938 86.665 42.5554 87.6125 41.8786C89.2706 40.6942 90.1504 38.7316 89.8458 36.5659C89.7782 36.329 89.7105 36.0921 89.6428 35.8552ZM79.7618 34.434C79.5926 34.7047 79.4234 35.0093 79.288 35.3138L78.9496 33.8587L79.7618 34.434ZM78.8481 45.2625C78.6451 46.4469 78.0022 47.4621 77.0208 48.1727C75.0243 49.6278 72.2157 49.154 70.7606 47.1237C70.05 46.1423 69.7792 44.958 69.9823 43.7736C70.1853 42.5892 70.8283 41.5741 71.8096 40.8634C72.1818 40.5927 72.5879 40.3897 73.0278 40.2543L74.1445 45.1272L78.239 42.1832C78.8143 43.0968 79.0512 44.1797 78.8481 45.2625ZM74.043 40.0513C74.1783 40.0513 74.3137 40.0175 74.4152 40.0175C74.6521 40.0175 74.9228 40.0513 75.1597 40.0851C76.1072 40.2543 76.9531 40.6942 77.6299 41.371L74.8213 43.4014L74.043 40.0513ZM78.4759 40.7958C77.6638 39.9159 76.5471 39.3068 75.3289 39.1038C74.8213 39.0361 74.3137 39.0023 73.8061 39.07L73.3662 37.0735L77.9345 33.8249L79.3557 40.2205L78.4759 40.7958ZM88.763 38.1563C88.56 39.3407 87.917 40.3558 86.9357 41.0665C85.9543 41.7771 84.77 42.0478 83.5856 41.8448C82.4012 41.6417 81.3861 40.9988 80.6754 40.0175C79.9648 39.0361 79.6941 37.8518 79.8971 36.6674C79.9987 36.0583 80.2355 35.483 80.5401 34.9754L84.5331 37.8856L85.1422 37.0735L81.183 34.1971C81.3522 34.0279 81.5214 33.8926 81.7245 33.7572C82.5028 33.1819 83.4164 32.9112 84.3301 32.9112C85.7175 32.9112 87.1049 33.5542 87.9847 34.7724C88.6953 35.7876 88.966 36.9719 88.763 38.1563Z" fill="#DF817E"/>
<path d="M6.9599 24.5853L4.39984 25.9482L3.63705 24.5153L3.33137 24.6781L4.09417 26.1109L1.32395 27.5857L0.561163 26.1528L0.255489 26.3155L1.01828 27.7484L-1.56088 29.1214L-2.88305 26.6378L-3.91472 27.187L-8.45079 18.6662L-7.41912 18.117L-7.96833 17.0853L0.552454 12.5492L1.10166 13.5809L2.13333 13.0317L6.6694 21.5525L5.63773 22.1017L6.9599 24.5853ZM4.66787 25.0699L6.10074 24.3071L4.77857 21.8235L5.81024 21.2743L1.8844 13.8998L0.852733 14.449L0.303523 13.4173L-7.07097 17.3432L-6.52176 18.3748L-7.55343 18.924L-3.62759 26.2985L-2.59592 25.7493L-1.27375 28.233L0.159116 27.4702L-0.603675 26.0373L0.848293 25.2644L1.61108 26.6972L3.235 25.8327L2.47221 24.3999L3.92418 23.6269L4.68697 25.0598L4.66787 25.0699Z" fill="#DF817E"/>
<path d="M0.376855 23.8571L-1.14774 24.6687L-4.5391 18.2982L-3.0145 17.4866L-1.85932 19.6565L-0.767662 19.0754L-1.92284 16.9054L-0.398269 16.0938L0.76751 18.2837L0.0146313 18.6845L0.851873 20.2572L1.60475 19.8564L2.99309 22.4643L1.46851 23.2759L0.0907758 20.6879L-1.00088 21.269L0.376855 23.8571Z" fill="#DF817E"/>
<path d="M14.0892 27.4785C13.907 27.544 13.8048 27.7608 13.8702 27.943C13.9357 28.1253 14.1525 28.2275 14.3348 28.162C14.5171 28.0966 14.6193 27.8798 14.5538 27.6975C14.4801 27.4924 14.2715 27.413 14.0892 27.4785Z" fill="#DF817E"/>
<path d="M16.3178 30.4596L15.6342 30.7051L15.8798 31.3887L16.5633 31.1431L16.3178 30.4596Z" fill="#DF817E"/>
<path d="M16.8416 31.9178L16.1581 32.1633L16.4036 32.8469L17.0872 32.6013L16.8416 31.9178Z" fill="#DF817E"/>
<path d="M15.0303 29.0956L15.7366 28.8419C16.1012 28.7109 16.3137 28.3001 16.1746 27.9128L14.124 28.6495C14.2403 29.045 14.6657 29.2266 15.0303 29.0956Z" fill="#DF817E"/>
<path d="M15.8069 27.2474L15.1234 27.493L15.2626 27.8803L15.9461 27.6347L15.8069 27.2474Z" fill="#DF817E"/>
<path d="M20.0878 26.9186L17.3992 27.8845L16.1797 24.4896L11.8506 26.0447L13.0702 29.4396L10.7006 30.2909C9.88032 30.5855 9.45693 31.4836 9.7516 32.3039C10.0463 33.1241 10.9444 33.5475 11.7646 33.2528L13.5646 32.6062L13.9984 33.8138L14.2146 38.8554C14.2316 39.2609 14.4017 39.6628 14.7068 39.9391C15.0118 40.2154 15.3981 40.3596 15.8345 40.3572C16.24 40.3401 16.6419 40.17 16.9182 39.865C17.1945 39.5599 17.3387 39.1737 17.3363 38.7372L17.183 35.0879L17.9349 34.8178L20.1388 37.7305C20.3837 38.0541 20.7489 38.2831 21.1789 38.3344C21.4249 38.3746 21.6919 38.3302 21.9198 38.2483C22.0565 38.1992 22.2078 38.1191 22.3281 38.0245C22.6517 37.7796 22.8807 37.4143 22.932 36.9843C22.9915 36.5771 22.8897 36.1506 22.6221 35.8351L19.2411 31.3645L18.9791 30.6354L21.1209 29.866C21.9411 29.5714 22.3645 28.6732 22.0699 27.853C21.7752 27.0327 20.908 26.624 20.0878 26.9186ZM20.8981 29.1743L18.0728 30.1892L18.613 31.693L22.0496 36.2466C22.1916 36.4271 22.2425 36.6403 22.2168 36.8554C22.1912 37.0704 22.0808 37.2644 21.9003 37.4064C21.7198 37.5484 21.5065 37.5993 21.2915 37.5736C21.0765 37.548 20.8825 37.4376 20.7405 37.2571L18.2279 33.9151L16.4735 34.5453L16.662 38.7222C16.6674 38.9518 16.5879 39.1604 16.4384 39.317C16.2889 39.4737 16.0692 39.5783 15.8624 39.5754C15.6328 39.5807 15.4242 39.5013 15.2675 39.3518C15.1109 39.2022 15.0063 38.9826 15.0092 38.7758L14.7749 33.6121L14.0546 31.607L11.5711 32.4992C11.1381 32.6547 10.6508 32.4439 10.4871 31.9882C10.3234 31.5325 10.5424 31.068 10.9981 30.9043L14.0512 29.8075L12.8317 26.4126L15.7937 25.3485L17.0132 28.7434L20.3853 27.532C20.8182 27.3765 21.3056 27.5873 21.4693 28.043C21.633 28.4987 21.331 29.0188 20.8981 29.1743Z" fill="#DF817E"/>
<path d="M31.0313 67.9934C31.3942 67.9314 31.7466 67.7169 31.9577 67.2929C32.292 66.6253 32.0072 65.982 31.5775 65.6498C31.1839 65.3441 30.5992 65.2154 30.0639 65.535C29.9524 65.6034 29.936 65.7472 30.0131 65.8317L30.0358 65.8539C30.0994 65.934 30.2027 65.9375 30.292 65.8917C30.6622 65.668 31.0674 65.7986 31.3071 65.9801C31.5786 66.2018 31.8162 66.6212 31.5699 67.1084C31.3235 67.5956 30.8439 67.6498 30.5018 67.5545C30.1733 67.4636 29.7797 67.158 29.8191 66.619L29.87 66.3223L29.8787 66.2953C29.8993 65.6758 29.4644 65.2673 29.0234 65.1551C28.5825 65.0429 28.0048 65.17 27.7189 65.7338C27.4768 66.2075 27.6117 66.6684 27.8841 66.9798L25.9795 66.3663L24 72.5122L30.1324 74.4874L32.1119 68.3415L31.0313 67.9934ZM29.3022 66.9743L29.2795 66.9521C29.2159 66.872 29.117 66.855 29.0277 66.9008C28.7463 67.0338 28.4535 66.9246 28.277 66.7783C28.0778 66.6098 27.8995 66.284 28.0888 65.9275C28.2825 65.5576 28.6411 65.5091 28.902 65.5782C29.163 65.6474 29.4481 65.8733 29.4387 66.2728L29.3878 66.5696L29.3835 66.5831C29.3519 67.0052 29.4988 67.3358 29.7346 67.5758L29.0187 67.3452C29.0858 67.3221 29.1529 67.299 29.2065 67.2715C29.3406 67.2253 29.375 67.0723 29.3022 66.9743ZM27.7414 73.2551L24.5266 72.2197L25.5707 68.9779L28.7855 70.0133L27.7414 73.2551ZM28.9161 69.6081L25.7013 68.5726L26.2451 66.8842L29.4599 67.9196L28.9161 69.6081ZM29.8621 73.9382L28.1601 73.39L29.2043 70.1482L30.9062 70.6964L29.8621 73.9382ZM31.0367 70.2911L29.3348 69.743L29.8786 68.0545L31.5806 68.6027L31.0367 70.2911Z" fill="#DF817E"/>
<path d="M21.5033 47.647C21.7865 47.0839 21.8488 46.3803 21.4788 45.6587C20.8983 44.5198 19.7224 44.2587 18.828 44.5135C18.0069 44.7454 17.2356 45.4205 17.1323 46.4829C17.1133 46.7061 17.2947 46.8749 17.4895 46.8544L17.5432 46.8457C17.7183 46.8394 17.8279 46.7006 17.8555 46.531C17.9233 45.7936 18.5149 45.3677 19.0086 45.2218C19.5899 45.0727 20.4093 45.1713 20.8305 46.0057C21.2517 46.8402 20.8392 47.5563 20.3605 47.931C19.9014 48.2914 19.0804 48.5233 18.3776 47.9215L18.0204 47.5501L17.992 47.5106C17.1591 46.8528 16.1543 47.0374 15.5517 47.5312C14.9491 48.0249 14.5374 48.9501 15.0241 49.917C15.431 50.7318 16.2032 51.0141 16.9091 50.955L14.1289 52.9567L20.5886 61.9283L29.5404 55.4828L23.0807 46.5113L21.5033 47.647ZM18.3422 48.995L18.2885 49.0037C18.1134 49.01 17.9896 49.1291 17.962 49.2986C17.8595 49.8216 17.4115 50.1142 17.0306 50.2088C16.596 50.3122 15.9658 50.227 15.6669 49.6039C15.3537 48.9611 15.6511 48.4177 16.0115 48.1282C16.3719 47.8388 16.9729 47.6755 17.514 48.0943L17.8713 48.4658L17.8855 48.4855C18.4352 48.9579 19.0402 49.0912 19.6104 49.0099L18.5654 49.7624C18.6017 49.6465 18.6379 49.5305 18.6545 49.4288C18.7271 49.1969 18.5512 48.9942 18.3422 48.995ZM25.4131 57.5264L20.7203 60.9053L17.313 56.1731L22.0058 52.7942L25.4131 57.5264ZM21.5799 52.2026L16.8871 55.5815L15.1124 53.1168L19.8052 49.7379L21.5799 52.2026ZM28.5088 55.2975L26.0244 57.0863L22.617 52.3541L25.1015 50.5652L28.5088 55.2975ZM24.6756 49.9737L22.1911 51.7625L20.4165 49.2978L22.9009 47.509L24.6756 49.9737Z" fill="#DF817E"/>
</g>
<defs>
<clipPath id="clip0_2_101">
<rect width="88" height="88" rx="2" fill="white"/>
</clipPath>
</defs>
</svg>
