<svg width="21" height="21" viewBox="0 0 21 21" fill="none" xmlns="http://www.w3.org/2000/svg">
<path d="M15.6529 7.86287C16.3297 7.71217 16.9724 7.27561 17.3298 6.45822C17.8961 5.17103 17.3 3.98749 16.4605 3.40281C15.6916 2.86471 14.5795 2.67743 13.6025 3.3288C13.3992 3.46802 13.3817 3.74003 13.5347 3.89173L13.5794 3.93138C13.7067 4.07616 13.9012 4.07295 14.0649 3.97845C14.7404 3.523 15.5149 3.73053 15.9828 4.04961C16.5144 4.44109 17.0007 5.20784 16.5829 6.14741C16.1652 7.08698 15.2679 7.23397 14.6156 7.08684C13.989 6.94663 13.2201 6.40853 13.2437 5.39101L13.3115 4.82808L13.3253 4.77645C13.3061 3.60909 12.4495 2.88149 11.6095 2.71175C10.7695 2.54202 9.69478 2.83515 9.20967 3.92271C8.7988 4.83646 9.09564 5.69079 9.63732 6.25101L5.99701 5.27559L2.84939 17.0227L14.5707 20.1634L17.7183 8.4163L15.6529 7.86287ZM12.3045 6.10785L12.2597 6.0682C12.1325 5.92342 11.9449 5.90081 11.7812 5.99531C11.2643 6.27189 10.7033 6.09388 10.3575 5.83521C9.96703 5.53688 9.60101 4.94072 9.9238 4.25241C10.2535 3.53829 10.9234 3.4134 11.4209 3.51902C11.9183 3.62465 12.4757 4.02303 12.4955 4.77546L12.4276 5.33838L12.4207 5.3642C12.4008 6.16134 12.7083 6.76948 13.1744 7.19875L11.806 6.83211C11.93 6.78233 12.0541 6.73254 12.1523 6.67584C12.4003 6.57628 12.4506 6.28537 12.3045 6.10785ZM9.95719 18.0694L3.81256 16.4229L5.47284 10.2267L11.6175 11.8731L9.95719 18.0694ZM11.825 11.0986L5.68038 9.45215L6.54511 6.22492L12.6897 7.87137L11.825 11.0986ZM14.0106 19.1555L10.7575 18.2839L12.4178 12.0876L15.6709 12.9592L14.0106 19.1555ZM15.8784 12.1847L12.6254 11.3131L13.4901 8.08583L16.7431 8.95748L15.8784 12.1847Z" fill="#2F3029"/>
</svg>
