<svg width="16" height="17" viewBox="0 0 16 17" fill="none" xmlns="http://www.w3.org/2000/svg">
<path d="M6.92998 7.38266L6.36328 7.76318L6.74381 8.32989L7.31051 7.94937L6.92998 7.38266Z" fill="#F6EED7"/>
<path d="M10.406 8.07333L9.83929 8.45386L10.2198 9.02057L10.7865 8.64004L10.406 8.07333Z" fill="#F6EED7"/>
<path d="M8.16089 10.4188L7.59418 10.7993L7.9747 11.366L8.54142 10.9855L8.16089 10.4188Z" fill="#F6EED7"/>
<path d="M4.77081 9.75595L4.2041 10.1365L4.58463 10.7032L5.15134 10.3227L4.77081 9.75595Z" fill="#F6EED7"/>
<path d="M11.5502 11.0758L10.9835 11.4563L11.364 12.023L11.9308 11.6425L11.5502 11.0758Z" fill="#F6EED7"/>
<path d="M11.4268 5.30773L11.7024 3.90533L10.8861 3.74487C11.0342 2.99135 10.5424 2.28596 9.7889 2.13785C9.03537 1.98973 8.30905 2.47743 8.16506 3.21003L7.34873 3.04957L7.07308 4.45198C5.00375 4.91484 3.28975 6.55628 2.85365 8.77501C2.26532 11.7682 4.21611 14.6735 7.2093 15.2618C10.2025 15.8501 13.1078 13.8993 13.6961 10.9062C14.1113 8.68333 13.1461 6.51526 11.4268 5.30773ZM9.66548 2.76579C10.0632 2.84396 10.3364 3.22375 10.2582 3.62145L8.793 3.33345C8.86705 2.95669 9.24685 2.6835 9.66548 2.76579ZM7.84913 3.82187L10.947 4.43077L10.84 4.97499C10.3874 4.73384 9.88056 4.54726 9.33634 4.44029C8.79213 4.33333 8.25238 4.31419 7.74216 4.36609L7.84913 3.82187ZM9.21703 5.0473C11.7916 5.55335 13.4856 7.99511 13.0925 10.5484L11.9994 8.92042L9.97067 10.2826L8.60848 8.25392L6.5798 9.61611L5.2176 7.58741L3.53954 8.71416C4.1252 6.17699 6.62154 4.53714 9.21703 5.0473ZM7.33273 14.6339C4.92562 14.1607 3.27002 11.9657 3.41273 9.58058L5.04069 8.48746L6.40289 10.5162L8.43157 9.15396L9.79376 11.1827L11.8225 9.82047L12.8987 11.4234C12.1072 13.6809 9.73983 15.107 7.33273 14.6339Z" fill="#F6EED7"/>
</svg>
