<svg width="16" height="17" viewBox="0 0 16 17" fill="none" xmlns="http://www.w3.org/2000/svg">
<path d="M8.61459 3.94946C8.43375 3.91392 8.24441 4.04105 8.20886 4.22189C8.17332 4.40274 8.30045 4.59208 8.4813 4.62763C8.66214 4.66317 8.85148 4.53604 8.88703 4.35519C8.92702 4.15174 8.79544 3.98501 8.61459 3.94946Z" fill="#F6EED7"/>
<path d="M8.9787 7.47265L8.30054 7.33936L8.16724 8.01752L8.8454 8.15082L8.9787 7.47265Z" fill="#F6EED7"/>
<path d="M8.69434 8.91919L8.01617 8.78589L7.88288 9.46405L8.56104 9.59735L8.69434 8.91919Z" fill="#F6EED7"/>
<path d="M8.59341 5.72985L9.29418 5.86759C9.65587 5.93868 10.0301 5.70702 10.1056 5.32272L8.07115 4.92283C7.97301 5.30268 8.23172 5.65876 8.59341 5.72985Z" fill="#F6EED7"/>
<path d="M10.1304 4.59985L9.45221 4.46655L9.37667 4.85085L10.0548 4.98414L10.1304 4.59985Z" fill="#F6EED7"/>
<path d="M13.787 6.42197L11.1196 5.89767L11.7816 2.52946L7.48658 1.68524L6.82454 5.05345L4.47357 4.59135C3.65977 4.43139 2.87536 4.9581 2.7154 5.7719C2.55545 6.58569 3.08215 7.3701 3.89595 7.53006L5.68178 7.88108L5.44628 9.07917L3.16054 13.3022C2.97642 13.6416 2.91905 14.053 3.03324 14.4276C3.14744 14.8022 3.39243 15.1087 3.75006 15.3198C4.08953 15.504 4.50088 15.5613 4.87551 15.4471C5.25014 15.3329 5.55655 15.0879 5.76772 14.7303L7.4248 11.6751L8.17078 11.8217L8.5482 15.2768C8.59013 15.6607 8.77658 16.0261 9.10273 16.278C9.28396 16.431 9.52373 16.5251 9.74979 16.5696C9.88542 16.5962 10.0481 16.6047 10.1926 16.5862C10.5765 16.5442 10.9419 16.3578 11.1938 16.0316C11.4413 15.7281 11.5665 15.3301 11.502 14.9417L10.9241 9.63934L11.0663 8.91597L13.1912 9.33363C14.005 9.49359 14.7894 8.96689 14.9494 8.15309C15.1094 7.33929 14.6008 6.58193 13.787 6.42197ZM13.3471 8.65991L10.5441 8.10895L10.2508 9.60091L10.8335 14.9982C10.8613 15.2149 10.7987 15.414 10.6727 15.577C10.5468 15.7401 10.3619 15.8446 10.1451 15.8725C9.9283 15.9003 9.72929 15.8377 9.56622 15.7117C9.40315 15.5857 9.29862 15.4008 9.27079 15.1841L8.85105 11.2276L7.11043 10.8854L5.22441 14.3887C5.11661 14.5788 4.94987 14.7104 4.75126 14.7653C4.55264 14.8202 4.32214 14.7984 4.15463 14.695C3.96451 14.5872 3.83293 14.4204 3.77805 14.2218C3.72318 14.0232 3.745 13.7927 3.84836 13.6252L6.17894 9.29361L6.56994 7.30433L4.10595 6.82002C3.67645 6.7356 3.38141 6.32542 3.47027 5.87331C3.55914 5.4212 3.96487 5.14877 4.41698 5.23763L7.44611 5.83303L8.10815 2.46482L11.0469 3.04244L10.3848 6.41065L13.7304 7.06826C14.1599 7.15268 14.455 7.56285 14.3661 8.01496C14.2772 8.46707 13.7766 8.74434 13.3471 8.65991Z" fill="#F6EED7"/>
</svg>
