<svg width="42" height="40" viewBox="0 0 42 40" fill="none" xmlns="http://www.w3.org/2000/svg">
<g opacity="0.3">
<path d="M27.9875 20.5241L32.6198 19.4042L22.887 9.89484L26.3986 9.04584L13.168 -3.80923L7.27142 13.6702L10.7831 12.8212L6.46936 25.7265L11.1017 24.6066L5.68133 40.7846L18.1588 37.768L19.8388 44.7165L29.4771 42.3863L27.7971 35.4377L40.2746 32.421L27.9875 20.5241ZM25.0137 33.7382L26.6937 40.6867L21.5383 41.9331L19.8584 34.9846L9.24876 37.5497L14.6692 21.3716L10.0368 22.4916L14.3505 9.58621L10.8389 10.4352L14.1796 0.374836L21.7473 7.79788L18.2357 8.64689L27.9685 18.1562L23.3362 19.2762L35.5486 31.1912L25.0137 33.7382Z" fill="#F6EED7"/>
<path d="M25.7494 30.2389C26.646 30.0222 27.1378 29.1124 26.9391 28.2906C26.7223 27.394 25.8126 26.9022 24.9907 27.1009C24.0941 27.3177 23.6023 28.2274 23.801 29.0492C24.0178 29.9458 24.8528 30.4557 25.7494 30.2389Z" fill="#F6EED7"/>
<path d="M19.0717 25.8433C19.9683 25.6265 20.4601 24.7168 20.2614 23.8949C20.0446 22.9984 19.1349 22.5065 18.313 22.7053C17.4165 22.922 16.9247 23.8318 17.1234 24.6536C17.3221 25.4755 18.1751 26.0601 19.0717 25.8433Z" fill="#F6EED7"/>
<path d="M16.1578 33.7439C17.0544 33.5271 17.5462 32.6174 17.3475 31.7955C17.1307 30.8989 16.221 30.4072 15.3991 30.6059C14.5026 30.8226 14.0107 31.7324 14.2095 32.5542C14.3515 33.4689 15.2612 33.9607 16.1578 33.7439Z" fill="#F6EED7"/>
<path d="M18.9345 17.098C19.8311 16.8813 20.3229 15.9715 20.1242 15.1497C19.9074 14.2531 18.9977 13.7613 18.1758 13.96C17.2792 14.1768 16.7874 15.0865 16.9861 15.9084C17.1101 16.7483 18.0379 17.3148 18.9345 17.098Z" fill="#F6EED7"/>
</g>
</svg>
