<svg width="35" height="42" viewBox="0 0 35 42" fill="none" xmlns="http://www.w3.org/2000/svg">
<path d="M26.2984 25.0026L29.5161 25.8648L26.7236 16.7729L29.1628 17.4265L25.3427 5.11122L15.8769 13.8665L18.3161 14.5201L11.3518 20.9977L14.5694 21.8598L5.83114 29.9758L14.4981 32.2981L13.2048 37.1246L19.8997 38.9185L21.1929 34.0919L29.8599 36.4143L26.2984 25.0026ZM20.0532 32.1178L18.7599 36.9443L15.179 35.9848L16.4722 31.1583L9.10272 29.1837L17.841 21.0677L14.6233 20.2056L21.5877 13.728L19.1484 13.0744L24.564 8.01751L26.7256 15.1047L24.2864 14.4511L27.0789 23.543L23.8612 22.6808L27.3708 34.0786L20.0532 32.1178Z" fill="#F6EED7"/>
<path d="M21.6753 30.2164C22.2981 30.3832 22.9042 29.9894 23.0572 29.4185C23.2241 28.7958 22.8302 28.1896 22.2593 28.0367C21.6366 27.8698 21.0304 28.2636 20.8775 28.8345C20.7106 29.4573 21.0525 30.0495 21.6753 30.2164Z" fill="#F6EED7"/>
<path d="M19.0472 25.2847C19.67 25.4516 20.2761 25.0578 20.4291 24.4869C20.5959 23.8641 20.2021 23.258 19.6312 23.105C19.0085 22.9381 18.4023 23.332 18.2494 23.9028C18.0964 24.4737 18.4244 25.1179 19.0472 25.2847Z" fill="#F6EED7"/>
<path d="M14.6161 29.159C15.2389 29.3259 15.845 28.932 15.998 28.3611C16.1648 27.7384 15.771 27.1322 15.2001 26.9793C14.5774 26.8124 13.9712 27.2062 13.8182 27.7771C13.5995 28.386 13.9933 28.9921 14.6161 29.159Z" fill="#F6EED7"/>
<path d="M21.8882 19.8716C22.511 20.0385 23.1171 19.6447 23.2701 19.0738C23.437 18.451 23.0432 17.8449 22.4723 17.6919C21.8495 17.525 21.2434 17.9189 21.0904 18.4897C20.8855 19.0467 21.2655 19.7048 21.8882 19.8716Z" fill="#F6EED7"/>
</svg>
