<svg width="40" height="40" viewBox="0 0 40 40" fill="none" xmlns="http://www.w3.org/2000/svg">
<g clip-path="url(#clip0_1_65)">
<g opacity="0.4">
<path d="M5.83594 7.30547C6.3889 7.68464 7.15653 7.54152 7.53569 6.98856C7.91486 6.4356 7.77174 5.66796 7.21878 5.28879C6.66582 4.90962 5.89819 5.05274 5.51902 5.6057C5.13474 6.13125 5.27787 6.89888 5.83594 7.30547Z" fill="#F6EED7"/>
<path d="M15.1034 4.66994C14.9603 3.9023 14.2121 3.38931 13.4445 3.53243L12.7043 3.67044L13.4849 2.53199L11.143 0.926106L8.9005 4.26616L7.66448 3.41861L9.9841 0.0358003L7.64215 -1.57009L6.74999 -0.269009L6.58131 -1.17372C6.43819 -1.94136 5.69006 -2.45435 4.92243 -2.31123C4.15479 -2.1681 3.64181 -1.41998 3.78493 -0.652349L3.92294 0.0878699L2.81701 -0.670466L1.21113 1.67148L4.44152 3.93441L3.57167 5.20297L0.188859 2.88335L-1.41703 5.22529L-0.148482 6.09515L-0.970948 6.24849C-1.73858 6.39162 -2.25158 7.13974 -2.10846 7.90737C-1.96533 8.67501 -1.21721 9.188 -0.449575 9.04488L0.290648 8.90687L-0.489993 10.0453L1.85195 11.6512L4.15949 8.35575L5.46568 9.27533L3.16836 12.6256L5.51031 14.2315L6.33557 13.028L6.47358 13.7682C6.6167 14.5359 7.36481 15.0489 8.13245 14.9057C8.90008 14.7626 9.41308 14.0145 9.26996 13.2469L9.13195 12.5066L10.3355 13.3319L11.9413 10.9899L8.58594 8.6652L9.45069 7.36923L12.801 9.66655L14.4069 7.3246L13.1383 6.45475L13.9608 6.3014C14.7335 6.18569 15.2465 5.43757 15.1034 4.66994ZM13.2331 7.57181L12.5863 8.51509L9.20348 6.19548L7.40708 8.88499L10.7248 11.16L10.078 12.1033L7.8987 10.6089L8.40474 13.3231C8.46097 13.6246 8.26535 13.9448 7.93636 14.0061C7.60737 14.0675 7.31463 13.8667 7.25329 13.5377L6.74725 10.8236L5.25288 13.0029L4.3096 12.3561L6.60691 9.00582L3.95689 7.11694L1.64935 10.4124L0.706066 9.76558L2.15583 7.65132L-0.558308 8.15736C-0.859879 8.21359 -1.18004 8.01796 -1.24138 7.68897C-1.30272 7.35999 -1.10198 7.06724 -0.772992 7.0059L2.02339 6.48453L-0.220976 4.94556L0.425839 4.00227L3.80866 6.32189L5.61528 3.6872L2.38488 1.42427L3.0317 0.480987L5.11343 1.90844L4.60739 -0.805694C4.55117 -1.10726 4.74679 -1.42742 5.07577 -1.48876C5.40476 -1.5501 5.6975 -1.34936 5.75884 -1.02038L6.30066 1.88567L7.86194 -0.391222L8.80523 0.255596L6.51302 3.6333L8.8875 5.26149L9.29873 5.18482L11.4176 2.09475L12.3609 2.74156L10.9111 4.85582L13.6253 4.34979C13.9268 4.29356 14.247 4.48918 14.3083 4.81817C14.3697 5.14716 14.1689 5.4399 13.84 5.50124L11.0436 6.02261L13.2331 7.57181Z" fill="#F6EED7"/>
</g>
<g opacity="0.2">
<path d="M33.9892 18.749C34.2232 18.9392 34.5726 18.903 34.7627 18.6689C34.9529 18.4349 34.9167 18.0855 34.6827 17.8953C34.4486 17.7052 34.0992 17.7413 33.9091 17.9754C33.7176 18.197 33.7538 18.5464 33.9892 18.749Z" fill="#F6EED7"/>
<path d="M38.24 17.9055C38.2039 17.5561 37.8872 17.2988 37.5378 17.335L37.2009 17.3699L37.5924 16.888L36.601 16.0826L35.4739 17.4982L34.9507 17.0732L36.114 15.6412L35.1226 14.8358L34.6752 15.3866L34.6326 14.9749C34.5964 14.6255 34.2797 14.3682 33.9303 14.4044C33.581 14.4406 33.3237 14.7572 33.3599 15.1066L33.3948 15.4435L32.9266 15.0632L32.1212 16.0546L33.487 17.1869L33.0507 17.7239L31.6187 16.5606L30.8134 17.5519L31.3504 17.9882L30.9761 18.0269C30.6267 18.0631 30.3694 18.3798 30.4056 18.7291C30.4418 19.0785 30.7584 19.3358 31.1078 19.2996L31.4447 19.2647L31.0532 19.7466L32.0446 20.552L33.1993 19.1588L33.7513 19.6187L32.5992 21.0369L33.5906 21.8422L34.0044 21.3328L34.0393 21.6697C34.0755 22.019 34.3922 22.2763 34.7415 22.2401C35.0909 22.2039 35.3482 21.8873 35.312 21.5379L35.2771 21.201L35.7866 21.6149L36.5919 20.6235L35.1724 19.4589L35.6074 18.9095L37.0256 20.0616L37.8309 19.0702L37.294 18.634L37.6683 18.5952C38.0189 18.5715 38.2762 18.2548 38.24 17.9055ZM37.2957 19.1382L36.9713 19.5375L35.5394 18.3742L34.6359 19.5145L36.0403 20.6554L35.716 21.0547L34.7934 20.3053L34.9213 21.5405C34.9355 21.6778 34.8362 21.8142 34.6864 21.8297C34.5367 21.8452 34.4128 21.7445 34.3973 21.5948L34.2694 20.3595L33.52 21.282L33.1207 20.9577L34.2728 19.5394L33.1536 18.596L31.9989 19.9892L31.5996 19.6649L32.3267 18.7699L31.0914 18.8977C30.9542 18.912 30.8178 18.8126 30.8023 18.6629C30.7868 18.5131 30.8875 18.3892 31.0372 18.3737L32.3099 18.2419L31.3598 17.4701L31.6842 17.0708L33.1162 18.2341L34.0222 17.1189L32.6565 15.9865L32.9809 15.5872L33.8621 16.3031L33.7342 15.0679C33.72 14.9306 33.8194 14.7942 33.9691 14.7787C34.1188 14.7632 34.2427 14.8639 34.2582 15.0136L34.3952 16.3362L35.1781 15.3724L35.5774 15.6968L34.4266 17.1274L35.4318 17.944L35.6189 17.9246L36.6815 16.6166L37.0808 16.9409L36.3538 17.8359L37.589 17.708C37.7263 17.6938 37.8627 17.7932 37.8782 17.9429C37.8937 18.0927 37.793 18.2166 37.6433 18.2321L36.3706 18.3638L37.2957 19.1382Z" fill="#F6EED7"/>
</g>
<g opacity="0.1">
<path d="M22.5447 9.02953C22.694 9.15083 22.9169 9.12776 23.0382 8.97844C23.1595 8.82913 23.1364 8.60626 22.9871 8.48496C22.8378 8.36366 22.6149 8.38673 22.4936 8.53605C22.3715 8.6774 22.3946 8.90027 22.5447 9.02953Z" fill="#F6EED7"/>
<path d="M25.2564 8.49142C25.2334 8.26855 25.0314 8.10444 24.8085 8.12751L24.5936 8.14976L24.8433 7.84234L24.2109 7.32858L23.4919 8.23163L23.1581 7.96048L23.9002 7.047L23.2678 6.53325L22.9824 6.88459L22.9552 6.62193C22.9321 6.39906 22.7301 6.23495 22.5072 6.25802C22.2844 6.28109 22.1202 6.48311 22.1433 6.70598L22.1656 6.92088L21.8669 6.67827L21.3532 7.31068L22.2244 8.03301L21.9461 8.37557L21.0326 7.63348L20.5189 8.26589L20.8614 8.54417L20.6226 8.56889C20.3998 8.59196 20.2357 8.79398 20.2587 9.01684C20.2818 9.23971 20.4838 9.40382 20.7067 9.38075L20.9216 9.3585L20.6719 9.66592L21.3043 10.1797L22.0409 9.2909L22.393 9.58428L21.6581 10.489L22.2905 11.0027L22.5545 10.6777L22.5767 10.8926C22.5998 11.1155 22.8018 11.2796 23.0247 11.2566C23.2476 11.2335 23.4117 11.0315 23.3886 10.8086L23.3664 10.5937L23.6913 10.8577L24.2051 10.2253L23.2996 9.48238L23.577 9.13187L24.4817 9.86682L24.9955 9.23441L24.6529 8.95613L24.8917 8.93141C25.1154 8.9163 25.2795 8.71428 25.2564 8.49142ZM24.654 9.27781L24.4471 9.53252L23.5336 8.79044L22.9573 9.51781L23.8532 10.2456L23.6463 10.5004L23.0578 10.0223L23.1394 10.8103C23.1485 10.8978 23.0851 10.9848 22.9895 10.9947C22.894 11.0046 22.815 10.9404 22.8051 10.8449L22.7235 10.0569L22.2454 10.6454L21.9907 10.4384L22.7257 9.53375L22.0117 8.9319L21.2751 9.82068L21.0204 9.61375L21.4842 9.04283L20.6962 9.1244C20.6087 9.13347 20.5217 9.07007 20.5118 8.97456C20.5019 8.87904 20.5661 8.79999 20.6616 8.7901L21.4735 8.70606L20.8674 8.21371L21.0744 7.95899L21.9878 8.70108L22.5658 7.98962L21.6946 7.26729L21.9015 7.01257L22.4637 7.46924L22.3821 6.68126C22.373 6.5937 22.4364 6.50669 22.5319 6.4968C22.6275 6.48692 22.7065 6.55113 22.7164 6.64665L22.8037 7.49035L23.3032 6.87551L23.5579 7.08244L22.8238 7.99509L23.465 8.51598L23.5844 8.50362L24.2623 7.66919L24.517 7.87612L24.0532 8.44704L24.8412 8.36547C24.9287 8.3564 25.0157 8.4198 25.0256 8.51531C25.0355 8.61083 24.9713 8.68988 24.8758 8.69976L24.0639 8.78381L24.654 9.27781Z" fill="#F6EED7"/>
</g>
<g opacity="0.1">
<path d="M22.9721 30.4252C23.0448 30.6033 23.2514 30.6901 23.4295 30.6173C23.6076 30.5446 23.6944 30.338 23.6216 30.1599C23.5489 29.9818 23.3423 29.895 23.1642 29.9678C22.9892 30.0332 22.9024 30.2397 22.9721 30.4252Z" fill="#F6EED7"/>
<path d="M25.6092 31.255C25.696 31.0484 25.5976 30.8075 25.391 30.7207L25.1918 30.6371L25.5584 30.4873L25.2503 29.733L24.186 30.18L24.0234 29.7819L25.1129 29.3368L24.8048 28.5825L24.3858 28.7537L24.488 28.5103C24.5748 28.3037 24.4763 28.0627 24.2697 27.976C24.0632 27.8892 23.8222 27.9877 23.7355 28.1942L23.6518 28.3934L23.5063 28.0372L22.752 28.3454L23.1695 29.3973L22.7609 29.5642L22.3159 28.4746L21.5616 28.7828L21.7285 29.1913L21.5071 29.0984C21.3006 29.0116 21.0596 29.1101 20.9729 29.3166C20.8861 29.5232 20.9845 29.7642 21.1911 29.8509L21.3903 29.9346L21.0237 30.0844L21.3318 30.8386L22.4046 30.4126L22.5727 30.839L21.4937 31.2798L21.8018 32.0341L22.1894 31.8758L22.1057 32.075C22.019 32.2815 22.1174 32.5225 22.324 32.6092C22.5306 32.696 22.7715 32.5976 22.8583 32.391L22.9419 32.1918L23.1003 32.5794L23.8546 32.2713L23.4169 31.1849L23.8285 31.0106L24.2693 32.0896L25.0236 31.7815L24.8567 31.3729L25.078 31.4659C25.2815 31.56 25.5225 31.4616 25.6092 31.255ZM24.7033 31.6557L24.3995 31.7798L23.9544 30.6902L23.0996 31.0516L23.5361 32.1202L23.2323 32.2443L22.9456 31.5424L22.6389 32.2728C22.6048 32.354 22.5074 32.3999 22.4189 32.3627C22.3303 32.3255 22.2918 32.2312 22.329 32.1427L22.6357 31.4123L21.9338 31.699L21.8097 31.3952L22.8888 30.9544L22.5514 30.0837L21.4786 30.5097L21.3545 30.2059L22.0354 29.9278L21.305 29.621C21.2239 29.5869 21.178 29.4896 21.2151 29.401C21.2523 29.3125 21.3466 29.274 21.4351 29.3112L22.1877 29.6272L21.8924 28.9043L22.1962 28.7802L22.6413 29.8697L23.4898 29.5231L23.0724 28.4712L23.3762 28.3471L23.6501 29.0176L23.9568 28.2872C23.9909 28.206 24.0883 28.1601 24.1768 28.1973C24.2653 28.2345 24.3038 28.3288 24.2667 28.4173L23.9382 29.1994L24.6716 28.8998L24.7957 29.2036L23.7135 29.6518L24.0259 30.4165L24.1366 30.463L25.1318 30.0564L25.2559 30.3603L24.575 30.6384L25.3054 30.9452C25.3866 30.9792 25.4324 31.0766 25.3953 31.1652C25.3581 31.2537 25.2638 31.2922 25.1753 31.255L24.4227 30.939L24.7033 31.6557Z" fill="#F6EED7"/>
</g>
<g opacity="0.1">
<path d="M1.9721 21.4252C2.04485 21.6033 2.25143 21.6901 2.42952 21.6173C2.60761 21.5446 2.69437 21.338 2.62162 21.1599C2.54887 20.9818 2.34229 20.895 2.16419 20.9678C1.9892 21.0332 1.90244 21.2397 1.9721 21.4252Z" fill="#F6EED7"/>
<path d="M4.60922 22.255C4.69598 22.0484 4.59755 21.8075 4.39097 21.7207L4.19177 21.6371L4.55844 21.4873L4.25031 20.733L3.18603 21.18L3.02341 20.7819L4.11293 20.3368L3.8048 19.5825L3.38576 19.7537L3.488 19.5103C3.57476 19.3037 3.47633 19.0627 3.26975 18.976C3.06317 18.8892 2.82222 18.9877 2.73547 19.1942L2.65181 19.3934L2.50631 19.0372L1.75203 19.3454L2.1695 20.3973L1.76093 20.5642L1.31586 19.4746L0.561582 19.7828L0.728481 20.1913L0.507146 20.0984C0.300568 20.0116 0.0596159 20.1101 -0.0271374 20.3166C-0.113891 20.5232 -0.0154627 20.7642 0.191116 20.8509L0.390318 20.9346L0.0236526 21.0844L0.331773 21.8386L1.40462 21.4126L1.5727 21.839L0.493657 22.2798L0.80178 23.0341L1.1894 22.8758L1.10574 23.075C1.01899 23.2815 1.11742 23.5225 1.32399 23.6092C1.53057 23.696 1.77152 23.5976 1.85828 23.391L1.94193 23.1918L2.10027 23.5794L2.85456 23.2713L2.41687 22.1849L2.82854 22.0106L3.26932 23.0896L4.02361 22.7815L3.85671 22.3729L4.07804 22.4659C4.28152 22.56 4.52247 22.4616 4.60922 22.255ZM3.70326 22.6557L3.39945 22.7798L2.95439 21.6902L2.09962 22.0516L2.53613 23.1202L2.23232 23.2443L1.9456 22.5424L1.63886 23.2728C1.60478 23.354 1.5074 23.3999 1.41886 23.3627C1.33033 23.3255 1.29181 23.2312 1.32899 23.1427L1.63573 22.4123L0.933827 22.699L0.809723 22.3952L1.88876 21.9544L1.55142 21.0837L0.478577 21.5097L0.354472 21.2059L1.03542 20.9278L0.305019 20.621C0.223863 20.5869 0.17797 20.4896 0.21515 20.401C0.25233 20.3125 0.346616 20.274 0.43515 20.3112L1.18768 20.6272L0.892401 19.9043L1.19621 19.7802L1.64128 20.8697L2.48984 20.5231L2.07237 19.4712L2.37618 19.3471L2.65007 20.0176L2.9568 19.2872C2.99088 19.206 3.08827 19.1601 3.1768 19.1973C3.26533 19.2345 3.30385 19.3288 3.26667 19.4173L2.93825 20.1994L3.67158 19.8998L3.79568 20.2036L2.71354 20.6518L3.02594 21.4165L3.13661 21.463L4.13184 21.0564L4.25595 21.3603L3.575 21.6384L4.3054 21.9452C4.38655 21.9792 4.43245 22.0766 4.39527 22.1652C4.35809 22.2537 4.2638 22.2922 4.17527 22.255L3.42273 21.939L3.70326 22.6557Z" fill="#F6EED7"/>
</g>
<g opacity="0.2">
<path d="M32.4838 1.10177C32.8978 1.5884 33.6395 1.64819 34.1262 1.23418C34.6128 0.820161 34.6726 0.0784504 34.2586 -0.408179C33.8446 -0.894809 33.1028 -0.954608 32.6162 -0.540591C32.1317 -0.153063 32.0719 0.588647 32.4838 1.10177Z" fill="#F6EED7"/>
<path d="M41.6646 0.988838C41.7244 0.247129 41.1643 -0.411254 40.4226 -0.471053L39.7073 -0.528717L40.7092 -1.3811L38.9557 -3.44212L36.0603 -0.929398L35.1349 -2.01716L38.1119 -4.54997L36.3584 -6.61099L35.2134 -5.63683L35.2839 -6.51099C35.3437 -7.2527 34.7835 -7.91108 34.0418 -7.97088C33.3001 -8.03068 32.6417 -7.47054 32.5819 -6.72883L32.5243 -6.01361L31.6962 -6.98687L29.6352 -5.23338L32.042 -2.3465L30.9256 -1.3967L28.3928 -4.37373L26.3318 -2.62024L27.2816 -1.50386L26.4869 -1.56793C25.7452 -1.62773 25.0868 -1.06759 25.027 -0.325878C24.9672 0.415831 25.5273 1.07421 26.269 1.13401L26.9843 1.19168L25.9824 2.04406L27.7359 4.10508L30.68 1.64961L31.652 2.82111L28.7036 5.32957L30.4571 7.39059L31.5162 6.48949L31.4586 7.20471C31.3988 7.94642 31.9589 8.6048 32.7006 8.6646C33.4423 8.7244 34.1007 8.16426 34.1605 7.42255L34.2182 6.70733L35.1193 7.76646L37.1803 6.01298L34.674 3.03808L35.7925 2.06179L38.3009 5.0102L40.362 3.25671L39.4122 2.14033L40.2069 2.2044C40.9464 2.29069 41.6048 1.73055 41.6646 0.988838ZM39.2208 3.19137L38.3906 3.89763L35.8578 0.920605L33.5349 2.94625L36.019 5.86603L35.1889 6.5723L33.5572 4.6544L33.3457 7.27687C33.3222 7.56826 33.0625 7.81394 32.7446 7.78831C32.4267 7.76268 32.2075 7.50505 32.2332 7.18717L32.4446 4.5647L30.5267 6.19642L29.8204 5.36629L32.7688 2.85783L30.8026 0.45971L27.8585 2.91519L27.1522 2.08506L29.0128 0.50205L26.3904 0.290618C26.099 0.267126 25.8533 0.00736084 25.8789 -0.310515C25.9046 -0.62839 26.1622 -0.847577 26.4801 -0.821949L29.182 -0.60411L27.5016 -2.57925L28.3317 -3.28552L30.8645 -0.308488L33.1832 -2.28116L30.7764 -5.16804L31.6065 -5.8743L33.1652 -4.04228L33.3766 -6.66476C33.4001 -6.95614 33.6599 -7.20182 33.9777 -7.17619C34.2956 -7.15056 34.5148 -6.89293 34.4892 -6.57506L34.2628 -3.76716L36.2666 -5.47194L36.9728 -4.6418L34.0223 -2.10686L35.8001 -0.0172095L36.1975 0.0148256L38.9169 -2.2988L39.6231 -1.46867L37.7625 0.11434L40.385 0.325771C40.6764 0.349263 40.922 0.609029 40.8964 0.926904C40.8708 1.24478 40.6131 1.46396 40.2953 1.43833L37.5933 1.2205L39.2208 3.19137Z" fill="#F6EED7"/>
</g>
<g opacity="0.4">
<path d="M36.7196 39.9836C37.2263 40.7996 38.3156 41.0544 39.1316 40.5477C39.9476 40.0411 40.2024 38.9518 39.6958 38.1358C39.1891 37.3197 38.0998 37.0649 37.2838 37.5716C36.4769 38.0394 36.2221 39.1286 36.7196 39.9836Z" fill="#F6EED7"/>
<path d="M50.3933 41.8688C50.6481 40.7796 49.9627 39.6755 48.8734 39.4207L47.823 39.1751L49.5031 38.1319L47.3572 34.6758L42.4908 37.7638L41.3583 35.9397L46.3505 32.8401L44.2046 29.384L42.2845 30.5761L42.5848 29.2923C42.8396 28.203 42.1541 27.099 41.0648 26.8442C39.9755 26.5894 38.8715 27.2749 38.6167 28.3642L38.371 29.4146L37.3577 27.7825L33.9016 29.9284L36.8339 34.7584L34.9619 35.9207L31.8623 30.9285L28.4061 33.0744L29.5685 34.9464L28.4014 34.6735C27.3121 34.4187 26.2081 35.1042 25.9533 36.1934C25.6985 37.2827 26.384 38.3868 27.4733 38.6416L28.5237 38.8872L26.8436 39.9304L28.9894 43.3865L33.9155 40.3945L35.0985 42.3535L30.1543 45.4233L32.3001 48.8794L34.0762 47.7767L33.8306 48.8271C33.5758 49.9164 34.2612 51.0204 35.3505 51.2752C36.4398 51.53 37.5439 50.8445 37.7986 49.7552L38.0443 48.7048L39.147 50.4809L42.6032 48.335L39.5425 43.3519L41.4237 42.1507L44.4935 47.0949L47.9496 44.949L46.7873 43.077L47.9544 43.3499C49.0345 43.6436 50.1386 42.9581 50.3933 41.8688ZM46.2677 44.5967L44.8756 45.461L41.7761 40.4688L37.8697 42.9607L40.9097 47.8569L39.5176 48.7212L37.5208 45.505L36.6199 49.3564C36.5198 49.7843 36.0787 50.0915 35.6119 49.9823C35.1451 49.8731 34.8768 49.4411 34.986 48.9742L35.8868 45.1229L32.6707 47.1197L31.8064 45.7277L36.7506 42.6579L34.3638 38.653L29.4378 41.645L28.5735 40.2529L31.6936 38.3157L27.8423 37.4149C27.4143 37.3148 27.1072 36.8737 27.2164 36.4068C27.3256 35.94 27.7576 35.6718 28.2244 35.7809L32.1925 36.7091L30.1361 33.3969L31.5281 32.5326L34.6277 37.5248L38.5159 35.1107L35.5835 30.2807L36.9755 29.4164L38.883 32.4886L39.7838 28.6372C39.8839 28.2092 40.325 27.9021 40.7918 28.0113C41.2587 28.1205 41.5269 28.5525 41.4177 29.0193L40.4532 33.143L43.8133 31.0568L44.6777 32.4488L39.7243 35.5575L41.9 39.0617L42.4836 39.1982L47.0437 36.3668L47.9081 37.7589L44.7879 39.6961L48.6393 40.5969C49.0672 40.697 49.3744 41.1381 49.2652 41.605C49.156 42.0718 48.724 42.34 48.2571 42.2308L44.289 41.3027L46.2677 44.5967Z" fill="#F6EED7"/>
</g>
<g opacity="0.2">
<path d="M8.12007 33.29C8.38048 33.6797 8.91579 33.7861 9.30539 33.5256C9.695 33.2652 9.8014 32.7299 9.54099 32.3403C9.28058 31.9507 8.74528 31.8443 8.35567 32.1047C7.96986 32.346 7.86347 32.8813 8.12007 33.29Z" fill="#F6EED7"/>
<path d="M14.8183 33.9855C14.9247 33.4502 14.5724 32.9231 14.0371 32.8167L13.5209 32.7141L14.323 32.1779L13.2201 30.5278L10.8978 32.1132L10.3157 31.2423L12.6992 29.6492L11.5963 27.9991L10.6796 28.6119L10.805 27.981C10.9114 27.4457 10.559 26.9185 10.0237 26.8121C9.48842 26.7057 8.96131 27.0581 8.85491 27.5934L8.75231 28.1096L8.23149 27.3303L6.5814 28.4332L8.09029 30.7404L7.19649 31.3378L5.6034 28.9543L3.9533 30.0572L4.5507 30.951L3.97716 30.837C3.44185 30.7306 2.91474 31.0829 2.80834 31.6182C2.70194 32.1535 3.05426 32.6807 3.58956 32.7871L4.10576 32.8897L3.30362 33.4258L4.40652 35.0759L6.75949 33.5364L7.36841 34.4722L5.00785 36.05L6.11076 37.7001L6.95873 37.1333L6.85613 37.6495C6.74973 38.1848 7.10204 38.7119 7.63735 38.8183C8.17266 38.9247 8.69977 38.5724 8.80617 38.0371L8.90877 37.5209L9.47554 38.3689L11.1256 37.266L9.55168 34.8863L10.4493 34.2698L12.0271 36.6303L13.6772 35.5274L13.0797 34.6336L13.6533 34.7476C14.1848 34.8731 14.7119 34.5208 14.8183 33.9855ZM12.8513 35.3831L12.1866 35.8274L10.5936 33.4439L8.7296 34.7229L10.292 37.0605L9.62742 37.5047L8.60111 35.9692L8.22491 37.8619C8.18311 38.0722 7.97305 38.2292 7.74363 38.1836C7.51422 38.138 7.37635 37.9317 7.42195 37.7023L7.79815 35.8096L6.26264 36.836L5.81841 36.1713L8.17897 34.5936L6.94961 32.6798L4.59664 34.2194L4.15242 33.5548L5.64209 32.5591L3.7494 32.1829C3.5391 32.1411 3.38212 31.931 3.42772 31.7016C3.47332 31.4722 3.67958 31.3343 3.909 31.3799L5.85904 31.7675L4.80209 30.1862L5.46672 29.7419L7.05981 32.1254L8.91617 30.8847L7.40727 28.5775L8.07189 28.1333L9.05226 29.6001L9.42846 27.7074C9.47026 27.4971 9.68031 27.3401 9.90973 27.3857C10.1391 27.4313 10.277 27.6375 10.2314 27.867L9.82862 29.8935L11.4329 28.8212L11.8771 29.4858L9.51275 31.0827L10.631 32.7557L10.9177 32.8127L13.095 31.3575L13.5392 32.0221L12.0495 33.0178L13.9422 33.394C14.1525 33.4358 14.3095 33.6459 14.2639 33.8753C14.2183 34.1047 14.012 34.2426 13.7826 34.197L11.8326 33.8094L12.8513 35.3831Z" fill="#F6EED7"/>
</g>
</g>
<defs>
<clipPath id="clip0_1_65">
<rect width="40" height="40" rx="2" fill="white"/>
</clipPath>
</defs>
</svg>
