<svg width="40" height="40" viewBox="0 0 40 40" fill="none" xmlns="http://www.w3.org/2000/svg">
<g opacity="0.3">
<path d="M13.0957 19.1632L12.599 21.0171L14.4529 21.5138L14.9497 19.66L13.0957 19.1632Z" fill="white"/>
<path d="M21.7358 14.1983L21.239 16.0522L23.0929 16.549L23.5897 14.6951L21.7358 14.1983Z" fill="white"/>
<path d="M21.3174 23.3182L20.8206 25.1721L22.6745 25.6689L23.1713 23.8149L21.3174 23.3182Z" fill="white"/>
<path d="M12.9109 28.1829L12.4142 30.0369L14.2681 30.5336L14.7649 28.6797L12.9109 28.1829Z" fill="white"/>
<path d="M29.7114 18.4427L29.2146 20.2966L31.0685 20.7934L31.5653 18.9395L29.7114 18.4427Z" fill="white"/>
<path d="M18.7841 6.45304L16.7748 2.97283L14.749 4.14241C13.6694 2.27244 11.3234 1.68773 9.45339 2.76735C7.58342 3.84698 6.94675 6.22304 7.99639 8.04106L5.97058 9.21066L7.97988 12.6909C4.45261 17.4977 3.85728 24.1439 7.03618 29.6499C11.3247 37.0778 20.8289 39.6245 28.2569 35.3359C35.6848 31.0474 38.2314 21.5432 33.9429 14.1153C30.7121 8.63925 24.6586 5.83172 18.7841 6.45304ZM10.3531 4.32566C11.34 3.75585 12.6209 4.05517 13.1907 5.0421L9.5547 7.14137C9.01488 6.20639 9.3142 4.92545 10.3531 4.32566ZM8.45856 9.92123L16.1462 5.48277L16.9259 6.8333C15.5213 7.15945 14.1028 7.70141 12.7522 8.48114C11.4017 9.26087 10.2231 10.2184 9.23829 11.2718L8.45856 9.92123ZM13.6219 9.9875C20.011 6.29878 28.1143 8.33834 32.0028 14.4736L26.6771 13.0466L24.8989 19.6832L18.2623 17.9049L16.484 24.5415L9.84742 22.7632L8.3765 28.2527C4.92555 21.7957 7.18094 13.7062 13.6219 9.9875ZM27.3572 33.7776C21.3837 37.2264 13.818 35.6383 9.70997 30.3224L11.137 24.9968L17.7736 26.775L19.5518 20.1385L26.1884 21.9167L27.9667 15.2801L33.2104 16.6852C35.7081 22.9308 33.3307 30.3288 27.3572 33.7776Z" fill="white"/>
</g>
</svg>
