<svg width="34" height="38" viewBox="0 0 34 38" fill="none" xmlns="http://www.w3.org/2000/svg">
<g opacity="0.2">
<path d="M15.088 14.8748C14.3682 14.8748 13.8284 15.4745 13.8284 16.1343C13.8284 16.8541 14.4282 17.3939 15.088 17.3939C15.8077 17.3939 16.3476 16.7941 16.3476 16.1343C16.3476 15.4745 15.7478 14.8748 15.088 14.8748Z" fill="#2F3029"/>
<path d="M17.6071 21.7124C16.8874 21.7124 16.3476 22.3122 16.3476 22.972C16.3476 23.6917 16.9474 24.2315 17.6071 24.2315C18.3269 24.2315 18.8667 23.6317 18.8667 22.972C18.9267 22.3122 18.3269 21.7124 17.6071 21.7124Z" fill="#2F3029"/>
<path d="M11.7891 22.7921C12.5089 22.7921 13.0487 22.1923 13.0487 21.5325C13.0487 20.8128 12.4489 20.2729 11.7891 20.2729C11.0694 20.2729 10.5296 20.8727 10.5296 21.5325C10.4696 22.1923 11.0694 22.7921 11.7891 22.7921Z" fill="#2F3029"/>
<path d="M19.8864 30.5294C20.6061 30.5294 21.146 29.9296 21.146 29.2698C21.146 28.5501 20.5461 28.0103 19.8864 28.0103C19.1666 28.0103 18.6268 28.61 18.6268 29.2698C18.5668 29.9296 19.1666 30.5294 19.8864 30.5294Z" fill="#2F3029"/>
<path d="M26.3642 33.5883C27.0839 33.5883 27.6237 32.9885 27.6237 32.3288C27.6237 31.609 27.0239 31.0692 26.3642 31.0692C25.6444 31.0692 25.1046 31.669 25.1046 32.3288C25.0446 32.9885 25.6444 33.5883 26.3642 33.5883Z" fill="#2F3029"/>
<path d="M24.5048 25.3712C23.785 25.3712 23.2452 25.971 23.2452 26.6308C23.2452 27.3505 23.845 27.8903 24.5048 27.8903C25.2245 27.8903 25.7643 27.2905 25.7643 26.6308C25.7643 25.971 25.1646 25.3712 24.5048 25.3712Z" fill="#2F3029"/>
<path d="M14.7281 0L0.213135 5.93794L2.97216 12.7156L17.4871 6.77765L14.7281 0ZM2.6123 6.89761L13.7684 2.33919L15.2079 5.81798L4.05182 10.3764L2.6123 6.89761Z" fill="#2F3029"/>
<path d="M29.8429 23.4518L22.4055 18.7134L17.967 7.85718L3.45209 13.7951L9.74991 29.2098L21.3259 36.6472C22.6454 37.4869 24.0849 37.9068 25.5244 37.9068C28.1035 37.9068 30.6227 36.6472 32.1221 34.308C34.5213 30.6493 33.4417 25.791 29.8429 23.4518ZM30.6826 33.3483C28.8833 36.1674 25.1646 36.9471 22.3455 35.1477L11.2494 28.0102L5.85126 14.7548L17.0074 10.1964L20.966 19.913L28.8833 25.0112C31.6423 26.8106 32.482 30.5293 30.6826 33.3483Z" fill="#2F3029"/>
</g>
</svg>
