<svg width="56" height="60" viewBox="0 0 56 60" fill="none" xmlns="http://www.w3.org/2000/svg">
<path d="M30.68 18.8208L27.5243 19.6663L27.0545 17.9131L26.6805 18.0134L27.1503 19.7666L23.7841 20.6685L23.3144 18.9153L22.9403 19.0155L23.4101 20.7687L20.2544 21.6143L19.4401 18.5754L18.1778 18.9137L15.3843 8.48802L16.6466 8.14978L16.3083 6.88749L26.734 4.09394L27.0722 5.35624L28.3345 5.01801L31.1281 15.4437L29.8658 15.7819L30.68 18.8208ZM28.0376 18.7772L29.7908 18.3074L28.9766 15.2685L30.2389 14.9303L27.8211 5.90719L26.5588 6.24542L26.2206 4.98312L17.1975 7.40086L17.5357 8.66315L16.2734 9.00139L18.6912 18.0245L19.9535 17.6863L20.7677 20.7251L22.5209 20.2554L22.0512 18.5022L23.8277 18.0261L24.2975 19.7793L26.2844 19.2469L25.8147 17.4937L27.5912 17.0177L28.061 18.7709L28.0376 18.7772Z" fill="#F6EED7"/>
<path d="M28.0453 10.8581L27.3573 10.4411L26.6278 11.739L25.3236 10.986L24.9363 11.6911L26.2108 12.4269L25.4812 13.7248L26.1629 14.1184L26.9222 12.8376L28.1966 13.5735L28.5902 12.8918L27.3095 12.1326L28.0453 10.8581Z" fill="#F6EED7"/>
<path d="M20.9757 12.151L20.2228 13.4551L18.9187 12.7022L18.5314 13.4073L19.8292 14.1369L19.0763 15.441L19.758 15.8346L20.5172 14.5538L21.8151 15.2834L22.2086 14.6017L20.9045 13.8487L21.6637 12.568L20.9757 12.151Z" fill="#F6EED7"/>
<path d="M45.5621 14.8331L42.4064 15.6787L41.9366 13.9255L41.5626 14.0257L42.0324 15.7789L38.6662 16.6809L38.1965 14.9277L37.8225 15.0279L38.2922 16.7811L35.1365 17.6267L34.3222 14.5878L33.0599 14.926L30.2664 4.50037L31.5287 4.16213L31.1904 2.89983L41.6161 0.106289L41.9543 1.36859L43.2166 1.03035L46.0102 11.456L44.7479 11.7942L45.5621 14.8331ZM42.9198 14.7895L44.6729 14.3197L43.8587 11.2809L45.121 10.9426L42.7033 1.91954L41.441 2.25777L41.1027 0.995473L32.0796 3.4132L32.4179 4.6755L31.1556 5.01374L33.5733 14.0368L34.8356 13.6986L35.6499 16.7375L37.4031 16.2677L36.9333 14.5145L38.7098 14.0385L39.1796 15.7917L41.1666 15.2593L40.6968 13.5061L42.4734 13.0301L42.9431 14.7832L42.9198 14.7895Z" fill="#F6EED7"/>
<path d="M42.9274 6.87009L42.2395 6.45313L41.5099 7.751L40.2058 6.99806L39.8184 7.70314L41.0929 8.43897L40.3634 9.73685L41.0451 10.1304L41.8043 8.84967L43.0788 9.5855L43.4724 8.90379L42.1916 8.14459L42.9274 6.87009Z" fill="#F6EED7"/>
<path d="M35.8579 8.16319L35.1049 9.46733L33.8008 8.71439L33.4135 9.41946L34.7113 10.149L33.9584 11.4532L34.6401 11.8468L35.3993 10.566L36.6972 11.2956L37.0907 10.6139L35.7866 9.86091L36.5458 8.58015L35.8579 8.16319Z" fill="#F6EED7"/>
<path d="M54.6291 48.3028L51.4961 49.1423L51.0262 47.3887L50.6521 47.4889L51.122 49.2425L47.7317 50.1509L47.2619 48.3973L46.8878 48.4976L47.3576 50.2512L44.2012 51.0969L43.3868 48.0574L42.1242 48.3957L39.33 37.9678L40.5926 37.6295L40.2543 36.3669L50.6822 33.5728L51.0205 34.8353L52.2831 34.497L55.0773 44.9249L53.8147 45.2632L54.6291 48.3028ZM52.0096 48.2529L53.7631 47.783L52.9487 44.7435L54.2113 44.4052L51.793 35.3801L50.5304 35.7184L50.1921 34.4559L41.1671 36.8741L41.5054 38.1367L40.2428 38.475L42.6611 47.5001L43.9236 47.1617L44.7381 50.2013L46.4916 49.7314L46.0218 47.9778L47.7987 47.5017L48.2686 49.2553L50.256 48.7228L49.7861 46.9692L51.5631 46.493L52.0329 48.2466L52.0096 48.2529Z" fill="#F6EED7"/>
<path d="M47.6399 45.8498L45.774 46.3497L43.685 38.5533L45.5508 38.0534L46.2624 40.709L47.5984 40.3511L46.8868 37.6954L48.7526 37.1955L49.4707 39.8755L48.5493 40.1224L49.0651 42.0471L49.9865 41.8002L50.8417 44.9918L48.9759 45.4918L48.1272 42.3245L46.7912 42.6825L47.6399 45.8498Z" fill="#F6EED7"/>
<path d="M20.2596 39.4709L17.1039 40.3165L16.6341 38.5633L16.2601 38.6635L16.7299 40.4167L13.3637 41.3187L12.894 39.5655L12.52 39.6657L12.9897 41.4189L9.83398 42.2645L9.01972 39.2256L7.75741 39.5638L4.96387 29.1382L6.22617 28.7999L5.88794 27.5376L16.3136 24.7441L16.6518 26.0064L17.9141 25.6681L20.7077 36.0938L19.4454 36.432L20.2596 39.4709ZM17.6172 39.4273L19.3704 38.9575L18.5562 35.9187L19.8185 35.5804L17.4008 26.5573L16.1384 26.8956L15.8002 25.6333L6.77712 28.051L7.11535 29.3133L5.85305 29.6515L8.27078 38.6746L9.53309 38.3364L10.3473 41.3753L12.1005 40.9055L11.6308 39.1523L13.4073 38.6763L13.8771 40.4295L15.8641 39.8971L15.3943 38.1439L17.1709 37.6678L17.6406 39.421L17.6172 39.4273Z" fill="#F6EED7"/>
<path d="M17.6249 31.5082L16.9369 31.0912L16.2074 32.3891L14.9032 31.6361L14.5159 32.3412L15.7904 33.077L15.0608 34.3749L15.7426 34.7685L16.5018 33.4877L17.7762 34.2236L18.1698 33.5419L16.8891 32.7827L17.6249 31.5082Z" fill="#F6EED7"/>
<path d="M10.5554 32.8011L9.80241 34.1052L8.49826 33.3523L8.11096 34.0573L9.40881 34.7869L8.65589 36.091L9.33758 36.4846L10.0968 35.2039L11.3947 35.9334L11.7882 35.2517L10.4841 34.4988L11.2433 33.218L10.5554 32.8011Z" fill="#F6EED7"/>
<path d="M15.7985 22.8117L12.6655 23.6512L12.1956 21.8976L11.8215 21.9978L12.2914 23.7514L8.90113 24.6598L8.43126 22.9062L8.05717 23.0065L8.52704 24.7601L5.37061 25.6058L4.55617 22.5663L3.29359 22.9046L0.499437 12.4767L1.76202 12.1384L1.42371 10.8758L11.8516 8.08166L12.1899 9.34423L13.4525 9.00592L16.2467 19.4338L14.9841 19.7721L15.7985 22.8117ZM13.1789 22.7618L14.9325 22.2919L14.1181 19.2524L15.3807 18.9141L12.9624 9.88904L11.6998 10.2273L11.3615 8.96477L2.33646 11.383L2.67477 12.6456L1.41219 12.9839L3.83045 22.009L5.09302 21.6707L5.90746 24.7102L7.66104 24.2403L7.19117 22.4867L8.96812 22.0106L9.43798 23.7642L11.4254 23.2317L10.9555 21.4781L12.7324 21.002L13.2023 22.7555L13.1789 22.7618Z" fill="#F6EED7"/>
<path d="M8.80925 20.3587L6.94342 20.8586L4.85439 13.0623L6.72022 12.5623L7.4318 15.2179L8.76779 14.86L8.05622 12.2043L9.92202 11.7044L10.6401 14.3844L9.71874 14.6313L10.2345 16.556L11.1559 16.3091L12.011 19.5007L10.1452 20.0007L9.29658 16.8334L7.96058 17.1914L8.80925 20.3587Z" fill="#F6EED7"/>
<path d="M32.0166 36.5037L31.5464 34.7488L31.172 34.8491L31.6422 36.604L28.2728 37.5068L27.8026 35.7519L27.4282 35.8522L27.8985 37.6071L24.7631 38.4472L23.948 35.4054L22.6845 35.744L19.8883 25.3083L21.1518 24.9697L20.8132 23.7062L31.2489 20.91L31.5875 22.1735L32.851 21.835L35.6472 32.2706L34.3837 32.6092L35.1988 35.651L32.0166 36.5037ZM32.5538 35.6074L34.3087 35.1371L33.4937 32.0953L34.7572 31.7568L32.3371 22.725L31.0736 23.0636L30.7351 21.8L21.7033 24.2201L22.0418 25.4836L20.7783 25.8222L23.1984 34.854L24.4619 34.5154L25.2769 37.5572L27.0318 37.087L26.5616 35.3321L28.3399 34.8556L28.8101 36.6105L30.799 36.0776L30.3287 34.3227L32.107 33.8462L32.5772 35.6011L32.5538 35.6074ZM30.2871 30.7978L32.9545 30.0831L32.2398 27.4157L29.5723 28.1304L30.2871 30.7978ZM23.8993 32.5094L26.5667 31.7947L25.852 29.1273L23.1846 29.842L23.8993 32.5094Z" fill="#F6EED7"/>
<path d="M24.938 56.5612L21.7823 57.4068L21.3125 55.6536L20.9385 55.7539L21.4083 57.507L18.0422 58.409L17.5724 56.6558L17.1984 56.756L17.6681 58.5092L14.5124 59.3548L13.6981 56.3159L12.4358 56.6542L9.64229 46.2285L10.9046 45.8903L10.5664 44.628L20.992 41.8344L21.3302 43.0967L22.5925 42.7585L25.3861 53.1842L24.1238 53.5224L24.938 56.5612ZM22.2957 56.5176L24.0489 56.0479L23.2346 53.009L24.4969 52.6708L22.0792 43.6477L20.8169 43.9859L20.4786 42.7236L11.4555 45.1413L11.7938 46.4036L10.5315 46.7419L12.9492 55.765L14.2115 55.4267L15.0258 58.4656L16.779 57.9958L16.3092 56.2427L18.0858 55.7666L18.5555 57.5198L20.5425 56.9874L20.0727 55.2342L21.8493 54.7582L22.319 56.5114L22.2957 56.5176Z" fill="#F6EED7"/>
<path d="M22.3033 48.5985L21.6153 48.1816L20.8858 49.4794L19.5817 48.7265L19.1943 49.4316L20.4688 50.1674L19.7393 51.4653L20.421 51.8589L21.1802 50.5781L22.4547 51.3139L22.8483 50.6322L21.5675 49.873L22.3033 48.5985Z" fill="#F6EED7"/>
<path d="M15.2338 49.8914L14.4808 51.1956L13.1767 50.4426L12.7894 51.1477L14.0872 51.8773L13.3343 53.1814L14.016 53.575L14.7752 52.2942L16.0731 53.0238L16.4667 52.3421L15.1625 51.5891L15.9217 50.3084L15.2338 49.8914Z" fill="#F6EED7"/>
<path d="M50.0363 31.4923L46.8806 32.3378L46.4108 30.5847L46.0368 30.6849L46.5065 32.4381L43.1404 33.34L42.6706 31.5868L42.2966 31.687L42.7664 33.4402L39.6107 34.2858L38.7964 31.2469L37.5341 31.5852L34.7405 21.1595L36.0029 20.8213L35.6646 19.559L46.0903 16.7654L46.4285 18.0277L47.6908 17.6895L50.4843 28.1152L49.222 28.4534L50.0363 31.4923ZM47.3939 31.4487L49.1471 30.9789L48.3329 27.94L49.5952 27.6018L47.1774 18.5787L45.9151 18.9169L45.5769 17.6546L36.5538 20.0724L36.892 21.3347L35.6297 21.6729L38.0475 30.696L39.3098 30.3578L40.124 33.3966L41.8772 32.9269L41.4075 31.1737L43.184 30.6976L43.6538 32.4508L45.6407 31.9184L45.171 30.1652L46.9475 29.6892L47.4173 31.4424L47.3939 31.4487Z" fill="#F6EED7"/>
<path d="M47.4016 23.5293L46.7136 23.1123L45.9841 24.4102L44.6799 23.6572L44.2926 24.3623L45.5671 25.0981L44.8375 26.396L45.5192 26.7896L46.2785 25.5088L47.5529 26.2447L47.9465 25.563L46.6658 24.8038L47.4016 23.5293Z" fill="#F6EED7"/>
<path d="M40.332 24.8224L39.5791 26.1265L38.2749 25.3736L37.8876 26.0786L39.1855 26.8082L38.4326 28.1123L39.1143 28.5059L39.8735 27.2252L41.1714 27.9547L41.5649 27.273L40.2608 26.5201L41.02 25.2393L40.332 24.8224Z" fill="#F6EED7"/>
<path d="M39.8202 52.5737L36.6645 53.4193L36.1947 51.6661L35.8207 51.7663L36.2904 53.5195L32.9243 54.4215L32.4545 52.6683L32.0805 52.7685L32.5503 54.5217L29.3946 55.3673L28.5803 52.3284L27.318 52.6666L24.5244 42.241L25.7867 41.9027L25.4485 40.6404L35.8742 37.8469L36.2124 39.1092L37.4747 38.771L40.2682 49.1966L39.0059 49.5348L39.8202 52.5737ZM37.1778 52.5301L38.931 52.0603L38.1168 49.0215L39.3791 48.6832L36.9613 39.6601L35.699 39.9984L35.3608 38.7361L26.3377 41.1538L26.6759 42.4161L25.4136 42.7543L27.8314 51.7774L29.0937 51.4392L29.9079 54.4781L31.6611 54.0083L31.1914 52.2551L32.9679 51.7791L33.4377 53.5323L35.4246 52.9999L34.9549 51.2467L36.7314 50.7707L37.2012 52.5238L37.1778 52.5301Z" fill="#F6EED7"/>
<path d="M37.1854 44.6107L36.4974 44.1937L35.7679 45.4916L34.4637 44.7386L34.0764 45.4437L35.3509 46.1796L34.6213 47.4774L35.303 47.871L36.0623 46.5903L37.3367 47.3261L37.7303 46.6444L36.4496 45.8852L37.1854 44.6107Z" fill="#F6EED7"/>
<path d="M30.1159 45.9039L29.363 47.208L28.0588 46.455L27.6715 47.1601L28.9694 47.8897L28.2165 49.1938L28.8982 49.5874L29.6574 48.3067L30.9553 49.0362L31.3488 48.3545L30.0447 47.6016L30.8039 46.3208L30.1159 45.9039Z" fill="#F6EED7"/>
</svg>
