<svg xmlns="http://www.w3.org/2000/svg" xmlns:xlink="http://www.w3.org/1999/xlink" version="1.1" width="9.360000610351562" height="14.14799976348877" viewBox="0.28700000047683716 -0.15299999713897705 9.360000610351562 14.14799976348877">
  <!-- Exported by Scratch - http://scratch.mit.edu/ -->
  <path id="ID0.6201183116063476" fill="#001966" opacity="1" d="M 5.062 13.495 C 7.589 13.495 9.147 11.633 9.147 9.22 C 9.147 6.788 7.437 5.325 5.309 5.325 C 3.884 5.325 2.82 6.009 2.155 6.731 C 2.326 2.627 3.523 1.487 5.765 1.487 C 6.582 1.487 7.684 1.81 8.14 2.076 L 8.558 1.088 C 8.045 0.784 6.848 0.347 5.594 0.347 C 2.668 0.347 0.787 2.342 0.787 6.788 L 0.787 7.776 C 0.787 11.424 2.288 13.495 5.062 13.495 Z M 5.062 12.336 C 2.953 12.336 2.155 10.74 2.155 8.327 L 2.155 8.194 C 2.706 7.396 3.808 6.503 5.081 6.503 C 6.658 6.503 7.779 7.301 7.779 9.353 C 7.779 11.215 6.772 12.336 5.062 12.336 Z " stroke-width="1"/>
</svg>