<svg xmlns="http://www.w3.org/2000/svg" xmlns:xlink="http://www.w3.org/1999/xlink" version="1.1" width="367.50858122110367" height="367.8503170609474" viewBox="0.5602388083934784 -0.21828940510749817 367.50858122110367 367.8503170609474">
  <!-- Exported by Scratch - http://scratch.mit.edu/ -->
  <g id="ID0.2893554079346359">
    <path id="ID0.12761887209489942" fill="none" stroke="#FF9400" stroke-width="9.809438288211823" d="M 8.2346 137.6233 C 7.1372 125.4099 20.1452 91.8302 39.0898 73.0118 "/>
    <path id="ID0.12761887209489942" fill="none" stroke="#FF9400" stroke-width="10.281957685947418" d="M 30.5782 276.7612 C 20.1845 268.6487 5.0337 231.3081 5.724 204.9767 "/>
    <path id="ID0.12761887209489942" fill="none" stroke="#FF9400" stroke-width="9.45372998714447" d="M 125.3848 359.4411 C 113.932 360.2182 81.0664 348.1363 62.8843 329.8232 "/>
    <path id="ID0.12761887209489942" fill="none" stroke="#FF9400" stroke-width="9.974852800369263" d="M 290.5753 338.2579 C 282.6879 348.3465 244.6757 363.479 220.9209 362.4403 "/>
    <path id="ID0.12761887209489942" fill="none" stroke="#FF9400" stroke-width="10.240839346133656" d="M 360.2406 225.2247 C 361.1602 237.5691 348.2827 273.2971 328.6236 293.0619 "/>
    <path id="ID0.12761887209489942" fill="none" stroke="#FF9400" stroke-width="10.205798331485425" d="M 337.7531 89.5942 C 348.1182 97.5843 363.8118 136.4643 362.8889 160.2485 "/>
    <path id="ID0.12761887209489942" fill="none" stroke="#FF9400" stroke-width="10.190541649650394" d="M 237.5487 7.3582 C 250.2941 6.1366 285.1408 19.4206 304.8585 39.0425 "/>
    <path id="ID0.12761887209489942" fill="none" stroke="#FF9400" stroke-width="9.825025027950907" d="M 77.0678 29.0776 C 84.7768 19.0939 120.2778 4.3964 144.9888 4.9372 "/>
  </g>
</svg>