<svg xmlns="http://www.w3.org/2000/svg" xmlns:xlink="http://www.w3.org/1999/xlink" version="1.1" width="33.53310012817383" height="33.53310203552246" viewBox="-0.6959999799728394 0.18309998512268066 33.53310012817383 33.53310203552246">
  <!-- Exported by Scratch - http://scratch.mit.edu/ -->
  <g id="ID0.2200355175882578">
    <path id="ID0.6319170827046037" fill="#99FFFF" stroke="#00CCCC" stroke-width="0.5255513787269592" d="M 16.0706 1.1831 C 20.4206 1.1831 24.3622 2.9497 27.2162 5.804 C 30.0705 8.658 31.8371 12.5996 31.8371 16.9496 C 31.8371 21.2996 30.0705 25.2412 27.2162 28.0953 C 24.3622 30.9495 20.4206 32.7162 16.0706 32.7162 C 11.7206 32.7162 7.779 30.9495 4.9249 28.0953 C 2.0707 25.2412 0.304 21.2996 0.304 16.9496 C 0.304 12.5996 2.0707 8.658 4.9249 5.804 C 7.779 2.9497 11.7206 1.1831 16.0706 1.1831 Z "/>
    <path id="ID0.7118545458652079" fill="#00CCCC" stroke="#00CCCC" stroke-width="2" d="M 16.025 7.15 C 18.777 7.15 21.271 8.268 23.077 10.073 C 24.882 11.879 26 14.373 26 17.125 C 26 19.877 24.882 22.371 23.077 24.177 C 21.271 25.982 18.777 27.1 16.025 27.1 C 13.273 27.1 10.779 25.982 8.973 24.177 C 7.168 22.371 6.05 19.877 6.05 17.125 C 6.05 14.373 7.168 11.879 8.973 10.073 C 10.779 8.268 13.273 7.15 16.025 7.15 Z "/>
  </g>
  <path id="ID0.28466089768335223" fill="#009999" stroke="none" d="M 21.8287 15.65 L 30.1287 15.65 L 30.1287 18.35 L 21.8287 18.35 L 21.8287 15.65 Z " stroke-width="0.7925070142716272"/>
</svg>