<svg xmlns="http://www.w3.org/2000/svg" xmlns:xlink="http://www.w3.org/1999/xlink" version="1.1" width="33.53310012817383" height="33.53310203552246" viewBox="-0.6459999680519104 0.18309998512268066 33.53310012817383 33.53310203552246">
  <!-- Exported by Scratch - http://scratch.mit.edu/ -->
  <g id="ID0.2200355175882578">
    <path id="ID0.6319170827046037" fill="#CC99FF" stroke="#7F00FF" stroke-width="0.5255513787269592" d="M 16.1206 1.1831 C 20.4706 1.1831 24.4122 2.9497 27.2662 5.804 C 30.1205 8.658 31.8871 12.5996 31.8871 16.9496 C 31.8871 21.2996 30.1205 25.2412 27.2662 28.0953 C 24.4122 30.9495 20.4706 32.7162 16.1206 32.7162 C 11.7706 32.7162 7.829 30.9495 4.9749 28.0953 C 2.1207 25.2412 0.354 21.2996 0.354 16.9496 C 0.354 12.5996 2.1207 8.658 4.9749 5.804 C 7.829 2.9497 11.7706 1.1831 16.1206 1.1831 Z "/>
    <path id="ID0.7118545458652079" fill="#7F00FF" stroke="#7F00FF" stroke-width="2" d="M 16.075 7.15 C 18.827 7.15 21.321 8.268 23.127 10.073 C 24.932 11.879 26.05 14.373 26.05 17.125 C 26.05 19.877 24.932 22.371 23.127 24.177 C 21.321 25.982 18.827 27.1 16.075 27.1 C 13.323 27.1 10.829 25.982 9.023 24.177 C 7.218 22.371 6.1 19.877 6.1 17.125 C 6.1 14.373 7.218 11.879 9.023 10.073 C 10.829 8.268 13.323 7.15 16.075 7.15 Z "/>
  </g>
  <path id="ID0.28466089768335223" fill="#330066" stroke="none" d="M 21.9287 15.65 L 30.2287 15.65 L 30.2287 18.35 L 21.9287 18.35 L 21.9287 15.65 Z " stroke-width="0.7925070142716272"/>
</svg>