<svg xmlns="http://www.w3.org/2000/svg" xmlns:xlink="http://www.w3.org/1999/xlink" version="1.1" width="41.98998522758484" height="41.98988604545593" viewBox="-0.9379424154758453 -0.9626424014568329 41.98998522758484 41.98988604545593">
  <!-- Exported by Scratch - http://scratch.mit.edu/ -->
  <path id="ID0.6319170827046037" fill="#FFFFFF" stroke="#99B2FF" stroke-width="0.6559143662452698" d="M 20.057 0.3549 C 25.486 0.3549 30.4054 2.5597 33.9673 6.122 C 37.5296 9.6839 39.7345 14.6033 39.7345 20.0323 C 39.7345 25.4613 37.5296 30.3807 33.9673 33.9426 C 30.4054 37.5049 25.486 39.7097 20.057 39.7097 C 14.628 39.7097 9.7087 37.5049 6.1467 33.9426 C 2.5845 30.3807 0.3796 25.4613 0.3796 20.0323 C 0.3796 14.6033 2.5845 9.6839 6.1467 6.122 C 9.7087 2.5597 14.628 0.3549 20.057 0.3549 Z "/>
  <path id="ID0.5922966641373932" fill="none" stroke="#CCD8FF" stroke-width="2.635084867477417" d="M 19.9754 4.3574 C 24.2837 4.3574 28.1863 6.1071 31.0111 8.9345 C 33.8385 11.7593 35.5882 15.6619 35.5882 19.9703 C 35.5882 24.2786 33.8385 28.1812 31.0111 31.006 C 28.1863 33.8335 24.2837 35.5831 19.9754 35.5831 C 15.667 35.5831 11.7644 33.8335 8.9396 31.006 C 6.1122 28.1812 4.3625 24.2786 4.3625 19.9703 C 4.3625 15.6619 6.1122 11.7593 8.9396 8.9345 C 11.7644 6.1071 15.667 4.3574 19.9754 4.3574 Z "/>
  <path id="ID0.5922966641373932" fill="none" stroke="#CCD8FF" stroke-width="1.4432978630065918" d="M 20.0982 11.4488 C 22.458 11.4488 24.5955 12.4071 26.1427 13.9558 C 27.6914 15.503 28.6497 17.6405 28.6497 20.0003 C 28.6497 22.3601 27.6914 24.4976 26.1427 26.0448 C 24.5955 27.5935 22.458 28.5519 20.0982 28.5519 C 17.7384 28.5519 15.6009 27.5935 14.0537 26.0448 C 12.505 24.4976 11.5466 22.3601 11.5466 20.0003 C 11.5466 17.6405 12.505 15.503 14.0537 13.9558 C 15.6009 12.4071 17.7384 11.4488 20.0982 11.4488 Z "/>
  <path id="ID0.45574919739738107" fill="#99FFFF" stroke="#99B2FF" stroke-width="2" d="M 20.025 30 C 20.956 30 21.8 30.378 22.411 30.989 C 23.022 31.6 23.4 32.444 23.4 33.375 C 23.4 34.306 23.022 35.15 22.411 35.761 C 21.8 36.372 20.956 36.75 20.025 36.75 C 19.094 36.75 18.25 36.372 17.639 35.761 C 17.028 35.15 16.65 34.306 16.65 33.375 C 16.65 32.444 17.028 31.6 17.639 30.989 C 18.25 30.378 19.094 30 20.025 30 Z "/>
  <path id="ID0.9938372881151736" fill="#99B2FF" stroke="#99B2FF" d="M 12.4 18 C 12.952 18 13.452 18.224 13.814 18.586 C 14.176 18.948 14.4 19.448 14.4 20 C 14.4 20.552 14.176 21.052 13.814 21.414 C 13.452 21.776 12.952 22 12.4 22 C 11.848 22 11.348 21.776 10.986 21.414 C 10.624 21.052 10.4 20.552 10.4 20 C 10.4 19.448 10.624 18.948 10.986 18.586 C 11.348 18.224 11.848 18 12.4 18 Z " stroke-width="1"/>
  <path id="ID0.3657673657871783" fill="#E5CCFF" stroke="#CC99FF" d="M 28.15 8.35 C 29.254 8.35 30.254 8.798 30.978 9.522 C 31.702 10.246 32.15 11.246 32.15 12.35 C 32.15 13.454 31.702 14.454 30.978 15.178 C 30.254 15.902 29.254 16.35 28.15 16.35 C 27.046 16.35 26.046 15.902 25.322 15.178 C 24.598 14.454 24.15 13.454 24.15 12.35 C 24.15 11.246 24.598 10.246 25.322 9.522 C 26.046 8.798 27.046 8.35 28.15 8.35 Z " stroke-width="1"/>
  <path id="ID0.6451472733169794" fill="#00FFFF" stroke="#00FFFF" d="M 16 6.75 C 17.104 6.75 18.104 7.198 18.828 7.922 C 19.552 8.646 20 9.646 20 10.75 C 20 11.854 19.552 12.854 18.828 13.578 C 18.104 14.302 17.104 14.75 16 14.75 C 14.896 14.75 13.896 14.302 13.172 13.578 C 12.448 12.854 12 11.854 12 10.75 C 12 9.646 12.448 8.646 13.172 7.922 C 13.896 7.198 14.896 6.75 16 6.75 Z " stroke-width="1"/>
  <path id="ID0.5667790747247636" fill="#CCD8FF" stroke="#99B2FF" d="M 32.775 19.75 C 33.775 19.75 34.681 20.156 35.338 20.812 C 35.994 21.469 36.4 22.375 36.4 23.375 C 36.4 24.375 35.994 25.281 35.338 25.938 C 34.681 26.594 33.775 27 32.775 27 C 31.775 27 30.869 26.594 30.212 25.938 C 29.556 25.281 29.15 24.375 29.15 23.375 C 29.15 22.375 29.556 21.469 30.212 20.812 C 30.869 20.156 31.775 19.75 32.775 19.75 Z " stroke-width="1"/>
  <path id="ID0.011156567372381687" fill="#CCD8FF" stroke="#CCD8FF" stroke-width="1" d="M 20.025 17.75 C 20.625 17.75 21.169 17.994 21.563 18.387 C 21.956 18.781 22.2 19.325 22.2 19.925 C 22.2 20.525 21.956 21.069 21.563 21.463 C 21.169 21.856 20.625 22.1 20.025 22.1 C 19.425 22.1 18.881 21.856 18.487 21.463 C 18.094 21.069 17.85 20.525 17.85 19.925 C 17.85 19.325 18.094 18.781 18.487 18.387 C 18.881 17.994 19.425 17.75 20.025 17.75 Z "/>
  <path id="ID0.45574919739738107" fill="#99FFFF" stroke="#99B2FF" stroke-width="1.3623188734054565" d="M 20.1453 25.1703 C 20.7795 25.1703 21.3544 25.4278 21.7705 25.844 C 22.1867 26.2601 22.4442 26.835 22.4442 27.4692 C 22.4442 28.1034 22.1867 28.6783 21.7705 29.0945 C 21.3544 29.5106 20.7795 29.7681 20.1453 29.7681 C 19.5111 29.7681 18.9362 29.5106 18.52 29.0945 C 18.1039 28.6783 17.8464 28.1034 17.8464 27.4692 C 17.8464 26.835 18.1039 26.2601 18.52 25.844 C 18.9362 25.4278 19.5111 25.1703 20.1453 25.1703 Z "/>
  <path id="ID0.5667790747247636" fill="#CCD8FF" stroke="#99B2FF" d="M 27.612 18.7512 C 28.2079 18.7512 28.7477 18.9931 29.1392 19.384 C 29.53 19.7755 29.7719 20.3153 29.7719 20.9111 C 29.7719 21.507 29.53 22.0468 29.1392 22.4383 C 28.7477 22.8291 28.2079 23.071 27.612 23.071 C 27.0162 23.071 26.4764 22.8291 26.0849 22.4383 C 25.694 22.0468 25.4521 21.507 25.4521 20.9111 C 25.4521 20.3153 25.694 19.7755 26.0849 19.384 C 26.4764 18.9931 27.0162 18.7512 27.612 18.7512 Z " stroke-width="0.5958343744277954"/>
  <path id="ID0.3657673657871783" fill="#E5CCFF" stroke="#CC99FF" d="M 23.3454 14.0198 C 23.9849 14.0198 24.5642 14.2793 24.9836 14.6987 C 25.403 15.1181 25.6625 15.6974 25.6625 16.3369 C 25.6625 16.9764 25.403 17.5557 24.9836 17.9751 C 24.5642 18.3944 23.9849 18.654 23.3454 18.654 C 22.7059 18.654 22.1266 18.3944 21.7073 17.9751 C 21.2879 17.5557 21.0283 16.9764 21.0283 16.3369 C 21.0283 15.6974 21.2879 15.1181 21.7073 14.6987 C 22.1266 14.2793 22.7059 14.0198 23.3454 14.0198 Z " stroke-width="0.5792682766914368"/>
  <path id="ID0.9938372881151736" fill="#99B2FF" stroke="#99B2FF" d="M 15.45 18.6714 C 15.7851 18.6714 16.0887 18.8074 16.3085 19.0272 C 16.5283 19.247 16.6643 19.5506 16.6643 19.8857 C 16.6643 20.2209 16.5283 20.5244 16.3085 20.7442 C 16.0887 20.964 15.7851 21.1 15.45 21.1 C 15.1149 21.1 14.8113 20.964 14.5915 20.7442 C 14.3717 20.5244 14.2357 20.2209 14.2357 19.8857 C 14.2357 19.5506 14.3717 19.247 14.5915 19.0272 C 14.8113 18.8074 15.1149 18.6714 15.45 18.6714 Z " stroke-width="0.6071428656578064"/>
  <path id="ID0.9938372881151736" fill="#99B2FF" stroke="#99B2FF" d="M 7.4 17 C 8.228 17 8.978 17.336 9.521 17.879 C 10.064 18.422 10.4 19.172 10.4 20 C 10.4 20.828 10.064 21.578 9.521 22.121 C 8.978 22.664 8.228 23 7.4 23 C 6.572 23 5.822 22.664 5.279 22.121 C 4.736 21.578 4.4 20.828 4.4 20 C 4.4 19.172 4.736 18.422 5.279 17.879 C 5.822 17.336 6.572 17 7.4 17 Z " stroke-width="1.5"/>
  <path id="ID0.6451472733169794" fill="#00FFFF" stroke="#00FFFF" d="M 18.3389 13.3236 C 18.9952 13.3236 19.5896 13.5899 20.02 14.0203 C 20.4504 14.4507 20.7167 15.0451 20.7167 15.7014 C 20.7167 16.3577 20.4504 16.9521 20.02 17.3825 C 19.5896 17.8129 18.9952 18.0792 18.3389 18.0792 C 17.6826 18.0792 17.0882 17.8129 16.6578 17.3825 C 16.2274 16.9521 15.9611 16.3577 15.9611 15.7014 C 15.9611 15.0451 16.2274 14.4507 16.6578 14.0203 C 17.0882 13.5899 17.6826 13.3236 18.3389 13.3236 Z " stroke-width="0.5944444537162781"/>
  <path id="ID0.45574919739738107" fill="#99FFFF" stroke="#99B2FF" stroke-width="0.8013640642166138" d="M 19.8237 21.9796 C 20.1967 21.9796 20.5349 22.131 20.7797 22.3759 C 21.0245 22.6207 21.176 22.9589 21.176 23.3319 C 21.176 23.7049 21.0245 24.0431 20.7797 24.2879 C 20.5349 24.5327 20.1967 24.6842 19.8237 24.6842 C 19.4507 24.6842 19.1125 24.5327 18.8677 24.2879 C 18.6229 24.0431 18.4714 23.7049 18.4714 23.3319 C 18.4714 22.9589 18.6229 22.6207 18.8677 22.3759 C 19.1125 22.131 19.4507 21.9796 19.8237 21.9796 Z "/>
</svg>