<svg xmlns="http://www.w3.org/2000/svg" xmlns:xlink="http://www.w3.org/1999/xlink" version="1.1" width="8.999000072479248" height="14.109999656677246" viewBox="-0.5210000015795231 -0.15299999713897705 8.999000072479248 14.109999656677246">
  <!-- Exported by Scratch - http://scratch.mit.edu/ -->
  <path id="ID0.8819299498572946" fill="#001966" opacity="1" d="M 3.38 13.457 C 6.173 13.457 7.978 11.88 7.978 9.695 C 7.978 7.719 6.705 6.788 5.071 6.465 C 6.515 5.99 7.503 5.078 7.503 3.482 C 7.503 1.506 5.964 0.347 3.703 0.347 C 2.639 0.347 1.119 0.822 0.378 1.373 L 0.587 2.475 C 1.404 2 2.392 1.525 3.456 1.525 C 5.052 1.525 6.097 2.095 6.097 3.691 C 6.097 5.173 4.938 6.047 3.247 6.028 L 2.088 6.028 L 2.088 7.225 L 3.323 7.225 C 5.318 7.225 6.61 8.042 6.61 9.714 C 6.61 11.329 5.394 12.298 3.228 12.298 C 2.278 12.298 1.024 11.937 0.283 11.443 L -0.021 12.545 C 0.663 13.039 1.917 13.457 3.38 13.457 Z " stroke-width="1"/>
</svg>