<svg xmlns="http://www.w3.org/2000/svg" xmlns:xlink="http://www.w3.org/1999/xlink" version="1.1" width="296.7114009857178" height="30.530441284179688" viewBox="-0.3281206488609314 -0.1891205906867981 296.7114009857178 30.530441284179688">
  <!-- Exported by Scratch - http://scratch.mit.edu/ -->
  <path id="ID0.18977875402197242" fill="#000000" opacity="1" d="M 14.806 0.8591 C 12.8144 0.8591 10.9507 1.2951 9.2379 2.0394 C 7.5251 2.7836 6.0429 3.7794 4.783 5.052 C 3.5209 6.3287 2.4853 7.7941 1.7683 9.509 C 1.0513 11.2197 0.7201 13.0331 0.7201 14.9451 C 0.7201 16.857 1.0513 18.683 1.7683 20.3832 C 2.4853 22.0834 3.5209 23.5509 4.783 24.8382 C 6.0429 26.1254 7.5251 27.1736 9.2379 27.9178 C 10.9507 28.66 12.8144 29.031 14.806 29.031 C 15.9486 29.031 17.11 28.8256 18.3448 28.5069 C 19.5775 28.1883 20.7914 27.6914 21.9465 26.9996 C 23.1017 26.3099 24.1478 25.4545 25.1583 24.379 C 26.1667 23.3036 27.0618 21.9891 27.7788 20.4482 L 23.3239 18.3518 C 22.9256 19.3623 22.414 20.2952 21.7516 21.0394 C 21.087 21.7816 20.3847 22.3287 19.588 22.8067 C 18.7914 23.2847 17.936 23.6956 17.0996 23.9199 C 16.2631 24.1463 15.523 24.2491 14.806 24.2491 C 13.5838 24.2491 12.3826 24.0059 11.2694 23.5279 C 10.154 23.0499 9.1834 22.3979 8.3197 21.5635 C 7.458 20.7249 6.7935 19.7438 6.2903 18.6138 C 5.7851 17.4859 5.5041 16.2469 5.5041 14.9451 C 5.5041 13.7249 5.7452 12.5362 6.2232 11.4084 C 6.7012 10.2784 7.3532 9.3098 8.1897 8.4608 C 9.0262 7.6096 10.0094 6.9325 11.1373 6.4293 C 12.2652 5.9241 13.5042 5.6431 14.806 5.6431 C 16.4518 5.6431 18.0094 6.0897 19.4581 6.9534 C 20.9046 7.8151 22.1688 9.1316 23.2568 10.8843 C 23.9738 10.379 24.6509 9.9199 25.2883 9.509 C 25.9256 9.096 26.5377 8.6494 27.1226 8.1966 C 26.3784 6.8444 25.4853 5.7207 24.5021 4.792 C 23.5189 3.8612 22.4602 3.1337 21.3574 2.5635 C 20.2547 1.9932 19.1457 1.5844 18.0157 1.3182 C 16.8878 1.054 15.8417 0.8591 14.806 0.8591 Z M 33.8061 0.8591 L 33.8061 28.9661 L 38.456 28.9661 L 38.456 0.8591 L 33.8061 0.8591 Z M 89.6888 0.8591 C 87.6972 0.8591 85.8314 1.2951 84.1207 2.0394 C 82.4079 2.7836 80.9257 3.7794 79.6657 5.052 C 78.4037 6.3287 77.433 7.7941 76.7161 9.509 C 75.9991 11.2197 75.6028 13.0331 75.6028 14.9451 C 75.6028 16.857 75.9991 18.683 76.7161 20.3832 C 77.433 22.0834 78.4037 23.5509 79.6657 24.8382 C 80.9257 26.1254 82.4079 27.1736 84.1207 27.9178 C 85.8314 28.66 87.6972 29.031 89.6888 29.031 C 90.8293 29.031 91.9907 28.8256 93.2255 28.5069 C 94.4603 28.1883 95.6742 27.6914 96.8293 26.9996 C 97.9845 26.3099 99.0306 25.4545 100.039 24.379 C 101.0495 23.3036 101.9425 21.9891 102.6595 20.4482 L 98.2046 18.3518 C 97.8063 19.3623 97.2968 20.2952 96.6322 21.0394 C 95.9698 21.7816 95.2675 22.3287 94.4708 22.8067 C 93.6742 23.2847 92.8188 23.6956 91.9823 23.9199 C 91.1438 24.1463 90.4058 24.2491 89.6888 24.2491 C 88.4666 24.2491 87.2653 24.0059 86.15 23.5279 C 85.0347 23.0499 84.0662 22.3979 83.2024 21.5635 C 82.3387 20.7249 81.6762 19.7438 81.171 18.6138 C 80.6678 17.4859 80.3848 16.2469 80.3848 14.9451 C 80.3848 13.7249 80.628 12.5362 81.106 11.4084 C 81.584 10.2784 82.2339 9.3098 83.0725 8.4608 C 83.9089 7.6096 84.8901 6.9325 86.0201 6.4293 C 87.1479 5.9241 88.3869 5.6431 89.6888 5.6431 C 91.3345 5.6431 92.8922 6.0897 94.3408 6.9534 C 95.7874 7.8151 97.0515 9.1316 98.1396 10.8843 C 98.8566 10.379 99.5337 9.9199 100.171 9.509 C 100.8084 9.096 101.4205 8.6494 102.0054 8.1966 C 101.2612 6.8444 100.366 5.7207 99.3849 4.792 C 98.4016 3.8612 97.3408 3.1337 96.2402 2.5635 C 95.1375 1.9932 94.0264 1.5844 92.8985 1.3182 C 91.7706 1.054 90.7245 0.8591 89.6888 0.8591 Z M 108.6868 0.8591 L 108.6868 28.9661 L 127.6868 28.9661 L 127.6868 24.2491 L 113.3388 24.2491 L 113.3388 0.8591 L 108.6868 0.8591 Z M 134.8923 0.8591 L 134.8923 28.9661 L 155.2026 28.9661 L 155.2026 24.1841 L 139.6093 24.1841 L 139.6093 16.7145 L 150.8777 16.7145 L 150.8777 11.8004 L 139.6093 11.8004 L 139.6093 5.6431 L 155.2026 5.6431 L 155.2026 0.8591 L 134.8923 0.8591 Z M 46.2527 0.9911 L 46.2527 29.096 L 50.9697 29.096 L 50.9697 19.5321 L 57.9152 19.5321 L 63.5483 29.096 L 68.9215 29.096 L 62.6322 18.3518 C 63.5085 17.8486 64.2611 17.2344 64.8586 16.5824 C 65.4561 15.9325 65.9278 15.27 66.3009 14.553 C 66.672 13.836 66.9278 13.1212 67.0871 12.3895 C 67.2443 11.6599 67.3492 10.9576 67.3492 10.2931 C 67.3492 9.444 67.194 8.6012 66.955 7.7396 C 66.716 6.8759 66.3324 6.0205 65.8418 5.249 C 65.3492 4.4796 64.737 3.8046 63.9424 3.1526 C 63.1458 2.5027 62.173 1.9408 61.0598 1.5153 C 60.9257 1.4628 60.7747 1.3853 60.5357 1.3182 C 60.2946 1.2532 60.0535 1.2406 59.8145 1.1882 C 59.5756 1.1337 59.3575 1.0834 59.1584 1.0561 C 58.9592 1.031 58.8187 0.9911 58.7663 0.9911 L 46.2527 0.9911 Z M 224.4502 0.9911 L 212.5927 28.9661 L 217.2426 28.9661 L 219.1441 24.5761 L 229.7563 24.5761 L 231.7227 28.9661 L 236.3076 28.9661 L 224.4502 0.9911 Z M 242.3999 0.9911 L 242.3999 29.096 L 247.1169 29.096 L 247.1169 19.5321 L 254.0624 19.5321 L 259.6955 29.096 L 265.0687 29.096 L 258.7794 18.3518 C 259.6557 17.8486 260.4083 17.2344 261.0079 16.5824 C 261.6033 15.9325 262.0771 15.27 262.4482 14.553 C 262.8192 13.836 263.075 13.1212 263.2343 12.3895 C 263.3937 11.6599 263.4964 10.9576 263.4964 10.2931 C 263.4964 9.444 263.4083 8.6012 263.1693 7.7396 C 262.9304 6.8759 262.5467 6.0205 262.0561 5.249 C 261.5635 4.4796 260.8863 3.8046 260.0897 3.1526 C 259.293 2.5027 258.3874 1.9408 257.2721 1.5153 C 257.14 1.4628 256.922 1.3853 256.683 1.3182 C 256.444 1.2532 256.2008 1.2406 255.9618 1.1882 C 255.7228 1.1337 255.5069 1.0834 255.3077 1.0561 C 255.1085 1.031 254.9681 0.9911 254.9136 0.9911 L 242.3999 0.9911 Z M 283.2805 0.9911 C 283.0415 0.9911 282.7229 1.0436 282.2994 1.0561 C 281.8738 1.0708 281.4273 1.0436 280.9891 1.0561 C 280.5509 1.0708 280.182 1.0834 279.8088 1.1232 C 279.4377 1.161 279.1568 1.2259 279.0226 1.2532 C 277.987 1.5719 277.0813 2.0058 276.3371 2.5635 C 275.5929 3.1211 274.9807 3.7605 274.5027 4.4629 C 274.0247 5.1673 273.6809 5.9073 273.4545 6.6914 C 273.2281 7.4733 273.1274 8.2406 273.1274 8.9849 C 273.1274 9.6222 273.2155 10.2972 273.3895 11.0142 C 273.5614 11.7312 273.8549 12.4482 274.2407 13.1107 C 274.6264 13.7752 275.1233 14.3748 275.748 14.9451 C 276.3706 15.5174 277.1379 15.9493 278.0394 16.3224 C 278.465 16.4817 278.8864 16.6599 279.3518 16.7794 C 279.8151 16.8989 280.1358 16.9765 280.2679 16.9765 L 287.6055 16.9765 C 287.8172 16.9765 288.0856 16.9996 288.3916 17.1736 C 288.6977 17.3455 289.0038 17.5761 289.3099 17.8277 C 289.6139 18.0813 289.8696 18.3748 290.0939 18.6788 C 290.3204 18.9849 290.4608 19.2281 290.4881 19.4671 C 290.4881 19.6516 290.5132 19.8948 290.5531 20.1212 C 290.5929 20.3476 290.5531 20.5132 290.5531 20.6453 C 290.5531 20.7774 290.5803 20.9954 290.5531 21.2344 C 290.5279 21.4734 290.5153 21.6264 290.4881 21.7585 C 290.4357 22.0247 290.3078 22.3182 290.0939 22.6117 C 289.8822 22.9031 289.6013 23.1442 289.3099 23.3958 C 289.0164 23.6495 288.6977 23.8801 288.3916 24.052 C 288.0856 24.2239 287.8445 24.3141 287.6055 24.3141 L 279.8088 24.3141 C 279.4377 24.3141 279.0813 24.1862 278.6956 23.9199 C 278.3098 23.6558 277.9388 23.3224 277.6474 22.9388 C 277.356 22.553 277.1652 22.1191 276.9912 21.6935 C 276.8193 21.2679 276.7417 20.9367 276.7962 20.6453 L 272.0792 20.6453 L 272.0792 21.5635 C 272.0792 22.1736 272.1799 22.8633 272.4713 23.5929 C 272.7648 24.3245 273.1987 25.0122 273.7165 25.6893 C 274.2344 26.3665 274.8864 26.9807 275.6159 27.5237 C 276.3476 28.0688 277.1254 28.465 277.9744 28.704 C 278.2134 28.7837 278.4671 28.8717 278.8277 28.9661 C 279.1862 29.0583 279.4797 29.096 279.6117 29.096 L 287.8675 29.096 C 288.5048 29.096 289.2197 28.878 290.029 28.5069 C 290.8403 28.1359 291.6055 27.6642 292.3225 27.0646 C 293.0394 26.4671 293.6264 25.792 294.1568 25.0352 C 294.6872 24.2784 295.0332 23.5111 295.1401 22.7417 C 295.1925 22.4231 295.2176 22.0394 295.2701 21.5635 C 295.3246 21.0855 295.335 20.7774 295.335 20.6453 C 295.3371 19.9283 295.2743 19.2008 295.0751 18.4189 C 294.8759 17.6348 294.53 16.8549 294.0919 16.1254 C 293.6537 15.3937 293.1044 14.7564 292.3875 14.1589 C 291.6705 13.5614 290.7774 13.0247 289.7669 12.6536 C 289.6076 12.5991 289.442 12.574 289.2428 12.5216 C 289.0436 12.4692 288.8529 12.444 288.6537 12.3895 C 288.4545 12.3371 288.2763 12.2344 288.1296 12.1945 C 287.9828 12.1547 287.9199 12.1945 287.8675 12.1945 L 280.465 12.1945 C 280.2512 12.1945 279.9702 12.1044 279.6788 11.9325 C 279.3853 11.7585 279.1568 11.53 278.8927 11.2763 C 278.6264 11.0247 278.3581 10.7165 278.1715 10.4251 C 277.9849 10.1337 277.9094 9.9052 277.9094 9.639 L 277.9094 8.9849 C 277.9094 8.2134 278.1128 7.5761 278.5635 7.0184 C 279.0163 6.4608 279.6683 6.052 280.465 5.8402 C 280.704 5.7857 280.9577 5.7207 281.2512 5.7081 C 281.5426 5.6956 281.8235 5.6956 282.1023 5.7081 C 282.3811 5.7207 282.6767 5.7605 282.8885 5.7731 C 283.1002 5.7878 283.2029 5.7731 283.2805 5.7731 C 283.8654 5.7731 284.4398 5.7878 284.9849 5.7731 C 285.53 5.7605 286.0143 5.8381 286.4923 5.9702 C 286.9702 6.1023 287.4294 6.358 287.8025 6.7564 C 288.1736 7.1547 288.4419 7.7668 288.6537 8.5907 L 293.4357 8.5907 L 293.4357 8.1316 C 293.4357 7.9199 293.3854 7.6515 293.3057 7.3455 C 293.226 7.0415 293.096 6.6809 292.9786 6.3643 C 292.8571 6.0436 292.7166 5.7899 292.5845 5.5111 C 292.4524 5.2322 292.3623 5.0163 292.2575 4.857 C 291.5405 3.7941 290.8004 2.9765 290.029 2.4314 C 289.2596 1.8884 288.5069 1.5174 287.7375 1.3182 C 286.9661 1.119 286.1862 0.9911 285.444 0.9911 C 284.6998 0.9911 283.9723 0.9911 283.2805 0.9911 Z M 172.6282 1.3182 L 184.4878 29.2931 L 188.9407 18.8759 L 193.3977 29.2931 L 205.2552 1.3182 L 200.6681 1.3182 L 193.3977 18.2218 L 191.3012 13.3077 L 196.4103 1.3182 L 191.6933 1.3182 L 188.9407 7.6725 L 186.1251 1.3182 L 181.5381 1.3182 L 186.6492 13.3077 L 184.4878 18.2218 L 177.2802 1.3182 L 172.6282 1.3182 Z M 50.9697 5.7731 L 58.5693 5.7731 C 58.7013 5.7731 58.8795 5.8381 59.1584 5.9052 C 59.4372 5.9702 59.7328 6.0603 59.9445 6.1673 C 60.8753 6.618 61.498 7.205 61.911 7.9367 C 62.3219 8.6662 62.5651 9.444 62.5651 10.2931 C 62.5651 10.771 62.4372 11.2826 62.238 11.8004 C 62.0389 12.3182 61.7454 12.7899 61.3869 13.2427 C 61.0284 13.6935 60.6196 14.0771 60.1416 14.356 C 59.6636 14.6348 59.1542 14.7501 58.5693 14.7501 L 50.9697 14.7501 L 50.9697 5.7731 Z M 247.1169 5.7731 L 254.7186 5.7731 C 254.8507 5.7731 255.0939 5.8381 255.3727 5.9052 C 255.6515 5.9702 255.88 6.0603 256.0939 6.1673 C 257.0226 6.618 257.7123 7.205 258.1232 7.9367 C 258.5362 8.6662 258.7144 9.444 258.7144 10.2931 C 258.7144 10.771 258.6515 11.2826 258.4524 11.8004 C 258.2532 12.3182 257.9597 12.7899 257.5991 13.2427 C 257.2406 13.6935 256.8339 14.0771 256.3559 14.356 C 255.8779 14.6348 255.3014 14.7501 254.7186 14.7501 L 247.1169 14.7501 L 247.1169 5.7731 Z M 224.4502 12.0625 L 227.7919 19.8591 L 221.1755 19.8591 L 224.4502 12.0625 Z " stroke-width="2.0964412689208984"/>
</svg>