<svg xmlns="http://www.w3.org/2000/svg" xmlns:xlink="http://www.w3.org/1999/xlink" version="1.1" width="8.999000072479248" height="14.109999656677246" viewBox="-0.5210000015795231 -0.1029999852180481 8.999000072479248 14.109999656677246">
  <!-- Exported by Scratch - http://scratch.mit.edu/ -->
  <path id="ID0.8819299498572946" fill="#000000" opacity="1" d="M 3.38 13.507 C 6.173 13.507 7.978 11.93 7.978 9.745 C 7.978 7.769 6.705 6.838 5.071 6.515 C 6.515 6.04 7.503 5.128 7.503 3.532 C 7.503 1.556 5.964 0.397 3.703 0.397 C 2.639 0.397 1.119 0.872 0.378 1.423 L 0.587 2.525 C 1.404 2.05 2.392 1.575 3.456 1.575 C 5.052 1.575 6.097 2.145 6.097 3.741 C 6.097 5.223 4.938 6.097 3.247 6.078 L 2.088 6.078 L 2.088 7.275 L 3.323 7.275 C 5.318 7.275 6.61 8.092 6.61 9.764 C 6.61 11.379 5.394 12.348 3.228 12.348 C 2.278 12.348 1.024 11.987 0.283 11.493 L -0.021 12.595 C 0.663 13.089 1.917 13.507 3.38 13.507 Z " stroke-width="1"/>
</svg>