<svg xmlns="http://www.w3.org/2000/svg" xmlns:xlink="http://www.w3.org/1999/xlink" version="1.1" width="143.42401123046875" height="14.30000114440918" viewBox="0.29899996519088745 -0.18600034713745117 143.42401123046875 14.30000114440918">
  <!-- Exported by Scratch - http://scratch.mit.edu/ -->
  <path id="ID0.7214446212165058" fill="#000000" opacity="1" d="M 5.378 13.48 C 7.943 13.48 9.862 11.694 9.862 7.439 L 9.862 6.222 C 9.862 1.815 7.867 0.332 5.397 0.332 C 2.927 0.332 0.799 1.815 0.799 6.299 L 0.799 7.42 C 0.799 11.694 2.813 13.48 5.378 13.48 Z M 5.378 12.34 C 3.364 12.34 2.224 10.802 2.224 7.59 L 2.224 6.108 C 2.224 2.879 3.364 1.472 5.397 1.472 C 7.411 1.472 8.475 2.955 8.475 6.185 L 8.475 7.666 C 8.475 10.991 7.392 12.34 5.378 12.34 Z " stroke-width="1"/>
  <path id="ID0.9936782922595739" fill="#000000" opacity="1" d="M 19.704 13.366 L 20.977 13.366 L 20.977 0.351 L 20.274 0.351 L 17.31 1.739 L 17.31 2.537 L 19.704 1.948 L 19.704 13.366 Z " stroke-width="1"/>
  <path id="ID0.6613695453852415" fill="#000000" opacity="1" d="M 29.299 13.252 L 37.165 13.252 L 37.165 12.075 L 31.199 12.075 L 33.308 9.965 C 35.626 7.61 36.842 6.185 36.842 4.019 C 36.842 1.758 35.455 0.314 32.947 0.314 C 31.522 0.314 30.23 0.998 29.451 1.511 L 29.907 2.593 C 30.629 2.062 31.674 1.511 32.795 1.511 C 34.619 1.511 35.417 2.385 35.417 4.114 C 35.417 5.976 34.239 7.325 32.434 9.187 L 29.299 12.435 L 29.299 13.252 Z " stroke-width="1"/>
  <path id="ID0.8088384275324643" fill="#000000" opacity="1" d="M 47.615 13.442 C 50.408 13.442 52.213 11.866 52.213 9.681 C 52.213 7.705 50.94 6.774 49.306 6.45 C 50.75 5.976 51.738 5.064 51.738 3.468 C 51.738 1.491 50.199 0.332 47.938 0.332 C 46.874 0.332 45.354 0.808 44.613 1.358 L 44.822 2.461 C 45.639 1.985 46.627 1.511 47.691 1.511 C 49.287 1.511 50.332 2.08 50.332 3.677 C 50.332 5.159 49.173 6.032 47.482 6.013 L 46.323 6.013 L 46.323 7.211 L 47.558 7.211 C 49.553 7.211 50.845 8.028 50.845 9.7 C 50.845 11.315 49.629 12.284 47.463 12.284 C 46.513 12.284 45.259 11.922 44.518 11.429 L 44.214 12.53 C 44.898 13.024 46.152 13.442 47.615 13.442 Z " stroke-width="1"/>
  <path id="ID0.6317267981357872" fill="#000000" opacity="1" d="M 65.057 13.614 L 66.292 13.614 L 66.292 10.554 L 68.534 10.554 L 68.534 9.414 L 66.292 9.414 L 66.292 0.351 L 65.19 0.351 L 59.129 9.472 L 59.129 10.554 L 65.057 10.554 L 65.057 13.614 Z M 60.459 9.414 L 65.057 2.517 L 65.057 9.414 L 60.459 9.414 Z " stroke-width="1"/>
  <path id="ID0.4659483269788325" fill="#000000" opacity="1" d="M 78.034 13.48 C 80.827 13.48 82.48 11.562 82.48 9.301 C 82.48 6.64 80.922 5.463 78.338 5.463 C 77.806 5.463 77.027 5.577 76.476 5.728 L 76.761 1.7 L 82.043 1.7 L 82.043 0.523 L 75.659 0.523 L 75.203 7.116 C 75.792 6.849 76.989 6.489 77.863 6.489 C 79.915 6.489 81.074 7.287 81.074 9.301 C 81.074 11.144 79.877 12.34 77.825 12.34 C 76.761 12.34 75.45 11.866 74.747 11.409 L 74.5 12.493 C 75.26 13.062 76.552 13.48 78.034 13.48 Z " stroke-width="1"/>
  <path id="ID0.3782706414349377" fill="#000000" opacity="1" d="M 93.747 13.48 C 96.274 13.48 97.832 11.618 97.832 9.205 C 97.832 6.774 96.122 5.31 93.994 5.31 C 92.569 5.31 91.505 5.995 90.84 6.717 C 91.011 2.612 92.208 1.472 94.45 1.472 C 95.267 1.472 96.369 1.795 96.825 2.062 L 97.243 1.073 C 96.73 0.769 95.533 0.332 94.279 0.332 C 91.353 0.332 89.472 2.327 89.472 6.774 L 89.472 7.761 C 89.472 11.409 90.973 13.48 93.747 13.48 Z M 93.747 12.321 C 91.638 12.321 90.84 10.726 90.84 8.312 L 90.84 8.179 C 91.391 7.381 92.493 6.489 93.766 6.489 C 95.343 6.489 96.464 7.287 96.464 9.338 C 96.464 11.2 95.457 12.321 93.747 12.321 Z " stroke-width="1"/>
  <path id="ID0.758450641296804" fill="#000000" opacity="1" d="M 105.945 13.347 L 107.427 13.347 L 112.5 1.491 L 112.5 0.618 L 104.406 0.618 L 104.406 1.758 L 111.018 1.758 L 105.945 13.347 Z " stroke-width="1"/>
  <path id="ID0.8409804385155439" fill="#000000" opacity="1" d="M 123.406 13.5 C 126.123 13.5 127.776 11.903 127.776 9.909 C 127.776 7.97 126.218 7.058 124.66 6.545 C 125.933 5.862 127.282 4.987 127.282 3.429 C 127.282 1.472 125.667 0.314 123.349 0.314 C 120.955 0.314 119.416 1.662 119.416 3.487 C 119.416 5.121 120.537 6.108 121.943 6.621 C 120.518 7.172 119.036 8.332 119.036 10.004 C 119.036 12.093 120.784 13.5 123.406 13.5 Z M 123.406 12.34 C 121.715 12.34 120.442 11.429 120.442 9.985 C 120.442 8.521 121.734 7.629 123.007 7.153 C 125.268 7.894 126.332 8.446 126.332 10.06 C 126.332 11.409 125.04 12.34 123.406 12.34 Z M 123.634 6.052 C 121.962 5.577 120.86 4.797 120.86 3.448 C 120.86 2.194 121.867 1.472 123.349 1.472 C 124.983 1.472 125.819 2.308 125.819 3.468 C 125.819 4.722 124.888 5.482 123.634 6.052 Z " stroke-width="1"/>
  <path id="ID0.7884632195346057" fill="#000000" opacity="1" d="M 138.872 0.332 C 136.364 0.332 134.806 2.385 134.806 4.741 C 134.806 7.153 136.573 8.711 138.701 8.711 C 140.126 8.711 141.152 8.065 141.855 7.248 C 141.722 10.877 140.544 12.34 138.416 12.34 C 137.371 12.34 136.364 12.037 135.794 11.713 L 135.395 12.683 C 135.984 13.082 137.162 13.48 138.473 13.48 C 141.532 13.48 143.223 11.011 143.223 6.698 L 143.223 5.862 C 143.223 2.271 141.665 0.332 138.872 0.332 Z M 138.891 1.491 C 140.981 1.491 141.855 3.069 141.855 5.5 L 141.855 5.843 C 141.304 6.64 140.202 7.534 138.929 7.534 C 137.352 7.534 136.155 6.659 136.155 4.608 C 136.155 2.802 137.181 1.491 138.891 1.491 Z " stroke-width="1"/>
</svg>