<svg xmlns="http://www.w3.org/2000/svg" xmlns:xlink="http://www.w3.org/1999/xlink" version="1.1" width="9.74000072479248" height="14.185999870300293" viewBox="0.050999999046325684 -0.2719999998807907 9.74000072479248 14.185999870300293">
  <!-- Exported by Scratch - http://scratch.mit.edu/ -->
  <path id="ID0.25044256541877985" fill="#000000" opacity="1" d="M 4.921 13.414 C 7.638 13.414 9.291 11.818 9.291 9.823 C 9.291 7.885 7.733 6.973 6.175 6.46 C 7.448 5.776 8.797 4.902 8.797 3.344 C 8.797 1.387 7.182 0.228 4.864 0.228 C 2.47 0.228 0.931 1.577 0.931 3.401 C 0.931 5.035 2.052 6.023 3.458 6.536 C 2.033 7.087 0.551 8.246 0.551 9.918 C 0.551 12.008 2.299 13.414 4.921 13.414 Z M 4.921 12.255 C 3.23 12.255 1.957 11.343 1.957 9.899 C 1.957 8.436 3.249 7.543 4.522 7.068 C 6.783 7.809 7.847 8.36 7.847 9.975 C 7.847 11.324 6.555 12.255 4.921 12.255 Z M 5.149 5.966 C 3.477 5.491 2.375 4.712 2.375 3.363 C 2.375 2.109 3.382 1.387 4.864 1.387 C 6.498 1.387 7.334 2.223 7.334 3.382 C 7.334 4.636 6.403 5.396 5.149 5.966 Z " stroke-width="1"/>
</svg>