<svg xmlns="http://www.w3.org/2000/svg" xmlns:xlink="http://www.w3.org/1999/xlink" version="1.1" width="31.339259266853333" height="31.33935844898224" viewBox="-0.6036794185638428 -0.5788794159889221 31.339259266853333 31.33935844898224">
  <!-- Exported by Scratch - http://scratch.mit.edu/ -->
  <g id="ID0.2200355175882578">
    <path id="ID0.6319170827046037" fill="#99FFFF" stroke="#00CCCC" stroke-width="0.4911695090230559" d="M 15.066 0.3557 C 19.1314 0.3557 22.8151 2.0068 25.4824 4.6743 C 28.15 7.3416 29.801 11.0254 29.801 15.0908 C 29.801 19.1562 28.15 22.84 25.4824 25.5072 C 22.8151 28.1748 19.1314 29.8259 15.066 29.8259 C 11.0005 29.8259 7.3168 28.1748 4.6495 25.5072 C 1.9819 22.84 0.3309 19.1562 0.3309 15.0908 C 0.3309 11.0254 1.9819 7.3416 4.6495 4.6743 C 7.3168 2.0068 11.0005 0.3557 15.066 0.3557 Z "/>
    <path id="ID0.7118545458652079" fill="#00CCCC" stroke="#00CCCC" stroke-width="1.8691588640213013" d="M 14.9766 5.9322 C 17.5486 5.9322 19.8794 6.9771 21.5673 8.664 C 23.2542 10.3519 24.2991 12.6827 24.2991 15.2547 C 24.2991 17.8266 23.2542 20.1575 21.5673 21.8453 C 19.8794 23.5322 17.5486 24.5771 14.9766 24.5771 C 12.4047 24.5771 10.0738 23.5322 8.386 21.8453 C 6.6991 20.1575 5.6542 17.8266 5.6542 15.2547 C 5.6542 12.6827 6.6991 10.3519 8.386 8.664 C 10.0738 6.9771 12.4047 5.9322 14.9766 5.9322 Z "/>
  </g>
  <path id="ID0.28466089768335223" fill="#009999" stroke="none" d="M 20.5497 13.478 L 28.3067 13.478 L 28.3067 16.0014 L 20.5497 16.0014 L 20.5497 13.478 Z " stroke-width="0.7406607557212028"/>
</svg>