<svg xmlns="http://www.w3.org/2000/svg" xmlns:xlink="http://www.w3.org/1999/xlink" version="1.1" width="33.533098220825195" height="33.53310012817383" viewBox="0.20399999618530273 0.2331000566482544 33.533098220825195 33.53310012817383">
  <!-- Exported by Scratch - http://scratch.mit.edu/ -->
  <g id="ID0.2200355175882578">
    <path id="ID0.6319170827046037" fill="#CCD8FF" stroke="#99B2FF" stroke-width="0.5255513787269592" d="M 16.9706 1.2331 C 21.3206 1.2331 25.2622 2.9997 28.1162 5.854 C 30.9705 8.708 32.7371 12.6496 32.7371 16.9996 C 32.7371 21.3496 30.9705 25.2912 28.1162 28.1453 C 25.2622 30.9995 21.3206 32.7662 16.9706 32.7662 C 12.6206 32.7662 8.679 30.9995 5.8249 28.1453 C 2.9707 25.2912 1.204 21.3496 1.204 16.9996 C 1.204 12.6496 2.9707 8.708 5.8249 5.854 C 8.679 2.9997 12.6206 1.2331 16.9706 1.2331 Z "/>
    <path id="ID0.7118545458652079" fill="#99B2FF" stroke="#99B2FF" stroke-width="2" d="M 16.975 7.15 C 19.727 7.15 22.221 8.268 24.027 10.073 C 25.832 11.879 26.95 14.373 26.95 17.125 C 26.95 19.877 25.832 22.371 24.027 24.177 C 22.221 25.982 19.727 27.1 16.975 27.1 C 14.223 27.1 11.729 25.982 9.923 24.177 C 8.118 22.371 7 19.877 7 17.125 C 7 14.373 8.118 11.879 9.923 10.073 C 11.729 8.268 14.223 7.15 16.975 7.15 Z "/>
  </g>
  <path id="ID0.8409804385155439" fill="#000000" opacity="1" d="M 17.006 23.55 C 19.723 23.55 21.376 21.953 21.376 19.959 C 21.376 18.02 19.818 17.108 18.26 16.595 C 19.533 15.912 20.882 15.037 20.882 13.479 C 20.882 11.522 19.267 10.364 16.949 10.364 C 14.555 10.364 13.016 11.712 13.016 13.537 C 13.016 15.171 14.137 16.158 15.543 16.671 C 14.118 17.222 12.636 18.382 12.636 20.054 C 12.636 22.143 14.384 23.55 17.006 23.55 Z M 17.006 22.39 C 15.315 22.39 14.042 21.479 14.042 20.035 C 14.042 18.571 15.334 17.679 16.607 17.203 C 18.868 17.944 19.932 18.496 19.932 20.11 C 19.932 21.459 18.64 22.39 17.006 22.39 Z M 17.234 16.102 C 15.562 15.627 14.46 14.847 14.46 13.498 C 14.46 12.244 15.467 11.522 16.949 11.522 C 18.583 11.522 19.419 12.358 19.419 13.518 C 19.419 14.772 18.488 15.532 17.234 16.102 Z " stroke-width="1"/>
</svg>