<svg xmlns="http://www.w3.org/2000/svg" xmlns:xlink="http://www.w3.org/1999/xlink" version="1.1" width="8.980000019073486" height="13.957999229431152" viewBox="-0.48499999940395355 -0.01299998164176941 8.980000019073486 13.957999229431152">
  <!-- Exported by Scratch - http://scratch.mit.edu/ -->
  <path id="ID0.9080216260626912" fill="#000000" opacity="1" d="M 3.549 13.445 C 6.342 13.445 7.995 11.526 7.995 9.265 C 7.995 6.605 6.437 5.427 3.853 5.427 C 3.321 5.427 2.542 5.541 1.991 5.693 L 2.276 1.665 L 7.558 1.665 L 7.558 0.487 L 1.174 0.487 L 0.718 7.08 C 1.307 6.814 2.504 6.453 3.378 6.453 C 5.43 6.453 6.589 7.251 6.589 9.265 C 6.589 11.108 5.392 12.305 3.34 12.305 C 2.276 12.305 0.965 11.83 0.262 11.374 L 0.015 12.457 C 0.775 13.027 2.067 13.445 3.549 13.445 Z " stroke-width="1"/>
</svg>