<svg xmlns="http://www.w3.org/2000/svg" xmlns:xlink="http://www.w3.org/1999/xlink" version="1.1" width="9.360000610351562" height="14.14799976348877" viewBox="0.28700000047683716 -0.1029999852180481 9.360000610351562 14.14799976348877">
  <!-- Exported by Scratch - http://scratch.mit.edu/ -->
  <path id="ID0.6201183116063476" fill="#000000" opacity="1" d="M 5.062 13.545 C 7.589 13.545 9.147 11.683 9.147 9.27 C 9.147 6.838 7.437 5.375 5.309 5.375 C 3.884 5.375 2.82 6.059 2.155 6.781 C 2.326 2.677 3.523 1.537 5.765 1.537 C 6.582 1.537 7.684 1.86 8.14 2.126 L 8.558 1.138 C 8.045 0.834 6.848 0.397 5.594 0.397 C 2.668 0.397 0.787 2.392 0.787 6.838 L 0.787 7.826 C 0.787 11.474 2.288 13.545 5.062 13.545 Z M 5.062 12.386 C 2.953 12.386 2.155 10.79 2.155 8.377 L 2.155 8.244 C 2.706 7.446 3.808 6.553 5.081 6.553 C 6.658 6.553 7.779 7.351 7.779 9.403 C 7.779 11.265 6.772 12.386 5.062 12.386 Z " stroke-width="1"/>
</svg>