<svg xmlns="http://www.w3.org/2000/svg" xmlns:xlink="http://www.w3.org/1999/xlink" version="1.1" width="33.53310012817383" height="33.53310012817383" viewBox="0.15400004386901855 0.2331000566482544 33.53310012817383 33.53310012817383">
  <!-- Exported by Scratch - http://scratch.mit.edu/ -->
  <g id="ID0.2200355175882578">
    <path id="ID0.6319170827046037" fill="#CCD8FF" stroke="#99B2FF" stroke-width="0.5255513787269592" d="M 16.9206 1.2331 C 21.2706 1.2331 25.2122 2.9997 28.0662 5.854 C 30.9205 8.708 32.6871 12.6496 32.6871 16.9996 C 32.6871 21.3496 30.9205 25.2912 28.0662 28.1453 C 25.2122 30.9995 21.2706 32.7662 16.9206 32.7662 C 12.5706 32.7662 8.629 30.9995 5.7749 28.1453 C 2.9207 25.2912 1.154 21.3496 1.154 16.9996 C 1.154 12.6496 2.9207 8.708 5.7749 5.854 C 8.629 2.9997 12.5706 1.2331 16.9206 1.2331 Z "/>
    <path id="ID0.7118545458652079" fill="#99B2FF" stroke="#99B2FF" stroke-width="2" d="M 16.925 7.15 C 19.677 7.15 22.171 8.268 23.977 10.073 C 25.782 11.879 26.9 14.373 26.9 17.125 C 26.9 19.877 25.782 22.371 23.977 24.177 C 22.171 25.982 19.677 27.1 16.925 27.1 C 14.173 27.1 11.679 25.982 9.873 24.177 C 8.068 22.371 6.95 19.877 6.95 17.125 C 6.95 14.373 8.068 11.879 9.873 10.073 C 11.679 8.268 14.173 7.15 16.925 7.15 Z "/>
  </g>
  <path id="ID0.9405355053022504" fill="#000000" opacity="1" d="M 13.064 23.517 L 20.93 23.517 L 20.93 22.339 L 14.964 22.339 L 17.073 20.23 C 19.391 17.874 20.607 16.449 20.607 14.283 C 20.607 12.022 19.22 10.578 16.712 10.578 C 15.287 10.578 13.995 11.262 13.216 11.775 L 13.672 12.858 C 14.394 12.326 15.439 11.775 16.56 11.775 C 18.384 11.775 19.182 12.649 19.182 14.378 C 19.182 16.24 18.004 17.589 16.199 19.451 L 13.064 22.7 L 13.064 23.517 Z " stroke-width="1"/>
</svg>