<svg xmlns="http://www.w3.org/2000/svg" xmlns:xlink="http://www.w3.org/1999/xlink" version="1.1" width="97.7500592470169" height="97.749960064888" viewBox="0.05241972208023071 0.11021965742111206 97.7500592470169 97.749960064888">
  <!-- Exported by Scratch - http://scratch.mit.edu/ -->
  <path id="ID0.4527167957276106" fill="#CCD8FF" stroke="#CCD8FF" stroke-width="1.3767606019973755" d="M 48.9275 0.7986 C 62.2215 0.7986 74.2681 6.1982 82.9913 14.9214 C 91.7144 23.6446 97.1141 35.6912 97.1141 48.9852 C 97.1141 62.2792 91.7144 74.3259 82.9913 83.049 C 74.2681 91.7722 62.2215 97.1718 48.9275 97.1718 C 35.6335 97.1718 23.5868 91.7722 14.8637 83.049 C 6.1405 74.3259 0.7408 62.2792 0.7408 48.9852 C 0.7408 35.6912 6.1405 23.6446 14.8637 14.9214 C 23.5868 6.1982 35.6335 0.7986 48.9275 0.7986 Z "/>
  <path id="ID0.79444102011621" fill="#000000" opacity="1" d="M 21.7305 40.7638 L 21.7305 57.3026 L 23.23 57.3026 L 23.23 42.9521 L 23.2702 42.9521 L 32.0662 57.3026 L 33.7292 57.3026 L 33.7292 40.7638 L 32.2283 40.7638 L 32.2283 54.5863 L 32.1881 54.5863 L 23.6762 40.7638 L 21.7305 40.7638 Z M 37.9851 40.7638 L 37.9851 57.3026 L 47.754 57.3026 L 47.754 55.9237 L 39.5249 55.9237 L 39.5249 49.4781 L 45.8083 49.4781 L 45.8083 48.1006 L 39.5249 48.1006 L 39.5249 42.1012 L 47.6736 42.1012 L 47.6736 40.7638 L 37.9851 40.7638 Z M 50.3081 40.7638 L 55.4565 48.7893 L 49.9838 57.3026 L 51.6455 57.3026 L 56.2673 50.0048 L 56.3075 50.0048 L 60.9279 57.3026 L 62.753 57.3026 L 57.4023 48.8296 L 62.4288 40.7638 L 60.6854 40.7638 L 56.5098 47.6141 L 56.4696 47.6141 L 52.0917 40.7638 L 50.3081 40.7638 Z M 64.2526 40.7638 L 64.2526 42.1012 L 69.4814 42.1012 L 69.4814 57.3026 L 71.0626 57.3026 L 71.0626 42.1012 L 76.2915 42.1012 L 76.2915 40.7638 L 64.2526 40.7638 Z " stroke-width="1.2971570491790771"/>
</svg>