<svg xmlns="http://www.w3.org/2000/svg" xmlns:xlink="http://www.w3.org/1999/xlink" version="1.1" width="142" height="142" viewBox="0.7999999523162842 0.04999995231628418 142 142">
  <!-- Exported by Scratch - http://scratch.mit.edu/ -->
  <path id="ID0.4527167957276106" fill="#99B2FF" stroke="#99B2FF" stroke-width="2" d="M 71.8 1.05 C 91.112 1.05 108.612 8.894 121.284 21.566 C 133.956 34.238 141.8 51.738 141.8 71.05 C 141.8 90.362 133.956 107.862 121.284 120.534 C 108.612 133.206 91.112 141.05 71.8 141.05 C 52.488 141.05 34.988 133.206 22.316 120.534 C 9.644 107.862 1.8 90.362 1.8 71.05 C 1.8 51.738 9.644 34.238 22.316 21.566 C 34.988 8.894 52.488 1.05 71.8 1.05 Z "/>
  <path id="ID0.38747440045699477" fill="#000000" opacity="1" d="M 26.9001 20.3209 C 25.4014 20.3209 24.6327 21.1269 24.6327 22.2105 C 24.6327 23.3148 25.2125 23.8284 26.3065 24.1894 L 26.9542 24.4053 C 27.884 24.7007 28.3216 25.0421 28.3216 25.8625 C 28.3216 26.7377 27.7902 27.2662 26.5759 27.2662 C 25.8102 27.2662 25.072 27.0935 24.5251 26.7982 L 24.5251 27.3923 C 25.0064 27.6652 25.7261 27.914 26.6122 27.914 C 28.2968 27.914 29.0413 27.067 29.0413 25.809 C 29.0413 24.5832 28.336 24.1295 27.2421 23.7576 L 26.5943 23.5417 C 25.6645 23.2463 25.3524 22.9152 25.3524 22.1385 C 25.3524 21.416 25.8792 20.9329 26.8638 20.9329 C 27.6733 20.9329 28.2583 21.1315 28.663 21.3285 L 28.663 20.717 C 28.2802 20.5201 27.7533 20.3209 26.9001 20.3209 Z M 45.2161 20.3209 C 43.3017 20.3209 41.9239 21.4206 41.9239 23.9913 L 41.9239 24.1894 C 41.9239 26.6398 43.0593 27.8961 45.0721 27.8961 C 45.9691 27.8961 46.6209 27.6618 47.0694 27.4102 L 47.0694 26.7982 C 46.6209 27.0169 46.0739 27.2662 45.1441 27.2662 C 43.4047 27.2662 42.6971 26.1694 42.6971 24.1894 L 42.6971 23.8658 C 42.6971 21.8415 43.6817 20.9329 45.1804 20.9329 C 45.9352 20.9329 46.4614 21.0987 46.9975 21.3285 L 46.9975 20.717 C 46.5708 20.4873 46.0146 20.3209 45.2161 20.3209 Z M 100.9569 20.3209 C 99.4582 20.3209 98.708 21.1269 98.708 22.2105 C 98.708 23.3148 99.2872 23.8284 100.3811 24.1894 L 101.011 24.4053 C 101.9408 24.7007 102.3784 25.0421 102.3784 25.8625 C 102.3784 26.7377 101.8648 27.2662 100.6511 27.2662 C 99.8848 27.2662 99.1467 27.0935 98.5997 26.7982 L 98.5997 27.3923 C 99.0811 27.6652 99.8008 27.914 100.6868 27.914 C 102.3715 27.914 103.116 27.067 103.116 25.809 C 103.116 24.5832 102.4107 24.1295 101.3167 23.7576 L 100.6511 23.5417 C 99.7213 23.2463 99.4277 22.9152 99.4277 22.1385 C 99.4277 21.416 99.9545 20.9329 100.939 20.9329 C 101.7485 20.9329 102.3335 21.1315 102.7383 21.3285 L 102.7383 20.717 C 102.3554 20.5201 101.8101 20.3209 100.9569 20.3209 Z M 116.2145 20.3209 C 114.2344 20.3209 113.0115 21.6797 113.0115 24.0098 L 113.0115 24.1894 C 113.0115 26.5851 114.2385 27.8961 116.1966 27.8961 C 118.1766 27.8961 119.3811 26.5155 119.3811 24.2072 L 119.3811 24.0276 C 119.3811 21.6319 118.1726 20.3209 116.2145 20.3209 Z M 30.5164 20.4291 L 30.5164 27.77 L 31.2361 27.77 L 31.2361 24.7473 L 32.7653 24.7473 C 34.1984 24.7473 35.1046 23.981 35.1046 22.5704 C 35.1046 21.2242 34.3532 20.4291 32.6576 20.4291 L 30.5164 20.4291 Z M 36.4358 20.4291 L 36.4358 27.77 L 40.7724 27.77 L 40.7724 27.1764 L 37.1376 27.1764 L 37.1376 24.3155 L 39.9087 24.3155 L 39.9087 23.7035 L 37.1376 23.7035 L 37.1376 21.0406 L 40.7361 21.0406 L 40.7361 20.4291 L 36.4358 20.4291 Z M 48.5629 20.4291 L 48.5629 27.77 L 49.2826 27.77 L 49.2826 20.4291 L 48.5629 20.4291 Z M 53.1868 20.4291 L 50.4698 27.77 L 51.1538 27.77 L 51.9634 25.539 L 55.0039 25.539 L 55.8319 27.77 L 56.5873 27.77 L 53.8887 20.4291 L 53.1868 20.4291 Z M 57.7388 20.4291 L 57.7388 27.77 L 61.8952 27.77 L 61.8952 27.1764 L 58.4406 27.1764 L 58.4406 20.4291 L 57.7388 20.4291 Z M 65.4758 20.4291 L 65.4758 21.0406 L 67.7967 21.0406 L 67.7967 27.77 L 68.4985 27.77 L 68.4985 21.0406 L 70.8194 21.0406 L 70.8194 20.4291 L 65.4758 20.4291 Z M 72.0792 20.4291 L 72.0792 27.77 L 72.7805 27.77 L 72.7805 24.2614 L 76.7031 24.2614 L 76.7031 27.77 L 77.4049 27.77 L 77.4049 20.4291 L 76.7031 20.4291 L 76.7031 23.6678 L 72.7805 23.6678 L 72.7805 20.4291 L 72.0792 20.4291 Z M 81.2729 20.4291 L 78.5565 27.77 L 79.2399 27.77 L 80.0494 25.539 L 83.1084 25.539 L 83.9358 27.77 L 84.6739 27.77 L 81.9747 20.4291 L 81.2729 20.4291 Z M 85.8432 20.4291 L 85.8432 27.77 L 86.491 27.77 L 86.491 21.4188 L 86.5088 21.4188 L 90.413 27.77 L 91.1511 27.77 L 91.1511 20.4291 L 90.5034 20.4291 L 90.5034 26.5822 L 90.4671 26.5822 L 86.689 20.4291 L 85.8432 20.4291 Z M 93.0402 20.4291 L 93.0402 27.77 L 93.7236 27.77 L 93.7236 20.4291 L 93.0402 20.4291 Z M 97.0705 20.4291 L 93.9395 24.0455 L 97.1246 27.77 L 98.0061 27.77 L 94.7853 24.0098 L 97.88 20.4291 L 97.0705 20.4291 Z M 106.8405 20.4291 L 106.8405 21.0406 L 109.1614 21.0406 L 109.1614 27.77 L 109.8633 27.77 L 109.8633 21.0406 L 112.1841 21.0406 L 112.1841 20.4291 L 106.8405 20.4291 Z M 116.1782 20.9151 C 117.8738 20.926 118.6251 22.1242 118.6251 24.0276 L 118.6251 24.3155 C 118.6251 26.0986 117.7938 27.3019 116.1966 27.3019 C 114.5229 27.3019 113.7853 26.075 113.7853 24.1715 L 113.7853 23.8837 C 113.7853 22.1005 114.6248 20.9151 116.1782 20.9151 Z M 31.2361 21.0406 L 32.5857 21.0406 C 33.9093 21.0406 34.3308 21.5409 34.3308 22.6239 C 34.3308 23.6413 33.8466 24.1537 32.6214 24.1537 L 31.2361 24.1537 L 31.2361 21.0406 Z M 53.4747 21.3826 L 53.4926 21.3826 L 54.788 24.9269 L 52.1793 24.9269 L 53.4747 21.3826 Z M 81.5608 21.3826 L 81.597 21.3826 L 82.8746 24.9269 L 80.2653 24.9269 L 81.5608 21.3826 Z M 62.2913 33.1856 L 62.2913 41.0125 L 62.9747 41.0125 L 62.9747 33.1856 L 62.2913 33.1856 Z M 76.1452 33.7435 L 76.1452 34.4989 L 76.8649 34.4989 L 76.8649 33.7435 L 76.1452 33.7435 Z M 72.6728 35.5249 C 71.9398 35.5249 71.371 35.78 70.9996 36.0644 L 70.9634 36.0644 L 70.9634 35.6326 L 70.2978 35.6326 L 70.2978 42.6315 L 70.9812 42.6315 L 70.9812 40.7424 C 71.2985 40.9393 71.7861 41.1023 72.4206 41.1023 C 73.9084 41.1023 74.8676 40.2789 74.8676 38.3312 L 74.8676 38.2056 C 74.8676 36.1709 73.8652 35.5249 72.6728 35.5249 Z M 80.6073 35.5249 C 79.218 35.5249 78.1246 36.3448 78.1246 38.2598 L 78.1246 38.4037 C 78.1246 40.1644 79.0067 41.1023 80.5716 41.1023 C 81.3483 41.1023 81.8227 40.9071 82.1728 40.6883 L 82.1728 40.131 C 81.8774 40.2951 81.4053 40.5087 80.6614 40.5087 C 79.4362 40.5087 78.8259 39.8143 78.8259 38.4037 L 78.8259 38.1515 C 78.8259 36.7841 79.5427 36.1185 80.5716 36.1185 C 81.2717 36.1185 81.6414 36.2417 82.1008 36.4605 L 82.1008 35.8848 C 81.7179 35.6435 81.3074 35.5249 80.6073 35.5249 Z M 64.5581 35.6147 L 64.5581 39.5731 C 64.5581 40.6123 65.1563 41.1023 66.1955 41.1023 C 66.8409 41.1023 67.4766 40.8587 68.0126 40.5087 L 68.0489 40.5087 L 68.1024 41.0125 L 68.6966 41.0125 L 68.6966 35.6147 L 68.0126 35.6147 L 68.0126 40.0406 C 67.5313 40.325 66.9734 40.5087 66.3936 40.5087 C 65.5622 40.5087 65.2599 40.2265 65.2599 39.4827 L 65.2599 35.6147 L 64.5581 35.6147 Z M 76.163 35.6326 L 76.163 41.0125 L 76.847 41.0125 L 76.847 35.6326 L 76.163 35.6326 Z M 72.511 36.1185 C 73.5502 36.1185 74.1479 36.5895 74.1479 38.2413 L 74.1479 38.4394 C 74.1479 39.949 73.4932 40.5444 72.3671 40.5444 C 71.7873 40.5444 71.2766 40.3457 70.9812 40.1488 L 70.9812 36.5682 C 71.2875 36.3603 71.8328 36.1185 72.511 36.1185 Z M 80.3373 46.428 L 80.3373 54.2549 L 81.0213 54.2549 L 81.0213 46.428 L 80.3373 46.428 Z M 67.005 48.7673 C 65.747 48.7673 64.6479 49.62 64.6479 51.5022 L 64.6479 51.6277 C 64.6479 53.3452 65.4896 54.3447 67.1852 54.3447 C 68.0385 54.3447 68.6557 54.1138 68.9845 53.895 L 68.9845 53.3734 C 68.536 53.6031 68.0328 53.7511 67.3108 53.7511 C 66.0418 53.7511 65.3716 53.1586 65.3497 51.6818 L 69.1463 51.6818 L 69.1463 51.2857 C 69.1463 49.6454 68.4709 48.7673 67.005 48.7673 Z M 72.0792 48.7673 C 71.4775 48.7673 70.9662 48.8692 70.4958 49.0552 L 70.4958 49.5406 C 70.8678 49.4531 71.291 49.3609 71.827 49.3609 C 72.7897 49.3609 73.1944 49.6079 73.1944 50.4946 L 73.1944 51.1418 L 71.6652 51.3041 C 70.626 51.4245 70.0456 51.9282 70.0456 52.869 C 70.0456 53.8317 70.7273 54.3447 71.7009 54.3447 C 72.4557 54.3447 72.9388 54.0821 73.2123 53.7868 L 73.2485 53.7868 L 73.3205 54.2549 L 73.8784 54.2549 L 73.8784 50.3322 C 73.8784 49.2383 73.2382 48.7673 72.0792 48.7673 Z M 77.6024 48.7673 C 76.2131 48.7673 75.1019 49.5878 75.1019 51.5022 L 75.1019 51.6461 C 75.1019 53.4074 76.0024 54.3447 77.5667 54.3447 C 78.3434 54.3447 78.8 54.1495 79.1501 53.9307 L 79.1501 53.3734 C 78.8547 53.5375 78.3826 53.7511 77.6387 53.7511 C 76.4135 53.7511 75.821 53.0567 75.8216 51.6461 L 75.8216 51.3939 C 75.8216 50.0265 76.52 49.3609 77.5489 49.3609 C 78.249 49.3609 78.6186 49.4836 79.0781 49.7024 L 79.0781 49.1266 C 78.6952 48.8865 78.3025 48.7673 77.6024 48.7673 Z M 59.9698 48.8572 L 59.9698 49.4329 L 62.9206 49.4329 L 62.9206 49.4686 L 59.8081 53.7327 L 59.8081 54.2549 L 63.7664 54.2549 L 63.7664 53.6791 L 60.6538 53.6791 L 60.6538 53.6613 L 63.7664 49.3609 L 63.7664 48.8572 L 59.9698 48.8572 Z M 83.4141 48.875 L 81.2193 51.4659 L 83.5402 54.2549 L 84.3319 54.2549 L 82.011 51.4118 L 84.1701 48.875 L 83.4141 48.875 Z M 66.9693 49.3247 C 67.9429 49.3247 68.4266 49.9056 68.4266 51.1418 L 65.3676 51.1418 C 65.4551 49.8071 66.1926 49.3247 66.9693 49.3247 Z M 73.1944 51.6461 L 73.1944 53.3734 C 72.9428 53.6031 72.439 53.8052 71.8811 53.8052 C 71.1919 53.8052 70.7475 53.4569 70.7475 52.8333 C 70.7475 52.177 71.101 51.8845 71.8448 51.8079 L 73.1944 51.6461 Z M 79.4736 59.6705 L 79.4736 67.4973 L 80.1576 67.4973 L 80.1576 59.6705 L 79.4736 59.6705 Z M 65.8357 62.0098 C 64.5776 62.0098 63.4785 62.8625 63.4785 64.7446 L 63.4785 64.8701 C 63.4785 66.5876 64.3381 67.5871 66.0337 67.5871 C 66.887 67.5871 67.4864 67.3562 67.8145 67.1375 L 67.8145 66.6158 C 67.366 66.8455 66.8634 66.9935 66.1414 66.9935 C 64.8724 66.9935 64.2201 66.4011 64.1982 64.9242 L 67.9769 64.9242 L 67.9769 64.5281 C 67.9769 62.8872 67.3015 62.0098 65.8357 62.0098 Z M 76.0375 62.0098 C 74.7795 62.0098 73.6982 62.8625 73.6982 64.7446 L 73.6982 64.8701 C 73.6982 66.5876 74.5394 67.5871 76.235 67.5871 C 77.0883 67.5871 77.6882 67.3562 78.0164 67.1375 L 78.0164 66.6158 C 77.5679 66.8455 77.0652 66.9935 76.3432 66.9935 C 75.0743 66.9935 74.4219 66.4011 74.4001 64.9242 L 78.1966 64.9242 L 78.1966 64.5281 C 78.1966 62.8872 77.5034 62.0098 76.0375 62.0098 Z M 69.0202 62.0996 L 69.0202 62.6753 L 71.9709 62.6753 L 71.9709 62.711 L 68.8584 66.9751 L 68.8584 67.4973 L 72.7989 67.4973 L 72.7989 66.9215 L 69.7042 66.9215 L 69.7042 66.9037 L 72.8167 62.6034 L 72.8167 62.0996 L 69.0202 62.0996 Z M 65.8178 62.5671 C 66.7914 62.5671 67.2572 63.148 67.2572 64.3842 L 64.1982 64.3842 C 64.2857 63.0501 65.0411 62.5671 65.8178 62.5671 Z M 76.0191 62.5671 C 76.9927 62.5671 77.4585 63.148 77.4585 64.3842 L 74.4179 64.3842 C 74.5054 63.0501 75.2424 62.5671 76.0191 62.5671 Z M 48.5088 72.9129 L 48.5088 75.6477 C 48.2025 75.4508 47.7338 75.2522 47.0337 75.2522 C 45.6444 75.2522 44.6403 76.1043 44.6403 78.0406 L 44.6403 78.1845 C 44.6403 80.1755 45.7665 80.8295 46.8714 80.8295 C 47.6371 80.8295 48.1478 80.5998 48.5088 80.2716 L 48.5451 80.2716 L 48.6171 80.7397 L 49.1928 80.7397 L 49.1928 72.9129 L 48.5088 72.9129 Z M 60.294 73.2906 C 58.7953 73.2906 58.0451 74.0966 58.0451 75.1796 C 58.0451 76.2851 58.6243 76.7981 59.7182 77.1591 L 60.3481 77.375 C 61.278 77.6704 61.7155 78.0118 61.7155 78.8322 C 61.7155 79.7074 61.2025 80.2359 59.9883 80.2359 C 59.2225 80.2359 58.4838 80.0632 57.9368 79.7678 L 57.9368 80.3615 C 58.4182 80.6355 59.1379 80.8837 60.024 80.8837 C 61.7086 80.8837 62.4352 80.0361 62.4352 78.7781 C 62.4352 77.5535 61.7478 77.0992 60.6538 76.7273 L 59.9883 76.5114 C 59.0584 76.216 58.7642 75.8844 58.7648 75.1082 C 58.7648 74.3862 59.2732 73.9026 60.2577 73.9026 C 61.0672 73.9026 61.6706 74.1012 62.0754 74.2981 L 62.0754 73.6867 C 61.6925 73.4898 61.1473 73.2906 60.294 73.2906 Z M 63.9282 73.3988 L 63.9282 80.7397 L 64.5759 80.7397 L 64.5759 74.3344 L 64.6122 74.3344 L 66.9152 80.7397 L 67.5808 80.7397 L 69.8838 74.3344 L 69.9201 74.3344 L 69.9201 80.7397 L 70.6214 80.7397 L 70.6214 73.3988 L 69.5781 73.3988 L 67.2929 79.8041 L 67.2572 79.8041 L 64.9899 73.3988 L 63.9282 73.3988 Z M 74.5077 73.3988 L 71.7913 80.7397 L 72.4747 80.7397 L 73.2842 78.5087 L 76.3254 78.5087 L 77.1706 80.7397 L 77.9087 80.7397 L 75.2096 73.3988 L 74.5077 73.3988 Z M 79.0602 73.3988 L 79.0602 80.7397 L 79.7799 80.7397 L 79.7799 77.717 L 81.3091 77.717 C 82.7422 77.717 83.6479 76.9507 83.6479 75.5401 C 83.6479 74.1939 82.8965 73.3988 81.2009 73.3988 L 79.0602 73.3988 Z M 79.7799 74.0103 L 81.1289 74.0103 C 82.4526 74.0103 82.8741 74.5106 82.8746 75.5936 C 82.8746 76.611 82.3904 77.1234 81.1652 77.1234 L 79.7799 77.1234 L 79.7799 74.0103 Z M 74.7956 74.3523 L 74.8319 74.3523 L 76.1095 77.8966 L 73.5001 77.8966 L 74.7956 74.3523 Z M 35.8421 75.2522 C 35.2405 75.2522 34.7114 75.3541 34.241 75.5401 L 34.241 76.0254 C 34.6129 75.9379 35.0539 75.8458 35.5905 75.8458 C 36.5532 75.8458 36.9395 76.0928 36.9395 76.9795 L 36.9395 77.6266 L 35.4103 77.789 C 34.3711 77.9093 33.7907 78.4131 33.7913 79.3539 C 33.7913 80.3165 34.473 80.8295 35.4466 80.8295 C 36.2014 80.8295 36.6845 80.567 36.958 80.2716 L 37.0115 80.2716 L 37.0656 80.7397 L 37.6235 80.7397 L 37.6235 76.8171 C 37.6235 75.7231 37.0017 75.2522 35.8421 75.2522 Z M 41.8335 75.2522 C 41.1552 75.2522 40.4448 75.4773 39.9087 75.8279 L 39.8546 75.8279 L 39.8546 75.3598 L 39.2069 75.3598 L 39.2069 80.7397 L 39.8903 80.7397 L 39.8903 76.3133 C 40.3716 76.0398 40.9877 75.8458 41.5456 75.8458 C 42.4208 75.8458 42.6971 76.1314 42.6971 76.8534 L 42.6971 80.7397 L 43.399 80.7397 L 43.399 76.7094 C 43.399 75.6811 42.8618 75.2522 41.8335 75.2522 Z M 94.8936 75.2522 C 93.6793 75.2522 93.0943 75.8631 93.0943 76.7273 C 93.0943 77.6243 93.5981 77.9767 94.4076 78.1845 L 94.9471 78.3463 C 95.6801 78.5438 95.9547 78.785 95.9547 79.3539 C 95.9547 79.8899 95.6144 80.2359 94.6955 80.2359 C 93.9188 80.2359 93.4887 80.0799 93.0402 79.8939 L 93.0402 80.434 C 93.4559 80.6637 94.0564 80.8295 94.7675 80.8295 C 95.9708 80.8295 96.6565 80.2521 96.6565 79.3003 C 96.6565 78.3595 96.1948 78.0193 95.1993 77.7348 L 94.6235 77.5909 C 94 77.4049 93.7415 77.1873 93.7421 76.6731 C 93.7421 76.1371 94.1416 75.8279 94.9293 75.8279 C 95.4981 75.8279 96.0267 75.9805 96.333 76.1337 L 96.333 75.5758 C 96.0376 75.4226 95.5931 75.2522 94.8936 75.2522 Z M 99.8952 75.2522 C 98.6371 75.2522 97.538 76.1049 97.538 77.987 L 97.538 78.1125 C 97.538 79.83 98.3976 80.8295 100.0932 80.8295 C 100.9465 80.8295 101.5465 80.5987 101.8746 80.3799 L 101.8746 79.8582 C 101.4255 80.088 100.9229 80.2359 100.2009 80.2359 C 98.9319 80.2359 98.2796 79.6435 98.2577 78.1667 L 102.0364 78.1667 L 102.0364 77.7705 C 102.0364 76.1296 101.3611 75.2522 99.8952 75.2522 Z M 108.4596 75.2522 C 107.2453 75.2522 106.6603 75.8631 106.6603 76.7273 C 106.6603 77.6243 107.1641 77.9767 107.9736 78.1845 L 108.5137 78.3463 C 109.2466 78.5438 109.5213 78.785 109.5213 79.3539 C 109.5213 79.8899 109.1804 80.2359 108.2615 80.2359 C 107.4848 80.2359 107.0547 80.0799 106.6062 79.8939 L 106.6062 80.434 C 107.0219 80.6637 107.6224 80.8295 108.3335 80.8295 C 109.5368 80.8295 110.2047 80.2521 110.2047 79.3003 C 110.2047 78.3595 109.7608 78.0193 108.7653 77.7348 L 108.1895 77.5909 C 107.566 77.4049 107.3081 77.1873 107.3081 76.6731 C 107.3081 76.1371 107.7076 75.8279 108.4958 75.8279 C 109.0647 75.8279 109.5927 75.9805 109.899 76.1337 L 109.899 75.5758 C 109.6036 75.4226 109.1597 75.2522 108.4596 75.2522 Z M 105.5451 75.27 C 104.9106 75.27 104.3147 75.6212 103.9975 75.9719 L 103.9618 75.9719 L 103.9618 75.342 L 103.2956 75.342 L 103.2956 80.7397 L 103.9796 80.7397 L 103.9796 76.4572 C 104.3625 76.14 104.9221 75.9178 105.491 75.9178 C 105.5894 75.9178 105.7552 75.9316 105.8865 75.9535 L 105.8865 75.3057 C 105.8209 75.2838 105.6654 75.27 105.5451 75.27 Z M 87.6782 75.342 L 87.6782 79.3003 C 87.6782 80.3396 88.2764 80.8295 89.3156 80.8295 C 89.9611 80.8295 90.5788 80.586 91.1149 80.2359 L 91.1511 80.2359 L 91.2231 80.7397 L 91.8167 80.7397 L 91.8167 75.342 L 91.1327 75.342 L 91.1327 79.7678 C 90.6514 80.0523 90.0935 80.2359 89.5137 80.2359 C 88.6823 80.2359 88.3622 79.9538 88.3622 79.2099 L 88.3622 75.342 L 87.6782 75.342 Z M 99.8773 75.8095 C 100.8509 75.8095 101.3167 76.3905 101.3167 77.6266 L 98.2761 77.6266 C 98.3637 76.2926 99.1006 75.8095 99.8773 75.8095 Z M 47.1414 75.8458 C 47.7102 75.8458 48.2353 76.0047 48.5088 76.2235 L 48.5088 79.7678 C 48.2135 80.0304 47.7298 80.2716 47.0516 80.2716 C 46.0451 80.2716 45.36 79.7241 45.36 78.1488 L 45.36 77.9508 C 45.36 76.4083 46.0475 75.8458 47.1414 75.8458 Z M 36.9395 78.131 L 36.9395 79.8582 C 36.6879 80.0874 36.1841 80.2901 35.6262 80.2901 C 34.9371 80.2901 34.4926 79.9417 34.4926 79.3182 C 34.4926 78.6618 34.8467 78.3693 35.5905 78.2928 L 36.9395 78.131 Z M 50.4698 80.0557 L 50.4698 80.9735 L 51.3698 80.9735 L 51.3698 80.0557 L 50.4698 80.0557 Z M 52.7729 80.0557 L 52.7729 80.9735 L 53.6906 80.9735 L 53.6906 80.0557 L 52.7729 80.0557 Z M 56.2274 99.3977 L 56.2274 102.1326 C 55.9211 101.9357 55.4525 101.7365 54.7523 101.737 C 53.363 101.737 52.3589 102.5891 52.3595 104.5254 L 52.3595 104.6694 C 52.3595 106.6603 53.4672 107.3144 54.5721 107.3144 C 55.3379 107.3144 55.8664 107.0847 56.2274 106.7565 L 56.2637 106.7565 L 56.3357 107.2246 L 56.9114 107.2246 L 56.9114 99.3977 L 56.2274 99.3977 Z M 78.8622 99.3977 L 78.8622 107.2246 L 79.564 107.2246 L 79.564 99.3977 L 78.8622 99.3977 Z M 43.5608 101.737 C 42.9591 101.737 42.43 101.8389 41.9596 102.0249 L 41.9596 102.5103 C 42.3315 102.4228 42.7731 102.3306 43.3091 102.3306 C 44.2718 102.3306 44.6581 102.5782 44.6587 103.4643 L 44.6587 104.1115 L 43.1289 104.2738 C 42.0897 104.3941 41.5099 104.8979 41.5099 105.8387 C 41.5099 106.8014 42.1916 107.3144 43.1652 107.3144 C 43.92 107.3144 44.4031 107.0518 44.6766 106.7565 L 44.7307 106.7565 L 44.7842 107.2246 L 45.3421 107.2246 L 45.3421 103.3019 C 45.3421 102.208 44.7203 101.737 43.5608 101.737 Z M 49.5527 101.737 C 48.8744 101.737 48.1634 101.9627 47.6273 102.3128 L 47.5732 102.3128 L 47.5732 101.8447 L 46.9255 101.8447 L 46.9255 107.2246 L 47.6095 107.2246 L 47.6095 102.7981 C 48.0908 102.5247 48.7069 102.3306 49.2648 102.3306 C 50.1399 102.3306 50.4163 102.6162 50.4163 103.3382 L 50.4163 107.2246 L 51.1176 107.2246 L 51.1176 103.1943 C 51.1176 102.166 50.581 101.737 49.5527 101.737 Z M 63.0645 101.737 C 62.4629 101.737 61.9516 101.8389 61.4812 102.0249 L 61.4812 102.5103 C 61.8531 102.4228 62.2769 102.3306 62.8129 102.3306 C 63.7756 102.3306 64.1804 102.5782 64.1804 103.4643 L 64.1804 104.1115 L 62.6511 104.2738 C 61.6119 104.3941 61.0315 104.8979 61.0315 105.8387 C 61.0315 106.8014 61.7132 107.3144 62.6868 107.3144 C 63.4417 107.3144 63.9247 107.0518 64.1982 106.7565 L 64.2345 106.7565 L 64.3065 107.2246 L 64.8638 107.2246 L 64.8638 103.3019 C 64.8638 102.208 64.2241 101.737 63.0645 101.737 Z M 67.9228 101.737 C 66.7085 101.737 66.1057 102.3479 66.1057 103.2121 C 66.1057 104.1091 66.6095 104.4615 67.419 104.6694 L 67.9769 104.8311 C 68.7098 105.0281 68.9839 105.2699 68.9845 105.8387 C 68.9845 106.3748 68.6258 106.7208 67.7069 106.7208 C 66.9302 106.7208 66.5179 106.5648 66.0694 106.3788 L 66.0694 106.9188 C 66.4851 107.1486 67.0678 107.3144 67.7788 107.3144 C 68.9822 107.3144 69.6679 106.7369 69.6679 105.7852 C 69.6679 104.8444 69.224 104.5041 68.2285 104.2197 L 67.6349 104.0758 C 67.0114 103.8898 66.7713 103.6721 66.7713 103.158 C 66.7713 102.622 67.153 102.3128 67.9406 102.3128 C 68.5095 102.3128 69.0559 102.4654 69.3622 102.6185 L 69.3622 102.0606 C 69.0668 101.9075 68.6229 101.737 67.9228 101.737 Z M 75.4796 101.737 C 74.8779 101.737 74.3667 101.8389 73.8963 102.0249 L 73.8963 102.5103 C 74.2682 102.4228 74.6914 102.3306 75.2274 102.3306 C 76.1901 102.3306 76.577 102.5782 76.577 103.4643 L 76.577 104.1115 L 75.0478 104.2738 C 74.0085 104.3941 73.4282 104.8979 73.4282 105.8387 C 73.4282 106.8014 74.1099 107.3144 75.0835 107.3144 C 75.8383 107.3144 76.3214 107.0518 76.5948 106.7565 L 76.649 106.7565 L 76.7031 107.2246 L 77.261 107.2246 L 77.261 103.3019 C 77.261 102.208 76.6392 101.737 75.4796 101.737 Z M 90.7193 101.737 C 90.1177 101.737 89.6064 101.8389 89.136 102.0249 L 89.136 102.5103 C 89.5079 102.4228 89.9311 102.3306 90.4671 102.3306 C 91.4298 102.3306 91.8346 102.5782 91.8346 103.4643 L 91.8346 104.1115 L 90.3054 104.2738 C 89.2661 104.3941 88.6858 104.8979 88.6858 105.8387 C 88.6858 106.8014 89.3675 107.3144 90.3411 107.3144 C 91.0959 107.3144 91.5789 107.0518 91.8524 106.7565 L 91.8887 106.7565 L 91.9607 107.2246 L 92.5186 107.2246 L 92.5186 103.3019 C 92.5186 102.208 91.8783 101.737 90.7193 101.737 Z M 100.741 101.737 C 99.5267 101.737 98.9417 102.3479 98.9417 103.2121 C 98.9417 104.1091 99.4455 104.4615 100.255 104.6694 L 100.7951 104.8311 C 101.528 105.0281 101.8021 105.2699 101.8027 105.8387 C 101.8027 106.3748 101.4618 106.7208 100.5429 106.7208 C 99.7662 106.7208 99.3361 106.5648 98.8876 106.3788 L 98.8876 106.9188 C 99.3033 107.1486 99.9038 107.3144 100.6149 107.3144 C 101.8182 107.3144 102.4861 106.7369 102.4861 105.7852 C 102.4861 104.8444 102.0422 104.5041 101.0467 104.2197 L 100.4709 104.0758 C 99.8474 103.8898 99.5895 103.6721 99.5895 103.158 C 99.5895 102.622 99.989 102.3128 100.7767 102.3128 C 101.3455 102.3128 101.8741 102.4654 102.1804 102.6185 L 102.1804 102.0606 C 101.885 101.9075 101.4411 101.737 100.741 101.737 Z M 80.6971 101.8268 L 82.2448 107.2246 L 82.9645 107.2246 L 84.314 102.8885 L 84.3319 102.8885 L 85.663 107.2246 L 86.3649 107.2246 L 87.9304 101.8268 L 87.2648 101.8268 L 86.0591 106.3247 L 86.005 106.3247 L 84.6376 101.8268 L 84.044 101.8268 L 82.6766 106.3247 L 82.6403 106.3247 L 81.4168 101.8268 L 80.6971 101.8268 Z M 93.544 101.8268 L 95.6311 106.9724 L 95.4509 107.4762 C 95.2431 108.045 94.9437 108.2857 94.4076 108.2857 C 94.2107 108.2857 93.9919 108.2471 93.8497 108.2143 L 93.8497 108.7359 C 94.0029 108.8125 94.2746 108.8799 94.5153 108.8799 C 95.3795 108.8799 95.7705 108.4527 96.0986 107.566 L 98.2399 101.8268 L 97.5565 101.8268 L 95.991 106.0731 L 95.9731 106.0731 L 94.2637 101.8268 L 93.544 101.8268 Z M 54.86 102.3306 C 55.4288 102.3306 55.9539 102.4895 56.2274 102.7083 L 56.2274 106.2527 C 55.9321 106.5152 55.4484 106.7565 54.7702 106.7565 C 53.7638 106.7565 53.0786 106.2089 53.0792 104.6337 L 53.0792 104.4356 C 53.0792 102.8931 53.7661 102.3306 54.86 102.3306 Z M 44.6587 104.6158 L 44.6587 106.3431 C 44.4071 106.5728 43.9028 106.7743 43.3448 106.7749 C 42.6557 106.7749 42.2118 106.4266 42.2118 105.803 C 42.2118 105.1467 42.5653 104.8542 43.3091 104.7776 L 44.6587 104.6158 Z M 64.1804 104.6158 L 64.1804 106.3431 C 63.9288 106.5728 63.4244 106.7743 62.8671 106.7749 C 62.1779 106.7749 61.7334 106.4266 61.7334 105.803 C 61.7334 105.1467 62.0869 104.8542 62.8308 104.7776 L 64.1804 104.6158 Z M 76.577 104.6158 L 76.577 106.3431 C 76.3254 106.5728 75.8216 106.7743 75.2637 106.7749 C 74.5745 106.7749 74.1479 106.4266 74.1479 105.803 C 74.1479 105.1467 74.4835 104.8542 75.2274 104.7776 L 76.577 104.6158 Z M 91.8346 104.6158 L 91.8346 106.3431 C 91.583 106.5728 91.0792 106.7743 90.5213 106.7749 C 89.8321 106.7749 89.3876 106.4266 89.3876 105.803 C 89.3876 105.1467 89.7411 104.8542 90.485 104.7776 L 91.8346 104.6158 Z M 74.8676 112.586 C 73.883 112.586 73.2123 113.0961 73.2123 114.2776 L 73.2123 115.0871 L 72.3849 115.0871 L 72.3849 115.6629 L 73.2123 115.6629 L 73.2123 120.467 L 73.8963 120.467 L 73.8963 115.6629 L 75.1917 115.6629 L 75.1917 115.0871 L 73.8963 115.0871 L 73.8963 114.3133 C 73.8963 113.471 74.3154 113.1439 74.9937 113.1439 C 75.3656 113.1439 75.6103 113.2084 75.7853 113.2522 L 75.7853 112.7478 C 75.5775 112.6499 75.2833 112.586 74.8676 112.586 Z M 28.8254 112.6401 L 28.8254 120.467 L 29.5088 120.467 L 29.5088 116.0406 C 29.9902 115.778 30.6062 115.5731 31.1641 115.5731 C 32.0393 115.5731 32.3156 115.8586 32.3156 116.5806 L 32.3156 120.467 L 32.9996 120.467 L 32.9996 116.4367 C 32.9996 115.4084 32.4803 114.9973 31.452 114.9973 C 30.7738 114.9973 30.0696 115.2051 29.5451 115.5552 L 29.5088 115.5552 L 29.5088 112.6401 L 28.8254 112.6401 Z M 45.3784 112.6401 L 45.3784 120.467 L 46.0618 120.467 L 46.0618 112.6401 L 45.3784 112.6401 Z M 94.4796 112.6401 L 94.4796 120.467 L 95.1815 120.467 L 95.1815 112.6401 L 94.4796 112.6401 Z M 107.038 113.1981 L 107.038 113.9535 L 107.7399 113.9535 L 107.7399 113.1981 L 107.038 113.1981 Z M 25.4065 113.8095 L 25.4065 115.0871 L 24.6149 115.0871 L 24.6149 115.6629 L 25.4065 115.6629 L 25.4065 119.2976 C 25.4065 120.1722 25.9247 120.539 26.7561 120.539 C 27.1937 120.539 27.4338 120.4325 27.6198 120.3231 L 27.6198 119.855 C 27.4228 119.9206 27.1476 119.9632 26.9179 119.9632 C 26.2615 119.9632 26.0905 119.7433 26.0905 119.2072 L 26.0905 115.6629 L 27.5299 115.6629 L 27.5299 115.0871 L 26.0905 115.0871 L 26.0905 113.8095 L 25.4065 113.8095 Z M 116.9698 114.961 C 115.8103 114.961 114.9731 115.5944 114.9731 116.6883 L 114.9731 116.7603 C 114.9731 117.3838 115.2339 117.8185 115.6387 118.092 C 115.2558 118.3983 115.0629 118.6522 115.0629 118.9913 C 115.0629 119.3414 115.3071 119.5809 115.6024 119.6569 L 115.6024 119.6932 C 115.0226 119.901 114.5591 120.243 114.5591 120.8447 C 114.5591 121.6214 115.2892 122.1223 116.952 122.1223 C 118.757 122.1223 119.5072 121.3819 119.5072 120.4848 C 119.5072 119.4894 118.7783 119.2072 117.8156 119.2072 L 116.2864 119.2072 C 115.9145 119.2072 115.7285 119.0639 115.7285 118.7576 C 115.7285 118.5607 115.8454 118.4138 115.9985 118.2716 C 116.283 118.381 116.6198 118.434 116.9698 118.434 C 118.0857 118.434 118.9493 117.8732 118.9493 116.7246 L 118.9493 116.6705 C 118.9493 116.2001 118.7875 115.8356 118.4812 115.5731 L 119.5251 115.5731 L 119.5251 115.0508 L 117.708 115.0508 C 117.4782 114.9961 117.2324 114.961 116.9698 114.961 Z M 36.2561 114.9795 C 35.6545 114.9795 35.1432 115.0814 34.6728 115.2673 L 34.6728 115.7527 C 35.0447 115.6652 35.4679 115.5731 36.0039 115.5731 C 36.9666 115.5731 37.3535 115.8206 37.3535 116.7067 L 37.3535 117.3539 L 35.8243 117.5162 C 34.7851 117.6366 34.2047 118.1404 34.2047 119.0811 C 34.2047 120.0438 34.9048 120.5568 35.8784 120.5568 C 36.6332 120.5568 37.1157 120.2943 37.3898 119.9989 L 37.4255 119.9989 L 37.4975 120.467 L 38.0554 120.467 L 38.0554 116.5444 C 38.0554 115.4504 37.4157 114.9795 36.2561 114.9795 Z M 42.2653 114.9795 C 41.5871 114.9795 40.8581 115.2051 40.3221 115.5552 L 40.2864 115.5552 L 40.2864 115.0871 L 39.6208 115.0871 L 39.6208 120.467 L 40.3221 120.467 L 40.3221 116.0406 C 40.8035 115.7671 41.4017 115.5731 41.9596 115.5731 C 42.8347 115.5731 43.1289 115.8586 43.1289 116.5806 L 43.1289 120.467 L 43.8129 120.467 L 43.8129 116.4367 C 43.8129 115.4084 43.2936 114.9795 42.2653 114.9795 Z M 60.5997 114.9795 C 59.1776 114.9795 58.1706 115.9634 58.1706 117.7143 L 58.1706 117.8761 C 58.1706 119.6155 59.1051 120.5568 60.5819 120.5568 C 62.0149 120.5568 63.0288 119.5613 63.0288 117.822 L 63.0288 117.678 C 63.0288 115.9277 62.0875 114.9795 60.5997 114.9795 Z M 78.3941 114.9795 C 76.972 114.9795 75.965 115.9634 75.9655 117.7143 L 75.9655 117.8761 C 75.9655 119.6155 76.8994 120.5568 78.3762 120.5568 C 79.8093 120.5568 80.8232 119.5613 80.8232 117.822 L 80.8232 117.678 C 80.8232 115.9277 79.8818 114.9795 78.3941 114.9795 Z M 91.0072 114.9795 C 90.2743 114.9795 89.7054 115.2345 89.3335 115.5189 L 89.2978 115.5189 L 89.2978 115.0871 L 88.6322 115.0871 L 88.6322 122.086 L 89.3156 122.086 L 89.3156 120.197 C 89.6329 120.3939 90.1205 120.5568 90.755 120.5568 C 92.2428 120.5568 93.202 119.7335 93.202 117.7857 L 93.202 117.6602 C 93.202 115.6255 92.199 114.9795 91.0072 114.9795 Z M 98.4736 114.9795 C 97.872 114.9795 97.3607 115.0814 96.8903 115.2673 L 96.8903 115.7527 C 97.2622 115.6652 97.686 115.5731 98.222 115.5731 C 99.1847 115.5731 99.5895 115.8206 99.5895 116.7067 L 99.5895 117.3539 L 98.0602 117.5162 C 97.021 117.6366 96.4406 118.1404 96.4406 119.0811 C 96.4406 120.0438 97.1223 120.5568 98.0959 120.5568 C 98.8508 120.5568 99.3338 120.2943 99.6073 119.9989 L 99.6436 119.9989 L 99.7155 120.467 L 100.2729 120.467 L 100.2729 116.5444 C 100.2729 115.4504 99.6332 114.9795 98.4736 114.9795 Z M 111.9861 114.9795 C 111.3078 114.9795 110.5968 115.2051 110.0608 115.5552 L 110.0072 115.5552 L 110.0072 115.0871 L 109.3595 115.0871 L 109.3595 120.467 L 110.0429 120.467 L 110.0429 116.0406 C 110.5242 115.7671 111.1403 115.5731 111.6982 115.5731 C 112.5734 115.5731 112.8497 115.8586 112.8497 116.5806 L 112.8497 120.467 L 113.5516 120.467 L 113.5516 116.4367 C 113.5516 115.4084 113.0144 114.9795 111.9861 114.9795 Z M 84.3319 114.9973 C 83.6974 114.9973 83.0836 115.3485 82.7664 115.6991 L 82.7307 115.6991 L 82.7307 115.0693 L 82.0645 115.0693 L 82.0645 120.467 L 82.7664 120.467 L 82.7664 116.1845 C 83.1493 115.8673 83.7089 115.645 84.2778 115.645 C 84.3762 115.645 84.5242 115.6588 84.6555 115.6807 L 84.6555 115.033 C 84.5898 115.0111 84.4522 114.9973 84.3319 114.9973 Z M 52.7913 115.0693 L 54.8784 120.2148 L 54.6982 120.7186 C 54.4904 121.2875 54.191 121.5281 53.6549 121.5281 C 53.458 121.5281 53.2392 121.4895 53.097 121.4567 L 53.097 121.9784 C 53.2502 122.0549 53.5219 122.1223 53.7626 122.1223 C 54.6268 122.1223 55.0178 121.6951 55.3459 120.8084 L 57.4872 115.0693 L 56.8032 115.0693 L 55.2383 119.3155 L 55.2198 119.3155 L 53.511 115.0693 L 52.7913 115.0693 Z M 64.2345 115.0693 L 64.2345 119.0276 C 64.2345 120.0668 64.8505 120.5568 65.8898 120.5568 C 66.5352 120.5568 67.153 120.3133 67.689 119.9632 L 67.7247 119.9632 L 67.7788 120.467 L 68.3725 120.467 L 68.3725 115.0693 L 67.689 115.0693 L 67.689 119.4951 C 67.2077 119.7795 66.6492 119.9632 66.0694 119.9632 C 65.238 119.9632 64.9358 119.6811 64.9358 118.9372 L 64.9358 115.0693 L 64.2345 115.0693 Z M 101.2989 115.0693 L 103.386 120.2148 L 103.2058 120.7186 C 102.9979 121.2875 102.6985 121.5281 102.1625 121.5281 C 101.9656 121.5281 101.7468 121.4895 101.6046 121.4567 L 101.6046 121.9784 C 101.7578 122.0549 102.0295 122.1223 102.2702 122.1223 C 103.1344 122.1223 103.5253 121.6951 103.8535 120.8084 L 105.9948 115.0693 L 105.3108 115.0693 L 103.7458 119.3155 L 103.7274 119.3155 L 102.0186 115.0693 L 101.2989 115.0693 Z M 48.4731 115.0871 L 46.2599 117.678 L 48.5808 120.467 L 49.3903 120.467 L 47.0516 117.6239 L 49.2285 115.0871 L 48.4731 115.0871 Z M 107.038 115.0871 L 107.038 120.467 L 107.7399 120.467 L 107.7399 115.0871 L 107.038 115.0871 Z M 116.9698 115.5011 C 117.7465 115.5011 118.2653 115.854 118.2653 116.6526 L 118.2653 116.7603 C 118.2653 117.526 117.7794 117.9118 116.9698 117.9118 C 116.1931 117.9118 115.6744 117.5301 115.6744 116.7424 L 115.6744 116.6342 C 115.6744 115.9128 116.1713 115.5011 116.9698 115.5011 Z M 60.5819 115.5368 C 61.5664 115.5368 62.3091 116.0958 62.3091 117.6602 L 62.3091 117.8939 C 62.3091 119.2832 61.628 119.9989 60.5997 119.9989 C 59.6261 119.9989 58.8725 119.4364 58.8725 117.8939 L 58.8725 117.6418 C 58.8725 116.2853 59.5426 115.5368 60.5819 115.5368 Z M 78.3762 115.5368 C 79.3608 115.5368 80.1214 116.0958 80.1214 117.6602 L 80.1214 117.8939 C 80.1214 119.2832 79.4408 119.9989 78.4125 119.9989 C 77.4389 119.9989 76.6852 119.4364 76.6852 117.8939 L 76.6852 117.6418 C 76.6852 116.2853 77.337 115.5368 78.3762 115.5368 Z M 90.827 115.5731 C 91.8662 115.5731 92.4823 116.044 92.4823 117.6959 L 92.4823 117.8939 C 92.4823 119.4036 91.8098 119.9989 90.6831 119.9989 C 90.1033 119.9989 89.611 119.8003 89.3156 119.6034 L 89.3156 116.0227 C 89.6219 115.8149 90.1488 115.5731 90.827 115.5731 Z M 37.3535 117.8582 L 37.3535 119.5855 C 37.1019 119.8152 36.616 120.0168 36.0581 120.0173 C 35.3689 120.0173 34.9244 119.669 34.9244 119.0455 C 34.9244 118.3891 35.2785 118.0966 36.0224 118.02 L 37.3535 117.8582 Z M 99.5895 117.8582 L 99.5895 119.5855 C 99.3378 119.8152 98.8341 120.0168 98.2761 120.0173 C 97.587 120.0173 97.1425 119.669 97.1425 119.0455 C 97.1425 118.3891 97.496 118.0966 98.2399 118.02 L 99.5895 117.8582 Z M 116.1246 119.8371 L 117.708 119.8371 C 118.4409 119.8371 118.7875 119.9908 118.7875 120.5931 C 118.7875 121.1838 118.2906 121.5644 116.9341 121.5644 C 115.7418 121.5644 115.2967 121.2725 115.2967 120.737 C 115.2967 120.2332 115.6542 119.9903 116.1246 119.8371 Z " stroke-width="0.5757575631141663"/>
</svg>