<svg xmlns="http://www.w3.org/2000/svg" xmlns:xlink="http://www.w3.org/1999/xlink" version="1.1" width="33.53310012817383" height="33.53310012817383" viewBox="0.15400004386901855 -0.6669000089168549 33.53310012817383 33.53310012817383">
  <!-- Exported by Scratch - http://scratch.mit.edu/ -->
  <g id="ID0.2200355175882578">
    <path id="ID0.6319170827046037" fill="#FF99E5" stroke="#FF00BF" stroke-width="0.5255513787269592" d="M 16.9206 0.3331 C 21.2706 0.3331 25.2122 2.0997 28.0662 4.954 C 30.9205 7.808 32.6871 11.7496 32.6871 16.0996 C 32.6871 20.4496 30.9205 24.3912 28.0662 27.2453 C 25.2122 30.0995 21.2706 31.8662 16.9206 31.8662 C 12.5706 31.8662 8.629 30.0995 5.7749 27.2453 C 2.9207 24.3912 1.154 20.4496 1.154 16.0996 C 1.154 11.7496 2.9207 7.808 5.7749 4.954 C 8.629 2.0997 12.5706 0.3331 16.9206 0.3331 Z "/>
    <path id="ID0.7118545458652079" fill="#FF00BF" stroke="#FF00BF" stroke-width="2" d="M 16.875 6.3 C 19.627 6.3 22.121 7.418 23.927 9.223 C 25.732 11.029 26.85 13.523 26.85 16.275 C 26.85 19.027 25.732 21.521 23.927 23.327 C 22.121 25.132 19.627 26.25 16.875 26.25 C 14.123 26.25 11.629 25.132 9.823 23.327 C 8.018 21.521 6.9 19.027 6.9 16.275 C 6.9 13.523 8.018 11.029 9.823 9.223 C 11.629 7.418 14.123 6.3 16.875 6.3 Z "/>
  </g>
  <path id="ID0.28466089768335223" fill="#66004C" stroke="none" d="M 23.5787 13.85 L 31.8787 13.85 L 31.8787 16.55 L 23.5787 16.55 L 23.5787 13.85 Z " stroke-width="0.7925070142716272"/>
</svg>