<svg xmlns="http://www.w3.org/2000/svg" xmlns:xlink="http://www.w3.org/1999/xlink" version="1.1" width="142" height="142" viewBox="0.7999999523162842 0.04999995231628418 142 142">
  <!-- Exported by Scratch - http://scratch.mit.edu/ -->
  <path id="ID0.4527167957276106" fill="#CCD8FF" stroke="#CCD8FF" stroke-width="2" d="M 71.8 1.05 C 91.112 1.05 108.612 8.894 121.284 21.566 C 133.956 34.238 141.8 51.738 141.8 71.05 C 141.8 90.362 133.956 107.862 121.284 120.534 C 108.612 133.206 91.112 141.05 71.8 141.05 C 52.488 141.05 34.988 133.206 22.316 120.534 C 9.644 107.862 1.8 90.362 1.8 71.05 C 1.8 51.738 9.644 34.238 22.316 21.566 C 34.988 8.894 52.488 1.05 71.8 1.05 Z "/>
  <g id="ID0.7881526546552777">
    <path id="path4417" d="M 69.3376 38.1572 C 67.4529 38.1572 65.9707 39.2189 65.9707 41.8636 L 65.9707 42.0255 C 65.9707 44.4853 67.2227 45.6594 69.303 45.6594 C 70.1807 45.6594 70.9197 45.4839 71.4936 45.2673 L 71.4936 42.1138 L 69.1779 42.1138 L 69.1779 42.7014 L 70.7998 42.7014 L 70.7998 44.8216 C 70.4098 44.9625 69.8832 45.035 69.3198 45.035 C 67.3362 45.035 66.737 43.8462 66.737 42.0255 L 66.737 41.7564 C 66.737 40.0777 67.4613 38.7637 69.303 38.7637 C 70.2564 38.7637 70.7767 38.995 71.2098 39.1905 L 71.2098 38.585 C 70.7988 38.3779 70.27 38.1572 69.3376 38.1572 Z M 95.8367 38.1572 C 94.3524 38.1572 93.6092 38.955 93.6092 40.0283 C 93.6092 41.1226 94.1832 41.6313 95.2659 41.9887 L 95.8903 42.2021 C 96.8111 42.4943 97.2431 42.8339 97.2431 43.6454 C 97.2431 44.5126 96.7354 45.035 95.5329 45.035 C 94.775 45.035 94.0444 44.8658 93.5031 44.5736 L 93.5031 45.1612 C 93.9792 45.4313 94.6919 45.6783 95.5697 45.6783 C 97.2389 45.6783 97.9737 44.8385 97.9737 43.5918 C 97.9737 42.3787 97.2757 41.9299 96.192 41.562 L 95.5329 41.3486 C 94.612 41.0553 94.3219 40.7273 94.3219 39.9579 C 94.3219 39.2431 94.8433 38.7637 95.8188 38.7637 C 96.6198 38.7637 97.2 38.9603 97.6005 39.1558 L 97.6005 38.5503 C 97.2211 38.3548 96.6818 38.1572 95.8367 38.1572 Z M 16.9661 38.2644 L 16.9661 45.5343 L 17.662 45.5343 L 17.662 42.0602 L 21.5461 42.0602 L 21.5461 45.5343 L 22.2409 45.5343 L 22.2409 38.2644 L 21.5461 38.2644 L 21.5461 41.4716 L 17.662 41.4716 L 17.662 38.2644 L 16.9661 38.2644 Z M 26.0903 38.2644 L 23.4004 45.5343 L 24.0594 45.5343 L 24.8783 43.3258 L 27.891 43.3258 L 28.7098 45.5343 L 29.4593 45.5343 L 26.7673 38.2644 L 26.0903 38.2644 Z M 30.5988 38.2644 L 30.5988 45.5343 L 31.2947 45.5343 L 31.2947 42.3619 L 32.8073 42.3619 L 34.7152 45.5343 L 35.5172 45.5343 L 33.52 42.2389 L 33.52 42.2021 C 34.5165 41.9309 35.019 41.3265 35.019 40.2974 C 35.019 39.0402 34.2621 38.2644 32.6475 38.2644 L 30.5988 38.2644 Z M 38.7412 38.2644 L 36.0512 45.5343 L 36.7292 45.5343 L 37.5292 43.3248 L 40.5418 43.3248 L 41.3607 45.5343 L 42.1102 45.5343 L 39.437 38.2644 L 38.7412 38.2644 Z M 43.2517 38.2644 L 43.2517 45.5343 L 43.9108 45.5343 L 43.9108 39.1905 L 43.9266 39.1905 L 46.2076 45.5343 L 46.8667 45.5343 L 49.1667 39.1905 L 49.1846 39.1905 L 49.1846 45.5343 L 49.8794 45.5343 L 49.8794 38.2644 L 48.8461 38.2644 L 46.5819 44.6083 L 46.565 44.6083 L 44.3008 38.2644 L 43.2517 38.2644 Z M 51.7673 38.2644 L 51.7673 45.5343 L 56.0624 45.5343 L 56.0624 44.9467 L 52.4453 44.9467 L 52.4453 42.1138 L 55.2067 42.1138 L 55.2067 41.5083 L 52.4453 41.5083 L 52.4453 38.8699 L 56.0277 38.8699 L 56.0277 38.2644 L 51.7673 38.2644 Z M 56.8823 38.2644 L 59.3063 42.6289 L 59.3063 45.5343 L 60.0001 45.5343 L 60.0001 42.6289 L 62.4062 38.2644 L 61.7124 38.2644 L 59.6984 41.9698 L 59.6616 41.9698 L 57.6129 38.2644 L 56.8823 38.2644 Z M 75.1485 38.2644 L 72.4565 45.5343 L 73.1156 45.5343 L 73.9365 43.3248 L 76.946 43.3248 L 77.7681 45.5343 L 78.5154 45.5343 L 75.8255 38.2644 L 75.1485 38.2644 Z M 79.657 38.2644 L 79.657 45.5343 L 80.3161 45.5343 L 80.3161 39.1905 L 80.334 39.1905 L 82.6129 45.5343 L 83.2741 45.5343 L 85.5551 39.1905 L 85.5898 39.1905 L 85.5898 45.5343 L 86.2836 45.5343 L 86.2836 38.2644 L 85.2514 38.2644 L 82.9892 44.6083 L 82.9703 44.6083 L 80.7082 38.2644 L 79.657 38.2644 Z M 88.1568 38.2644 L 88.1568 45.5343 L 92.4677 45.5343 L 92.4677 44.9467 L 88.8506 44.9467 L 88.8506 42.1138 L 91.6141 42.1138 L 91.6141 41.5083 L 88.8506 41.5083 L 88.8506 38.8699 L 92.433 38.8699 L 92.433 38.2644 L 88.1568 38.2644 Z M 101.6633 38.2644 L 101.6633 38.8699 L 103.9612 38.8699 L 103.9612 45.5343 L 104.6571 45.5343 L 104.6571 38.8699 L 106.956 38.8699 L 106.956 38.2644 L 101.6633 38.2644 Z M 108.2027 38.2644 L 108.2027 45.5343 L 112.4978 45.5343 L 112.4978 44.9467 L 108.8796 44.9467 L 108.8796 42.1138 L 111.641 42.1138 L 111.641 41.5083 L 108.8796 41.5083 L 108.8796 38.8699 L 112.4631 38.8699 L 112.4631 38.2644 L 108.2027 38.2644 Z M 116.0265 38.2644 L 113.3355 45.5343 L 113.9946 45.5343 L 114.8135 43.3248 L 117.8251 43.3248 L 118.644 45.5343 L 119.3934 45.5343 L 116.7024 38.2644 L 116.0265 38.2644 Z M 120.5329 38.2644 L 120.5329 45.5343 L 121.192 45.5343 L 121.192 39.1905 L 121.2109 39.1905 L 123.492 45.5343 L 124.1511 45.5343 L 126.4321 39.1905 L 126.4689 39.1905 L 126.4689 45.5343 L 127.1627 45.5343 L 127.1627 38.2644 L 126.1304 38.2644 L 123.8672 44.6083 L 123.8494 44.6083 L 121.5862 38.2644 L 120.5329 38.2644 Z M 31.2947 38.8699 L 32.6128 38.8699 C 33.8049 38.8699 34.2695 39.3871 34.2695 40.2974 C 34.2695 41.2392 33.8448 41.7922 32.6307 41.7922 L 31.2947 41.7922 L 31.2947 38.8699 Z M 26.3752 39.2084 L 26.3941 39.2084 L 27.6765 42.7193 L 25.0917 42.7193 L 26.3752 39.2084 Z M 39.026 39.2084 L 39.045 39.2084 L 40.3284 42.7193 L 37.7436 42.7193 L 39.026 39.2084 Z M 75.4334 39.2084 L 75.4502 39.2084 L 76.7326 42.7193 L 74.1499 42.7193 L 75.4334 39.2084 Z M 116.3104 39.2084 L 116.3282 39.2084 L 117.6117 42.7193 L 115.029 42.7193 L 116.3104 39.2084 Z M 46.1193 51.3799 L 46.1193 58.6498 L 50.2179 58.6498 L 50.2179 58.0622 L 46.8142 58.0622 L 46.8142 51.3799 L 46.1193 51.3799 Z M 65.1151 51.3799 L 65.1151 58.6498 L 65.792 58.6498 L 65.792 55.1757 L 69.695 55.1757 L 69.695 58.6498 L 70.3888 58.6498 L 70.3888 51.3799 L 69.695 51.3799 L 69.695 54.586 L 65.792 54.586 L 65.792 51.3799 L 65.1151 51.3799 Z M 80.1027 51.3799 L 80.1027 58.6498 L 80.7965 58.6498 L 80.7965 55.4774 L 82.3112 55.4774 L 84.2002 58.6498 L 85.019 58.6498 L 83.0239 55.3544 L 83.0239 55.3176 C 84.0204 55.0464 84.5208 54.4409 84.5208 53.4118 C 84.5208 52.1557 83.765 51.3799 82.1514 51.3799 L 80.1027 51.3799 Z M 80.7965 51.9854 L 82.1147 51.9854 C 83.3056 51.9854 83.7734 52.5015 83.7734 53.4118 C 83.7734 54.3537 83.3466 54.9087 82.1325 54.9087 L 80.7965 54.9087 L 80.7965 51.9854 Z M 53.3893 53.2153 C 52.1436 53.2153 51.0735 54.0614 51.0735 55.9252 L 51.0735 56.0482 C 51.0735 57.75 51.9071 58.7402 53.5869 58.7402 C 54.432 58.7402 55.0249 58.5111 55.3507 58.2945 L 55.3507 57.7773 C 54.9061 58.0044 54.4089 58.1505 53.693 58.1505 C 52.4369 58.1505 51.7894 57.564 51.7673 56.1018 L 55.5105 56.1018 L 55.5105 55.7097 C 55.5105 54.0846 54.842 53.2153 53.3893 53.2153 Z M 58.7544 53.2153 C 57.5088 53.2153 56.4198 54.0614 56.4198 55.9252 L 56.4198 56.0482 C 56.4198 57.75 57.2702 58.7402 58.9489 58.7402 C 59.7941 58.7402 60.388 58.5111 60.7128 58.2945 L 60.7128 57.7773 C 60.2692 58.0044 59.7709 58.1505 59.0561 58.1505 C 57.7989 58.1505 57.1356 57.564 57.1136 56.1018 L 60.8757 56.1018 L 60.8757 55.7097 C 60.8757 54.0846 60.2061 53.2153 58.7544 53.2153 Z M 73.7746 53.2153 C 73.1786 53.2153 72.6741 53.3162 72.2084 53.5001 L 72.2084 53.9826 C 72.5763 53.8964 72.9957 53.8039 73.5266 53.8039 C 74.48 53.8039 74.8626 54.0478 74.8626 54.9255 L 74.8626 55.5678 L 73.3479 55.7276 C 72.3188 55.8474 71.7438 56.3467 71.7438 57.278 C 71.7438 58.2314 72.4365 58.7402 73.4015 58.7402 C 74.1489 58.7402 74.6272 58.4795 74.8973 58.1873 L 74.9351 58.1873 L 75.0045 58.6498 L 75.5564 58.6498 L 75.5564 54.7647 C 75.5564 53.682 74.9236 53.2153 73.7746 53.2153 Z M 87.7994 53.2153 C 87.2034 53.2153 86.6967 53.3162 86.231 53.5001 L 86.231 53.9826 C 86.599 53.8964 87.0194 53.8039 87.5503 53.8039 C 88.5037 53.8039 88.8874 54.0478 88.8874 54.9255 L 88.8874 55.5678 L 87.3726 55.7276 C 86.3425 55.8474 85.7685 56.3467 85.7685 57.278 C 85.7685 58.2314 86.4423 58.7402 87.4073 58.7402 C 88.1547 58.7402 88.633 58.4795 88.9042 58.1873 L 88.9567 58.1873 L 89.0103 58.6498 L 89.5633 58.6498 L 89.5633 54.7647 C 89.5633 53.682 88.9473 53.2153 87.7994 53.2153 Z M 93.5556 53.2153 C 92.9596 53.2153 92.3478 53.4497 91.8275 53.786 L 91.7739 53.786 L 91.7739 53.3214 L 91.1316 53.3214 L 91.1316 58.6498 L 91.8086 58.6498 L 91.8086 54.2664 C 92.2858 53.9837 92.7967 53.8039 93.3054 53.8039 C 94.0318 53.8039 94.3219 54.0867 94.3219 54.8015 L 94.3219 58.6498 L 95.0157 58.6498 L 95.0157 54.6585 C 95.0157 54.5177 95.002 54.3957 94.981 54.2664 C 95.5224 53.9626 96.0227 53.8039 96.4779 53.8039 C 97.2032 53.8039 97.5291 54.0867 97.5291 54.8015 L 97.5291 58.6498 L 98.206 58.6498 L 98.206 54.6585 C 98.206 53.6399 97.6489 53.2153 96.7281 53.2153 C 96.132 53.2153 95.5129 53.4202 94.8738 53.8207 L 94.8202 53.8207 C 94.5931 53.4202 94.1621 53.2153 93.5556 53.2153 Z M 53.3735 53.7671 C 54.3374 53.7671 54.7978 54.3432 54.7978 55.5678 L 51.7862 55.5678 C 51.8724 54.2465 52.604 53.7682 53.3735 53.7671 Z M 58.7177 53.7671 C 59.6816 53.7671 60.1609 54.3432 60.1609 55.5678 L 57.1325 55.5678 C 57.2187 54.2465 57.9482 53.7682 58.7177 53.7671 Z M 74.8626 56.0671 L 74.8626 57.7773 C 74.6135 58.0044 74.1131 58.2041 73.5613 58.2041 C 72.878 58.2041 72.4565 57.8604 72.4565 57.2433 C 72.4565 56.5927 72.8076 56.3025 73.5444 56.2269 L 74.8626 56.0671 Z M 88.8874 56.0671 L 88.8874 57.7773 C 88.6382 58.0044 88.1379 58.2041 87.586 58.2041 C 86.9027 58.2041 86.4812 57.8604 86.4812 57.2433 C 86.4812 56.5927 86.8144 56.3025 87.5503 56.2269 L 88.8874 56.0671 Z " stroke-width="1.0511727333068848" fill="undefined"/>
    <path id="path4295" d="M 75.4382 65.3432 C 73.9539 65.3432 73.2107 66.1411 73.2107 67.2132 C 73.2107 68.3075 73.7836 68.8142 74.8674 69.1716 L 75.4918 69.3871 C 76.4126 69.6803 76.8447 70.0188 76.8447 70.8303 C 76.8447 71.6975 76.3369 72.221 75.1344 72.221 C 74.3754 72.221 73.6449 72.0497 73.1035 71.7564 L 73.1035 72.3461 C 73.5808 72.6163 74.2914 72.8612 75.1691 72.8612 C 76.8373 72.8612 77.5584 72.0234 77.5584 70.7778 C 77.5584 69.5637 76.8762 69.1127 75.7935 68.7448 L 75.1344 68.5314 C 74.2136 68.2392 73.9224 67.9102 73.9224 67.1418 C 73.9224 66.4259 74.4448 65.9487 75.4193 65.9487 C 76.2213 65.9487 76.8005 66.1453 77.2021 66.3408 L 77.2021 65.7332 C 76.8226 65.5377 76.2833 65.3432 75.4382 65.3432 Z M 84.5245 65.3432 C 82.6293 65.3432 81.2648 66.4312 81.2648 68.9771 L 81.2648 69.1716 C 81.2648 71.5987 82.3896 72.8444 84.3837 72.8444 C 85.2719 72.8444 85.9163 72.611 86.3599 72.3619 L 86.3599 71.7564 C 85.9163 71.973 85.3739 72.221 84.453 72.221 C 82.7302 72.221 82.0122 71.1331 82.0122 69.1716 L 82.0122 68.852 C 82.0122 66.8474 82.9877 65.9487 84.472 65.9487 C 85.2193 65.9487 85.7575 66.1127 86.2884 66.3408 L 86.2884 65.7332 C 85.8658 65.5051 85.3161 65.3432 84.5245 65.3432 Z M 58.1159 65.4473 L 58.1159 72.7193 L 58.7592 72.7193 L 58.7592 66.3755 L 58.775 66.3755 L 61.075 72.7193 L 61.734 72.7193 L 64.0151 66.3755 L 64.033 66.3755 L 64.033 72.7193 L 64.7457 72.7193 L 64.7457 65.4473 L 63.6945 65.4473 L 61.4481 71.7911 L 61.4134 71.7911 L 59.1671 65.4473 L 58.1159 65.4473 Z M 66.5621 65.4473 L 66.5621 70.2249 C 66.5621 72.0129 67.5218 72.8612 69.2005 72.8612 C 70.9013 72.8612 71.7833 72.0486 71.7833 70.207 L 71.7833 65.4473 L 71.161 65.4473 L 71.161 70.1881 C 71.161 71.769 70.4977 72.2736 69.2194 72.2736 C 67.9622 72.2736 67.2748 71.748 67.2748 70.1881 L 67.2748 65.4473 L 66.5621 65.4473 Z M 79.0721 65.4473 L 79.0721 72.7193 L 79.7848 72.7193 L 79.7848 65.4473 L 79.0721 65.4473 Z M 100.5822 78.0288 C 99.6067 78.0288 98.9414 78.5344 98.9414 79.7043 L 98.9414 80.5064 L 98.1225 80.5064 L 98.1225 81.0751 L 98.9414 81.0751 L 98.9414 85.8348 L 99.6194 85.8348 L 99.6194 81.0751 L 100.9018 81.0751 L 100.9018 80.5064 L 99.6194 80.5064 L 99.6194 79.7411 C 99.6194 78.9065 100.0335 78.5806 100.7052 78.5806 C 101.0731 78.5806 101.316 78.6448 101.4894 78.6878 L 101.4894 78.1885 C 101.2834 78.0918 100.9932 78.0288 100.5822 78.0288 Z M 50.7051 78.0824 L 50.7051 85.8348 L 51.3989 85.8348 L 51.3989 81.4514 C 51.8751 81.1917 52.468 80.9878 53.0209 80.9878 C 53.887 80.9878 54.1782 81.2695 54.1782 81.9854 L 54.1782 85.8348 L 54.8562 85.8348 L 54.8562 81.8435 C 54.8562 80.8249 54.3432 80.417 53.3247 80.417 C 52.653 80.417 51.9539 80.622 51.4336 80.9689 L 51.3989 80.9689 L 51.3989 78.0824 L 50.7051 78.0824 Z M 73.299 80.3813 C 72.1501 80.3813 71.3029 81.0088 71.3029 82.0915 L 71.3029 82.1641 C 71.3029 82.7811 71.5793 83.211 71.9809 83.4822 C 71.6014 83.785 71.4101 84.0373 71.4101 84.3726 C 71.4101 84.7205 71.6529 84.956 71.9462 85.0317 L 71.9462 85.0685 C 71.3712 85.2745 70.9108 85.6119 70.9108 86.2079 C 70.9108 86.9774 71.635 87.4725 73.2822 87.4725 C 75.0703 87.4725 75.7935 86.7398 75.7935 85.8505 C 75.7935 84.8656 75.0902 84.586 74.1368 84.586 L 72.621 84.586 C 72.2531 84.586 72.0503 84.4441 72.0503 84.1413 C 72.0503 83.9458 72.1838 83.8018 72.3362 83.6599 C 72.6179 83.7692 72.9353 83.8207 73.2822 83.8207 C 74.387 83.8207 75.2406 83.2647 75.2406 82.1262 L 75.2406 82.0737 C 75.2406 81.608 75.0818 81.2475 74.7791 80.9878 L 75.8303 80.9878 L 75.8303 80.4696 L 74.0296 80.4696 C 73.8026 80.416 73.5587 80.3813 73.299 80.3813 Z M 24.4563 80.4002 C 23.2538 80.4002 22.6746 81.0036 22.6746 81.8603 C 22.6746 82.7485 23.1718 83.0965 23.9738 83.3035 L 24.5099 83.4654 C 25.2352 83.6599 25.5075 83.8996 25.5075 84.463 C 25.5075 84.9938 25.169 85.3355 24.2587 85.3355 C 23.4903 85.3355 23.0646 85.1809 22.621 84.997 L 22.621 85.531 C 23.032 85.758 23.6269 85.9231 24.3312 85.9231 C 25.5222 85.9231 26.1844 85.3502 26.1844 84.4073 C 26.1844 83.4759 25.744 83.1396 24.758 82.8579 L 24.1893 82.7159 C 23.5712 82.532 23.3147 82.3165 23.3147 81.8067 C 23.3147 81.2758 23.711 80.9689 24.491 80.9689 C 25.0544 80.9689 25.5779 81.1213 25.8806 81.2727 L 25.8806 80.7208 C 25.5884 80.5684 25.149 80.4002 24.4563 80.4002 Z M 35.4316 80.4002 C 34.7063 80.4002 34.1429 80.6525 33.775 80.9342 L 33.7403 80.9342 L 33.7403 80.5064 L 33.0812 80.5064 L 33.0812 87.4378 L 33.756 87.4378 L 33.756 85.5678 C 34.0703 85.7622 34.5549 85.9231 35.1835 85.9231 C 36.6573 85.9231 37.6065 85.1084 37.6065 83.1795 L 37.6065 83.0544 C 37.6065 81.0393 36.6131 80.4002 35.4316 80.4002 Z M 40.8315 80.4002 C 39.5858 80.4002 38.5157 81.2443 38.5157 83.108 L 38.5157 83.231 C 38.5157 84.9329 39.3493 85.9231 41.028 85.9231 C 41.8732 85.9231 42.4671 85.6939 42.7919 85.4774 L 42.7919 84.9623 C 42.3483 85.1894 41.8501 85.3355 41.1353 85.3355 C 39.8781 85.3355 39.2316 84.7489 39.2095 83.2867 L 42.9706 83.2867 L 42.9706 82.8946 C 42.9706 81.2695 42.2831 80.4002 40.8315 80.4002 Z M 58.0812 80.4002 C 57.4852 80.4002 56.9785 80.5011 56.5129 80.6851 L 56.5129 81.1655 C 56.8808 81.0782 57.3002 80.9878 57.831 80.9878 C 58.7845 80.9878 59.1671 81.2327 59.1671 82.1105 L 59.1671 82.7506 L 57.6523 82.9115 C 56.6232 83.0302 56.0493 83.5317 56.0493 84.463 C 56.0493 85.4164 56.7252 85.9231 57.6891 85.9231 C 58.4365 85.9231 58.9148 85.6634 59.186 85.3702 L 59.2396 85.3702 L 59.2922 85.8348 L 59.8451 85.8348 L 59.8451 81.9507 C 59.8451 80.8669 59.2302 80.4002 58.0812 80.4002 Z M 68.1126 80.4002 C 67.5165 80.4002 67.012 80.5011 66.5463 80.6851 L 66.5463 81.1655 C 66.9142 81.0782 67.3336 80.9878 67.8645 80.9878 C 68.8179 80.9878 69.2005 81.2327 69.2005 82.1105 L 69.2005 82.7506 L 67.6858 82.9115 C 66.6567 83.0302 66.0817 83.5317 66.0817 84.463 C 66.0817 85.4164 66.7586 85.9231 67.7226 85.9231 C 68.47 85.9231 68.9482 85.6634 69.2194 85.3702 L 69.271 85.3702 L 69.3256 85.8348 L 69.8785 85.8348 L 69.8785 81.9507 C 69.8785 80.8669 69.2615 80.4002 68.1126 80.4002 Z M 78.8587 80.4002 C 77.4501 80.4002 76.4526 81.3746 76.4526 83.108 L 76.4526 83.2678 C 76.4526 84.9907 77.3955 85.9231 78.8587 85.9231 C 80.2778 85.9231 81.2648 84.9371 81.2648 83.2152 L 81.2648 83.0712 C 81.2648 81.3379 80.3314 80.4002 78.8587 80.4002 Z M 85.1142 80.4002 C 84.4425 80.4002 83.7372 80.622 83.2063 80.9689 L 83.1538 80.9689 L 83.1538 80.5064 L 82.5105 80.5064 L 82.5105 85.8348 L 83.1885 85.8348 L 83.1885 81.4514 C 83.6647 81.1802 84.2764 80.9878 84.8283 80.9878 C 85.6955 80.9878 85.9678 81.2695 85.9678 81.9854 L 85.9678 85.8348 L 86.6647 85.8348 L 86.6647 81.8435 C 86.6647 80.8249 86.1328 80.4002 85.1142 80.4002 Z M 104.0742 80.4002 C 102.6657 80.4002 101.6681 81.3746 101.6681 83.108 L 101.6681 83.2678 C 101.6681 84.9907 102.612 85.9231 104.0742 85.9231 C 105.4933 85.9231 106.4783 84.9371 106.4783 83.2152 L 106.4783 83.0712 C 106.4783 81.3379 105.548 80.4002 104.0742 80.4002 Z M 109.8473 80.4002 C 108.4713 80.4002 107.3697 81.2117 107.3697 83.108 L 107.3697 83.2499 C 107.3697 84.9938 108.2611 85.9231 109.8105 85.9231 C 110.5799 85.9231 111.0319 85.7297 111.3788 85.5121 L 111.3788 84.9623 C 111.0866 85.1242 110.6188 85.3355 109.882 85.3355 C 108.6689 85.3355 108.0824 84.6469 108.0824 83.2499 L 108.0824 83.0019 C 108.0824 81.6469 108.7761 80.9878 109.7937 80.9878 C 110.4874 80.9878 110.8522 81.1098 111.3074 81.3263 L 111.3074 80.7555 C 110.9279 80.5169 110.541 80.4002 109.8473 80.4002 Z M 119.6652 80.4002 C 118.4627 80.4002 117.8835 81.0036 117.8835 81.8603 C 117.8835 82.7485 118.3828 83.0965 119.1848 83.3035 L 119.7188 83.4654 C 120.4441 83.6599 120.7164 83.8996 120.7164 84.463 C 120.7164 84.9938 120.38 85.3355 119.4708 85.3355 C 118.7013 85.3355 118.2745 85.1809 117.8299 84.997 L 117.8299 85.531 C 118.2419 85.758 118.8358 85.9231 119.5401 85.9231 C 120.7322 85.9231 121.3944 85.3502 121.3944 84.4073 C 121.3944 83.4759 120.955 83.1396 119.969 82.8579 L 119.3982 82.7159 C 118.7812 82.532 118.5258 82.3165 118.5258 81.8067 C 118.5258 81.2758 118.922 80.9689 119.702 80.9689 C 120.2654 80.9689 120.7868 81.1213 121.0906 81.2727 L 121.0906 80.7208 C 120.7973 80.5684 120.359 80.4002 119.6652 80.4002 Z M 46.4447 80.417 C 45.8161 80.417 45.2086 80.766 44.8943 81.1129 L 44.8596 81.1129 L 44.8596 80.4885 L 44.2005 80.4885 L 44.2005 85.8348 L 44.8943 85.8348 L 44.8943 81.5933 C 45.2737 81.279 45.8277 81.0593 46.3911 81.0593 C 46.4889 81.0593 46.635 81.073 46.7643 81.094 L 46.7643 80.4538 C 46.7002 80.4317 46.5635 80.417 46.4447 80.417 Z M 27.3964 80.4885 L 27.3964 84.4073 C 27.3964 85.4374 27.9893 85.9231 29.0184 85.9231 C 29.6575 85.9231 30.2693 85.6824 30.8001 85.3355 L 30.8348 85.3355 L 30.9074 85.8348 L 31.4939 85.8348 L 31.4939 80.4885 L 30.817 80.4885 L 30.817 84.8719 C 30.3397 85.1526 29.7868 85.3355 29.2129 85.3355 C 28.3898 85.3355 28.0713 85.0559 28.0713 84.319 L 28.0713 80.4885 L 27.3964 80.4885 Z M 60.9677 80.4885 L 62.7316 83.127 L 60.8963 85.8348 L 61.6457 85.8348 L 63.1048 83.6073 L 64.5859 85.8348 L 65.3701 85.8348 L 63.5873 83.127 L 65.2628 80.4885 L 64.5133 80.4885 L 63.1773 82.6255 L 61.7519 80.4885 L 60.9677 80.4885 Z M 112.5204 80.4885 L 112.5204 84.4073 C 112.5204 85.4374 113.1133 85.9231 114.1424 85.9231 C 114.7815 85.9231 115.3912 85.6824 115.923 85.3355 L 115.9598 85.3355 L 116.0292 85.8348 L 116.6189 85.8348 L 116.6189 80.4885 L 115.9409 80.4885 L 115.9409 84.8719 C 115.4647 85.1526 114.9118 85.3355 114.3379 85.3355 C 113.5138 85.3355 113.1984 85.0559 113.1984 84.319 L 113.1984 80.4885 L 112.5204 80.4885 Z M 73.2822 80.9153 C 74.0517 80.9153 74.5636 81.2664 74.5636 82.0569 L 74.5636 82.1641 C 74.5636 82.922 74.0843 83.3025 73.2822 83.3035 C 72.5128 83.3035 71.9987 82.9251 71.9987 82.1452 L 71.9987 82.039 C 71.9987 81.3231 72.4917 80.9153 73.2822 80.9153 Z M 40.8126 80.95 C 41.7775 80.95 42.24 81.5271 42.24 82.7506 L 39.2284 82.7506 C 39.3146 81.4293 40.0441 80.95 40.8126 80.95 Z M 78.8587 80.95 C 79.8331 80.95 80.569 81.505 80.569 83.0544 L 80.569 83.2867 C 80.569 84.6627 79.8952 85.3702 78.8766 85.3702 C 77.9126 85.3702 77.1663 84.8141 77.1663 83.2867 L 77.1663 83.0365 C 77.1663 81.6932 77.8296 80.95 78.8587 80.95 Z M 104.0742 80.95 C 105.0497 80.95 105.7845 81.505 105.7845 83.0544 L 105.7845 83.2867 C 105.7845 84.6627 105.1086 85.3702 104.091 85.3702 C 103.1261 85.3702 102.3808 84.8141 102.3808 83.2867 L 102.3808 83.0365 C 102.3808 81.6932 103.0451 80.95 104.0742 80.95 Z M 35.2529 80.9878 C 36.282 80.9878 36.8749 81.4535 36.8749 83.0902 L 36.8749 83.2867 C 36.8749 84.7815 36.2273 85.3702 35.112 85.3702 C 34.5371 85.3702 34.0493 85.1736 33.756 84.9781 L 33.756 81.4325 C 34.0598 81.2264 34.5812 80.9878 35.2529 80.9878 Z M 90.8337 82.0222 L 90.8337 82.5909 L 94.3982 82.5909 L 94.3982 82.0222 L 90.8337 82.0222 Z M 59.1671 83.2499 L 59.1671 84.9623 C 58.918 85.1894 58.4207 85.3891 57.8678 85.3891 C 57.1856 85.3891 56.763 85.0432 56.763 84.4262 C 56.763 83.7766 57.0942 83.4854 57.831 83.4097 L 59.1671 83.2499 Z M 69.2005 83.2499 L 69.2005 84.9623 C 68.9514 85.1894 68.4521 85.3891 67.8992 85.3891 C 67.217 85.3891 66.7944 85.0432 66.7944 84.4262 C 66.7944 83.7766 67.1276 83.4854 67.8645 83.4097 L 69.2005 83.2499 Z M 72.4613 85.2104 L 74.0296 85.2104 C 74.756 85.2104 75.0808 85.3638 75.0808 85.9599 C 75.0808 86.5454 74.6078 86.9206 73.2633 86.9206 C 72.0828 86.9206 71.6235 86.6326 71.6235 86.1018 C 71.6235 85.6035 71.9956 85.3617 72.4613 85.2104 Z M 111.7015 91.1442 C 110.7261 91.1442 110.0607 91.6488 110.0607 92.8188 L 110.0607 93.6219 L 109.2418 93.6219 L 109.2418 94.1905 L 110.0607 94.1905 L 110.0607 98.9492 L 110.7387 98.9492 L 110.7387 94.1905 L 112.0221 94.1905 L 112.0221 93.6219 L 110.7387 93.6219 L 110.7387 92.8566 C 110.7387 92.0209 111.1528 91.6961 111.8245 91.6961 C 112.1924 91.6961 112.4353 91.7592 112.6087 91.8033 L 112.6087 91.304 C 112.4027 91.2063 112.1136 91.1442 111.7015 91.1442 Z M 115.1221 91.1442 C 114.1466 91.1442 113.4812 91.6488 113.4812 92.8188 L 113.4812 93.6219 L 112.6623 93.6219 L 112.6623 94.1905 L 113.4812 94.1905 L 113.4812 98.9492 L 114.1592 98.9492 L 114.1592 94.1905 L 115.4416 94.1905 L 115.4416 93.6219 L 114.1592 93.6219 L 114.1592 92.8566 C 114.1592 92.0209 114.5754 91.6961 115.2471 91.6961 C 115.6151 91.6961 115.8558 91.7592 116.0292 91.8033 L 116.0292 91.304 C 115.8232 91.2063 115.5331 91.1442 115.1221 91.1442 Z M 35.7522 91.1968 L 35.7522 93.9078 C 35.4484 93.7123 34.9859 93.5146 34.2921 93.5146 C 32.9161 93.5146 31.9396 94.3587 31.9396 96.2761 L 31.9396 96.4201 C 31.9396 98.3921 33.0381 99.0375 34.1324 99.0375 C 34.8902 99.0375 35.3948 98.8104 35.7522 98.4856 L 35.8079 98.4856 L 35.8605 98.9492 L 36.4481 98.9492 L 36.4481 91.1968 L 35.7522 91.1968 Z M 47.2289 91.1968 L 47.2289 93.9078 C 46.9251 93.7123 46.4605 93.5146 45.7667 93.5146 C 44.3907 93.5146 43.3974 94.3587 43.3974 96.2761 L 43.3974 96.4201 C 43.3974 98.3921 44.5127 99.0375 45.607 99.0375 C 46.3648 99.0375 46.8715 98.8104 47.2289 98.4856 L 47.2825 98.4856 L 47.3351 98.9492 L 47.9059 98.9492 L 47.9059 91.1968 L 47.2289 91.1968 Z M 99.243 91.1968 L 99.243 93.9078 C 98.9403 93.7123 98.4767 93.5146 97.784 93.5146 C 96.408 93.5146 95.4126 94.3587 95.4126 96.2761 L 95.4126 96.4201 C 95.4126 98.3921 96.5289 99.0375 97.6232 99.0375 C 98.3821 99.0375 98.8856 98.8104 99.243 98.4856 L 99.2988 98.4856 L 99.3503 98.9492 L 99.921 98.9492 L 99.921 91.1968 L 99.243 91.1968 Z M 127.0602 92.3552 L 127.0602 93.6219 L 126.276 93.6219 L 126.276 94.1905 L 127.0602 94.1905 L 127.0602 97.7919 C 127.0602 98.658 127.5732 99.0217 128.3973 99.0217 C 128.8304 99.0217 129.069 98.9145 129.253 98.8062 L 129.253 98.3437 C 129.0585 98.41 128.7841 98.4509 128.5571 98.4509 C 127.9075 98.4509 127.7382 98.2313 127.7382 97.7015 L 127.7382 94.1905 L 129.1626 94.1905 L 129.1626 93.6219 L 127.7382 93.6219 L 127.7382 92.3552 L 127.0602 92.3552 Z M 51.3453 93.4968 C 50.1964 93.4968 49.3491 94.1243 49.3491 95.207 L 49.3491 95.2785 C 49.3491 95.8966 49.6266 96.3255 50.0271 96.5967 C 49.6477 96.9005 49.4563 97.1527 49.4563 97.4881 C 49.4563 97.835 49.6981 98.0715 49.9903 98.1472 L 49.9903 98.1839 C 49.4164 98.39 48.957 98.7274 48.957 99.3234 C 48.957 100.0929 49.6802 100.588 51.3264 100.588 C 53.1144 100.588 53.8587 99.8564 53.8587 98.9681 C 53.8587 97.9821 53.1365 97.7015 52.1831 97.7015 L 50.6673 97.7015 C 50.2994 97.7015 50.0965 97.5596 50.0965 97.2558 C 50.0965 97.0613 50.2311 96.9173 50.3824 96.7754 C 50.6641 96.8847 50.9984 96.9352 51.3453 96.9352 C 52.4501 96.9352 53.3057 96.3812 53.3057 95.2438 L 53.3057 95.1881 C 53.3057 94.7224 53.1291 94.3619 52.8254 94.1022 L 53.8744 94.1022 L 53.8744 93.5851 L 52.0759 93.5851 C 51.8488 93.5304 51.6049 93.4968 51.3453 93.4968 Z M 12.2322 93.5146 C 11.0297 93.5146 10.4316 94.1191 10.4316 94.9747 C 10.4316 95.863 10.9298 96.2141 11.7308 96.4201 L 12.2858 96.5799 C 13.0111 96.7754 13.2834 97.015 13.2834 97.5785 C 13.2834 98.1093 12.927 98.4509 12.0167 98.4509 C 11.2473 98.4509 10.8384 98.2964 10.3948 98.1125 L 10.3948 98.6454 C 10.8068 98.8735 11.3839 99.0375 12.0882 99.0375 C 13.2802 99.0375 13.9593 98.4678 13.9593 97.5249 C 13.9593 96.5935 13.5199 96.254 12.5339 95.9723 L 11.9463 95.8314 C 11.3293 95.6464 11.0906 95.4309 11.0906 94.9211 C 11.0906 94.3913 11.468 94.0833 12.249 94.0833 C 12.8125 94.0833 13.3538 94.2357 13.6566 94.3882 L 13.6566 93.8352 C 13.3643 93.6839 12.926 93.5146 12.2322 93.5146 Z M 17.2558 93.5146 C 15.8472 93.5146 14.8496 94.4901 14.8496 96.2235 L 14.8496 96.3833 C 14.8496 98.1062 15.7747 99.0375 17.2379 99.0375 C 18.657 99.0375 19.6619 98.0526 19.6619 96.3297 L 19.6619 96.1878 C 19.6619 94.4544 18.7295 93.5146 17.2558 93.5146 Z M 29.1593 93.5146 C 28.4876 93.5146 27.7664 93.7375 27.2356 94.0833 L 27.1988 94.0833 L 27.1988 93.6219 L 26.5397 93.6219 L 26.5397 98.9492 L 27.2356 98.9492 L 27.2356 94.5658 C 27.7128 94.2946 28.3215 94.1022 28.8744 94.1022 C 29.7416 94.1022 30.016 94.385 30.016 95.0998 L 30.016 98.9492 L 30.6908 98.9492 L 30.6908 94.959 C 30.6908 93.9404 30.1778 93.5146 29.1593 93.5146 Z M 40.0841 93.5146 C 38.6755 93.5146 37.678 94.4901 37.678 96.2235 L 37.678 96.3833 C 37.678 98.1062 38.603 99.0375 40.0652 99.0375 C 41.4853 99.0375 42.4881 98.0526 42.4881 96.3297 L 42.4881 96.1878 C 42.4881 94.4544 41.5578 93.5146 40.0841 93.5146 Z M 56.8335 93.5146 C 55.5868 93.5146 54.5167 94.3598 54.5167 96.2235 L 54.5167 96.3486 C 54.5167 98.0504 55.3513 99.0375 57.03 99.0375 C 57.8752 99.0375 58.4691 98.8094 58.7939 98.5929 L 58.7939 98.0767 C 58.3493 98.3048 57.8521 98.4509 57.1373 98.4509 C 55.8801 98.4509 55.2325 97.8644 55.2115 96.4022 L 58.9726 96.4022 L 58.9726 96.0101 C 58.9726 94.384 58.2851 93.5146 56.8335 93.5146 Z M 75.7231 93.5146 C 74.5205 93.5146 73.9224 94.1191 73.9224 94.9747 C 73.9224 95.863 74.4227 96.2141 75.2248 96.4201 L 75.7767 96.5799 C 76.503 96.7754 76.7742 97.015 76.7742 97.5785 C 76.7742 98.1093 76.4179 98.4509 75.5076 98.4509 C 74.7381 98.4509 74.3323 98.2964 73.8877 98.1125 L 73.8877 98.6454 C 74.2998 98.8735 74.8758 99.0375 75.5801 99.0375 C 76.7711 99.0375 77.4501 98.4678 77.4501 97.5249 C 77.4501 96.5935 77.0107 96.254 76.0247 95.9723 L 75.4382 95.8314 C 74.8201 95.6464 74.5815 95.4309 74.5815 94.9211 C 74.5815 94.3913 74.9599 94.0833 75.7399 94.0833 C 76.3033 94.0833 76.8447 94.2357 77.1484 94.3882 L 77.1484 93.8352 C 76.8552 93.6839 76.4168 93.5146 75.7231 93.5146 Z M 80.7477 93.5146 C 79.3391 93.5146 78.3436 94.4901 78.3436 96.2235 L 78.3436 96.3833 C 78.3436 98.1062 79.2666 99.0375 80.7287 99.0375 C 82.1478 99.0375 83.1538 98.0526 83.1538 96.3297 L 83.1538 96.1878 C 83.1538 94.4544 82.2203 93.5146 80.7477 93.5146 Z M 92.6511 93.5146 C 91.9794 93.5146 91.2583 93.7375 90.7275 94.0833 L 90.6907 94.0833 L 90.6907 93.6219 L 90.0316 93.6219 L 90.0316 98.9492 L 90.7275 98.9492 L 90.7275 94.5658 C 91.2037 94.2946 91.7944 94.1022 92.3473 94.1022 C 93.2135 94.1022 93.5068 94.385 93.5068 95.0998 L 93.5068 98.9492 L 94.1848 98.9492 L 94.1848 94.959 C 94.1848 93.9404 93.6697 93.5146 92.6511 93.5146 Z M 106.3364 93.5146 C 105.0907 93.5146 104.0206 94.3598 104.0206 96.2235 L 104.0206 96.3486 C 104.0206 98.0504 104.8521 99.0375 106.5319 99.0375 C 107.377 99.0375 107.972 98.8094 108.2978 98.5929 L 108.2978 98.0767 C 107.8532 98.3048 107.356 98.4509 106.6401 98.4509 C 105.384 98.4509 104.7365 97.8644 104.7144 96.4022 L 108.4744 96.4022 L 108.4744 96.0101 C 108.4744 94.384 107.788 93.5146 106.3364 93.5146 Z M 118.5426 93.5146 C 117.2959 93.5146 116.2079 94.3598 116.2079 96.2235 L 116.2079 96.3486 C 116.2079 98.0504 117.0604 99.0375 118.7391 99.0375 C 119.5843 99.0375 120.1782 98.8094 120.503 98.5929 L 120.503 98.0767 C 120.0584 98.3048 119.5612 98.4509 118.8464 98.4509 C 117.5892 98.4509 116.9437 97.8644 116.9227 96.4022 L 120.6628 96.4022 L 120.6628 96.0101 C 120.6628 94.384 119.9942 93.5146 118.5426 93.5146 Z M 124.0318 93.5146 C 122.6558 93.5146 121.5731 94.3272 121.5731 96.2235 L 121.5731 96.3644 C 121.5731 98.1093 122.4456 99.0375 123.995 99.0375 C 124.7645 99.0375 125.2354 98.8462 125.5823 98.6296 L 125.5823 98.0767 C 125.29 98.2397 124.8223 98.4509 124.0854 98.4509 C 122.8724 98.4509 122.2669 97.7624 122.2669 96.3644 L 122.2669 96.1163 C 122.2669 94.7624 122.9764 94.1022 123.995 94.1022 C 124.6888 94.1022 125.0556 94.2242 125.5108 94.4407 L 125.5108 93.8699 C 125.1313 93.6324 124.7256 93.5146 124.0318 93.5146 Z M 131.9082 93.5146 C 130.7046 93.5146 130.1076 94.1191 130.1076 94.9747 C 130.1076 95.863 130.6069 96.2141 131.4089 96.4201 L 131.9608 96.5799 C 132.6872 96.7754 132.9594 97.015 132.9594 97.5785 C 132.9594 98.1093 132.6041 98.4509 131.6938 98.4509 C 130.9254 98.4509 130.5165 98.2964 130.0718 98.1125 L 130.0718 98.6454 C 130.4839 98.8735 131.0599 99.0375 131.7642 99.0375 C 132.9563 99.0375 133.6364 98.4678 133.6364 97.5249 C 133.6364 96.5935 133.1959 96.254 132.2099 95.9723 L 131.6223 95.8314 C 131.0053 95.6464 130.7667 95.4309 130.7667 94.9211 C 130.7667 94.3913 131.1461 94.0833 131.9261 94.0833 C 132.4895 94.0833 133.0288 94.2357 133.3326 94.3882 L 133.3326 93.8352 C 133.0403 93.6839 132.601 93.5146 131.9082 93.5146 Z M 62.4457 93.5315 C 61.8181 93.5315 61.2106 93.8804 60.8963 94.2273 L 60.8616 94.2273 L 60.8616 93.6029 L 60.2025 93.6029 L 60.2025 98.9492 L 60.8963 98.9492 L 60.8963 94.7077 C 61.2757 94.3934 61.8297 94.1737 62.3931 94.1737 C 62.4898 94.1737 62.6381 94.1884 62.7684 94.2095 L 62.7684 93.5682 C 62.7032 93.5472 62.5655 93.5315 62.4457 93.5315 Z M 20.855 93.6029 L 20.855 97.5249 C 20.855 98.554 21.4478 99.0375 22.4769 99.0375 C 23.1161 99.0375 23.7468 98.7978 24.2776 98.4509 L 24.3123 98.4509 L 24.3659 98.9492 L 24.9546 98.9492 L 24.9546 93.6029 L 24.2776 93.6029 L 24.2776 97.9863 C 23.8004 98.268 23.2485 98.4509 22.6746 98.4509 C 21.8504 98.4509 21.5509 98.1713 21.5509 97.4345 L 21.5509 93.6029 L 20.855 93.6029 Z M 84.3458 93.6029 L 84.3458 97.5249 C 84.3458 98.554 84.9387 99.0375 85.9678 99.0375 C 86.6079 99.0375 87.2376 98.7978 87.7684 98.4509 L 87.7874 98.4509 L 87.8567 98.9492 L 88.4464 98.9492 L 88.4464 93.6029 L 87.7684 93.6029 L 87.7684 97.9863 C 87.2923 98.268 86.7393 98.4509 86.1654 98.4509 C 85.3423 98.4509 85.0238 98.1713 85.0238 97.4345 L 85.0238 93.6029 L 84.3458 93.6029 Z M 51.3453 94.0308 C 52.1148 94.0308 52.6099 94.3808 52.6099 95.1723 L 52.6099 95.2785 C 52.6099 96.0364 52.1473 96.4201 51.3453 96.4201 C 50.5758 96.4201 50.0461 96.0406 50.0461 95.2606 L 50.0461 95.1534 C 50.0461 94.4386 50.5548 94.0308 51.3453 94.0308 Z M 17.2379 94.0676 C 18.2123 94.0676 18.9503 94.6205 18.9503 96.1699 L 18.9503 96.4022 C 18.9503 97.7782 18.2744 98.4856 17.2558 98.4856 C 16.2918 98.4856 15.5455 97.9296 15.5455 96.4022 L 15.5455 96.151 C 15.5455 94.8076 16.2078 94.0676 17.2379 94.0676 Z M 40.0652 94.0676 C 41.0407 94.0676 41.7754 94.6205 41.7754 96.1699 L 41.7754 96.4022 C 41.7754 97.7782 41.1027 98.4856 40.0841 98.4856 C 39.1202 98.4856 38.3717 97.9296 38.3717 96.4022 L 38.3717 96.151 C 38.3717 94.8076 39.0361 94.0676 40.0652 94.0676 Z M 56.8167 94.0676 C 57.7806 94.0676 58.241 94.6415 58.241 95.8661 L 55.2294 95.8661 C 55.3166 94.5437 56.0472 94.0676 56.8167 94.0676 Z M 80.7287 94.0676 C 81.7042 94.0676 82.4411 94.6205 82.4411 96.1699 L 82.4411 96.4022 C 82.4411 97.7782 81.7652 98.4856 80.7477 98.4856 C 79.7827 98.4856 79.0374 97.9296 79.0374 96.4022 L 79.0374 96.151 C 79.0374 94.8076 79.6996 94.0676 80.7287 94.0676 Z M 106.3185 94.0676 C 107.2824 94.0676 107.7449 94.6415 107.7449 95.8661 L 104.7333 95.8661 C 104.8195 94.5437 105.549 94.0676 106.3185 94.0676 Z M 118.5258 94.0676 C 119.4897 94.0676 119.9511 94.6415 119.9511 95.8661 L 116.9227 95.8661 C 117.0089 94.5437 117.7563 94.0676 118.5258 94.0676 Z M 34.3993 94.1022 C 34.9628 94.1022 35.481 94.2589 35.7522 94.4765 L 35.7522 97.9863 C 35.46 98.246 34.9985 98.4856 34.3268 98.4856 C 33.3303 98.4856 32.6334 97.9432 32.6334 96.3833 L 32.6334 96.1878 C 32.6334 94.6604 33.3156 94.1022 34.3993 94.1022 Z M 45.8739 94.1022 C 46.4374 94.1022 46.9577 94.2589 47.2289 94.4765 L 47.2289 97.9863 C 46.9367 98.246 46.4752 98.4856 45.8035 98.4856 C 44.807 98.4856 44.1101 97.9432 44.1101 96.3833 L 44.1101 96.1878 C 44.1101 94.6604 44.7902 94.1022 45.8739 94.1022 Z M 97.8902 94.1022 C 98.4536 94.1022 98.9729 94.2589 99.243 94.4765 L 99.243 97.9863 C 98.9508 98.246 98.4904 98.4856 97.8187 98.4856 C 96.8222 98.4856 96.1253 97.9432 96.1253 96.3833 L 96.1253 96.1878 C 96.1253 94.6604 96.8075 94.1022 97.8902 94.1022 Z M 66.4906 95.1366 L 66.4906 95.7053 L 70.0551 95.7053 L 70.0551 95.1366 L 66.4906 95.1366 Z M 50.5075 98.3259 L 52.0759 98.3259 C 52.8022 98.3259 53.127 98.4793 53.127 99.0753 C 53.127 99.6598 52.654 100.0361 51.3106 100.0361 C 50.1291 100.0361 49.6887 99.747 49.6887 99.2162 C 49.6887 98.7179 50.0418 98.4772 50.5075 98.3259 Z M 93.0243 104.3123 L 93.0243 107.0222 C 92.7216 106.8277 92.258 106.6301 91.5653 106.6301 C 90.1893 106.6301 89.1938 107.4732 89.1938 109.3916 L 89.1938 109.5356 C 89.1938 111.5076 90.3102 112.153 91.4044 112.153 C 92.1634 112.153 92.6669 111.9259 93.0243 111.6011 L 93.0611 111.6011 L 93.1315 112.0647 L 93.7023 112.0647 L 93.7023 104.3123 L 93.0243 104.3123 Z M 61.3787 105.4707 L 61.3787 106.7373 L 60.5946 106.7373 L 60.5946 107.3081 L 61.3787 107.3081 L 61.3787 110.9063 C 61.3787 111.7735 61.8896 112.1362 62.7127 112.1362 C 63.1468 112.1362 63.3854 112.031 63.5694 111.9228 L 63.5694 111.4592 C 63.3739 111.5244 63.1027 111.5654 62.8756 111.5654 C 62.2249 111.5654 62.0536 111.3488 62.0536 110.818 L 62.0536 107.3081 L 63.4811 107.3081 L 63.4811 106.7373 L 62.0536 106.7373 L 62.0536 105.4707 L 61.3787 105.4707 Z M 52.201 106.6112 C 51.0531 106.6112 50.2058 107.2388 50.2058 108.3215 L 50.2058 108.394 C 50.2058 109.011 50.4802 109.441 50.8817 109.7122 C 50.5023 110.0149 50.2941 110.2672 50.2941 110.6025 C 50.2941 110.9504 50.5538 111.1859 50.846 111.2616 L 50.846 111.2984 C 50.2721 111.5044 49.7948 111.8429 49.7948 112.4379 C 49.7948 113.2073 50.5359 113.7056 52.1831 113.7056 C 53.9701 113.7056 54.6954 112.9718 54.6954 112.0836 C 54.6954 111.0976 53.9922 110.818 53.0387 110.818 L 51.524 110.818 C 51.155 110.818 50.9532 110.674 50.9532 110.3712 C 50.9532 110.1757 51.0867 110.0317 51.2381 109.8909 C 51.5198 109.9991 51.8362 110.0506 52.1831 110.0506 C 53.2879 110.0506 54.1435 109.4967 54.1435 108.3593 L 54.1435 108.3057 C 54.1435 107.84 53.9827 107.4774 53.68 107.2177 L 54.7311 107.2177 L 54.7311 106.7016 L 52.9305 106.7016 C 52.7024 106.648 52.4616 106.6112 52.201 106.6112 Z M 57.6891 106.6301 C 56.4435 106.6301 55.3545 107.4742 55.3545 109.3379 L 55.3545 109.463 C 55.3545 111.1649 56.2049 112.153 57.8846 112.153 C 58.7298 112.153 59.3248 111.9238 59.6496 111.7073 L 59.6496 111.1922 C 59.206 111.4193 58.7056 111.5654 57.9908 111.5654 C 56.7347 111.5654 56.0892 110.9799 56.0672 109.5166 L 59.8104 109.5166 L 59.8104 109.1246 C 59.8104 107.4994 59.1408 106.6301 57.6891 106.6301 Z M 66.4212 106.6301 C 65.8252 106.6301 65.3185 106.731 64.8529 106.916 L 64.8529 107.3964 C 65.2208 107.3092 65.6392 107.2177 66.17 107.2177 C 67.1234 107.2177 67.525 107.4627 67.525 108.3404 L 67.525 108.9826 L 65.9923 109.1435 C 64.9622 109.2623 64.3883 109.7616 64.3883 110.6929 C 64.3883 111.6463 65.0831 112.153 66.047 112.153 C 66.7944 112.153 67.2727 111.8933 67.5439 111.6011 L 67.5786 111.6011 L 67.6511 112.0647 L 68.203 112.0647 L 68.203 108.1806 C 68.203 107.0968 67.5691 106.6301 66.4212 106.6301 Z M 72.1943 106.6301 C 71.5982 106.6301 70.9675 106.8645 70.4472 107.2009 L 70.4125 107.2009 L 70.4125 106.7373 L 69.7534 106.7373 L 69.7534 112.0647 L 70.4472 112.0647 L 70.4472 107.6813 C 70.9234 107.3996 71.4364 107.2177 71.9462 107.2177 C 72.6715 107.2177 72.9595 107.5005 72.9595 108.2153 L 72.9595 112.0647 L 73.6375 112.0647 L 73.6375 108.0734 C 73.6375 107.9325 73.6239 107.8116 73.6028 107.6813 C 74.1442 107.3775 74.6614 107.2177 75.1155 107.2177 C 75.8418 107.2177 76.1666 107.5005 76.1666 108.2153 L 76.1666 112.0647 L 76.8278 112.0647 L 76.8278 108.0734 C 76.8278 107.0548 76.2875 106.6301 75.3657 106.6301 C 74.7707 106.6301 74.1347 106.8351 73.4956 107.2356 L 73.4588 107.2356 C 73.2318 106.8351 72.8008 106.6301 72.1943 106.6301 Z M 80.7287 106.6301 C 80.0024 106.6301 79.44 106.8824 79.0721 107.1641 L 79.0374 107.1641 L 79.0374 106.7373 L 78.3783 106.7373 L 78.3783 113.6677 L 79.0553 113.6677 L 79.0553 111.7977 C 79.3696 111.9932 79.8521 112.153 80.4807 112.153 C 81.9534 112.153 82.9026 111.3383 82.9026 109.4105 L 82.9026 109.2843 C 82.9026 107.2692 81.9092 106.6301 80.7287 106.6301 Z M 86.1465 106.6301 C 84.9008 106.6301 83.8129 107.4742 83.8129 109.3379 L 83.8129 109.463 C 83.8129 111.1649 84.6643 112.153 86.3441 112.153 C 87.1892 112.153 87.7821 111.9238 88.108 111.7073 L 88.108 111.1922 C 87.6633 111.4193 87.164 111.5654 86.4482 111.5654 C 85.192 111.5654 84.5466 110.9799 84.5245 109.5166 L 88.2677 109.5166 L 88.2677 109.1246 C 88.2677 107.4994 87.5981 106.6301 86.1465 106.6301 Z M 52.1831 107.1452 C 52.9525 107.1452 53.4655 107.4963 53.4655 108.2868 L 53.4655 108.394 C 53.4655 109.1519 52.9841 109.5356 52.1831 109.5356 C 51.4136 109.5356 50.8996 109.155 50.8996 108.3751 L 50.8996 108.2689 C 50.8996 107.5531 51.3916 107.1452 52.1831 107.1452 Z M 57.6702 107.182 C 58.6352 107.182 59.0977 107.7591 59.0977 108.9826 L 56.0861 108.9826 C 56.1723 107.6613 56.9018 107.182 57.6702 107.182 Z M 86.1286 107.182 C 87.0925 107.182 87.5551 107.7591 87.5551 108.9826 L 84.5245 108.9826 C 84.6118 107.6613 85.3592 107.182 86.1286 107.182 Z M 80.569 107.2177 C 81.5981 107.2177 82.1909 107.6844 82.1909 109.3201 L 82.1909 109.5166 C 82.1909 111.0114 81.5434 111.6011 80.427 111.6011 C 79.8531 111.6011 79.3485 111.4035 79.0553 111.209 L 79.0553 107.6624 C 79.3591 107.4574 79.8973 107.2177 80.569 107.2177 Z M 91.6714 107.2177 C 92.2349 107.2177 92.7542 107.3744 93.0243 107.5909 L 93.0243 111.1018 C 92.7321 111.3615 92.2717 111.6011 91.6 111.6011 C 90.6035 111.6011 89.9065 111.0587 89.9065 109.4988 L 89.9065 109.3033 C 89.9065 107.7759 90.5887 107.2177 91.6714 107.2177 Z M 67.525 109.482 L 67.525 111.1922 C 67.2758 111.4193 66.7765 111.619 66.2236 111.619 C 65.5414 111.619 65.1031 111.2742 65.1031 110.6561 C 65.1031 110.0065 65.452 109.7174 66.1889 109.6417 L 67.525 109.482 Z M 51.3453 111.4403 L 52.9305 111.4403 C 53.6558 111.4403 53.9837 111.5938 53.9837 112.1898 C 53.9837 112.7753 53.4918 113.1505 52.1484 113.1505 C 50.9669 113.1505 50.5264 112.8625 50.5264 112.3317 C 50.5264 111.8334 50.8796 111.5917 51.3453 111.4403 Z " stroke-width="1.0511727333068848" fill="undefined"/>
  </g>
</svg>