<svg xmlns="http://www.w3.org/2000/svg" xmlns:xlink="http://www.w3.org/1999/xlink" version="1.1" width="41.43813299808241" height="41.4380338159535" viewBox="-0.6620163007246322 -0.6867162867056198 41.43813299808241 41.4380338159535">
  <!-- Exported by Scratch - http://scratch.mit.edu/ -->
  <path id="ID0.6319170827046037" fill="#FFFFFF" stroke="#99B2FF" stroke-width="0.6559143662452698" d="M 20.057 0.3549 C 25.486 0.3549 30.4054 2.5597 33.9673 6.122 C 37.5296 9.6839 39.7345 14.6033 39.7345 20.0323 C 39.7345 25.4613 37.5296 30.3807 33.9673 33.9426 C 30.4054 37.5049 25.486 39.7097 20.057 39.7097 C 14.628 39.7097 9.7087 37.5049 6.1467 33.9426 C 2.5845 30.3807 0.3796 25.4613 0.3796 20.0323 C 0.3796 14.6033 2.5845 9.6839 6.1467 6.122 C 9.7087 2.5597 14.628 0.3549 20.057 0.3549 Z "/>
  <g id="ID0.7133269258774817">
    <g id="ID0.2200355175882578">
      <path id="ID0.6319170827046037" fill="#FFCCCC" stroke="#FF9999" stroke-width="0.19398014550782247" d="M 14.0687 20.0318 C 14.0709 18.4262 14.725 16.9722 15.7799 15.9203 C 16.8347 14.8682 18.2905 14.2181 19.896 14.2203 C 21.5016 14.2225 22.9556 14.8765 24.0075 15.9314 C 25.0596 16.9863 25.7097 18.442 25.7075 20.0476 C 25.7054 21.6531 25.0513 23.1071 23.9964 24.1591 C 22.9415 25.2112 21.4858 25.8613 19.8802 25.8591 C 18.2747 25.8569 16.8207 25.2029 15.7687 24.1479 C 14.7166 23.0931 14.0666 21.6373 14.0687 20.0318 Z "/>
      <path id="ID0.7118545458652079" fill="#FF9999" stroke="#FF9999" stroke-width="0.7381967007814323" d="M 16.2284 20.0774 C 16.2298 19.0617 16.6437 18.1417 17.3108 17.476 C 17.9783 16.8107 18.8994 16.3993 19.9152 16.4007 C 20.9309 16.4021 21.8509 16.816 22.5166 17.4831 C 23.1819 18.1506 23.5933 19.0717 23.5919 20.0874 C 23.5906 21.1032 23.1767 22.0232 22.5095 22.6888 C 21.842 23.3542 20.921 23.7656 19.9052 23.7642 C 18.8894 23.7628 17.9695 23.3489 17.3038 22.6818 C 16.6385 22.0143 16.2271 21.0932 16.2284 20.0774 Z "/>
    </g>
    <path id="ID0.28466089768335223" fill="#FF0000" stroke="none" d="M 19.3459 17.935 L 19.35 14.8715 L 20.3466 14.8729 L 20.3424 17.9364 L 19.3459 17.935 Z " stroke-width="0.2925130323269595"/>
  </g>
  <g id="ID0.10763722285628319">
    <path id="ID0.8262294898740947" fill="none" stroke="#99B2FF" stroke-width="2.083232637974991" stroke-linecap="round" d="M 3.1837 20.05 L 11.6204 20.05 "/>
    <g id="ID0.2060914640314877">
      <path id="ID0.1669733989983797" fill="none" stroke="#99B2FF" stroke-width="2" stroke-linecap="round" d="M 8.05 23.3 L 11.8 20.1 "/>
      <path id="ID0.1669733989983797" fill="none" stroke="#99B2FF" stroke-width="2" stroke-linecap="round" d="M 8.05 16.85 L 11.8 20.05 "/>
    </g>
  </g>
  <g id="ID0.10763722285628319">
    <path id="ID0.8262294898740947" fill="none" stroke="#99B2FF" stroke-width="2.083232637974991" stroke-linecap="round" d="M 36.8663 20.05 L 28.4296 20.05 "/>
    <g id="ID0.2060914640314877">
      <path id="ID0.1669733989983797" fill="none" stroke="#99B2FF" stroke-width="2" stroke-linecap="round" d="M 32 23.3 L 28.25 20.1 "/>
      <path id="ID0.1669733989983797" fill="none" stroke="#99B2FF" stroke-width="2" stroke-linecap="round" d="M 32 16.85 L 28.25 20.05 "/>
    </g>
  </g>
  <g id="ID0.10763722285628319">
    <path id="ID0.8262294898740947" fill="none" stroke="#99B2FF" stroke-width="2.0832326213435755" stroke-linecap="round" d="M 20.0134 36.907 L 20.0689 28.4704 "/>
    <g id="ID0.2060914640314877">
      <path id="ID0.1669733989983797" fill="none" stroke="#99B2FF" stroke-width="1.9999999840330696" stroke-linecap="round" d="M 23.2953 32.0622 L 20.1201 28.2912 "/>
      <path id="ID0.1669733989983797" fill="none" stroke="#99B2FF" stroke-width="1.9999999840330696" stroke-linecap="round" d="M 16.8455 32.0197 L 20.0701 28.2908 "/>
    </g>
  </g>
  <g id="ID0.10763722285628319">
    <path id="ID0.8262294898740947" fill="none" stroke="#99B2FF" stroke-width="2.0832326213435755" stroke-linecap="round" d="M 19.9134 3.443 L 19.9689 11.8796 "/>
    <g id="ID0.2060914640314877">
      <path id="ID0.1669733989983797" fill="none" stroke="#99B2FF" stroke-width="1.9999999840330696" stroke-linecap="round" d="M 23.1953 8.2878 L 20.0201 12.0588 "/>
      <path id="ID0.1669733989983797" fill="none" stroke="#99B2FF" stroke-width="1.9999999840330696" stroke-linecap="round" d="M 16.7455 8.3303 L 19.9701 12.0592 "/>
    </g>
  </g>
</svg>