<svg xmlns="http://www.w3.org/2000/svg" xmlns:xlink="http://www.w3.org/1999/xlink" version="1.1" width="33.533098220825195" height="33.53310012817383" viewBox="0.20399999618530273 0.2331000566482544 33.533098220825195 33.53310012817383">
  <!-- Exported by Scratch - http://scratch.mit.edu/ -->
  <g id="ID0.2200355175882578">
    <path id="ID0.6319170827046037" fill="#CCD8FF" stroke="#99B2FF" stroke-width="0.5255513787269592" d="M 16.9706 1.2331 C 21.3206 1.2331 25.2622 2.9997 28.1162 5.854 C 30.9705 8.708 32.7371 12.6496 32.7371 16.9996 C 32.7371 21.3496 30.9705 25.2912 28.1162 28.1453 C 25.2622 30.9995 21.3206 32.7662 16.9706 32.7662 C 12.6206 32.7662 8.679 30.9995 5.8249 28.1453 C 2.9707 25.2912 1.204 21.3496 1.204 16.9996 C 1.204 12.6496 2.9707 8.708 5.8249 5.854 C 8.679 2.9997 12.6206 1.2331 16.9706 1.2331 Z "/>
    <path id="ID0.7118545458652079" fill="#99B2FF" stroke="#99B2FF" stroke-width="2" d="M 16.975 7.15 C 19.727 7.15 22.221 8.268 24.027 10.073 C 25.832 11.879 26.95 14.373 26.95 17.125 C 26.95 19.877 25.832 22.371 24.027 24.177 C 22.221 25.982 19.727 27.1 16.975 27.1 C 14.223 27.1 11.729 25.982 9.923 24.177 C 8.118 22.371 7 19.877 7 17.125 C 7 14.373 8.118 11.879 9.923 10.073 C 11.729 8.268 14.223 7.15 16.975 7.15 Z "/>
  </g>
  <path id="ID0.3782706414349377" fill="#000000" opacity="1" d="M 17.097 23.63 C 19.624 23.63 21.182 21.768 21.182 19.355 C 21.182 16.924 19.472 15.46 17.344 15.46 C 15.919 15.46 14.855 16.145 14.19 16.867 C 14.361 12.762 15.558 11.622 17.8 11.622 C 18.617 11.622 19.719 11.945 20.175 12.212 L 20.593 11.223 C 20.08 10.919 18.883 10.482 17.629 10.482 C 14.703 10.482 12.822 12.477 12.822 16.924 L 12.822 17.911 C 12.822 21.559 14.323 23.63 17.097 23.63 Z M 17.097 22.471 C 14.988 22.471 14.19 20.876 14.19 18.462 L 14.19 18.329 C 14.741 17.531 15.843 16.639 17.116 16.639 C 18.693 16.639 19.814 17.437 19.814 19.488 C 19.814 21.35 18.807 22.471 17.097 22.471 Z " stroke-width="1"/>
</svg>