<svg xmlns="http://www.w3.org/2000/svg" xmlns:xlink="http://www.w3.org/1999/xlink" version="1.1" width="142.4933145046234" height="142.4933145046234" viewBox="0.6533428430557251 -0.19665729999542236 142.4933145046234 142.4933145046234">
  <!-- Exported by Scratch - http://scratch.mit.edu/ -->
  <path id="ID0.4527167957276106" fill="#99B2FF" stroke="#99B2FF" stroke-width="2" d="M 71.9 1.05 C 91.212 1.05 108.712 8.894 121.384 21.566 C 134.056 34.238 141.9 51.738 141.9 71.05 C 141.9 90.362 134.056 107.862 121.384 120.534 C 108.712 133.206 91.212 141.05 71.9 141.05 C 52.588 141.05 35.088 133.206 22.416 120.534 C 9.744 107.862 1.9 90.362 1.9 71.05 C 1.9 51.738 9.744 34.238 22.416 21.566 C 35.088 8.894 52.588 1.05 71.9 1.05 Z "/>
  <g id="ID0.0060590580105781555">
    <path id="ID0.9421467664651573" fill="#000000" opacity="1" d="M 22.6268 86.9825 L 25.7061 86.9825 L 25.7061 73.8602 L 32.3383 73.8602 C 38.5441 73.8602 42.4287 70.5441 42.4287 64.433 C 42.4287 58.6061 39.2074 55.1953 31.8645 55.1953 L 22.6268 55.1953 L 22.6268 86.9825 Z M 25.7061 71.3021 L 25.7061 57.8008 L 31.5329 57.8008 C 37.2651 57.8008 39.1126 59.9799 39.1126 64.6699 C 39.1126 69.0755 36.9808 71.3021 31.6751 71.3021 L 25.7061 71.3021 Z " stroke-width="2.493314504623413"/>
    <path id="ID0.4950176286511123" fill="#000000" opacity="1" d="M 48.2082 86.9825 L 66.1626 86.9825 L 66.1626 84.377 L 51.2401 84.377 L 51.2401 55.1953 L 48.2082 55.1953 L 48.2082 86.9825 Z " stroke-width="2.493314504623413"/>
    <path id="ID0.6037407699041069" fill="#000000" opacity="1" d="M 68.8628 86.9825 L 71.8 86.9825 L 75.3529 77.2711 L 88.5226 77.2711 L 92.123 86.9825 L 95.3443 86.9825 L 83.6432 55.1953 L 80.6113 55.1953 L 68.8628 86.9825 Z M 81.8904 59.3167 L 81.9852 59.3167 L 87.5752 74.6182 L 76.253 74.6182 L 81.8904 59.3167 Z " stroke-width="2.493314504623413"/>
    <path id="ID0.3833063645288348" fill="#000000" opacity="1" d="M 107.7561 86.9825 L 110.7879 86.9825 L 110.7879 74.2392 L 121.3521 55.1953 L 118.3202 55.1953 L 109.4615 71.3494 L 109.3667 71.3494 L 100.4132 55.1953 L 97.1919 55.1953 L 107.7561 74.2392 L 107.7561 86.9825 Z " stroke-width="2.493314504623413"/>
  </g>
</svg>