<svg xmlns="http://www.w3.org/2000/svg" xmlns:xlink="http://www.w3.org/1999/xlink" version="1.1" width="9.416999816894531" height="14.14799976348877" viewBox="0.32099997997283936 -0.1029999852180481 9.416999816894531 14.14799976348877">
  <!-- Exported by Scratch - http://scratch.mit.edu/ -->
  <path id="ID0.0471703140065074" fill="#000000" opacity="1" d="M 4.887 0.397 C 2.379 0.397 0.821 2.449 0.821 4.805 C 0.821 7.218 2.588 8.776 4.716 8.776 C 6.141 8.776 7.167 8.13 7.87 7.313 C 7.737 10.942 6.559 12.405 4.431 12.405 C 3.386 12.405 2.379 12.101 1.809 11.778 L 1.41 12.747 C 1.999 13.146 3.177 13.545 4.488 13.545 C 7.547 13.545 9.238 11.075 9.238 6.762 L 9.238 5.926 C 9.238 2.335 7.68 0.397 4.887 0.397 Z M 4.906 1.556 C 6.996 1.556 7.87 3.133 7.87 5.565 L 7.87 5.907 C 7.319 6.705 6.217 7.598 4.944 7.598 C 3.367 7.598 2.17 6.724 2.17 4.672 C 2.17 2.867 3.196 1.556 4.906 1.556 Z " stroke-width="1"/>
</svg>