<svg xmlns="http://www.w3.org/2000/svg" xmlns:xlink="http://www.w3.org/1999/xlink" version="1.1" width="10.063000679016113" height="14.14799976348877" viewBox="-0.085999995470047 -0.15299999713897705 10.063000679016113 14.14799976348877">
  <!-- Exported by Scratch - http://scratch.mit.edu/ -->
  <path id="ID0.22837274335324764" fill="#000000" opacity="1" d="M 4.993 13.495 C 7.558 13.495 9.477 11.709 9.477 7.453 L 9.477 6.237 C 9.477 1.829 7.482 0.347 5.012 0.347 C 2.542 0.347 0.414 1.829 0.414 6.313 L 0.414 7.434 C 0.414 11.709 2.428 13.495 4.993 13.495 Z M 4.993 12.355 C 2.979 12.355 1.839 10.816 1.839 7.605 L 1.839 6.123 C 1.839 2.893 2.979 1.487 5.012 1.487 C 7.026 1.487 8.09 2.969 8.09 6.199 L 8.09 7.681 C 8.09 11.006 7.007 12.355 4.993 12.355 Z " stroke-width="1"/>
</svg>