<svg xmlns="http://www.w3.org/2000/svg" xmlns:xlink="http://www.w3.org/1999/xlink" version="1.1" width="41.43813299808241" height="41.4380338159535" viewBox="-0.6620163007246322 -0.6867162867056198 41.43813299808241 41.4380338159535">
  <!-- Exported by Scratch - http://scratch.mit.edu/ -->
  <path id="ID0.6319170827046037" fill="#FFFFFF" stroke="#99B2FF" stroke-width="0.6559143662452698" d="M 20.057 0.3549 C 25.486 0.3549 30.4054 2.5597 33.9673 6.122 C 37.5296 9.6839 39.7345 14.6033 39.7345 20.0323 C 39.7345 25.4613 37.5296 30.3807 33.9673 33.9426 C 30.4054 37.5049 25.486 39.7097 20.057 39.7097 C 14.628 39.7097 9.7087 37.5049 6.1467 33.9426 C 2.5845 30.3807 0.3796 25.4613 0.3796 20.0323 C 0.3796 14.6033 2.5845 9.6839 6.1467 6.122 C 9.7087 2.5597 14.628 0.3549 20.057 0.3549 Z "/>
  <g id="ID0.7133269258774817">
    <g id="ID0.2200355175882578">
      <path id="ID0.6319170827046037" fill="#FFCCCC" stroke="#FF9999" stroke-width="0.19398014550782247" d="M 14.0187 20.0318 C 14.0209 18.4262 14.675 16.9722 15.7299 15.9203 C 16.7847 14.8682 18.2405 14.2181 19.846 14.2203 C 21.4516 14.2225 22.9056 14.8765 23.9575 15.9314 C 25.0096 16.9863 25.6597 18.442 25.6575 20.0476 C 25.6554 21.6531 25.0013 23.1071 23.9464 24.1591 C 22.8915 25.2112 21.4358 25.8613 19.8302 25.8591 C 18.2247 25.8569 16.7707 25.2029 15.7187 24.1479 C 14.6666 23.0931 14.0166 21.6373 14.0187 20.0318 Z "/>
      <path id="ID0.7118545458652079" fill="#FF9999" stroke="#FF9999" stroke-width="0.7381967007814323" d="M 16.1784 20.0774 C 16.1798 19.0617 16.5937 18.1417 17.2608 17.476 C 17.9283 16.8107 18.8494 16.3993 19.8652 16.4007 C 20.8809 16.4021 21.8009 16.816 22.4666 17.4831 C 23.1319 18.1506 23.5433 19.0717 23.5419 20.0874 C 23.5406 21.1032 23.1267 22.0232 22.4595 22.6888 C 21.792 23.3542 20.871 23.7656 19.8552 23.7642 C 18.8394 23.7628 17.9195 23.3489 17.2538 22.6818 C 16.5885 22.0143 16.1771 21.0932 16.1784 20.0774 Z "/>
    </g>
    <path id="ID0.28466089768335223" fill="#FF0000" stroke="none" d="M 19.2959 17.935 L 19.3 14.8715 L 20.2966 14.8729 L 20.2924 17.9364 L 19.2959 17.935 Z " stroke-width="0.2925130323269595"/>
  </g>
  <g id="ID0.10763722285628319">
    <path id="ID0.8262294898740947" fill="none" stroke="#99B2FF" stroke-width="2.083232637974991" stroke-linecap="round" d="M 3.1337 20.05 L 11.5704 20.05 "/>
    <g id="ID0.2060914640314877">
      <path id="ID0.1669733989983797" fill="none" stroke="#99B2FF" stroke-width="2" stroke-linecap="round" d="M 8 23.3 L 11.75 20.1 "/>
      <path id="ID0.1669733989983797" fill="none" stroke="#99B2FF" stroke-width="2" stroke-linecap="round" d="M 8 16.85 L 11.75 20.05 "/>
    </g>
  </g>
  <g id="ID0.10763722285628319">
    <path id="ID0.8262294898740947" fill="none" stroke="#99B2FF" stroke-width="2.083232637974991" stroke-linecap="round" d="M 36.8663 20.05 L 28.4296 20.05 "/>
    <g id="ID0.2060914640314877">
      <path id="ID0.1669733989983797" fill="none" stroke="#99B2FF" stroke-width="2" stroke-linecap="round" d="M 32 23.3 L 28.25 20.1 "/>
      <path id="ID0.1669733989983797" fill="none" stroke="#99B2FF" stroke-width="2" stroke-linecap="round" d="M 32 16.85 L 28.25 20.05 "/>
    </g>
  </g>
  <g id="ID0.10763722285628319">
    <path id="ID0.8262294898740947" fill="none" stroke="#99B2FF" stroke-width="2.0832326213435755" stroke-linecap="round" d="M 20.0134 36.907 L 20.0689 28.4704 "/>
    <g id="ID0.2060914640314877">
      <path id="ID0.1669733989983797" fill="none" stroke="#99B2FF" stroke-width="1.9999999840330696" stroke-linecap="round" d="M 23.2953 32.0622 L 20.1201 28.2912 "/>
      <path id="ID0.1669733989983797" fill="none" stroke="#99B2FF" stroke-width="1.9999999840330696" stroke-linecap="round" d="M 16.8455 32.0197 L 20.0701 28.2908 "/>
    </g>
  </g>
  <g id="ID0.10763722285628319">
    <path id="ID0.8262294898740947" fill="none" stroke="#99B2FF" stroke-width="2.0832326213435755" stroke-linecap="round" d="M 19.8634 3.493 L 19.9189 11.9296 "/>
    <g id="ID0.2060914640314877">
      <path id="ID0.1669733989983797" fill="none" stroke="#99B2FF" stroke-width="1.9999999840330696" stroke-linecap="round" d="M 23.1453 8.3378 L 19.9701 12.1088 "/>
      <path id="ID0.1669733989983797" fill="none" stroke="#99B2FF" stroke-width="1.9999999840330696" stroke-linecap="round" d="M 16.6955 8.3803 L 19.9201 12.1092 "/>
    </g>
  </g>
</svg>