<svg xmlns="http://www.w3.org/2000/svg" xmlns:xlink="http://www.w3.org/1999/xlink" version="1.1" width="9.416999816894531" height="14.14799976348877" viewBox="0.32099997997283936 -0.15299999713897705 9.416999816894531 14.14799976348877">
  <!-- Exported by Scratch - http://scratch.mit.edu/ -->
  <path id="ID0.0471703140065074" fill="#001966" opacity="1" d="M 4.887 0.347 C 2.379 0.347 0.821 2.399 0.821 4.755 C 0.821 7.168 2.588 8.726 4.716 8.726 C 6.141 8.726 7.167 8.08 7.87 7.263 C 7.737 10.892 6.559 12.355 4.431 12.355 C 3.386 12.355 2.379 12.051 1.809 11.728 L 1.41 12.697 C 1.999 13.096 3.177 13.495 4.488 13.495 C 7.547 13.495 9.238 11.025 9.238 6.712 L 9.238 5.876 C 9.238 2.285 7.68 0.347 4.887 0.347 Z M 4.906 1.506 C 6.996 1.506 7.87 3.083 7.87 5.515 L 7.87 5.857 C 7.319 6.655 6.217 7.548 4.944 7.548 C 3.367 7.548 2.17 6.674 2.17 4.622 C 2.17 2.817 3.196 1.506 4.906 1.506 Z " stroke-width="1"/>
</svg>