<svg xmlns="http://www.w3.org/2000/svg" xmlns:xlink="http://www.w3.org/1999/xlink" version="1.1" width="37.50307774543762" height="37.50307774543762" viewBox="-0.7724887728691101 -0.6952887773513794 37.50307774543762 37.50307774543762">
  <!-- Exported by Scratch - http://scratch.mit.edu/ -->
  <g id="ID0.2200355175882578">
    <path id="ID0.6319170827046037" fill="#99FFFF" stroke="#00CCCC" stroke-width="0.5877707610830285" d="M 17.9791 0.4231 C 22.8441 0.4231 27.2523 2.3989 30.4442 5.5911 C 33.6364 8.783 35.6122 13.1913 35.6122 18.0563 C 35.6122 22.9212 33.6364 27.3295 30.4442 30.5214 C 27.2523 33.7136 22.8441 35.6894 17.9791 35.6894 C 13.1141 35.6894 8.7058 33.7136 5.5139 30.5214 C 2.3217 27.3295 0.3459 22.9212 0.3459 18.0563 C 0.3459 13.1913 2.3217 8.783 5.5139 5.5911 C 8.7058 2.3989 13.1141 0.4231 17.9791 0.4231 Z "/>
    <path id="ID0.7118545458652079" fill="#00CCCC" stroke="#00CCCC" stroke-width="2.2367775440216064" d="M 17.8722 7.0965 C 20.95 7.0965 23.7392 8.3468 25.7591 10.3655 C 27.7777 12.3853 29.0281 15.1746 29.0281 18.2524 C 29.0281 21.3302 27.7777 24.1195 25.7591 26.1393 C 23.7392 28.158 20.95 29.4083 17.8722 29.4083 C 14.7944 29.4083 12.0051 28.158 9.9853 26.1393 C 7.9666 24.1195 6.7163 21.3302 6.7163 18.2524 C 6.7163 15.1746 7.9666 12.3853 9.9853 10.3655 C 12.0051 8.3468 14.7944 7.0965 17.8722 7.0965 Z "/>
  </g>
  <path id="ID0.28466089768335223" fill="#009999" stroke="none" d="M 24.3084 17.6318 L 33.591 17.6318 L 33.591 20.6514 L 24.3084 20.6514 L 24.3084 17.6318 Z " stroke-width="0.8863309622714363"/>
</svg>