<svg xmlns="http://www.w3.org/2000/svg" xmlns:xlink="http://www.w3.org/1999/xlink" version="1.1" width="40.35490036010742" height="40.354801177978516" viewBox="-0.12039998173713684 -0.1450999677181244 40.35490036010742 40.354801177978516">
  <!-- Exported by Scratch - http://scratch.mit.edu/ -->
  <path id="ID0.6319170827046037" fill="#FFFFFF" stroke="#99B2FF" stroke-width="0.6559143662452698" d="M 20.057 0.3549 C 25.486 0.3549 30.4054 2.5597 33.9673 6.122 C 37.5296 9.6839 39.7345 14.6033 39.7345 20.0323 C 39.7345 25.4613 37.5296 30.3807 33.9673 33.9426 C 30.4054 37.5049 25.486 39.7097 20.057 39.7097 C 14.628 39.7097 9.7087 37.5049 6.1467 33.9426 C 2.5845 30.3807 0.3796 25.4613 0.3796 20.0323 C 0.3796 14.6033 2.5845 9.6839 6.1467 6.122 C 9.7087 2.5597 14.628 0.3549 20.057 0.3549 Z "/>
  <g id="ID0.4354252931661904">
    <path id="Back_Leg" fill="#FAA51D" stroke="#000000" d="M 17.6378 29.4412 C 17.6378 29.4412 14.7862 31.4433 12.1265 32.1571 L 12.1543 32.2265 C 12.5569 32.8154 14.0491 34.6474 12.0464 35.2924 C 10.3246 35.8471 7.1647 31.0616 8.5527 30.1586 C 9.4006 29.6055 10.1322 30.0772 10.1322 30.0772 C 10.1322 30.0772 11.2541 29.7321 12.0697 29.3201 C 13.4593 28.6221 13.9371 28.2053 13.9371 28.2053 C 13.9371 28.2053 15.2883 26.8147 16.1507 26.8696 C 17.0124 26.9245 18.7523 28.3912 17.6378 29.4412 Z M 11.393 32.3867 L 12.1262 32.1571 " stroke-width="0.3228623569011688"/>
    <g id="Tail">
      <path id="Tail_1_" fill="#FAA51D" stroke="#000000" d="M 12.5711 26.939 C 11.7914 26.7934 10.8583 26.5157 10.0715 25.8077 C 8.3116 24.2237 7.7488 21.6105 6.5045 22.284 C 5.2595 22.9581 5.2834 27.1805 9.2014 28.4813 C 10.5516 28.9304 11.7836 28.9317 12.7822 28.9049 C 13.0444 28.8965 15.2741 28.6934 16.0364 27.5893 C 16.7986 26.4854 16.2685 26.2103 16.0073 26.0576 C 15.7458 25.9055 13.674 27.145 12.5711 26.939 Z " stroke-width="0.3228623569011688"/>
      <path id="Tail_Tip" fill="#FFFFFF" d="M 6.5484 22.3834 C 6.0845 22.6346 5.82 23.4802 5.9046 24.4413 C 5.9501 24.956 6.2611 26.2662 7.5086 27.3704 C 7.5974 27.1944 7.1938 26.4224 7.7482 25.9565 C 8.3413 25.4584 9.3173 25.561 9.6379 25.614 C 9.101 25.029 8.668 24.3832 8.2896 23.793 C 7.5525 22.6466 7.1405 22.0635 6.5484 22.3834 Z " stroke-width="0.3228623569011688"/>
    </g>
    <path id="R_Arm" fill="#FAA51D" stroke="#000000" d="M 22.1423 25.6085 C 22.1423 25.6085 22.5407 25.6621 23.674 26.7957 C 24.8069 27.9286 25.6192 27.493 26.551 27.0294 C 27.4799 26.5638 29.9527 25.0512 28.6461 23.8599 C 27.3385 22.6692 26.6421 24.2299 25.5091 24.6364 C 24.3756 25.0432 23.8755 23.8334 23.2956 23.2522 C 23.1051 23.0605 22.912 22.8977 22.7374 22.766 C 22.7374 22.766 22.4235 22.5213 22.1223 23.6671 C 21.8204 24.8104 21.4943 25.1342 22.1423 25.6085 Z " stroke-width="0.3228623569011688"/>
    <g id="Front_Leg_x2F_Body_1_">
      <path id="Front_Leg_x2F_Body" fill="#FAA51D" stroke="#000000" d="M 20.3937 27.9099 C 20.7773 27.6154 21.1673 27.1347 21.6693 26.3879 C 22.0878 25.7661 22.5407 24.5873 22.5407 24.5873 C 22.8232 23.7733 23.1655 22.4641 21.927 22.2317 C 21.4256 22.1377 20.61 22.2 19.4506 21.9811 C 18.2906 21.7613 17.2558 21.1669 16.3779 22.7021 C 15.5001 24.2379 13.2814 25.3725 16.0367 28.0493 C 16.0367 28.0493 17.619 29.2898 19.5123 31.1614 C 21.0724 32.7028 23.4009 34.5847 23.4009 34.5847 C 23.4009 34.5847 29.5265 35.2911 29.7076 34.3607 C 30.3285 31.2002 24.9374 32.1297 24.9374 32.1297 C 24.9374 32.1297 23.4509 30.8599 22.7655 30.2587 C 21.6429 29.2714 19.1736 26.7811 19.1736 26.7811 " stroke-width="0.3228623569011688"/>
      <path id="Belly" fill="#FFFFFF" d="M 21.1092 24.1411 C 19.5142 23.2836 18.78 24.1362 18.2874 24.6325 C 17.4334 25.4894 19.3986 26.7666 19.3986 26.7666 L 20.3873 27.7639 C 21.3555 26.6352 21.8656 25.8674 22.0958 25.2023 C 22.05 24.8985 21.8124 24.5201 21.1092 24.1411 Z " stroke-width="0.3228623569011688"/>
    </g>
    <path id="L_Arm" fill="#FAA51D" stroke="#000000" d="M 14.9609 25.0706 C 15.2027 24.8863 15.894 24.3597 16.5281 23.8899 C 17.312 23.3091 18.503 22.0015 16.8758 21.4213 C 15.2486 20.8398 14.4518 21.9392 13.1564 23.0178 C 12.4594 23.5993 11.4427 23.8889 11.762 25.0225 C 12.0826 26.1564 13.3317 29.3511 15.5682 28.306 C 17.8056 27.2606 14.9874 25.3418 14.5803 24.7042 " stroke-width="0.3228623569011688"/>
    <g id="Head">
      <g id="Head_1_">
        <path id="Head_Fill" fill="#FAA51D" stroke="#000000" d="M 32.9621 15.3935 C 32.4868 13.312 30.0915 12.9465 30.0915 12.9465 C 30.0915 12.9465 30.1484 11.2188 29.243 9.6058 C 28.6438 8.5381 26.5468 7.0094 26.5468 7.0094 L 25.6254 3.2803 L 23.2265 5.6437 L 22.3051 6.0004 C 21.8082 5.9543 20.7818 5.8997 20.2113 5.9271 C 18.6845 5.9998 17.2322 6.5845 17.2322 6.5845 L 13.0744 3.8324 L 13.7954 9.9377 C 14.0039 9.684 10.3882 14.071 12.6728 17.7575 C 13.7444 19.488 15.9527 21.0261 17.7091 21.6147 C 19.0206 22.0538 21.2067 22.1755 22.2292 22.1755 C 23.0835 22.1755 24.7372 22.0008 25.5611 21.8594 C 26.5365 21.6919 27.6529 21.3335 28.8075 20.856 C 31.8737 19.5858 33.4367 17.4749 32.9621 15.3935 Z M 17.8906 7.2428 L 17.2335 6.5845 M 22.3838 5.9513 C 23.0296 6.0589 23.7828 6.3924 23.7828 6.3924 " stroke-width="0.3228623569011688"/>
        <path id="Muzzle" fill="#FFFFFF" d="M 29.9575 13.0275 L 29.0274 12.0244 L 26.0851 12.8835 C 26.0851 12.8868 26.0835 13.4062 25.6267 13.8305 C 25.4181 14.0242 25.1156 14.1979 24.6749 14.2938 C 23.2636 14.6008 21.0549 13.5586 21.0549 13.5586 L 18.5418 14.6618 C 18.5418 14.6618 17.0101 14.8304 16.203 15.6162 C 15.934 15.8784 15.7455 16.2087 15.7212 16.6245 C 15.5621 19.3359 18.5237 20.9031 20.591 21.6618 C 21.165 21.8723 21.362 21.9366 21.712 22.0296 C 21.712 22.0296 24.1089 21.9666 24.999 21.8397 C 25.9779 21.7002 27.4457 21.2721 28.6002 20.7949 C 31.6668 19.5251 33.3143 17.5586 32.8391 15.4771 C 32.3632 13.3943 29.9575 13.0275 29.9575 13.0275 Z " stroke-width="0.3228623569011688"/>
      </g>
      <g id="L_Eye">
        <path id="Eyeball_1_" fill="#FFFFFF" stroke="#000000" d="M 20.7534 10.6713 C 21.6981 12.1177 21.5986 13.8553 20.5332 14.5505 C 19.4668 15.2475 17.8366 14.6383 16.8929 13.1919 C 15.9476 11.7454 16.0457 10.0084 17.1118 9.312 C 18.1779 8.6159 19.8077 9.2242 20.7534 10.6713 " stroke-width="0.3228623569011688"/>
        <path id="Pupil_1_" d="M 20.1761 12.5723 C 20.1761 12.9213 19.9168 13.2041 19.5946 13.2041 C 19.2743 13.2041 19.0122 12.9207 19.0122 12.5723 C 19.0122 12.2236 19.2743 11.9404 19.5946 11.9404 C 19.9162 11.9404 20.1761 12.2236 20.1761 12.5723 " stroke-width="0.3228623569011688" fill="undefined"/>
      </g>
      <g id="R_Eye">
        <path id="Eyeball" fill="#FFFFFF" stroke="#000000" d="M 28.4126 9.6765 C 29.357 11.1226 29.4726 12.7176 28.5715 13.3065 C 27.6697 13.8957 26.253 13.1283 25.3093 11.6812 C 24.3623 10.2348 24.3152 8.7322 25.217 8.1429 C 26.1168 7.5544 27.4676 8.2295 28.4126 9.6765 " stroke-width="0.3228623569011688"/>
        <path id="Pupil" d="M 28.2509 11.9314 C 28.2509 12.2801 27.992 12.5629 27.6697 12.5629 C 27.3491 12.5629 27.0873 12.2798 27.0873 11.9314 C 27.0873 11.5827 27.3491 11.2992 27.6697 11.2992 C 27.992 11.2992 28.2509 11.5827 28.2509 11.9314 " stroke-width="0.3228623569011688" fill="undefined"/>
      </g>
      <path id="Nose" fill="#5E4A42" stroke="#000000" d="M 24.5948 13.6762 C 25.1934 13.6762 26.0658 13.5845 26.111 13.8599 C 26.1578 14.1359 25.5592 15.2168 25.1466 15.2627 C 24.7327 15.3085 23.169 14.503 23.1468 13.9974 C 23.1229 13.4918 24.0424 13.6762 24.5948 13.6762 " stroke-width="0.3228623569011688"/>
      <path id="Whisker_3_" d="M 12.3951 15.1174 C 12.3877 15.1119 11.6261 14.5492 10.4573 14.0319 C 9.162 13.4582 8.4352 13.3023 8.4284 13.3007 L 8.5075 12.9213 C 8.5382 12.9278 9.2763 13.0847 10.6142 13.6774 C 11.8253 14.2137 12.5943 14.7829 12.6263 14.8068 L 12.3951 15.1174 L 12.3951 15.1174 Z " stroke-width="0.3228623569011688" fill="undefined"/>
      <path id="Whisker_2_" d="M 10.4186 16.6194 C 9.7615 16.6194 8.7745 16.5303 8.7274 16.5261 L 8.7619 16.1402 C 8.7752 16.1415 10.0818 16.2587 10.6626 16.2261 C 11.2502 16.1925 12.41 16.0395 12.4213 16.0379 L 12.472 16.4218 C 12.4242 16.4282 11.2871 16.578 10.6843 16.6126 C 10.6061 16.6174 10.5157 16.6194 10.4186 16.6194 L 10.4186 16.6194 Z " stroke-width="0.3228623569011688" fill="undefined"/>
      <path id="Whisker_1_" d="M 31.6939 14.7535 L 31.6313 14.371 C 31.6461 14.3687 33.0919 14.1307 33.8141 13.8792 C 34.6449 13.5906 35.2108 13.0995 35.217 13.0947 L 35.4724 13.3859 C 35.4472 13.4079 34.8434 13.9319 33.9413 14.245 C 33.1878 14.5078 31.7543 14.7435 31.6939 14.7535 L 31.6939 14.7535 Z " stroke-width="0.3228623569011688" fill="undefined"/>
      <path id="Whisker" d="M 34.6084 17.1763 C 34.3462 17.1763 33.9933 17.165 33.5788 17.1237 C 32.656 17.0313 31.7759 16.6784 31.7388 16.6633 L 31.8841 16.3043 C 31.8928 16.3078 32.7513 16.6513 33.6172 16.7382 C 34.4799 16.8244 35.0759 16.774 35.0814 16.7737 L 35.1149 17.1595 C 35.1011 17.1608 34.9174 17.1763 34.6084 17.1763 L 34.6084 17.1763 Z " stroke-width="0.3228623569011688" fill="undefined"/>
      <path id="Mouth" fill="none" stroke="#231F20" stroke-width="0.3874348282814026" d="M 20.4005 16.036 C 20.4005 16.036 23.7411 17.022 24.9906 17.2938 C 26.2391 17.5657 28.494 17.8375 28.494 17.8375 C 28.494 17.8375 25.9147 21.1452 22.8998 20.3058 C 19.8846 19.4673 19.9388 17.5663 20.4005 16.036 Z "/>
    </g>
  </g>
</svg>