<svg xmlns="http://www.w3.org/2000/svg" xmlns:xlink="http://www.w3.org/1999/xlink" version="1.1" width="49.31336743548128" height="34.063369342829915" viewBox="-0.6527336583267331 -0.08203366853104832 49.31336743548128 34.063369342829915">
  <!-- Exported by Scratch - http://scratch.mit.edu/ -->
  <g id="ID0.2200355175882578">
    <path id="ID0.6319170827046037" fill="#CCFFDD" stroke="#99FFBB" stroke-width="0.6648927213080708" d="M 24.0039 1.1831 C 30.4577 1.1831 36.3055 2.9497 40.5398 5.804 C 44.7744 8.658 47.3955 12.5996 47.3955 16.9496 C 47.3955 21.2996 44.7744 25.2412 40.5398 28.0953 C 36.3055 30.9495 30.4577 32.7162 24.0039 32.7162 C 17.5502 32.7162 11.7023 30.9495 7.4681 28.0953 C 3.2334 25.2412 0.6124 21.2996 0.6124 16.9496 C 0.6124 12.5996 3.2334 8.658 7.4681 5.804 C 11.7023 2.9497 17.5502 1.1831 24.0039 1.1831 Z "/>
    <path id="ID0.7118545458652079" fill="#99FFBB" stroke="#99FFBB" stroke-width="2.530267307307458" d="M 23.9488 7.15 C 28.0317 7.15 31.7319 8.268 34.4113 10.073 C 37.0892 11.879 38.7479 14.373 38.7479 17.125 C 38.7479 19.877 37.0892 22.371 34.4113 24.177 C 31.7319 25.982 28.0317 27.1 23.9488 27.1 C 19.8659 27.1 16.1657 25.982 13.4863 24.177 C 10.8084 22.371 9.1497 19.877 9.1497 17.125 C 9.1497 14.373 10.8084 11.879 13.4863 10.073 C 16.1657 8.268 19.8659 7.15 23.9488 7.15 Z "/>
  </g>
  <path id="ID0.28466089768335223" fill="#00CC44" stroke="none" d="M 32.5826 15.65 L 44.8966 15.65 L 44.8966 18.35 L 32.5826 18.35 L 32.5826 15.65 Z " stroke-width="0.8842468222106212"/>
</svg>