<svg xmlns="http://www.w3.org/2000/svg" xmlns:xlink="http://www.w3.org/1999/xlink" version="1.1" width="83.38807523770947" height="83.38797605558057" viewBox="-0.9368392851145018 -1.6296392705232847 83.38807523770947 83.38797605558057">
  <!-- Exported by Scratch - http://scratch.mit.edu/ -->
  <g id="ID0.2200355175882578">
    <path id="ID0.6319170827046037" fill="#B2B2B2" stroke="#666666" stroke-width="1.3069093135223397" d="M 40.7572 0.8571 C 51.5745 0.8571 61.3763 5.2502 68.4735 12.3481 C 75.5713 19.4452 79.9645 29.2471 79.9645 40.0643 C 79.9645 50.8816 75.5713 60.6834 68.4735 67.7806 C 61.3763 74.8784 51.5745 79.2716 40.7572 79.2716 C 29.9399 79.2716 20.1381 74.8784 13.0409 67.7806 C 5.9431 60.6834 1.5499 50.8816 1.5499 40.0643 C 1.5499 29.2471 5.9431 19.4452 13.0409 12.3481 C 20.1381 5.2502 29.9399 0.8571 40.7572 0.8571 Z "/>
    <path id="ID0.7118545458652079" fill="#666666" stroke="#666666" stroke-width="4.973478680092285" d="M 40.6438 15.7107 C 47.4873 15.7107 53.6892 18.4908 58.1803 22.9794 C 62.6688 27.4705 65.449 33.6724 65.449 40.5159 C 65.449 47.3594 62.6688 53.5613 58.1803 58.0524 C 53.6892 62.5409 47.4873 65.3211 40.6438 65.3211 C 33.8003 65.3211 27.5983 62.5409 23.1073 58.0524 C 18.6187 53.5613 15.8385 47.3594 15.8385 40.5159 C 15.8385 33.6724 18.6187 27.4705 23.1073 22.9794 C 27.5983 18.4908 33.8003 15.7107 40.6438 15.7107 Z "/>
  </g>
  <path id="ID0.28466089768335223" fill="#000000" stroke="none" d="M 55.3942 37.1192 L 76.0341 37.1192 L 76.0341 43.8334 L 55.3942 43.8334 L 55.3942 37.1192 Z " stroke-width="1.9707582750581945"/>
</svg>