<svg xmlns="http://www.w3.org/2000/svg" xmlns:xlink="http://www.w3.org/1999/xlink" version="1.1" width="41.82040023803711" height="40.354801177978516" viewBox="-0.12039998173713684 -0.1450999677181244 41.82040023803711 40.354801177978516">
  <!-- Exported by Scratch - http://scratch.mit.edu/ -->
  <path id="ID0.6319170827046037" fill="#FFFFFF" stroke="#99B2FF" stroke-width="0.6559143662452698" d="M 20.057 0.3549 C 25.486 0.3549 30.4054 2.5597 33.9673 6.122 C 37.5296 9.6839 39.7345 14.6033 39.7345 20.0323 C 39.7345 25.4613 37.5296 30.3807 33.9673 33.9426 C 30.4054 37.5049 25.486 39.7097 20.057 39.7097 C 14.628 39.7097 9.7087 37.5049 6.1467 33.9426 C 2.5845 30.3807 0.3796 25.4613 0.3796 20.0323 C 0.3796 14.6033 2.5845 9.6839 6.1467 6.122 C 9.7087 2.5597 14.628 0.3549 20.057 0.3549 Z "/>
  <path id="ID0.8787484127096832" fill="#003FFF" stroke="none" d="M 7.0819 15.5232 C 8.3302 15.5232 9.4613 16.0304 10.2808 16.8492 C 11.0996 17.6688 11.6069 18.7998 11.6069 20.0482 C 11.6069 21.2965 11.0996 22.4276 10.2808 23.2471 C 9.4613 24.0659 8.3302 24.5732 7.0819 24.5732 C 5.8335 24.5732 4.7025 24.0659 3.8829 23.2471 C 3.0641 22.4276 2.5569 21.2965 2.5569 20.0482 C 2.5569 18.7998 3.0641 17.6688 3.8829 16.8492 C 4.7025 16.0304 5.8335 15.5232 7.0819 15.5232 Z " stroke-width="0.7768240571022034"/>
  <path id="ID0.13871515775099397" fill="#99B2FF" stroke="none" d="M 16.075 11.95 C 18.303 11.95 20.322 12.855 21.783 14.317 C 23.245 15.778 24.15 17.797 24.15 20.025 C 24.15 22.253 23.245 24.272 21.783 25.733 C 20.322 27.195 18.303 28.1 16.075 28.1 C 13.847 28.1 11.828 27.195 10.367 25.733 C 8.905 24.272 8 22.253 8 20.025 C 8 17.797 8.905 15.778 10.367 14.317 C 11.828 12.855 13.847 11.95 16.075 11.95 Z " stroke-width="1"/>
  <path id="ID0.017496292479336262" fill="#CCD8FF" stroke="none" d="M 26.775 9.75 C 29.665 9.75 32.284 10.924 34.18 12.82 C 36.076 14.716 37.25 17.335 37.25 20.225 C 37.25 23.115 36.076 25.734 34.18 27.63 C 32.284 29.526 29.665 30.7 26.775 30.7 C 23.885 30.7 21.266 29.526 19.37 27.63 C 17.474 25.734 16.3 23.115 16.3 20.225 C 16.3 17.335 17.474 14.716 19.37 12.82 C 21.266 10.924 23.885 9.75 26.775 9.75 Z " stroke-width="1"/>
  <path id="ID0.31690215039998293" fill="#CCD8FF" stroke="none" d="M 41.075 32.35 C 41.109 32.35 41.141 32.353 41.163 32.357 C 41.186 32.362 41.2 32.368 41.2 32.375 C 41.2 32.382 41.186 32.388 41.163 32.393 C 41.141 32.397 41.109 32.4 41.075 32.4 C 41.041 32.4 41.009 32.397 40.987 32.393 C 40.964 32.388 40.95 32.382 40.95 32.375 C 40.95 32.368 40.964 32.362 40.987 32.357 C 41.009 32.353 41.041 32.35 41.075 32.35 Z " stroke-width="1"/>
</svg>