<svg xmlns="http://www.w3.org/2000/svg" xmlns:xlink="http://www.w3.org/1999/xlink" version="1.1" width="35.465763092041016" height="35.46566390991211" viewBox="-0.7353324890136719 0.19276762008666992 35.465763092041016 35.46566390991211">
  <!-- Exported by Scratch - http://scratch.mit.edu/ -->
  <g id="ID0.2200355175882578">
    <path id="ID0.6319170827046037" fill="#99FFFF" stroke="#00CCCC" stroke-width="0.5558401942253113" d="M 16.9975 1.2504 C 21.5982 1.2504 25.767 3.1189 28.7855 6.1376 C 31.8043 9.1561 33.6728 13.3249 33.6728 17.9256 C 33.6728 22.5263 31.8043 26.6951 28.7855 29.7136 C 25.767 32.7324 21.5982 34.6008 16.9975 34.6008 C 12.3969 34.6008 8.2281 32.7324 5.2096 29.7136 C 2.1908 26.6951 0.3223 22.5263 0.3223 17.9256 C 0.3223 13.3249 2.1908 9.1561 5.2096 6.1376 C 8.2281 3.1189 12.3969 1.2504 16.9975 1.2504 Z "/>
    <path id="ID0.7118545458652079" fill="#00CCCC" stroke="#00CCCC" stroke-width="2.115264892578125" d="M 16.9206 7.5548 C 19.8312 7.5548 22.469 8.7373 24.379 10.6463 C 26.2881 12.5564 27.4705 15.1941 27.4705 18.1047 C 27.4705 21.0153 26.2881 23.6531 24.379 25.5631 C 22.469 27.4722 19.8312 28.6546 16.9206 28.6546 C 14.01 28.6546 11.3723 27.4722 9.4622 25.5631 C 7.5532 23.6531 6.3707 21.0153 6.3707 18.1047 C 6.3707 15.1941 7.5532 12.5564 9.4622 10.6463 C 11.3723 8.7373 14.01 7.5548 16.9206 7.5548 Z "/>
  </g>
  <path id="ID0.28466089768335223" fill="#009999" stroke="none" d="M 23.0018 17.1884 L 31.7801 17.1884 L 31.7801 20.044 L 23.0018 20.044 L 23.0018 17.1884 Z " stroke-width="0.8381811169940262"/>
</svg>