<svg xmlns="http://www.w3.org/2000/svg" xmlns:xlink="http://www.w3.org/1999/xlink" version="1.1" width="52.55500030517578" height="25.98802947998047" viewBox="-0.1899999976158142 -2.284859299659729 52.55500030517578 25.98802947998047">
  <!-- Exported by Scratch - http://scratch.mit.edu/ -->
  <text id="ID0.692284298595041" fill="#000000" text-anchor="start" font-family="Sans Serif" font-size="22" transform="matrix(0.833803 0 0 0.833803 27.4676 -2.50141)" stroke-width="1" alignment-baseline="text-before-edge" xml:space="preserve"><tspan x="0" style="white-space: pre" dy="1.13em">.</tspan></text>
  <text id="ID0.692284298595041" fill="#000000" text-anchor="start" font-family="Sans Serif" font-size="22" transform="matrix(0.833803 0 0 0.833803 7.46761 -2.50141)" stroke-width="1" alignment-baseline="text-before-edge" xml:space="preserve"><tspan x="0" style="white-space: pre" dy="1.13em">.</tspan></text>
  <path id="ID0.9936782922595739" fill="#000000" opacity="1" d="M 2.704 18.516 L 3.977 18.516 L 3.977 5.501 L 3.274 5.501 L 0.31 6.889 L 0.31 7.687 L 2.704 7.098 L 2.704 18.516 Z " stroke-width="1"/>
  <path id="ID0.4659483269788325" fill="#000000" opacity="1" d="M 19.534 18.48 C 22.327 18.48 23.98 16.562 23.98 14.301 C 23.98 11.64 22.422 10.463 19.838 10.463 C 19.306 10.463 18.527 10.577 17.976 10.728 L 18.261 6.7 L 23.543 6.7 L 23.543 5.523 L 17.159 5.523 L 16.703 12.116 C 17.292 11.849 18.489 11.489 19.363 11.489 C 21.415 11.489 22.574 12.287 22.574 14.301 C 22.574 16.144 21.377 17.34 19.325 17.34 C 18.261 17.34 16.95 16.866 16.247 16.409 L 16 17.493 C 16.76 18.062 18.052 18.48 19.534 18.48 Z " stroke-width="1"/>
  <path id="ID0.9936782922595739" fill="#000000" opacity="1" d="M 38.404 18.566 L 39.677 18.566 L 39.677 5.551 L 38.974 5.551 L 36.01 6.939 L 36.01 7.737 L 38.404 7.148 L 38.404 18.566 Z " stroke-width="1"/>
  <path id="ID0.6613695453852415" fill="#000000" opacity="1" d="M 43.999 18.502 L 51.865 18.502 L 51.865 17.325 L 45.899 17.325 L 48.008 15.215 C 50.326 12.86 51.542 11.435 51.542 9.269 C 51.542 7.008 50.155 5.564 47.647 5.564 C 46.222 5.564 44.93 6.248 44.151 6.761 L 44.607 7.843 C 45.329 7.312 46.374 6.761 47.495 6.761 C 49.319 6.761 50.117 7.635 50.117 9.364 C 50.117 11.226 48.939 12.575 47.134 14.437 L 43.999 17.685 L 43.999 18.502 Z " stroke-width="1"/>
</svg>