<svg xmlns="http://www.w3.org/2000/svg" xmlns:xlink="http://www.w3.org/1999/xlink" version="1.1" width="41.35490036010742" height="41.354801177978516" viewBox="-0.6203999817371368 -0.6450999677181244 41.35490036010742 41.354801177978516">
  <!-- Exported by Scratch - http://scratch.mit.edu/ -->
  <path id="ID0.6319170827046037" fill="#FFFFFF" stroke="#99B2FF" stroke-width="0.6559143662452698" d="M 20.057 0.3549 C 25.486 0.3549 30.4054 2.5597 33.9673 6.122 C 37.5296 9.6839 39.7345 14.6033 39.7345 20.0323 C 39.7345 25.4613 37.5296 30.3807 33.9673 33.9426 C 30.4054 37.5049 25.486 39.7097 20.057 39.7097 C 14.628 39.7097 9.7087 37.5049 6.1467 33.9426 C 2.5845 30.3807 0.3796 25.4613 0.3796 20.0323 C 0.3796 14.6033 2.5845 9.6839 6.1467 6.122 C 9.7087 2.5597 14.628 0.3549 20.057 0.3549 Z "/>
  <g id="ID0.13742663757875562">
    <path id="ID0.5382223078049719" fill="none" stroke="#00FFFF" stroke-width="2" stroke-linecap="round" d="M 8.7 34.1 L 11.95 30.2 L 18.3 28.5 L 22.45 17.5 L 35.6 12.5 "/>
    <path id="ID0.6859420412220061" fill="none" stroke="#00FFFF" stroke-width="2" stroke-linecap="round" d="M 11.3 30.6 L 11.6 15.2 L 16.7 6.2 "/>
    <path id="ID0.7008025855757296" fill="none" stroke="#00FFFF" stroke-width="2" stroke-linecap="round" d="M 19.2 28.1 L 28.7 27.6 L 34.45 22.35 "/>
    <path id="ID0.6751377531327307" fill="none" stroke="#00FFFF" stroke-width="2" stroke-linecap="round" d="M 26.2 16.1 L 29.6 5.7 "/>
  </g>
</svg>