<svg xmlns="http://www.w3.org/2000/svg" xmlns:xlink="http://www.w3.org/1999/xlink" version="1.1" width="142" height="142" viewBox="0.7999999523162842 0.04999995231628418 142 142">
  <!-- Exported by Scratch - http://scratch.mit.edu/ -->
  <path id="ID0.4527167957276106" fill="#99B2FF" stroke="#99B2FF" stroke-width="2" d="M 71.8 1.05 C 91.112 1.05 108.612 8.894 121.284 21.566 C 133.956 34.238 141.8 51.738 141.8 71.05 C 141.8 90.362 133.956 107.862 121.284 120.534 C 108.612 133.206 91.112 141.05 71.8 141.05 C 52.488 141.05 34.988 133.206 22.316 120.534 C 9.644 107.862 1.8 90.362 1.8 71.05 C 1.8 51.738 9.644 34.238 22.316 21.566 C 34.988 8.894 52.488 1.05 71.8 1.05 Z "/>
  <g id="ID0.7881526546552777">
    <path id="path4417" d="M 69.4376 38.2572 C 67.5529 38.2572 66.0707 39.3189 66.0707 41.9636 L 66.0707 42.1255 C 66.0707 44.5853 67.3227 45.7594 69.403 45.7594 C 70.2807 45.7594 71.0197 45.5839 71.5936 45.3673 L 71.5936 42.2138 L 69.2779 42.2138 L 69.2779 42.8014 L 70.8998 42.8014 L 70.8998 44.9216 C 70.5098 45.0625 69.9832 45.135 69.4198 45.135 C 67.4362 45.135 66.837 43.9462 66.837 42.1255 L 66.837 41.8564 C 66.837 40.1777 67.5613 38.8637 69.403 38.8637 C 70.3564 38.8637 70.8767 39.095 71.3098 39.2905 L 71.3098 38.685 C 70.8988 38.4779 70.37 38.2572 69.4376 38.2572 Z M 95.9367 38.2572 C 94.4524 38.2572 93.7092 39.055 93.7092 40.1283 C 93.7092 41.2226 94.2832 41.7313 95.3659 42.0887 L 95.9903 42.3021 C 96.9111 42.5943 97.3431 42.9339 97.3431 43.7454 C 97.3431 44.6126 96.8354 45.135 95.6329 45.135 C 94.875 45.135 94.1444 44.9658 93.6031 44.6736 L 93.6031 45.2612 C 94.0792 45.5313 94.7919 45.7783 95.6697 45.7783 C 97.3389 45.7783 98.0737 44.9385 98.0737 43.6918 C 98.0737 42.4787 97.3757 42.0299 96.292 41.662 L 95.6329 41.4486 C 94.712 41.1553 94.4219 40.8273 94.4219 40.0579 C 94.4219 39.3431 94.9433 38.8637 95.9188 38.8637 C 96.7198 38.8637 97.3 39.0603 97.7005 39.2558 L 97.7005 38.6503 C 97.3211 38.4548 96.7818 38.2572 95.9367 38.2572 Z M 17.0661 38.3644 L 17.0661 45.6343 L 17.762 45.6343 L 17.762 42.1602 L 21.6461 42.1602 L 21.6461 45.6343 L 22.3409 45.6343 L 22.3409 38.3644 L 21.6461 38.3644 L 21.6461 41.5716 L 17.762 41.5716 L 17.762 38.3644 L 17.0661 38.3644 Z M 26.1903 38.3644 L 23.5004 45.6343 L 24.1594 45.6343 L 24.9783 43.4258 L 27.991 43.4258 L 28.8098 45.6343 L 29.5593 45.6343 L 26.8673 38.3644 L 26.1903 38.3644 Z M 30.6988 38.3644 L 30.6988 45.6343 L 31.3947 45.6343 L 31.3947 42.4619 L 32.9073 42.4619 L 34.8152 45.6343 L 35.6172 45.6343 L 33.62 42.3389 L 33.62 42.3021 C 34.6165 42.0309 35.119 41.4265 35.119 40.3974 C 35.119 39.1402 34.3621 38.3644 32.7475 38.3644 L 30.6988 38.3644 Z M 38.8412 38.3644 L 36.1512 45.6343 L 36.8292 45.6343 L 37.6292 43.4248 L 40.6418 43.4248 L 41.4607 45.6343 L 42.2102 45.6343 L 39.537 38.3644 L 38.8412 38.3644 Z M 43.3517 38.3644 L 43.3517 45.6343 L 44.0108 45.6343 L 44.0108 39.2905 L 44.0266 39.2905 L 46.3076 45.6343 L 46.9667 45.6343 L 49.2667 39.2905 L 49.2846 39.2905 L 49.2846 45.6343 L 49.9794 45.6343 L 49.9794 38.3644 L 48.9461 38.3644 L 46.6819 44.7083 L 46.665 44.7083 L 44.4008 38.3644 L 43.3517 38.3644 Z M 51.8673 38.3644 L 51.8673 45.6343 L 56.1624 45.6343 L 56.1624 45.0467 L 52.5453 45.0467 L 52.5453 42.2138 L 55.3067 42.2138 L 55.3067 41.6083 L 52.5453 41.6083 L 52.5453 38.9699 L 56.1277 38.9699 L 56.1277 38.3644 L 51.8673 38.3644 Z M 56.9823 38.3644 L 59.4063 42.7289 L 59.4063 45.6343 L 60.1001 45.6343 L 60.1001 42.7289 L 62.5062 38.3644 L 61.8124 38.3644 L 59.7984 42.0698 L 59.7616 42.0698 L 57.7129 38.3644 L 56.9823 38.3644 Z M 75.2485 38.3644 L 72.5565 45.6343 L 73.2156 45.6343 L 74.0365 43.4248 L 77.046 43.4248 L 77.8681 45.6343 L 78.6154 45.6343 L 75.9255 38.3644 L 75.2485 38.3644 Z M 79.757 38.3644 L 79.757 45.6343 L 80.4161 45.6343 L 80.4161 39.2905 L 80.434 39.2905 L 82.7129 45.6343 L 83.3741 45.6343 L 85.6551 39.2905 L 85.6898 39.2905 L 85.6898 45.6343 L 86.3836 45.6343 L 86.3836 38.3644 L 85.3514 38.3644 L 83.0892 44.7083 L 83.0703 44.7083 L 80.8082 38.3644 L 79.757 38.3644 Z M 88.2568 38.3644 L 88.2568 45.6343 L 92.5677 45.6343 L 92.5677 45.0467 L 88.9506 45.0467 L 88.9506 42.2138 L 91.7141 42.2138 L 91.7141 41.6083 L 88.9506 41.6083 L 88.9506 38.9699 L 92.533 38.9699 L 92.533 38.3644 L 88.2568 38.3644 Z M 101.7633 38.3644 L 101.7633 38.9699 L 104.0612 38.9699 L 104.0612 45.6343 L 104.7571 45.6343 L 104.7571 38.9699 L 107.056 38.9699 L 107.056 38.3644 L 101.7633 38.3644 Z M 108.3027 38.3644 L 108.3027 45.6343 L 112.5978 45.6343 L 112.5978 45.0467 L 108.9796 45.0467 L 108.9796 42.2138 L 111.741 42.2138 L 111.741 41.6083 L 108.9796 41.6083 L 108.9796 38.9699 L 112.5631 38.9699 L 112.5631 38.3644 L 108.3027 38.3644 Z M 116.1265 38.3644 L 113.4355 45.6343 L 114.0946 45.6343 L 114.9135 43.4248 L 117.9251 43.4248 L 118.744 45.6343 L 119.4934 45.6343 L 116.8024 38.3644 L 116.1265 38.3644 Z M 120.6329 38.3644 L 120.6329 45.6343 L 121.292 45.6343 L 121.292 39.2905 L 121.3109 39.2905 L 123.592 45.6343 L 124.2511 45.6343 L 126.5321 39.2905 L 126.5689 39.2905 L 126.5689 45.6343 L 127.2627 45.6343 L 127.2627 38.3644 L 126.2304 38.3644 L 123.9672 44.7083 L 123.9494 44.7083 L 121.6862 38.3644 L 120.6329 38.3644 Z M 31.3947 38.9699 L 32.7128 38.9699 C 33.9049 38.9699 34.3695 39.4871 34.3695 40.3974 C 34.3695 41.3392 33.9448 41.8922 32.7307 41.8922 L 31.3947 41.8922 L 31.3947 38.9699 Z M 26.4752 39.3084 L 26.4941 39.3084 L 27.7765 42.8193 L 25.1917 42.8193 L 26.4752 39.3084 Z M 39.126 39.3084 L 39.145 39.3084 L 40.4284 42.8193 L 37.8436 42.8193 L 39.126 39.3084 Z M 75.5334 39.3084 L 75.5502 39.3084 L 76.8326 42.8193 L 74.2499 42.8193 L 75.5334 39.3084 Z M 116.4104 39.3084 L 116.4282 39.3084 L 117.7117 42.8193 L 115.129 42.8193 L 116.4104 39.3084 Z M 46.2193 51.4799 L 46.2193 58.7498 L 50.3179 58.7498 L 50.3179 58.1622 L 46.9142 58.1622 L 46.9142 51.4799 L 46.2193 51.4799 Z M 65.2151 51.4799 L 65.2151 58.7498 L 65.892 58.7498 L 65.892 55.2757 L 69.795 55.2757 L 69.795 58.7498 L 70.4888 58.7498 L 70.4888 51.4799 L 69.795 51.4799 L 69.795 54.686 L 65.892 54.686 L 65.892 51.4799 L 65.2151 51.4799 Z M 80.2027 51.4799 L 80.2027 58.7498 L 80.8965 58.7498 L 80.8965 55.5774 L 82.4112 55.5774 L 84.3002 58.7498 L 85.119 58.7498 L 83.1239 55.4544 L 83.1239 55.4176 C 84.1204 55.1464 84.6208 54.5409 84.6208 53.5118 C 84.6208 52.2557 83.865 51.4799 82.2514 51.4799 L 80.2027 51.4799 Z M 80.8965 52.0854 L 82.2147 52.0854 C 83.4056 52.0854 83.8734 52.6015 83.8734 53.5118 C 83.8734 54.4537 83.4466 55.0087 82.2325 55.0087 L 80.8965 55.0087 L 80.8965 52.0854 Z M 53.4893 53.3153 C 52.2436 53.3153 51.1735 54.1614 51.1735 56.0252 L 51.1735 56.1482 C 51.1735 57.85 52.0071 58.8402 53.6869 58.8402 C 54.532 58.8402 55.1249 58.6111 55.4507 58.3945 L 55.4507 57.8773 C 55.0061 58.1044 54.5089 58.2505 53.793 58.2505 C 52.5369 58.2505 51.8894 57.664 51.8673 56.2018 L 55.6105 56.2018 L 55.6105 55.8097 C 55.6105 54.1846 54.942 53.3153 53.4893 53.3153 Z M 58.8544 53.3153 C 57.6088 53.3153 56.5198 54.1614 56.5198 56.0252 L 56.5198 56.1482 C 56.5198 57.85 57.3702 58.8402 59.0489 58.8402 C 59.8941 58.8402 60.488 58.6111 60.8128 58.3945 L 60.8128 57.8773 C 60.3692 58.1044 59.8709 58.2505 59.1561 58.2505 C 57.8989 58.2505 57.2356 57.664 57.2136 56.2018 L 60.9757 56.2018 L 60.9757 55.8097 C 60.9757 54.1846 60.3061 53.3153 58.8544 53.3153 Z M 73.8746 53.3153 C 73.2786 53.3153 72.7741 53.4162 72.3084 53.6001 L 72.3084 54.0826 C 72.6763 53.9964 73.0957 53.9039 73.6266 53.9039 C 74.58 53.9039 74.9626 54.1478 74.9626 55.0255 L 74.9626 55.6678 L 73.4479 55.8276 C 72.4188 55.9474 71.8438 56.4467 71.8438 57.378 C 71.8438 58.3314 72.5365 58.8402 73.5015 58.8402 C 74.2489 58.8402 74.7272 58.5795 74.9973 58.2873 L 75.0351 58.2873 L 75.1045 58.7498 L 75.6564 58.7498 L 75.6564 54.8647 C 75.6564 53.782 75.0236 53.3153 73.8746 53.3153 Z M 87.8994 53.3153 C 87.3034 53.3153 86.7967 53.4162 86.331 53.6001 L 86.331 54.0826 C 86.699 53.9964 87.1194 53.9039 87.6503 53.9039 C 88.6037 53.9039 88.9874 54.1478 88.9874 55.0255 L 88.9874 55.6678 L 87.4726 55.8276 C 86.4425 55.9474 85.8685 56.4467 85.8685 57.378 C 85.8685 58.3314 86.5423 58.8402 87.5073 58.8402 C 88.2547 58.8402 88.733 58.5795 89.0042 58.2873 L 89.0567 58.2873 L 89.1103 58.7498 L 89.6633 58.7498 L 89.6633 54.8647 C 89.6633 53.782 89.0473 53.3153 87.8994 53.3153 Z M 93.6556 53.3153 C 93.0596 53.3153 92.4478 53.5497 91.9275 53.886 L 91.8739 53.886 L 91.8739 53.4214 L 91.2316 53.4214 L 91.2316 58.7498 L 91.9086 58.7498 L 91.9086 54.3664 C 92.3858 54.0837 92.8967 53.9039 93.4054 53.9039 C 94.1318 53.9039 94.4219 54.1867 94.4219 54.9015 L 94.4219 58.7498 L 95.1157 58.7498 L 95.1157 54.7585 C 95.1157 54.6177 95.102 54.4957 95.081 54.3664 C 95.6224 54.0626 96.1227 53.9039 96.5779 53.9039 C 97.3032 53.9039 97.6291 54.1867 97.6291 54.9015 L 97.6291 58.7498 L 98.306 58.7498 L 98.306 54.7585 C 98.306 53.7399 97.7489 53.3153 96.8281 53.3153 C 96.232 53.3153 95.6129 53.5202 94.9738 53.9207 L 94.9202 53.9207 C 94.6931 53.5202 94.2621 53.3153 93.6556 53.3153 Z M 53.4735 53.8671 C 54.4374 53.8671 54.8978 54.4432 54.8978 55.6678 L 51.8862 55.6678 C 51.9724 54.3465 52.704 53.8682 53.4735 53.8671 Z M 58.8177 53.8671 C 59.7816 53.8671 60.2609 54.4432 60.2609 55.6678 L 57.2325 55.6678 C 57.3187 54.3465 58.0482 53.8682 58.8177 53.8671 Z M 74.9626 56.1671 L 74.9626 57.8773 C 74.7135 58.1044 74.2131 58.3041 73.6613 58.3041 C 72.978 58.3041 72.5565 57.9604 72.5565 57.3433 C 72.5565 56.6927 72.9076 56.4025 73.6444 56.3269 L 74.9626 56.1671 Z M 88.9874 56.1671 L 88.9874 57.8773 C 88.7382 58.1044 88.2379 58.3041 87.686 58.3041 C 87.0027 58.3041 86.5812 57.9604 86.5812 57.3433 C 86.5812 56.6927 86.9144 56.4025 87.6503 56.3269 L 88.9874 56.1671 Z " stroke-width="1.0511727333068848" fill="undefined"/>
    <path id="path4295" d="M 75.5382 65.4432 C 74.0539 65.4432 73.3107 66.2411 73.3107 67.3132 C 73.3107 68.4075 73.8836 68.9142 74.9674 69.2716 L 75.5918 69.4871 C 76.5126 69.7803 76.9447 70.1188 76.9447 70.9303 C 76.9447 71.7975 76.4369 72.321 75.2344 72.321 C 74.4754 72.321 73.7449 72.1497 73.2035 71.8564 L 73.2035 72.4461 C 73.6808 72.7163 74.3914 72.9612 75.2691 72.9612 C 76.9373 72.9612 77.6584 72.1234 77.6584 70.8778 C 77.6584 69.6637 76.9762 69.2127 75.8935 68.8448 L 75.2344 68.6314 C 74.3136 68.3392 74.0224 68.0102 74.0224 67.2418 C 74.0224 66.5259 74.5448 66.0487 75.5193 66.0487 C 76.3213 66.0487 76.9005 66.2453 77.3021 66.4408 L 77.3021 65.8332 C 76.9226 65.6377 76.3833 65.4432 75.5382 65.4432 Z M 84.6245 65.4432 C 82.7293 65.4432 81.3648 66.5312 81.3648 69.0771 L 81.3648 69.2716 C 81.3648 71.6987 82.4896 72.9444 84.4837 72.9444 C 85.3719 72.9444 86.0163 72.711 86.4599 72.4619 L 86.4599 71.8564 C 86.0163 72.073 85.4739 72.321 84.553 72.321 C 82.8302 72.321 82.1122 71.2331 82.1122 69.2716 L 82.1122 68.952 C 82.1122 66.9474 83.0877 66.0487 84.572 66.0487 C 85.3193 66.0487 85.8575 66.2127 86.3884 66.4408 L 86.3884 65.8332 C 85.9658 65.6051 85.4161 65.4432 84.6245 65.4432 Z M 58.2159 65.5473 L 58.2159 72.8193 L 58.8592 72.8193 L 58.8592 66.4755 L 58.875 66.4755 L 61.175 72.8193 L 61.834 72.8193 L 64.1151 66.4755 L 64.133 66.4755 L 64.133 72.8193 L 64.8457 72.8193 L 64.8457 65.5473 L 63.7945 65.5473 L 61.5481 71.8911 L 61.5134 71.8911 L 59.2671 65.5473 L 58.2159 65.5473 Z M 66.6621 65.5473 L 66.6621 70.3249 C 66.6621 72.1129 67.6218 72.9612 69.3005 72.9612 C 71.0013 72.9612 71.8833 72.1486 71.8833 70.307 L 71.8833 65.5473 L 71.261 65.5473 L 71.261 70.2881 C 71.261 71.869 70.5977 72.3736 69.3194 72.3736 C 68.0622 72.3736 67.3748 71.848 67.3748 70.2881 L 67.3748 65.5473 L 66.6621 65.5473 Z M 79.1721 65.5473 L 79.1721 72.8193 L 79.8848 72.8193 L 79.8848 65.5473 L 79.1721 65.5473 Z M 100.6822 78.1288 C 99.7067 78.1288 99.0414 78.6344 99.0414 79.8043 L 99.0414 80.6064 L 98.2225 80.6064 L 98.2225 81.1751 L 99.0414 81.1751 L 99.0414 85.9348 L 99.7194 85.9348 L 99.7194 81.1751 L 101.0018 81.1751 L 101.0018 80.6064 L 99.7194 80.6064 L 99.7194 79.8411 C 99.7194 79.0065 100.1335 78.6806 100.8052 78.6806 C 101.1731 78.6806 101.416 78.7448 101.5894 78.7878 L 101.5894 78.2885 C 101.3834 78.1918 101.0932 78.1288 100.6822 78.1288 Z M 50.8051 78.1824 L 50.8051 85.9348 L 51.4989 85.9348 L 51.4989 81.5514 C 51.9751 81.2917 52.568 81.0878 53.1209 81.0878 C 53.987 81.0878 54.2782 81.3695 54.2782 82.0854 L 54.2782 85.9348 L 54.9562 85.9348 L 54.9562 81.9435 C 54.9562 80.9249 54.4432 80.517 53.4247 80.517 C 52.753 80.517 52.0539 80.722 51.5336 81.0689 L 51.4989 81.0689 L 51.4989 78.1824 L 50.8051 78.1824 Z M 73.399 80.4813 C 72.2501 80.4813 71.4029 81.1088 71.4029 82.1915 L 71.4029 82.2641 C 71.4029 82.8811 71.6793 83.311 72.0809 83.5822 C 71.7014 83.885 71.5101 84.1373 71.5101 84.4726 C 71.5101 84.8205 71.7529 85.056 72.0462 85.1317 L 72.0462 85.1685 C 71.4712 85.3745 71.0108 85.7119 71.0108 86.3079 C 71.0108 87.0774 71.735 87.5725 73.3822 87.5725 C 75.1703 87.5725 75.8935 86.8398 75.8935 85.9505 C 75.8935 84.9656 75.1902 84.686 74.2368 84.686 L 72.721 84.686 C 72.3531 84.686 72.1503 84.5441 72.1503 84.2413 C 72.1503 84.0458 72.2838 83.9018 72.4362 83.7599 C 72.7179 83.8692 73.0353 83.9207 73.3822 83.9207 C 74.487 83.9207 75.3406 83.3647 75.3406 82.2262 L 75.3406 82.1737 C 75.3406 81.708 75.1818 81.3475 74.8791 81.0878 L 75.9303 81.0878 L 75.9303 80.5696 L 74.1296 80.5696 C 73.9026 80.516 73.6587 80.4813 73.399 80.4813 Z M 24.5563 80.5002 C 23.3538 80.5002 22.7746 81.1036 22.7746 81.9603 C 22.7746 82.8485 23.2718 83.1965 24.0738 83.4035 L 24.6099 83.5654 C 25.3352 83.7599 25.6075 83.9996 25.6075 84.563 C 25.6075 85.0938 25.269 85.4355 24.3587 85.4355 C 23.5903 85.4355 23.1646 85.2809 22.721 85.097 L 22.721 85.631 C 23.132 85.858 23.7269 86.0231 24.4312 86.0231 C 25.6222 86.0231 26.2844 85.4502 26.2844 84.5073 C 26.2844 83.5759 25.844 83.2396 24.858 82.9579 L 24.2893 82.8159 C 23.6712 82.632 23.4147 82.4165 23.4147 81.9067 C 23.4147 81.3758 23.811 81.0689 24.591 81.0689 C 25.1544 81.0689 25.6779 81.2213 25.9806 81.3727 L 25.9806 80.8208 C 25.6884 80.6684 25.249 80.5002 24.5563 80.5002 Z M 35.5316 80.5002 C 34.8063 80.5002 34.2429 80.7525 33.875 81.0342 L 33.8403 81.0342 L 33.8403 80.6064 L 33.1812 80.6064 L 33.1812 87.5378 L 33.856 87.5378 L 33.856 85.6678 C 34.1703 85.8622 34.6549 86.0231 35.2835 86.0231 C 36.7573 86.0231 37.7065 85.2084 37.7065 83.2795 L 37.7065 83.1544 C 37.7065 81.1393 36.7131 80.5002 35.5316 80.5002 Z M 40.9315 80.5002 C 39.6858 80.5002 38.6157 81.3443 38.6157 83.208 L 38.6157 83.331 C 38.6157 85.0329 39.4493 86.0231 41.128 86.0231 C 41.9732 86.0231 42.5671 85.7939 42.8919 85.5774 L 42.8919 85.0623 C 42.4483 85.2894 41.9501 85.4355 41.2353 85.4355 C 39.9781 85.4355 39.3316 84.8489 39.3095 83.3867 L 43.0706 83.3867 L 43.0706 82.9946 C 43.0706 81.3695 42.3831 80.5002 40.9315 80.5002 Z M 58.1812 80.5002 C 57.5852 80.5002 57.0785 80.6011 56.6129 80.7851 L 56.6129 81.2655 C 56.9808 81.1782 57.4002 81.0878 57.931 81.0878 C 58.8845 81.0878 59.2671 81.3327 59.2671 82.2105 L 59.2671 82.8506 L 57.7523 83.0115 C 56.7232 83.1302 56.1493 83.6317 56.1493 84.563 C 56.1493 85.5164 56.8252 86.0231 57.7891 86.0231 C 58.5365 86.0231 59.0148 85.7634 59.286 85.4702 L 59.3396 85.4702 L 59.3922 85.9348 L 59.9451 85.9348 L 59.9451 82.0507 C 59.9451 80.9669 59.3302 80.5002 58.1812 80.5002 Z M 68.2126 80.5002 C 67.6165 80.5002 67.112 80.6011 66.6463 80.7851 L 66.6463 81.2655 C 67.0142 81.1782 67.4336 81.0878 67.9645 81.0878 C 68.9179 81.0878 69.3005 81.3327 69.3005 82.2105 L 69.3005 82.8506 L 67.7858 83.0115 C 66.7567 83.1302 66.1817 83.6317 66.1817 84.563 C 66.1817 85.5164 66.8586 86.0231 67.8226 86.0231 C 68.57 86.0231 69.0482 85.7634 69.3194 85.4702 L 69.371 85.4702 L 69.4256 85.9348 L 69.9785 85.9348 L 69.9785 82.0507 C 69.9785 80.9669 69.3615 80.5002 68.2126 80.5002 Z M 78.9587 80.5002 C 77.5501 80.5002 76.5526 81.4746 76.5526 83.208 L 76.5526 83.3678 C 76.5526 85.0907 77.4955 86.0231 78.9587 86.0231 C 80.3778 86.0231 81.3648 85.0371 81.3648 83.3152 L 81.3648 83.1712 C 81.3648 81.4379 80.4314 80.5002 78.9587 80.5002 Z M 85.2142 80.5002 C 84.5425 80.5002 83.8372 80.722 83.3063 81.0689 L 83.2538 81.0689 L 83.2538 80.6064 L 82.6105 80.6064 L 82.6105 85.9348 L 83.2885 85.9348 L 83.2885 81.5514 C 83.7647 81.2802 84.3764 81.0878 84.9283 81.0878 C 85.7955 81.0878 86.0678 81.3695 86.0678 82.0854 L 86.0678 85.9348 L 86.7647 85.9348 L 86.7647 81.9435 C 86.7647 80.9249 86.2328 80.5002 85.2142 80.5002 Z M 104.1742 80.5002 C 102.7657 80.5002 101.7681 81.4746 101.7681 83.208 L 101.7681 83.3678 C 101.7681 85.0907 102.712 86.0231 104.1742 86.0231 C 105.5933 86.0231 106.5783 85.0371 106.5783 83.3152 L 106.5783 83.1712 C 106.5783 81.4379 105.648 80.5002 104.1742 80.5002 Z M 109.9473 80.5002 C 108.5713 80.5002 107.4697 81.3117 107.4697 83.208 L 107.4697 83.3499 C 107.4697 85.0938 108.3611 86.0231 109.9105 86.0231 C 110.6799 86.0231 111.1319 85.8297 111.4788 85.6121 L 111.4788 85.0623 C 111.1866 85.2242 110.7188 85.4355 109.982 85.4355 C 108.7689 85.4355 108.1824 84.7469 108.1824 83.3499 L 108.1824 83.1019 C 108.1824 81.7469 108.8761 81.0878 109.8937 81.0878 C 110.5874 81.0878 110.9522 81.2098 111.4074 81.4263 L 111.4074 80.8555 C 111.0279 80.6169 110.641 80.5002 109.9473 80.5002 Z M 119.7652 80.5002 C 118.5627 80.5002 117.9835 81.1036 117.9835 81.9603 C 117.9835 82.8485 118.4828 83.1965 119.2848 83.4035 L 119.8188 83.5654 C 120.5441 83.7599 120.8164 83.9996 120.8164 84.563 C 120.8164 85.0938 120.48 85.4355 119.5708 85.4355 C 118.8013 85.4355 118.3745 85.2809 117.9299 85.097 L 117.9299 85.631 C 118.3419 85.858 118.9358 86.0231 119.6401 86.0231 C 120.8322 86.0231 121.4944 85.4502 121.4944 84.5073 C 121.4944 83.5759 121.055 83.2396 120.069 82.9579 L 119.4982 82.8159 C 118.8812 82.632 118.6258 82.4165 118.6258 81.9067 C 118.6258 81.3758 119.022 81.0689 119.802 81.0689 C 120.3654 81.0689 120.8868 81.2213 121.1906 81.3727 L 121.1906 80.8208 C 120.8973 80.6684 120.459 80.5002 119.7652 80.5002 Z M 46.5447 80.517 C 45.9161 80.517 45.3086 80.866 44.9943 81.2129 L 44.9596 81.2129 L 44.9596 80.5885 L 44.3005 80.5885 L 44.3005 85.9348 L 44.9943 85.9348 L 44.9943 81.6933 C 45.3737 81.379 45.9277 81.1593 46.4911 81.1593 C 46.5889 81.1593 46.735 81.173 46.8643 81.194 L 46.8643 80.5538 C 46.8002 80.5317 46.6635 80.517 46.5447 80.517 Z M 27.4964 80.5885 L 27.4964 84.5073 C 27.4964 85.5374 28.0893 86.0231 29.1184 86.0231 C 29.7575 86.0231 30.3693 85.7824 30.9001 85.4355 L 30.9348 85.4355 L 31.0074 85.9348 L 31.5939 85.9348 L 31.5939 80.5885 L 30.917 80.5885 L 30.917 84.9719 C 30.4397 85.2526 29.8868 85.4355 29.3129 85.4355 C 28.4898 85.4355 28.1713 85.1559 28.1713 84.419 L 28.1713 80.5885 L 27.4964 80.5885 Z M 61.0677 80.5885 L 62.8316 83.227 L 60.9963 85.9348 L 61.7457 85.9348 L 63.2048 83.7073 L 64.6859 85.9348 L 65.4701 85.9348 L 63.6873 83.227 L 65.3628 80.5885 L 64.6133 80.5885 L 63.2773 82.7255 L 61.8519 80.5885 L 61.0677 80.5885 Z M 112.6204 80.5885 L 112.6204 84.5073 C 112.6204 85.5374 113.2133 86.0231 114.2424 86.0231 C 114.8815 86.0231 115.4912 85.7824 116.023 85.4355 L 116.0598 85.4355 L 116.1292 85.9348 L 116.7189 85.9348 L 116.7189 80.5885 L 116.0409 80.5885 L 116.0409 84.9719 C 115.5647 85.2526 115.0118 85.4355 114.4379 85.4355 C 113.6138 85.4355 113.2984 85.1559 113.2984 84.419 L 113.2984 80.5885 L 112.6204 80.5885 Z M 73.3822 81.0153 C 74.1517 81.0153 74.6636 81.3664 74.6636 82.1569 L 74.6636 82.2641 C 74.6636 83.022 74.1843 83.4025 73.3822 83.4035 C 72.6128 83.4035 72.0987 83.0251 72.0987 82.2452 L 72.0987 82.139 C 72.0987 81.4231 72.5917 81.0153 73.3822 81.0153 Z M 40.9126 81.05 C 41.8775 81.05 42.34 81.6271 42.34 82.8506 L 39.3284 82.8506 C 39.4146 81.5293 40.1441 81.05 40.9126 81.05 Z M 78.9587 81.05 C 79.9331 81.05 80.669 81.605 80.669 83.1544 L 80.669 83.3867 C 80.669 84.7627 79.9952 85.4702 78.9766 85.4702 C 78.0126 85.4702 77.2663 84.9141 77.2663 83.3867 L 77.2663 83.1365 C 77.2663 81.7932 77.9296 81.05 78.9587 81.05 Z M 104.1742 81.05 C 105.1497 81.05 105.8845 81.605 105.8845 83.1544 L 105.8845 83.3867 C 105.8845 84.7627 105.2086 85.4702 104.191 85.4702 C 103.2261 85.4702 102.4808 84.9141 102.4808 83.3867 L 102.4808 83.1365 C 102.4808 81.7932 103.1451 81.05 104.1742 81.05 Z M 35.3529 81.0878 C 36.382 81.0878 36.9749 81.5535 36.9749 83.1902 L 36.9749 83.3867 C 36.9749 84.8815 36.3273 85.4702 35.212 85.4702 C 34.6371 85.4702 34.1493 85.2736 33.856 85.0781 L 33.856 81.5325 C 34.1598 81.3264 34.6812 81.0878 35.3529 81.0878 Z M 90.9337 82.1222 L 90.9337 82.6909 L 94.4982 82.6909 L 94.4982 82.1222 L 90.9337 82.1222 Z M 59.2671 83.3499 L 59.2671 85.0623 C 59.018 85.2894 58.5207 85.4891 57.9678 85.4891 C 57.2856 85.4891 56.863 85.1432 56.863 84.5262 C 56.863 83.8766 57.1942 83.5854 57.931 83.5097 L 59.2671 83.3499 Z M 69.3005 83.3499 L 69.3005 85.0623 C 69.0514 85.2894 68.5521 85.4891 67.9992 85.4891 C 67.317 85.4891 66.8944 85.1432 66.8944 84.5262 C 66.8944 83.8766 67.2276 83.5854 67.9645 83.5097 L 69.3005 83.3499 Z M 72.5613 85.3104 L 74.1296 85.3104 C 74.856 85.3104 75.1808 85.4638 75.1808 86.0599 C 75.1808 86.6454 74.7078 87.0206 73.3633 87.0206 C 72.1828 87.0206 71.7235 86.7326 71.7235 86.2018 C 71.7235 85.7035 72.0956 85.4617 72.5613 85.3104 Z M 111.8015 91.2442 C 110.8261 91.2442 110.1607 91.7488 110.1607 92.9188 L 110.1607 93.7219 L 109.3418 93.7219 L 109.3418 94.2905 L 110.1607 94.2905 L 110.1607 99.0492 L 110.8387 99.0492 L 110.8387 94.2905 L 112.1221 94.2905 L 112.1221 93.7219 L 110.8387 93.7219 L 110.8387 92.9566 C 110.8387 92.1209 111.2528 91.7961 111.9245 91.7961 C 112.2924 91.7961 112.5353 91.8592 112.7087 91.9033 L 112.7087 91.404 C 112.5027 91.3063 112.2136 91.2442 111.8015 91.2442 Z M 115.2221 91.2442 C 114.2466 91.2442 113.5812 91.7488 113.5812 92.9188 L 113.5812 93.7219 L 112.7623 93.7219 L 112.7623 94.2905 L 113.5812 94.2905 L 113.5812 99.0492 L 114.2592 99.0492 L 114.2592 94.2905 L 115.5416 94.2905 L 115.5416 93.7219 L 114.2592 93.7219 L 114.2592 92.9566 C 114.2592 92.1209 114.6754 91.7961 115.3471 91.7961 C 115.7151 91.7961 115.9558 91.8592 116.1292 91.9033 L 116.1292 91.404 C 115.9232 91.3063 115.6331 91.2442 115.2221 91.2442 Z M 35.8522 91.2968 L 35.8522 94.0078 C 35.5484 93.8123 35.0859 93.6146 34.3921 93.6146 C 33.0161 93.6146 32.0396 94.4587 32.0396 96.3761 L 32.0396 96.5201 C 32.0396 98.4921 33.1381 99.1375 34.2324 99.1375 C 34.9902 99.1375 35.4948 98.9104 35.8522 98.5856 L 35.9079 98.5856 L 35.9605 99.0492 L 36.5481 99.0492 L 36.5481 91.2968 L 35.8522 91.2968 Z M 47.3289 91.2968 L 47.3289 94.0078 C 47.0251 93.8123 46.5605 93.6146 45.8667 93.6146 C 44.4907 93.6146 43.4974 94.4587 43.4974 96.3761 L 43.4974 96.5201 C 43.4974 98.4921 44.6127 99.1375 45.707 99.1375 C 46.4648 99.1375 46.9715 98.9104 47.3289 98.5856 L 47.3825 98.5856 L 47.4351 99.0492 L 48.0059 99.0492 L 48.0059 91.2968 L 47.3289 91.2968 Z M 99.343 91.2968 L 99.343 94.0078 C 99.0403 93.8123 98.5767 93.6146 97.884 93.6146 C 96.508 93.6146 95.5126 94.4587 95.5126 96.3761 L 95.5126 96.5201 C 95.5126 98.4921 96.6289 99.1375 97.7232 99.1375 C 98.4821 99.1375 98.9856 98.9104 99.343 98.5856 L 99.3988 98.5856 L 99.4503 99.0492 L 100.021 99.0492 L 100.021 91.2968 L 99.343 91.2968 Z M 127.1602 92.4552 L 127.1602 93.7219 L 126.376 93.7219 L 126.376 94.2905 L 127.1602 94.2905 L 127.1602 97.8919 C 127.1602 98.758 127.6732 99.1217 128.4973 99.1217 C 128.9304 99.1217 129.169 99.0145 129.353 98.9062 L 129.353 98.4437 C 129.1585 98.51 128.8841 98.5509 128.6571 98.5509 C 128.0075 98.5509 127.8382 98.3313 127.8382 97.8015 L 127.8382 94.2905 L 129.2626 94.2905 L 129.2626 93.7219 L 127.8382 93.7219 L 127.8382 92.4552 L 127.1602 92.4552 Z M 51.4453 93.5968 C 50.2964 93.5968 49.4491 94.2243 49.4491 95.307 L 49.4491 95.3785 C 49.4491 95.9966 49.7266 96.4255 50.1271 96.6967 C 49.7477 97.0005 49.5563 97.2527 49.5563 97.5881 C 49.5563 97.935 49.7981 98.1715 50.0903 98.2472 L 50.0903 98.2839 C 49.5164 98.49 49.057 98.8274 49.057 99.4234 C 49.057 100.1929 49.7802 100.688 51.4264 100.688 C 53.2144 100.688 53.9587 99.9564 53.9587 99.0681 C 53.9587 98.0821 53.2365 97.8015 52.2831 97.8015 L 50.7673 97.8015 C 50.3994 97.8015 50.1965 97.6596 50.1965 97.3558 C 50.1965 97.1613 50.3311 97.0173 50.4824 96.8754 C 50.7641 96.9847 51.0984 97.0352 51.4453 97.0352 C 52.5501 97.0352 53.4057 96.4812 53.4057 95.3438 L 53.4057 95.2881 C 53.4057 94.8224 53.2291 94.4619 52.9254 94.2022 L 53.9744 94.2022 L 53.9744 93.6851 L 52.1759 93.6851 C 51.9488 93.6304 51.7049 93.5968 51.4453 93.5968 Z M 12.3322 93.6146 C 11.1297 93.6146 10.5316 94.2191 10.5316 95.0747 C 10.5316 95.963 11.0298 96.3141 11.8308 96.5201 L 12.3858 96.6799 C 13.1111 96.8754 13.3834 97.115 13.3834 97.6785 C 13.3834 98.2093 13.027 98.5509 12.1167 98.5509 C 11.3473 98.5509 10.9384 98.3964 10.4948 98.2125 L 10.4948 98.7454 C 10.9068 98.9735 11.4839 99.1375 12.1882 99.1375 C 13.3802 99.1375 14.0593 98.5678 14.0593 97.6249 C 14.0593 96.6935 13.6199 96.354 12.6339 96.0723 L 12.0463 95.9314 C 11.4293 95.7464 11.1906 95.5309 11.1906 95.0211 C 11.1906 94.4913 11.568 94.1833 12.349 94.1833 C 12.9125 94.1833 13.4538 94.3357 13.7566 94.4882 L 13.7566 93.9352 C 13.4643 93.7839 13.026 93.6146 12.3322 93.6146 Z M 17.3558 93.6146 C 15.9472 93.6146 14.9496 94.5901 14.9496 96.3235 L 14.9496 96.4833 C 14.9496 98.2062 15.8747 99.1375 17.3379 99.1375 C 18.757 99.1375 19.7619 98.1526 19.7619 96.4297 L 19.7619 96.2878 C 19.7619 94.5544 18.8295 93.6146 17.3558 93.6146 Z M 29.2593 93.6146 C 28.5876 93.6146 27.8664 93.8375 27.3356 94.1833 L 27.2988 94.1833 L 27.2988 93.7219 L 26.6397 93.7219 L 26.6397 99.0492 L 27.3356 99.0492 L 27.3356 94.6658 C 27.8128 94.3946 28.4215 94.2022 28.9744 94.2022 C 29.8416 94.2022 30.116 94.485 30.116 95.1998 L 30.116 99.0492 L 30.7908 99.0492 L 30.7908 95.059 C 30.7908 94.0404 30.2778 93.6146 29.2593 93.6146 Z M 40.1841 93.6146 C 38.7755 93.6146 37.778 94.5901 37.778 96.3235 L 37.778 96.4833 C 37.778 98.2062 38.703 99.1375 40.1652 99.1375 C 41.5853 99.1375 42.5881 98.1526 42.5881 96.4297 L 42.5881 96.2878 C 42.5881 94.5544 41.6578 93.6146 40.1841 93.6146 Z M 56.9335 93.6146 C 55.6868 93.6146 54.6167 94.4598 54.6167 96.3235 L 54.6167 96.4486 C 54.6167 98.1504 55.4513 99.1375 57.13 99.1375 C 57.9752 99.1375 58.5691 98.9094 58.8939 98.6929 L 58.8939 98.1767 C 58.4493 98.4048 57.9521 98.5509 57.2373 98.5509 C 55.9801 98.5509 55.3325 97.9644 55.3115 96.5022 L 59.0726 96.5022 L 59.0726 96.1101 C 59.0726 94.484 58.3851 93.6146 56.9335 93.6146 Z M 75.8231 93.6146 C 74.6205 93.6146 74.0224 94.2191 74.0224 95.0747 C 74.0224 95.963 74.5227 96.3141 75.3248 96.5201 L 75.8767 96.6799 C 76.603 96.8754 76.8742 97.115 76.8742 97.6785 C 76.8742 98.2093 76.5179 98.5509 75.6076 98.5509 C 74.8381 98.5509 74.4323 98.3964 73.9877 98.2125 L 73.9877 98.7454 C 74.3998 98.9735 74.9758 99.1375 75.6801 99.1375 C 76.8711 99.1375 77.5501 98.5678 77.5501 97.6249 C 77.5501 96.6935 77.1107 96.354 76.1247 96.0723 L 75.5382 95.9314 C 74.9201 95.7464 74.6815 95.5309 74.6815 95.0211 C 74.6815 94.4913 75.0599 94.1833 75.8399 94.1833 C 76.4033 94.1833 76.9447 94.3357 77.2484 94.4882 L 77.2484 93.9352 C 76.9552 93.7839 76.5168 93.6146 75.8231 93.6146 Z M 80.8477 93.6146 C 79.4391 93.6146 78.4436 94.5901 78.4436 96.3235 L 78.4436 96.4833 C 78.4436 98.2062 79.3666 99.1375 80.8287 99.1375 C 82.2478 99.1375 83.2538 98.1526 83.2538 96.4297 L 83.2538 96.2878 C 83.2538 94.5544 82.3203 93.6146 80.8477 93.6146 Z M 92.7511 93.6146 C 92.0794 93.6146 91.3583 93.8375 90.8275 94.1833 L 90.7907 94.1833 L 90.7907 93.7219 L 90.1316 93.7219 L 90.1316 99.0492 L 90.8275 99.0492 L 90.8275 94.6658 C 91.3037 94.3946 91.8944 94.2022 92.4473 94.2022 C 93.3135 94.2022 93.6068 94.485 93.6068 95.1998 L 93.6068 99.0492 L 94.2848 99.0492 L 94.2848 95.059 C 94.2848 94.0404 93.7697 93.6146 92.7511 93.6146 Z M 106.4364 93.6146 C 105.1907 93.6146 104.1206 94.4598 104.1206 96.3235 L 104.1206 96.4486 C 104.1206 98.1504 104.9521 99.1375 106.6319 99.1375 C 107.477 99.1375 108.072 98.9094 108.3978 98.6929 L 108.3978 98.1767 C 107.9532 98.4048 107.456 98.5509 106.7401 98.5509 C 105.484 98.5509 104.8365 97.9644 104.8144 96.5022 L 108.5744 96.5022 L 108.5744 96.1101 C 108.5744 94.484 107.888 93.6146 106.4364 93.6146 Z M 118.6426 93.6146 C 117.3959 93.6146 116.3079 94.4598 116.3079 96.3235 L 116.3079 96.4486 C 116.3079 98.1504 117.1604 99.1375 118.8391 99.1375 C 119.6843 99.1375 120.2782 98.9094 120.603 98.6929 L 120.603 98.1767 C 120.1584 98.4048 119.6612 98.5509 118.9464 98.5509 C 117.6892 98.5509 117.0437 97.9644 117.0227 96.5022 L 120.7628 96.5022 L 120.7628 96.1101 C 120.7628 94.484 120.0942 93.6146 118.6426 93.6146 Z M 124.1318 93.6146 C 122.7558 93.6146 121.6731 94.4272 121.6731 96.3235 L 121.6731 96.4644 C 121.6731 98.2093 122.5456 99.1375 124.095 99.1375 C 124.8645 99.1375 125.3354 98.9462 125.6823 98.7296 L 125.6823 98.1767 C 125.39 98.3397 124.9223 98.5509 124.1854 98.5509 C 122.9724 98.5509 122.3669 97.8624 122.3669 96.4644 L 122.3669 96.2163 C 122.3669 94.8624 123.0764 94.2022 124.095 94.2022 C 124.7888 94.2022 125.1556 94.3242 125.6108 94.5407 L 125.6108 93.9699 C 125.2313 93.7324 124.8256 93.6146 124.1318 93.6146 Z M 132.0082 93.6146 C 130.8046 93.6146 130.2076 94.2191 130.2076 95.0747 C 130.2076 95.963 130.7069 96.3141 131.5089 96.5201 L 132.0608 96.6799 C 132.7872 96.8754 133.0594 97.115 133.0594 97.6785 C 133.0594 98.2093 132.7041 98.5509 131.7938 98.5509 C 131.0254 98.5509 130.6165 98.3964 130.1718 98.2125 L 130.1718 98.7454 C 130.5839 98.9735 131.1599 99.1375 131.8642 99.1375 C 133.0563 99.1375 133.7364 98.5678 133.7364 97.6249 C 133.7364 96.6935 133.2959 96.354 132.3099 96.0723 L 131.7223 95.9314 C 131.1053 95.7464 130.8667 95.5309 130.8667 95.0211 C 130.8667 94.4913 131.2461 94.1833 132.0261 94.1833 C 132.5895 94.1833 133.1288 94.3357 133.4326 94.4882 L 133.4326 93.9352 C 133.1403 93.7839 132.701 93.6146 132.0082 93.6146 Z M 62.5457 93.6315 C 61.9181 93.6315 61.3106 93.9804 60.9963 94.3273 L 60.9616 94.3273 L 60.9616 93.7029 L 60.3025 93.7029 L 60.3025 99.0492 L 60.9963 99.0492 L 60.9963 94.8077 C 61.3757 94.4934 61.9297 94.2737 62.4931 94.2737 C 62.5898 94.2737 62.7381 94.2884 62.8684 94.3095 L 62.8684 93.6682 C 62.8032 93.6472 62.6655 93.6315 62.5457 93.6315 Z M 20.955 93.7029 L 20.955 97.6249 C 20.955 98.654 21.5478 99.1375 22.5769 99.1375 C 23.2161 99.1375 23.8468 98.8978 24.3776 98.5509 L 24.4123 98.5509 L 24.4659 99.0492 L 25.0546 99.0492 L 25.0546 93.7029 L 24.3776 93.7029 L 24.3776 98.0863 C 23.9004 98.368 23.3485 98.5509 22.7746 98.5509 C 21.9504 98.5509 21.6509 98.2713 21.6509 97.5345 L 21.6509 93.7029 L 20.955 93.7029 Z M 84.4458 93.7029 L 84.4458 97.6249 C 84.4458 98.654 85.0387 99.1375 86.0678 99.1375 C 86.7079 99.1375 87.3376 98.8978 87.8684 98.5509 L 87.8874 98.5509 L 87.9567 99.0492 L 88.5464 99.0492 L 88.5464 93.7029 L 87.8684 93.7029 L 87.8684 98.0863 C 87.3923 98.368 86.8393 98.5509 86.2654 98.5509 C 85.4423 98.5509 85.1238 98.2713 85.1238 97.5345 L 85.1238 93.7029 L 84.4458 93.7029 Z M 51.4453 94.1308 C 52.2148 94.1308 52.7099 94.4808 52.7099 95.2723 L 52.7099 95.3785 C 52.7099 96.1364 52.2473 96.5201 51.4453 96.5201 C 50.6758 96.5201 50.1461 96.1406 50.1461 95.3606 L 50.1461 95.2534 C 50.1461 94.5386 50.6548 94.1308 51.4453 94.1308 Z M 17.3379 94.1676 C 18.3123 94.1676 19.0503 94.7205 19.0503 96.2699 L 19.0503 96.5022 C 19.0503 97.8782 18.3744 98.5856 17.3558 98.5856 C 16.3918 98.5856 15.6455 98.0296 15.6455 96.5022 L 15.6455 96.251 C 15.6455 94.9076 16.3078 94.1676 17.3379 94.1676 Z M 40.1652 94.1676 C 41.1407 94.1676 41.8754 94.7205 41.8754 96.2699 L 41.8754 96.5022 C 41.8754 97.8782 41.2027 98.5856 40.1841 98.5856 C 39.2202 98.5856 38.4717 98.0296 38.4717 96.5022 L 38.4717 96.251 C 38.4717 94.9076 39.1361 94.1676 40.1652 94.1676 Z M 56.9167 94.1676 C 57.8806 94.1676 58.341 94.7415 58.341 95.9661 L 55.3294 95.9661 C 55.4166 94.6437 56.1472 94.1676 56.9167 94.1676 Z M 80.8287 94.1676 C 81.8042 94.1676 82.5411 94.7205 82.5411 96.2699 L 82.5411 96.5022 C 82.5411 97.8782 81.8652 98.5856 80.8477 98.5856 C 79.8827 98.5856 79.1374 98.0296 79.1374 96.5022 L 79.1374 96.251 C 79.1374 94.9076 79.7996 94.1676 80.8287 94.1676 Z M 106.4185 94.1676 C 107.3824 94.1676 107.8449 94.7415 107.8449 95.9661 L 104.8333 95.9661 C 104.9195 94.6437 105.649 94.1676 106.4185 94.1676 Z M 118.6258 94.1676 C 119.5897 94.1676 120.0511 94.7415 120.0511 95.9661 L 117.0227 95.9661 C 117.1089 94.6437 117.8563 94.1676 118.6258 94.1676 Z M 34.4993 94.2022 C 35.0628 94.2022 35.581 94.3589 35.8522 94.5765 L 35.8522 98.0863 C 35.56 98.346 35.0985 98.5856 34.4268 98.5856 C 33.4303 98.5856 32.7334 98.0432 32.7334 96.4833 L 32.7334 96.2878 C 32.7334 94.7604 33.4156 94.2022 34.4993 94.2022 Z M 45.9739 94.2022 C 46.5374 94.2022 47.0577 94.3589 47.3289 94.5765 L 47.3289 98.0863 C 47.0367 98.346 46.5752 98.5856 45.9035 98.5856 C 44.907 98.5856 44.2101 98.0432 44.2101 96.4833 L 44.2101 96.2878 C 44.2101 94.7604 44.8902 94.2022 45.9739 94.2022 Z M 97.9902 94.2022 C 98.5536 94.2022 99.0729 94.3589 99.343 94.5765 L 99.343 98.0863 C 99.0508 98.346 98.5904 98.5856 97.9187 98.5856 C 96.9222 98.5856 96.2253 98.0432 96.2253 96.4833 L 96.2253 96.2878 C 96.2253 94.7604 96.9075 94.2022 97.9902 94.2022 Z M 66.5906 95.2366 L 66.5906 95.8053 L 70.1551 95.8053 L 70.1551 95.2366 L 66.5906 95.2366 Z M 50.6075 98.4259 L 52.1759 98.4259 C 52.9022 98.4259 53.227 98.5793 53.227 99.1753 C 53.227 99.7598 52.754 100.1361 51.4106 100.1361 C 50.2291 100.1361 49.7887 99.847 49.7887 99.3162 C 49.7887 98.8179 50.1418 98.5772 50.6075 98.4259 Z M 93.1243 104.4123 L 93.1243 107.1222 C 92.8216 106.9277 92.358 106.7301 91.6653 106.7301 C 90.2893 106.7301 89.2938 107.5732 89.2938 109.4916 L 89.2938 109.6356 C 89.2938 111.6076 90.4102 112.253 91.5044 112.253 C 92.2634 112.253 92.7669 112.0259 93.1243 111.7011 L 93.1611 111.7011 L 93.2315 112.1647 L 93.8023 112.1647 L 93.8023 104.4123 L 93.1243 104.4123 Z M 61.4787 105.5707 L 61.4787 106.8373 L 60.6946 106.8373 L 60.6946 107.4081 L 61.4787 107.4081 L 61.4787 111.0063 C 61.4787 111.8735 61.9896 112.2362 62.8127 112.2362 C 63.2468 112.2362 63.4854 112.131 63.6694 112.0228 L 63.6694 111.5592 C 63.4739 111.6244 63.2027 111.6654 62.9756 111.6654 C 62.3249 111.6654 62.1536 111.4488 62.1536 110.918 L 62.1536 107.4081 L 63.5811 107.4081 L 63.5811 106.8373 L 62.1536 106.8373 L 62.1536 105.5707 L 61.4787 105.5707 Z M 52.301 106.7112 C 51.1531 106.7112 50.3058 107.3388 50.3058 108.4215 L 50.3058 108.494 C 50.3058 109.111 50.5802 109.541 50.9817 109.8122 C 50.6023 110.1149 50.3941 110.3672 50.3941 110.7025 C 50.3941 111.0504 50.6538 111.2859 50.946 111.3616 L 50.946 111.3984 C 50.3721 111.6044 49.8948 111.9429 49.8948 112.5379 C 49.8948 113.3073 50.6359 113.8056 52.2831 113.8056 C 54.0701 113.8056 54.7954 113.0718 54.7954 112.1836 C 54.7954 111.1976 54.0922 110.918 53.1387 110.918 L 51.624 110.918 C 51.255 110.918 51.0532 110.774 51.0532 110.4712 C 51.0532 110.2757 51.1867 110.1317 51.3381 109.9909 C 51.6198 110.0991 51.9362 110.1506 52.2831 110.1506 C 53.3879 110.1506 54.2435 109.5967 54.2435 108.4593 L 54.2435 108.4057 C 54.2435 107.94 54.0827 107.5774 53.78 107.3177 L 54.8311 107.3177 L 54.8311 106.8016 L 53.0305 106.8016 C 52.8024 106.748 52.5616 106.7112 52.301 106.7112 Z M 57.7891 106.7301 C 56.5435 106.7301 55.4545 107.5742 55.4545 109.4379 L 55.4545 109.563 C 55.4545 111.2649 56.3049 112.253 57.9846 112.253 C 58.8298 112.253 59.4248 112.0238 59.7496 111.8073 L 59.7496 111.2922 C 59.306 111.5193 58.8056 111.6654 58.0908 111.6654 C 56.8347 111.6654 56.1892 111.0799 56.1672 109.6166 L 59.9104 109.6166 L 59.9104 109.2246 C 59.9104 107.5994 59.2408 106.7301 57.7891 106.7301 Z M 66.5212 106.7301 C 65.9252 106.7301 65.4185 106.831 64.9529 107.016 L 64.9529 107.4964 C 65.3208 107.4092 65.7392 107.3177 66.27 107.3177 C 67.2234 107.3177 67.625 107.5627 67.625 108.4404 L 67.625 109.0826 L 66.0923 109.2435 C 65.0622 109.3623 64.4883 109.8616 64.4883 110.7929 C 64.4883 111.7463 65.1831 112.253 66.147 112.253 C 66.8944 112.253 67.3727 111.9933 67.6439 111.7011 L 67.6786 111.7011 L 67.7511 112.1647 L 68.303 112.1647 L 68.303 108.2806 C 68.303 107.1968 67.6691 106.7301 66.5212 106.7301 Z M 72.2943 106.7301 C 71.6982 106.7301 71.0675 106.9645 70.5472 107.3009 L 70.5125 107.3009 L 70.5125 106.8373 L 69.8534 106.8373 L 69.8534 112.1647 L 70.5472 112.1647 L 70.5472 107.7813 C 71.0234 107.4996 71.5364 107.3177 72.0462 107.3177 C 72.7715 107.3177 73.0595 107.6005 73.0595 108.3153 L 73.0595 112.1647 L 73.7375 112.1647 L 73.7375 108.1734 C 73.7375 108.0325 73.7239 107.9116 73.7028 107.7813 C 74.2442 107.4775 74.7614 107.3177 75.2155 107.3177 C 75.9418 107.3177 76.2666 107.6005 76.2666 108.3153 L 76.2666 112.1647 L 76.9278 112.1647 L 76.9278 108.1734 C 76.9278 107.1548 76.3875 106.7301 75.4657 106.7301 C 74.8707 106.7301 74.2347 106.9351 73.5956 107.3356 L 73.5588 107.3356 C 73.3318 106.9351 72.9008 106.7301 72.2943 106.7301 Z M 80.8287 106.7301 C 80.1024 106.7301 79.54 106.9824 79.1721 107.2641 L 79.1374 107.2641 L 79.1374 106.8373 L 78.4783 106.8373 L 78.4783 113.7677 L 79.1553 113.7677 L 79.1553 111.8977 C 79.4696 112.0932 79.9521 112.253 80.5807 112.253 C 82.0534 112.253 83.0026 111.4383 83.0026 109.5105 L 83.0026 109.3843 C 83.0026 107.3692 82.0092 106.7301 80.8287 106.7301 Z M 86.2465 106.7301 C 85.0008 106.7301 83.9129 107.5742 83.9129 109.4379 L 83.9129 109.563 C 83.9129 111.2649 84.7643 112.253 86.4441 112.253 C 87.2892 112.253 87.8821 112.0238 88.208 111.8073 L 88.208 111.2922 C 87.7633 111.5193 87.264 111.6654 86.5482 111.6654 C 85.292 111.6654 84.6466 111.0799 84.6245 109.6166 L 88.3677 109.6166 L 88.3677 109.2246 C 88.3677 107.5994 87.6981 106.7301 86.2465 106.7301 Z M 52.2831 107.2452 C 53.0525 107.2452 53.5655 107.5963 53.5655 108.3868 L 53.5655 108.494 C 53.5655 109.2519 53.0841 109.6356 52.2831 109.6356 C 51.5136 109.6356 50.9996 109.255 50.9996 108.4751 L 50.9996 108.3689 C 50.9996 107.6531 51.4916 107.2452 52.2831 107.2452 Z M 57.7702 107.282 C 58.7352 107.282 59.1977 107.8591 59.1977 109.0826 L 56.1861 109.0826 C 56.2723 107.7613 57.0018 107.282 57.7702 107.282 Z M 86.2286 107.282 C 87.1925 107.282 87.6551 107.8591 87.6551 109.0826 L 84.6245 109.0826 C 84.7118 107.7613 85.4592 107.282 86.2286 107.282 Z M 80.669 107.3177 C 81.6981 107.3177 82.2909 107.7844 82.2909 109.4201 L 82.2909 109.6166 C 82.2909 111.1114 81.6434 111.7011 80.527 111.7011 C 79.9531 111.7011 79.4485 111.5035 79.1553 111.309 L 79.1553 107.7624 C 79.4591 107.5574 79.9973 107.3177 80.669 107.3177 Z M 91.7714 107.3177 C 92.3349 107.3177 92.8542 107.4744 93.1243 107.6909 L 93.1243 111.2018 C 92.8321 111.4615 92.3717 111.7011 91.7 111.7011 C 90.7035 111.7011 90.0065 111.1587 90.0065 109.5988 L 90.0065 109.4033 C 90.0065 107.8759 90.6887 107.3177 91.7714 107.3177 Z M 67.625 109.582 L 67.625 111.2922 C 67.3758 111.5193 66.8765 111.719 66.3236 111.719 C 65.6414 111.719 65.2031 111.3742 65.2031 110.7561 C 65.2031 110.1065 65.552 109.8174 66.2889 109.7417 L 67.625 109.582 Z M 51.4453 111.5403 L 53.0305 111.5403 C 53.7558 111.5403 54.0837 111.6938 54.0837 112.2898 C 54.0837 112.8753 53.5918 113.2505 52.2484 113.2505 C 51.0669 113.2505 50.6264 112.9625 50.6264 112.4317 C 50.6264 111.9334 50.9796 111.6917 51.4453 111.5403 Z " stroke-width="1.0511727333068848" fill="undefined"/>
  </g>
</svg>