<svg xmlns="http://www.w3.org/2000/svg" xmlns:xlink="http://www.w3.org/1999/xlink" version="1.1" width="40.35490036010742" height="40.354801177978516" viewBox="-0.12039998173713684 -0.1450999677181244 40.35490036010742 40.354801177978516">
  <!-- Exported by Scratch - http://scratch.mit.edu/ -->
  <path id="ID0.6319170827046037" fill="#FFFFFF" stroke="#99B2FF" stroke-width="0.6559143662452698" d="M 20.057 0.3549 C 25.486 0.3549 30.4054 2.5597 33.9673 6.122 C 37.5296 9.6839 39.7345 14.6033 39.7345 20.0323 C 39.7345 25.4613 37.5296 30.3807 33.9673 33.9426 C 30.4054 37.5049 25.486 39.7097 20.057 39.7097 C 14.628 39.7097 9.7087 37.5049 6.1467 33.9426 C 2.5845 30.3807 0.3796 25.4613 0.3796 20.0323 C 0.3796 14.6033 2.5845 9.6839 6.1467 6.122 C 9.7087 2.5597 14.628 0.3549 20.057 0.3549 Z "/>
  <g id="ID0.3127390374429524">
    <g id="ID0.005660685710608959">
      <g id="ID0.2200355175882578">
        <path id="ID0.6319170827046037" fill="#FFF1F1" stroke="#FFE3E3" stroke-width="0.2496369014142544" d="M 17.8004 8.4103 C 19.5993 9.4268 20.8165 11.0785 21.3298 12.9258 C 21.8432 14.773 21.6527 16.8159 20.6362 18.6148 C 19.6196 20.4137 17.968 21.6309 16.1207 22.1442 C 14.2734 22.6576 12.2305 22.4671 10.4316 21.4505 C 8.6327 20.434 7.4155 18.7823 6.9023 16.9351 C 6.3889 15.0878 6.5794 13.0449 7.5959 11.246 C 8.6124 9.4471 10.2641 8.2299 12.1114 7.7167 C 13.9587 7.2033 16.0015 7.3938 17.8004 8.4103 Z "/>
        <path id="ID0.7118545458652079" fill="#FFE3E3" stroke="#FFE3E3" stroke-width="0.9499999870317072" d="M 16.3917 10.8117 C 17.5297 11.4548 18.2998 12.5 18.6249 13.6685 C 18.9493 14.8371 18.8288 16.1297 18.1857 17.2678 C 17.5427 18.4059 16.4975 19.176 15.329 19.501 C 14.1604 19.8255 12.8677 19.705 11.7297 19.0619 C 10.5916 18.4188 9.8215 17.3736 9.4964 16.2052 C 9.172 15.0365 9.2925 13.7439 9.9356 12.6058 C 10.5787 11.4677 11.6238 10.6976 12.7923 10.3726 C 13.961 10.0482 15.2536 10.1686 16.3917 10.8117 Z "/>
      </g>
      <path id="ID0.28466089768335223" fill="#FF0000" stroke="none" d="M 16.7395 15.6954 L 20.1719 17.635 L 19.5409 18.7516 L 16.1085 16.812 L 16.7395 15.6954 Z " stroke-width="0.3764408254741726"/>
    </g>
    <g id="ID0.005660685710608959">
      <g id="ID0.2200355175882578">
        <path id="ID0.6319170827046037" fill="#FFDBDB" stroke="#FFCCCC" stroke-width="0.2496369014142544" d="M 23.6504 13.6103 C 25.4493 14.6268 26.6665 16.2785 27.1798 18.1258 C 27.6932 19.973 27.5027 22.0159 26.4862 23.8148 C 25.4696 25.6137 23.818 26.8309 21.9707 27.3442 C 20.1234 27.8576 18.0805 27.6671 16.2816 26.6505 C 14.4827 25.634 13.2655 23.9823 12.7523 22.1351 C 12.2389 20.2878 12.4294 18.2449 13.4459 16.446 C 14.4624 14.6471 16.1141 13.4299 17.9614 12.9167 C 19.8087 12.4033 21.8515 12.5938 23.6504 13.6103 Z "/>
        <path id="ID0.7118545458652079" fill="#FFCCCC" stroke="#FFCCCC" stroke-width="0.9499999870317072" d="M 22.2417 16.0117 C 23.3797 16.6548 24.1498 17.7 24.4749 18.8685 C 24.7993 20.0371 24.6788 21.3297 24.0357 22.4678 C 23.3927 23.6059 22.3475 24.376 21.179 24.701 C 20.0104 25.0255 18.7177 24.905 17.5797 24.2619 C 16.4416 23.6188 15.6715 22.5736 15.3464 21.4052 C 15.022 20.2365 15.1425 18.9439 15.7856 17.8058 C 16.4287 16.6677 17.4738 15.8976 18.6423 15.5726 C 19.811 15.2482 21.1036 15.3686 22.2417 16.0117 Z "/>
      </g>
      <path id="ID0.28466089768335223" fill="#FF0000" stroke="none" d="M 22.6395 20.8954 L 26.0719 22.835 L 25.4409 23.9516 L 22.0085 22.012 L 22.6395 20.8954 Z " stroke-width="0.3764408254741726"/>
    </g>
    <g id="ID0.005660685710608959">
      <g id="ID0.2200355175882578">
        <path id="ID0.6319170827046037" fill="#FFCCCC" stroke="#FF9999" stroke-width="0.2496369014142544" d="M 29.6504 18.9103 C 31.4493 19.9268 32.6665 21.5785 33.1798 23.4258 C 33.6932 25.273 33.5027 27.3159 32.4862 29.1148 C 31.4696 30.9137 29.818 32.1309 27.9707 32.6442 C 26.1234 33.1576 24.0805 32.9671 22.2816 31.9505 C 20.4827 30.934 19.2655 29.2823 18.7523 27.4351 C 18.2389 25.5878 18.4294 23.5449 19.4459 21.746 C 20.4624 19.9471 22.1141 18.7299 23.9614 18.2167 C 25.8087 17.7033 27.8515 17.8938 29.6504 18.9103 Z "/>
        <path id="ID0.7118545458652079" fill="#FF9999" stroke="#FF9999" stroke-width="0.9499999870317072" d="M 28.2417 21.3117 C 29.3797 21.9548 30.1498 23 30.4749 24.1685 C 30.7993 25.3371 30.6788 26.6297 30.0357 27.7678 C 29.3927 28.9059 28.3475 29.676 27.179 30.001 C 26.0104 30.3255 24.7177 30.205 23.5797 29.5619 C 22.4416 28.9188 21.6715 27.8736 21.3464 26.7052 C 21.022 25.5365 21.1425 24.2439 21.7856 23.1058 C 22.4287 21.9677 23.4738 21.1976 24.6423 20.8726 C 25.811 20.5482 27.1036 20.6686 28.2417 21.3117 Z "/>
      </g>
      <path id="ID0.28466089768335223" fill="#FF0000" stroke="none" d="M 28.6395 26.1954 L 32.0719 28.135 L 31.4409 29.2516 L 28.0085 27.312 L 28.6395 26.1954 Z " stroke-width="0.3764408254741726"/>
    </g>
  </g>
</svg>