<svg xmlns="http://www.w3.org/2000/svg" xmlns:xlink="http://www.w3.org/1999/xlink" version="1.1" width="33.533098220825195" height="33.53310012817383" viewBox="0.20399999618530273 0.2331000566482544 33.533098220825195 33.53310012817383">
  <!-- Exported by Scratch - http://scratch.mit.edu/ -->
  <path id="ID0.6319170827046037" fill="#CCD8FF" stroke="#99B2FF" stroke-width="0.5255513787269592" d="M 16.9706 1.2331 C 21.3206 1.2331 25.2622 2.9997 28.1162 5.854 C 30.9705 8.708 32.7371 12.6496 32.7371 16.9996 C 32.7371 21.3496 30.9705 25.2912 28.1162 28.1453 C 25.2622 30.9995 21.3206 32.7662 16.9706 32.7662 C 12.6206 32.7662 8.679 30.9995 5.8249 28.1453 C 2.9707 25.2912 1.204 21.3496 1.204 16.9996 C 1.204 12.6496 2.9707 8.708 5.8249 5.854 C 8.679 2.9997 12.6206 1.2331 16.9706 1.2331 Z "/>
  <path id="ID0.6319170827046037" fill="#FFFFFF" stroke="#FFFFFF" stroke-width="0.5055277175083618" d="M 17.1509 1.6729 L 17.1509 2.8687 L 17.1509 30.8652 L 17.1509 32.3632 C 17.1212 32.8703 21.3108 31.9322 23.2157 31.117 C 24.9963 30.3546 26.5257 29.0507 27.9013 27.6967 C 29.1577 26.4598 30.3113 25.0439 31.0187 23.4255 C 31.829 21.4119 32.3243 19.1971 32.3637 17.018 C 32.3984 14.9954 31.9576 12.9905 31.1456 11.1771 C 30.4414 9.3618 29.2871 7.6805 27.9013 6.3394 C 26.3788 4.8668 24.5784 3.5581 22.6448 2.7429 C 20.9192 1.9699 18.9638 1.589 17.1509 1.6729 Z "/>
  <path id="ID0.7118545458652079" fill="#99B2FF" stroke="#99B2FF" stroke-width="2" d="M 16.925 7.15 C 19.677 7.15 22.171 8.268 23.977 10.073 C 25.782 11.879 26.9 14.373 26.9 17.125 C 26.9 19.877 25.782 22.371 23.977 24.177 C 22.171 25.982 19.677 27.1 16.925 27.1 C 14.173 27.1 11.679 25.982 9.873 24.177 C 8.068 22.371 6.95 19.877 6.95 17.125 C 6.95 14.373 8.068 11.879 9.873 10.073 C 11.679 8.268 14.173 7.15 16.925 7.15 Z "/>
  <path id="ID0.6319170827046037" fill="none" stroke="#99B2FF" stroke-width="0.5255513787269592" d="M 16.9706 1.2331 C 21.3206 1.2331 25.2622 2.9997 28.1162 5.854 C 30.9705 8.708 32.7371 12.6496 32.7371 16.9996 C 32.7371 21.3496 30.9705 25.2912 28.1162 28.1453 C 25.2622 30.9995 21.3206 32.7662 16.9706 32.7662 C 12.6206 32.7662 8.679 30.9995 5.8249 28.1453 C 2.9707 25.2912 1.204 21.3496 1.204 16.9996 C 1.204 12.6496 2.9707 8.708 5.8249 5.854 C 8.679 2.9997 12.6206 1.2331 16.9706 1.2331 Z "/>
</svg>