<svg xmlns="http://www.w3.org/2000/svg" xmlns:xlink="http://www.w3.org/1999/xlink" version="1.1" width="97.7500592470169" height="97.749960064888" viewBox="0.10241967439651489 0.11021965742111206 97.7500592470169 97.749960064888">
  <!-- Exported by Scratch - http://scratch.mit.edu/ -->
  <path id="ID0.4527167957276106" fill="#99B2FF" stroke="#99B2FF" stroke-width="1.3767606019973755" d="M 48.9775 0.7986 C 62.2715 0.7986 74.3181 6.1982 83.0413 14.9214 C 91.7644 23.6446 97.1641 35.6912 97.1641 48.9852 C 97.1641 62.2792 91.7644 74.3259 83.0413 83.049 C 74.3181 91.7722 62.2715 97.1718 48.9775 97.1718 C 35.6835 97.1718 23.6368 91.7722 14.9137 83.049 C 6.1905 74.3259 0.7908 62.2792 0.7908 48.9852 C 0.7908 35.6912 6.1905 23.6446 14.9137 14.9214 C 23.6368 6.1982 35.6835 0.7986 48.9775 0.7986 Z "/>
  <g id="ID0.8940735929645598">
    <path id="ID0.8275963747873902" fill="#000000" opacity="1" d="M 21.095 55.573 C 22.653 55.573 23.793 55.174 24.572 54.737 L 24.572 53.673 C 23.793 54.053 22.843 54.49 21.228 54.49 C 18.207 54.49 16.953 52.571 16.953 49.132 L 16.953 48.562 C 16.953 45.047 18.663 43.489 21.266 43.489 C 22.577 43.489 23.508 43.755 24.439 44.154 L 24.439 43.109 C 23.698 42.71 22.729 42.406 21.342 42.406 C 18.017 42.406 15.623 44.325 15.623 48.79 L 15.623 49.132 C 15.623 53.388 17.599 55.573 21.095 55.573 Z " stroke-width="1"/>
    <path id="ID0.45028542121872306" fill="#000000" opacity="1" d="M 27.099 55.364 L 28.315 55.364 L 28.315 49.778 L 30.975 49.778 L 34.3 55.364 L 35.725 55.364 L 32.21 49.569 L 32.21 49.493 C 33.958 49.018 34.851 47.954 34.851 46.149 C 34.851 43.945 33.521 42.615 30.69 42.615 L 27.099 42.615 L 27.099 55.364 Z M 28.315 48.79 L 28.315 43.66 L 30.633 43.66 C 32.723 43.66 33.521 44.553 33.521 46.149 C 33.521 47.802 32.78 48.79 30.652 48.79 L 28.315 48.79 Z " stroke-width="1"/>
    <path id="ID0.763150975573808" fill="#000000" opacity="1" d="M 37.91 55.364 L 45.453 55.364 L 45.453 54.319 L 39.126 54.319 L 39.126 49.341 L 43.952 49.341 L 43.952 48.277 L 39.126 48.277 L 39.126 43.66 L 45.396 43.66 L 45.396 42.615 L 37.91 42.615 L 37.91 55.364 Z " stroke-width="1"/>
    <path id="ID0.0392067632637918" fill="#000000" opacity="1" d="M 48.17 55.364 L 51.818 55.364 C 55.941 55.364 57.841 53.103 57.841 49.018 L 57.841 48.714 C 57.841 44.572 55.732 42.615 51.78 42.615 L 48.17 42.615 L 48.17 55.364 Z M 49.386 54.3 L 49.386 43.679 L 51.685 43.679 C 54.839 43.679 56.511 45.028 56.511 48.714 L 56.511 49.189 C 56.511 52.742 55.048 54.3 51.837 54.3 L 49.386 54.3 Z " stroke-width="1"/>
    <path id="ID0.5971198892220855" fill="#000000" opacity="1" d="M 60.444 55.364 L 61.679 55.364 L 61.679 42.615 L 60.444 42.615 L 60.444 55.364 Z " stroke-width="1"/>
    <path id="ID0.7321284748613834" fill="#000000" opacity="1" d="M 67.93 55.364 L 69.165 55.364 L 69.165 43.66 L 73.193 43.66 L 73.193 42.615 L 63.902 42.615 L 63.902 43.66 L 67.93 43.66 L 67.93 55.364 Z " stroke-width="1"/>
    <path id="ID0.8694637697190046" fill="#000000" opacity="1" d="M 78.095 55.592 C 81.021 55.592 82.294 54.129 82.294 51.944 C 82.294 49.816 81.078 49.037 79.178 48.391 L 78.038 48.011 C 76.423 47.498 75.91 46.909 75.91 45.56 C 75.91 44.306 76.803 43.489 78.513 43.489 C 79.919 43.489 80.945 43.831 81.648 44.173 L 81.648 43.109 C 80.983 42.767 80.052 42.406 78.57 42.406 C 75.967 42.406 74.656 43.812 74.656 45.693 C 74.656 47.612 75.663 48.505 77.563 49.132 L 78.665 49.512 C 80.28 50.025 81.04 50.614 81.04 52.039 C 81.04 53.559 80.128 54.49 78.019 54.49 C 76.689 54.49 75.416 54.167 74.466 53.654 L 74.466 54.699 C 75.302 55.174 76.556 55.592 78.095 55.592 Z " stroke-width="1"/>
  </g>
</svg>