<svg xmlns="http://www.w3.org/2000/svg" xmlns:xlink="http://www.w3.org/1999/xlink" version="1.1" width="8.980000019073486" height="13.958000183105469" viewBox="-0.48499999940395355 -0.06299999356269836 8.980000019073486 13.958000183105469">
  <!-- Exported by Scratch - http://scratch.mit.edu/ -->
  <path id="ID0.9080216260626912" fill="#001966" opacity="1" d="M 3.549 13.395 C 6.342 13.395 7.995 11.476 7.995 9.215 C 7.995 6.555 6.437 5.377 3.853 5.377 C 3.321 5.377 2.542 5.491 1.991 5.643 L 2.276 1.615 L 7.558 1.615 L 7.558 0.437 L 1.174 0.437 L 0.718 7.03 C 1.307 6.764 2.504 6.403 3.378 6.403 C 5.43 6.403 6.589 7.201 6.589 9.215 C 6.589 11.058 5.392 12.255 3.34 12.255 C 2.276 12.255 0.965 11.78 0.262 11.324 L 0.015 12.407 C 0.775 12.977 2.067 13.395 3.549 13.395 Z " stroke-width="1"/>
</svg>