<svg xmlns="http://www.w3.org/2000/svg" xmlns:xlink="http://www.w3.org/1999/xlink" version="1.1" width="185.21900939941406" height="17.4689998626709" viewBox="0.46900004148483276 0.32499998807907104 185.21900939941406 17.4689998626709">
  <!-- Exported by Scratch - http://scratch.mit.edu/ -->
  <path id="ID0.24037435837090015" fill="#000000" opacity="1" d="M 76.094 0.825 L 76.094 5.575 C 75.562 5.233 74.747 4.888 73.531 4.888 C 71.118 4.888 69.406 6.368 69.406 9.731 L 69.406 9.981 C 69.406 13.439 71.331 14.575 73.25 14.575 C 74.58 14.575 75.467 14.176 76.094 13.606 L 76.188 13.606 L 76.281 14.419 L 77.312 14.419 L 77.312 0.825 L 76.094 0.825 Z M 85.062 0.825 L 85.062 14.075 C 85.861 14.436 87.266 14.638 88.406 14.638 C 91.351 14.638 93 12.916 93 9.763 L 93 9.544 C 93 5.972 91.244 4.888 89.344 4.888 C 88.014 4.888 87.085 5.275 86.344 5.731 L 86.25 5.731 L 86.25 0.825 L 85.062 0.825 Z M 181.438 1.481 C 178.132 1.481 175.5 3.345 175.5 7.981 L 175.5 8.263 C 175.5 12.575 177.727 14.638 181.375 14.638 C 182.914 14.638 184.181 14.33 185.188 13.95 L 185.188 8.419 L 181.125 8.419 L 181.125 9.45 L 183.969 9.45 L 183.969 13.169 C 183.285 13.416 182.363 13.544 181.375 13.544 C 177.898 13.544 176.844 11.455 176.844 8.263 L 176.844 7.794 C 176.844 4.849 178.114 2.544 181.344 2.544 C 183.016 2.544 183.959 2.952 184.719 3.294 L 184.719 2.2 C 183.997 1.839 183.072 1.481 181.438 1.481 Z M 0.969 1.669 L 0.969 14.419 L 2.094 14.419 L 2.094 3.294 L 2.125 3.294 L 6.156 14.419 L 7.312 14.419 L 11.312 3.294 L 11.344 3.294 L 11.344 14.419 L 12.594 14.419 L 12.594 1.669 L 10.75 1.669 L 6.812 12.794 L 6.75 12.794 L 2.812 1.669 L 0.969 1.669 Z M 109.438 1.669 L 109.438 14.419 L 116.656 14.419 L 116.656 13.388 L 110.656 13.388 L 110.656 1.669 L 109.438 1.669 Z M 122.438 1.669 L 117.75 14.419 L 118.906 14.419 L 120.344 10.544 L 125.625 10.544 L 127.062 14.419 L 128.344 14.419 L 123.656 1.669 L 122.438 1.669 Z M 130.375 1.669 L 130.375 14.419 L 134.031 14.419 C 138.154 14.419 140.031 12.16 140.031 8.075 L 140.031 7.794 C 140.031 3.652 137.921 1.669 133.969 1.669 L 130.375 1.669 Z M 141.312 1.669 L 145.562 9.325 L 145.562 14.419 L 146.781 14.419 L 146.781 9.325 L 151 1.669 L 149.781 1.669 L 146.25 8.169 L 146.188 8.169 L 142.594 1.669 L 141.312 1.669 Z M 152.969 1.669 L 152.969 14.419 L 157.188 14.419 C 159.98 14.419 161.406 13.016 161.406 10.888 C 161.406 8.836 160.133 7.971 158.594 7.763 L 158.594 7.7 C 160.076 7.32 160.812 6.3 160.812 4.856 C 160.812 2.804 159.65 1.669 156.781 1.669 L 152.969 1.669 Z M 163.875 1.669 L 163.875 10.044 C 163.875 13.179 165.555 14.669 168.5 14.669 C 171.483 14.669 173.031 13.243 173.031 10.013 L 173.031 1.669 L 171.938 1.669 L 171.938 9.981 C 171.938 12.755 170.773 13.638 168.531 13.638 C 166.327 13.638 165.125 12.717 165.125 9.981 L 165.125 1.669 L 163.875 1.669 Z M 32.125 1.794 L 32.125 3.106 L 33.344 3.106 L 33.344 1.794 L 32.125 1.794 Z M 131.594 2.731 L 133.875 2.731 C 137.029 2.731 138.719 4.108 138.719 7.794 L 138.719 8.263 C 138.719 11.816 137.242 13.356 134.031 13.356 L 131.594 13.356 L 131.594 2.731 Z M 154.188 2.731 L 156.688 2.731 C 158.626 2.731 159.531 3.309 159.531 4.981 C 159.531 6.71 158.297 7.325 156.625 7.325 L 154.188 7.325 L 154.188 2.731 Z M 26.188 2.856 L 26.188 5.075 L 24.812 5.075 L 24.812 6.075 L 26.188 6.075 L 26.188 12.388 C 26.188 13.907 27.056 14.513 28.5 14.513 C 29.26 14.513 29.708 14.359 30.031 14.169 L 30.031 13.356 C 29.689 13.47 29.211 13.544 28.812 13.544 C 27.673 13.544 27.375 13.162 27.375 12.231 L 27.375 6.075 L 29.875 6.075 L 29.875 5.075 L 27.375 5.075 L 27.375 2.856 L 26.188 2.856 Z M 54.625 2.856 L 54.625 5.075 L 53.281 5.075 L 53.281 6.075 L 54.625 6.075 L 54.625 12.388 C 54.625 13.907 55.525 14.513 56.969 14.513 C 57.729 14.513 58.177 14.359 58.5 14.169 L 58.5 13.356 C 58.158 13.47 57.68 13.544 57.281 13.544 C 56.141 13.544 55.844 13.162 55.844 12.231 L 55.844 6.075 L 58.312 6.075 L 58.312 5.075 L 55.844 5.075 L 55.844 2.856 L 54.625 2.856 Z M 122.969 3.325 L 123 3.325 L 125.25 9.481 L 120.688 9.481 L 122.969 3.325 Z M 19.25 4.888 C 16.78 4.888 15.031 6.598 15.031 9.638 L 15.031 9.919 C 15.031 12.94 16.654 14.575 19.219 14.575 C 21.708 14.575 23.469 12.846 23.469 9.825 L 23.469 9.575 C 23.469 6.535 21.834 4.888 19.25 4.888 Z M 48.219 4.888 C 47.174 4.888 46.286 5.064 45.469 5.388 L 45.469 6.231 C 46.115 6.079 46.85 5.919 47.781 5.919 C 49.453 5.919 50.156 6.348 50.156 7.888 L 50.156 9.013 L 47.5 9.294 C 45.695 9.503 44.687 10.378 44.688 12.013 C 44.688 13.685 45.872 14.575 47.562 14.575 C 48.874 14.575 49.713 14.119 50.188 13.606 L 50.25 13.606 L 50.375 14.419 L 51.344 14.419 L 51.344 7.606 C 51.344 5.706 50.233 4.888 48.219 4.888 Z M 64.031 4.888 C 61.846 4.888 59.969 6.369 59.969 9.638 L 59.969 9.856 C 59.969 12.839 61.43 14.575 64.375 14.575 C 65.857 14.575 66.899 14.174 67.469 13.794 L 67.469 12.888 C 66.69 13.287 65.817 13.544 64.562 13.544 C 62.358 13.544 61.226 12.515 61.188 9.95 L 67.75 9.95 L 67.75 9.263 C 67.75 6.412 66.577 4.888 64.031 4.888 Z M 35.219 5.044 L 38.75 14.419 L 39.938 14.419 L 43.469 5.044 L 42.281 5.044 L 39.406 12.888 L 39.375 12.888 L 36.5 5.044 L 35.219 5.044 Z M 94.281 5.044 L 97.875 13.981 L 97.562 14.856 C 97.201 15.844 96.681 16.263 95.75 16.263 C 95.408 16.263 95.059 16.195 94.812 16.138 L 94.812 17.044 C 95.078 17.177 95.52 17.294 95.938 17.294 C 97.438 17.294 98.117 16.552 98.688 15.013 L 102.406 5.044 L 101.25 5.044 L 98.5 12.419 L 98.469 12.419 L 95.531 5.044 L 94.281 5.044 Z M 32.125 5.075 L 32.125 14.419 L 33.344 14.419 L 33.344 5.075 L 32.125 5.075 Z M 19.219 5.856 C 20.929 5.856 22.219 6.827 22.219 9.544 L 22.219 9.95 C 22.219 12.363 21.036 13.606 19.25 13.606 C 17.559 13.606 16.25 12.629 16.25 9.95 L 16.25 9.513 C 16.25 7.156 17.414 5.856 19.219 5.856 Z M 64 5.856 C 65.691 5.856 66.5 6.866 66.5 9.013 L 61.219 9.013 C 61.371 6.694 62.651 5.856 64 5.856 Z M 73.719 5.919 C 74.707 5.919 75.619 6.195 76.094 6.575 L 76.094 12.731 C 75.581 13.187 74.772 13.606 73.594 13.606 C 71.846 13.606 70.625 12.655 70.625 9.919 L 70.625 9.575 C 70.625 6.896 71.819 5.919 73.719 5.919 Z M 88.812 5.919 C 90.732 5.919 91.75 6.775 91.75 9.606 L 91.75 9.95 C 91.75 12.686 90.293 13.606 88.469 13.606 C 87.443 13.606 86.763 13.453 86.25 13.263 L 86.25 6.638 C 86.801 6.352 87.729 5.919 88.812 5.919 Z M 154.188 8.325 L 156.906 8.325 C 158.92 8.325 160.125 9.027 160.125 10.794 C 160.125 12.561 159.063 13.419 157.125 13.419 L 154.188 13.419 L 154.188 8.325 Z M 50.156 9.888 L 50.156 12.888 C 49.719 13.287 48.844 13.638 47.875 13.638 C 46.678 13.638 45.906 13.033 45.906 11.95 C 45.906 10.81 46.521 10.302 47.812 10.169 L 50.156 9.888 Z " stroke-width="1"/>
</svg>