<svg xmlns="http://www.w3.org/2000/svg" xmlns:xlink="http://www.w3.org/1999/xlink" version="1.1" width="48.35490036010742" height="48.354801177978516" viewBox="-4.120399981737137 -4.145099967718124 48.35490036010742 48.354801177978516">
  <!-- Exported by Scratch - http://scratch.mit.edu/ -->
  <path id="ID0.6319170827046037" fill="#FFFFFF" stroke="#99B2FF" stroke-width="0.6559143662452698" d="M 20.057 0.3549 C 25.486 0.3549 30.4054 2.5597 33.9673 6.122 C 37.5296 9.6839 39.7345 14.6033 39.7345 20.0323 C 39.7345 25.4613 37.5296 30.3807 33.9673 33.9426 C 30.4054 37.5049 25.486 39.7097 20.057 39.7097 C 14.628 39.7097 9.7087 37.5049 6.1467 33.9426 C 2.5845 30.3807 0.3796 25.4613 0.3796 20.0323 C 0.3796 14.6033 2.5845 9.6839 6.1467 6.122 C 9.7087 2.5597 14.628 0.3549 20.057 0.3549 Z "/>
  <path id="ID0.3508341978304088" fill="none" stroke="#99B2FF" stroke-width="9" stroke-linecap="round" d="M 8 28.25 L 31.75 13.5 "/>
  <path id="ID0.4794726353138685" fill="none" stroke="#CCD8FF" stroke-width="6.858963225542205" stroke-linecap="round" d="M 8.5679 27.7345 L 30.7834 14.0905 "/>
  <path id="ID0.21481409622356296" fill="none" stroke="#FFFFFF" stroke-width="2.442872813497924" stroke-linecap="round" d="M 6.8105 28.9307 L 31.757 13.4905 "/>
</svg>