<svg xmlns="http://www.w3.org/2000/svg" xmlns:xlink="http://www.w3.org/1999/xlink" version="1.1" width="33.53310012817383" height="33.53310012817383" viewBox="0.15400004386901855 0.2331000566482544 33.53310012817383 33.53310012817383">
  <!-- Exported by Scratch - http://scratch.mit.edu/ -->
  <g id="ID0.2200355175882578">
    <path id="ID0.6319170827046037" fill="#CCD8FF" stroke="#99B2FF" stroke-width="0.5255513787269592" d="M 16.9206 1.2331 C 21.2706 1.2331 25.2122 2.9997 28.0662 5.854 C 30.9205 8.708 32.6871 12.6496 32.6871 16.9996 C 32.6871 21.3496 30.9205 25.2912 28.0662 28.1453 C 25.2122 30.9995 21.2706 32.7662 16.9206 32.7662 C 12.5706 32.7662 8.629 30.9995 5.7749 28.1453 C 2.9207 25.2912 1.154 21.3496 1.154 16.9996 C 1.154 12.6496 2.9207 8.708 5.7749 5.854 C 8.629 2.9997 12.5706 1.2331 16.9206 1.2331 Z "/>
    <path id="ID0.7118545458652079" fill="#99B2FF" stroke="#99B2FF" stroke-width="2" d="M 16.925 7.15 C 19.677 7.15 22.171 8.268 23.977 10.073 C 25.782 11.879 26.9 14.373 26.9 17.125 C 26.9 19.877 25.782 22.371 23.977 24.177 C 22.171 25.982 19.677 27.1 16.925 27.1 C 14.173 27.1 11.679 25.982 9.873 24.177 C 8.068 22.371 6.95 19.877 6.95 17.125 C 6.95 14.373 8.068 11.879 9.873 10.073 C 11.679 8.268 14.173 7.15 16.925 7.15 Z "/>
  </g>
  <path id="ID0.8819299498572946" fill="#000000" opacity="1" d="M 16.28 23.607 C 19.073 23.607 20.878 22.03 20.878 19.845 C 20.878 17.869 19.605 16.938 17.971 16.615 C 19.415 16.14 20.403 15.228 20.403 13.632 C 20.403 11.656 18.864 10.497 16.603 10.497 C 15.539 10.497 14.019 10.972 13.278 11.523 L 13.487 12.625 C 14.304 12.15 15.292 11.675 16.356 11.675 C 17.952 11.675 18.997 12.245 18.997 13.841 C 18.997 15.323 17.838 16.197 16.147 16.178 L 14.988 16.178 L 14.988 17.375 L 16.223 17.375 C 18.218 17.375 19.51 18.192 19.51 19.864 C 19.51 21.479 18.294 22.448 16.128 22.448 C 15.178 22.448 13.924 22.087 13.183 21.593 L 12.879 22.695 C 13.563 23.189 14.817 23.607 16.28 23.607 Z " stroke-width="1"/>
</svg>