<svg xmlns="http://www.w3.org/2000/svg" xmlns:xlink="http://www.w3.org/1999/xlink" version="1.1" width="33.533098220825195" height="33.53310012817383" viewBox="0.20399999618530273 0.2331000566482544 33.533098220825195 33.53310012817383">
  <!-- Exported by Scratch - http://scratch.mit.edu/ -->
  <g id="ID0.2200355175882578">
    <path id="ID0.6319170827046037" fill="#CCD8FF" stroke="#99B2FF" stroke-width="0.5255513787269592" d="M 16.9706 1.2331 C 21.3206 1.2331 25.2622 2.9997 28.1162 5.854 C 30.9705 8.708 32.7371 12.6496 32.7371 16.9996 C 32.7371 21.3496 30.9705 25.2912 28.1162 28.1453 C 25.2622 30.9995 21.3206 32.7662 16.9706 32.7662 C 12.6206 32.7662 8.679 30.9995 5.8249 28.1453 C 2.9707 25.2912 1.204 21.3496 1.204 16.9996 C 1.204 12.6496 2.9707 8.708 5.8249 5.854 C 8.679 2.9997 12.6206 1.2331 16.9706 1.2331 Z "/>
    <path id="ID0.7118545458652079" fill="#99B2FF" stroke="#99B2FF" stroke-width="2" d="M 16.975 7.15 C 19.727 7.15 22.221 8.268 24.027 10.073 C 25.832 11.879 26.95 14.373 26.95 17.125 C 26.95 19.877 25.832 22.371 24.027 24.177 C 22.221 25.982 19.727 27.1 16.975 27.1 C 14.223 27.1 11.729 25.982 9.923 24.177 C 8.118 22.371 7 19.877 7 17.125 C 7 14.373 8.118 11.879 9.923 10.073 C 11.729 8.268 14.223 7.15 16.975 7.15 Z "/>
  </g>
  <path id="ID0.7884632195346057" fill="#000000" opacity="1" d="M 16.872 10.482 C 14.364 10.482 12.806 12.535 12.806 14.891 C 12.806 17.303 14.573 18.861 16.701 18.861 C 18.126 18.861 19.152 18.215 19.855 17.398 C 19.722 21.027 18.544 22.49 16.416 22.49 C 15.371 22.49 14.364 22.187 13.794 21.863 L 13.395 22.833 C 13.984 23.232 15.162 23.63 16.473 23.63 C 19.532 23.63 21.223 21.161 21.223 16.848 L 21.223 16.012 C 21.223 12.421 19.665 10.482 16.872 10.482 Z M 16.891 11.641 C 18.981 11.641 19.855 13.219 19.855 15.65 L 19.855 15.993 C 19.304 16.79 18.202 17.684 16.929 17.684 C 15.352 17.684 14.155 16.809 14.155 14.758 C 14.155 12.952 15.181 11.641 16.891 11.641 Z " stroke-width="1"/>
</svg>