<svg xmlns="http://www.w3.org/2000/svg" xmlns:xlink="http://www.w3.org/1999/xlink" version="1.1" width="40.35490036010742" height="40.354801177978516" viewBox="-0.12039998173713684 -0.1450999677181244 40.35490036010742 40.354801177978516">
  <!-- Exported by Scratch - http://scratch.mit.edu/ -->
  <path id="ID0.6319170827046037" fill="#FFFFFF" stroke="#99B2FF" stroke-width="0.6559143662452698" d="M 20.057 0.3549 C 25.486 0.3549 30.4054 2.5597 33.9673 6.122 C 37.5296 9.6839 39.7345 14.6033 39.7345 20.0323 C 39.7345 25.4613 37.5296 30.3807 33.9673 33.9426 C 30.4054 37.5049 25.486 39.7097 20.057 39.7097 C 14.628 39.7097 9.7087 37.5049 6.1467 33.9426 C 2.5845 30.3807 0.3796 25.4613 0.3796 20.0323 C 0.3796 14.6033 2.5845 9.6839 6.1467 6.122 C 9.7087 2.5597 14.628 0.3549 20.057 0.3549 Z "/>
  <g id="ID0.3127390374429524">
    <g id="ID0.005660685710608959">
      <g id="ID0.2200355175882578">
        <path id="ID0.6319170827046037" fill="#FFF1F1" stroke="#FFE3E3" stroke-width="0.2496369014142544" d="M 17.8004 7.6603 C 19.5993 8.6768 20.8165 10.3285 21.3298 12.1758 C 21.8432 14.023 21.6527 16.0659 20.6362 17.8648 C 19.6196 19.6637 17.968 20.8809 16.1207 21.3942 C 14.2734 21.9076 12.2305 21.7171 10.4316 20.7005 C 8.6327 19.684 7.4155 18.0323 6.9023 16.1851 C 6.3889 14.3378 6.5794 12.2949 7.5959 10.496 C 8.6124 8.6971 10.2641 7.4799 12.1114 6.9667 C 13.9587 6.4533 16.0015 6.6438 17.8004 7.6603 Z "/>
        <path id="ID0.7118545458652079" fill="#FFE3E3" stroke="#FFE3E3" stroke-width="0.9499999870317072" d="M 16.3917 10.0617 C 17.5297 10.7048 18.2998 11.75 18.6249 12.9185 C 18.9493 14.0871 18.8288 15.3797 18.1857 16.5178 C 17.5427 17.6559 16.4975 18.426 15.329 18.751 C 14.1604 19.0755 12.8677 18.955 11.7297 18.3119 C 10.5916 17.6688 9.8215 16.6236 9.4964 15.4552 C 9.172 14.2865 9.2925 12.9939 9.9356 11.8558 C 10.5787 10.7177 11.6238 9.9476 12.7923 9.6226 C 13.961 9.2982 15.2536 9.4186 16.3917 10.0617 Z "/>
      </g>
      <path id="ID0.28466089768335223" fill="#FF0000" stroke="none" d="M 16.7395 14.9454 L 20.1719 16.885 L 19.5409 18.0016 L 16.1085 16.062 L 16.7395 14.9454 Z " stroke-width="0.3764408254741726"/>
    </g>
    <g id="ID0.005660685710608959">
      <g id="ID0.2200355175882578">
        <path id="ID0.6319170827046037" fill="#FFDBDB" stroke="#FFCCCC" stroke-width="0.2496369014142544" d="M 23.6504 12.8603 C 25.4493 13.8768 26.6665 15.5285 27.1798 17.3758 C 27.6932 19.223 27.5027 21.2659 26.4862 23.0648 C 25.4696 24.8637 23.818 26.0809 21.9707 26.5942 C 20.1234 27.1076 18.0805 26.9171 16.2816 25.9005 C 14.4827 24.884 13.2655 23.2323 12.7523 21.3851 C 12.2389 19.5378 12.4294 17.4949 13.4459 15.696 C 14.4624 13.8971 16.1141 12.6799 17.9614 12.1667 C 19.8087 11.6533 21.8515 11.8438 23.6504 12.8603 Z "/>
        <path id="ID0.7118545458652079" fill="#FFCCCC" stroke="#FFCCCC" stroke-width="0.9499999870317072" d="M 22.2417 15.2617 C 23.3797 15.9048 24.1498 16.95 24.4749 18.1185 C 24.7993 19.2871 24.6788 20.5797 24.0357 21.7178 C 23.3927 22.8559 22.3475 23.626 21.179 23.951 C 20.0104 24.2755 18.7177 24.155 17.5797 23.5119 C 16.4416 22.8688 15.6715 21.8236 15.3464 20.6552 C 15.022 19.4865 15.1425 18.1939 15.7856 17.0558 C 16.4287 15.9177 17.4738 15.1476 18.6423 14.8226 C 19.811 14.4982 21.1036 14.6186 22.2417 15.2617 Z "/>
      </g>
      <path id="ID0.28466089768335223" fill="#FF0000" stroke="none" d="M 22.6395 20.1454 L 26.0719 22.085 L 25.4409 23.2016 L 22.0085 21.262 L 22.6395 20.1454 Z " stroke-width="0.3764408254741726"/>
    </g>
    <g id="ID0.005660685710608959">
      <g id="ID0.2200355175882578">
        <path id="ID0.6319170827046037" fill="#FFCCCC" stroke="#FF9999" stroke-width="0.2496369014142544" d="M 29.6504 18.1603 C 31.4493 19.1768 32.6665 20.8285 33.1798 22.6758 C 33.6932 24.523 33.5027 26.5659 32.4862 28.3648 C 31.4696 30.1637 29.818 31.3809 27.9707 31.8942 C 26.1234 32.4076 24.0805 32.2171 22.2816 31.2005 C 20.4827 30.184 19.2655 28.5323 18.7523 26.6851 C 18.2389 24.8378 18.4294 22.7949 19.4459 20.996 C 20.4624 19.1971 22.1141 17.9799 23.9614 17.4667 C 25.8087 16.9533 27.8515 17.1438 29.6504 18.1603 Z "/>
        <path id="ID0.7118545458652079" fill="#FF9999" stroke="#FF9999" stroke-width="0.9499999870317072" d="M 28.2417 20.5617 C 29.3797 21.2048 30.1498 22.25 30.4749 23.4185 C 30.7993 24.5871 30.6788 25.8797 30.0357 27.0178 C 29.3927 28.1559 28.3475 28.926 27.179 29.251 C 26.0104 29.5755 24.7177 29.455 23.5797 28.8119 C 22.4416 28.1688 21.6715 27.1236 21.3464 25.9552 C 21.022 24.7865 21.1425 23.4939 21.7856 22.3558 C 22.4287 21.2177 23.4738 20.4476 24.6423 20.1226 C 25.811 19.7982 27.1036 19.9186 28.2417 20.5617 Z "/>
      </g>
      <path id="ID0.28466089768335223" fill="#FF0000" stroke="none" d="M 28.6395 25.4454 L 32.0719 27.385 L 31.4409 28.5016 L 28.0085 26.562 L 28.6395 25.4454 Z " stroke-width="0.3764408254741726"/>
    </g>
  </g>
</svg>