<svg xmlns="http://www.w3.org/2000/svg" xmlns:xlink="http://www.w3.org/1999/xlink" version="1.1" width="29.197832942008972" height="29.197832942008972" viewBox="-0.5753164887428284 -0.5643164813518524 29.197832942008972 29.197832942008972">
  <!-- Exported by Scratch - http://scratch.mit.edu/ -->
  <g id="ID0.2200355175882578">
    <path id="ID0.6319170827046037" fill="#99FFFF" stroke="#00CCCC" stroke-width="0.4576062560081482" d="M 14.0236 0.3064 C 17.8112 0.3064 21.2433 1.8446 23.7283 4.3299 C 26.2135 6.8149 27.7518 10.247 27.7518 14.0346 C 27.7518 17.8222 26.2135 21.2542 23.7283 23.7392 C 21.2433 26.2245 17.8112 27.7628 14.0236 27.7628 C 10.236 27.7628 6.8039 26.2245 4.3189 23.7392 C 1.8337 21.2542 0.2954 17.8222 0.2954 14.0346 C 0.2954 10.247 1.8337 6.8149 4.3189 4.3299 C 6.8039 1.8446 10.236 0.3064 14.0236 0.3064 Z "/>
    <path id="ID0.7118545458652079" fill="#00CCCC" stroke="#00CCCC" stroke-width="1.741433024406433" d="M 13.9416 5.5202 C 16.3378 5.5202 18.5094 6.4937 20.0819 8.0654 C 21.6536 9.6379 22.627 11.8094 22.627 14.2056 C 22.627 16.6019 21.6536 18.7734 20.0819 20.3459 C 18.5094 21.9176 16.3378 22.891 13.9416 22.891 C 11.5454 22.891 9.3738 21.9176 7.8013 20.3459 C 6.2297 18.7734 5.2562 16.6019 5.2562 14.2056 C 5.2562 11.8094 6.2297 9.6379 7.8013 8.0654 C 9.3738 6.4937 11.5454 5.5202 13.9416 5.5202 Z "/>
  </g>
  <path id="ID0.28466089768335223" fill="#009999" stroke="none" d="M 18.9619 12.4828 L 26.1888 12.4828 L 26.1888 14.8337 L 18.9619 14.8337 L 18.9619 12.4828 Z " stroke-width="0.6900489471848041"/>
</svg>