<svg xmlns="http://www.w3.org/2000/svg" xmlns:xlink="http://www.w3.org/1999/xlink" version="1.1" width="33.533098220825195" height="33.53310012817383" viewBox="0.20399999618530273 0.2331000566482544 33.533098220825195 33.53310012817383">
  <!-- Exported by Scratch - http://scratch.mit.edu/ -->
  <g id="ID0.2200355175882578">
    <path id="ID0.6319170827046037" fill="#CCD8FF" stroke="#99B2FF" stroke-width="0.5255513787269592" d="M 16.9706 1.2331 C 21.3206 1.2331 25.2622 2.9997 28.1162 5.854 C 30.9705 8.708 32.7371 12.6496 32.7371 16.9996 C 32.7371 21.3496 30.9705 25.2912 28.1162 28.1453 C 25.2622 30.9995 21.3206 32.7662 16.9706 32.7662 C 12.6206 32.7662 8.679 30.9995 5.8249 28.1453 C 2.9707 25.2912 1.204 21.3496 1.204 16.9996 C 1.204 12.6496 2.9707 8.708 5.8249 5.854 C 8.679 2.9997 12.6206 1.2331 16.9706 1.2331 Z "/>
    <path id="ID0.7118545458652079" fill="#99B2FF" stroke="#99B2FF" stroke-width="2" d="M 16.975 7.15 C 19.727 7.15 22.221 8.268 24.027 10.073 C 25.832 11.879 26.95 14.373 26.95 17.125 C 26.95 19.877 25.832 22.371 24.027 24.177 C 22.221 25.982 19.727 27.1 16.975 27.1 C 14.223 27.1 11.729 25.982 9.923 24.177 C 8.118 22.371 7 19.877 7 17.125 C 7 14.373 8.118 11.879 9.923 10.073 C 11.729 8.268 14.223 7.15 16.975 7.15 Z "/>
  </g>
  <path id="ID0.9080216260626912" fill="#000000" opacity="1" d="M 16.499 24.095 C 19.292 24.095 20.945 22.176 20.945 19.915 C 20.945 17.255 19.387 16.077 16.803 16.077 C 16.271 16.077 15.492 16.191 14.941 16.343 L 15.226 12.315 L 20.508 12.315 L 20.508 11.137 L 14.124 11.137 L 13.668 17.73 C 14.257 17.464 15.454 17.103 16.328 17.103 C 18.38 17.103 19.539 17.901 19.539 19.915 C 19.539 21.758 18.342 22.955 16.29 22.955 C 15.226 22.955 13.915 22.48 13.212 22.024 L 12.965 23.107 C 13.725 23.677 15.017 24.095 16.499 24.095 Z " stroke-width="1"/>
</svg>