<svg xmlns="http://www.w3.org/2000/svg" xmlns:xlink="http://www.w3.org/1999/xlink" version="1.1" width="97.75006687641144" height="97.749960064888" viewBox="0.15241974592208862 0.11021965742111206 97.75006687641144 97.749960064888">
  <!-- Exported by Scratch - http://scratch.mit.edu/ -->
  <path id="ID0.4527167957276106" fill="#CCD8FF" stroke="#CCD8FF" stroke-width="1.3767606019973755" d="M 49.0275 0.7986 C 62.3215 0.7986 74.3681 6.1982 83.0913 14.9214 C 91.8144 23.6446 97.2141 35.6912 97.2141 48.9852 C 97.2141 62.2792 91.8144 74.3259 83.0913 83.049 C 74.3681 91.7722 62.3215 97.1718 49.0275 97.1718 C 35.7335 97.1718 23.6868 91.7722 14.9637 83.049 C 6.2405 74.3259 0.8408 62.2792 0.8408 48.9852 C 0.8408 35.6912 6.2405 23.6446 14.9637 14.9214 C 23.6868 6.1982 35.7335 0.7986 49.0275 0.7986 Z "/>
  <path id="ID0.32636512676253915" fill="#000000" opacity="1" d="M 8.8306 40.555 L 8.8306 57.4464 L 10.4455 57.4464 L 10.4455 50.0367 L 13.9642 50.0367 L 18.3534 57.4464 L 20.2571 57.4464 L 15.5792 49.7465 L 15.5792 49.6631 C 17.895 49.0338 19.0979 47.6255 19.0979 45.2342 C 19.0979 42.3143 17.3425 40.555 13.592 40.555 L 8.8306 40.555 Z M 23.1558 40.555 L 23.1558 57.4464 L 33.133 57.4464 L 33.133 56.0394 L 24.7284 56.0394 L 24.7284 49.4564 L 31.1458 49.4564 L 31.1458 48.0495 L 24.7284 48.0495 L 24.7284 41.9222 L 33.0509 41.9222 L 33.0509 40.555 L 23.1558 40.555 Z M 36.7352 40.555 L 36.7352 57.4464 L 38.3501 57.4464 L 38.3501 50.45 L 41.9099 50.45 C 45.2073 50.45 47.2502 48.7291 47.2502 45.482 C 47.2502 42.3859 45.5213 40.555 41.6198 40.555 L 36.7352 40.555 Z M 50.3145 40.555 L 50.3145 57.4464 L 59.8783 57.4464 L 59.8783 56.0394 L 51.9295 56.0394 L 51.9295 40.555 L 50.3145 40.555 Z M 67.5371 40.555 L 61.2853 57.4464 L 62.8592 57.4464 L 64.7629 52.2716 L 71.7593 52.2716 L 73.6644 57.4464 L 75.3614 57.4464 L 69.152 40.555 L 67.5371 40.555 Z M 76.3551 40.555 L 81.9445 50.6567 L 81.9445 57.4464 L 83.5594 57.4464 L 83.5594 50.6567 L 89.1899 40.555 L 87.5749 40.555 L 82.8546 49.1252 L 82.8135 49.1252 L 78.0521 40.555 L 76.3551 40.555 Z M 10.4455 41.9222 L 13.5098 41.9222 C 16.2774 41.9222 17.3187 43.1185 17.3187 45.2342 C 17.3187 47.4241 16.329 48.7529 13.5098 48.7529 L 10.4455 48.7529 L 10.4455 41.9222 Z M 38.3501 41.9222 L 41.4541 41.9222 C 44.4999 41.9222 45.471 43.1145 45.471 45.6065 C 45.471 47.9474 44.3568 49.1252 41.5376 49.1252 L 38.3501 49.1252 L 38.3501 41.9222 Z M 68.2406 42.7502 L 68.2816 42.7502 L 71.2214 50.8647 L 65.2187 50.8647 L 68.2406 42.7502 Z " stroke-width="1.3248144388198853"/>
</svg>